<?xml version="1.0" encoding="UTF-8"?>
<svg xmlns="http://www.w3.org/2000/svg" xmlns:xlink="http://www.w3.org/1999/xlink" width="0" height="0">

<symbol id="coinbase" width="405px" height="88px" viewBox="0 0 405 88">
    <title>coinbasekk</title>
    <g stroke="none" stroke-width="1" fill="none" fill-rule="evenodd">
        <g id="All" transform="translate(0, -29)" fill="#000000" fill-rule="nonzero">
            <g id="coinbase" transform="translate(0, 29)">
                <path d="M25.902027,88 C12.8125,88 0,78.4723164 0,56.9649718 C0,35.3875706 12.8125,26 25.902027,26 C32.3429054,26 37.3986486,27.6813559 41,30.0632768 L37.0523649,38.820339 C34.6283784,37.0689266 31.027027,35.9480226 27.4256757,35.9480226 C19.5304054,35.9480226 12.3277027,42.2531073 12.3277027,56.8248588 C12.3277027,71.3966102 19.7381757,77.8418079 27.4256757,77.8418079 C31.027027,77.8418079 34.6283784,76.720904 37.0523649,74.9694915 L41,83.9367232 C37.2601351,86.4587571 32.3429054,88 25.902027,88" id="Fill-1"></path>
                <path d="M72,88 C55.2459893,88 46,74.619209 46,56.9649718 C46,39.3107345 55.1764706,26 72,26 C88.7540107,26 98,39.240678 98,56.9649718 C98,74.619209 88.7540107,88 72,88 Z M72,35.5977401 C62.684492,35.5977401 58.0962567,44.0045198 58.0962567,56.8248588 C58.0962567,69.6451977 62.684492,78.1220339 72,78.1220339 C81.315508,78.1220339 85.9037433,69.6451977 85.9037433,56.8248588 C85.9037433,44.0045198 81.315508,35.5977401 72,35.5977401 Z" id="Fill-2"></path>
                <path d="M114,15.72 C110.126214,15.72 107,12.64 107,8.86 C107,5.08 110.126214,2 114,2 C117.873786,2 121,5.08 121,8.86 C121,12.64 117.805825,15.72 114,15.72 Z M108.087379,26.5 L119.912621,26.5 L119.912621,86 L108.087379,86 L108.087379,26.5 Z" id="Fill-3"></path>
                <path d="M167.717647,86.9297235 L167.717647,47.0829493 C167.717647,40.125576 163.482353,35.7684332 155.152941,35.7684332 C150.705882,35.7684332 146.611765,36.5414747 144.141176,37.5253456 L144.141176,87 L132,87 L132,30.2165899 C138,27.7569124 145.694118,26 155.082353,26 C171.882353,26 180,33.3087558 180,45.9585253 L180,87 L167.717647,87" id="Fill-4"></path>
                <path d="M211.849858,88 C204.215297,88 196.650142,86.1082803 192,83.7961783 L192,0 L203.937677,0 L203.937677,28.7261146 C206.783286,27.3949045 211.364023,26.2738854 215.458924,26.2738854 C230.65864,26.2738854 241,37.343949 241,55.5605096 C241,78.0509554 229.478754,88 211.849858,88 Z M213.376771,35.7324841 C210.114731,35.7324841 206.228045,36.5031847 203.937677,37.6942675 L203.937677,76.7898089 C205.672805,77.5605096 209.073654,78.3312102 212.474504,78.3312102 C221.983003,78.3312102 228.992918,71.6751592 228.992918,56.4713376 C229.062323,43.4394904 222.954674,35.7324841 213.376771,35.7324841 Z" id="Fill-5"></path>
                <path d="M274.661721,88 C257.646884,88 249,81.0644068 249,69.2949153 C249,52.6915254 266.5727,49.7491525 284.494065,48.7683616 L284.494065,44.9853107 C284.494065,37.4892655 279.543027,34.8271186 271.942136,34.8271186 C266.363501,34.8271186 259.529674,36.5785311 255.554896,38.4700565 L252.486647,30.2033898 C257.228487,28.1016949 265.247774,26 273.197329,26 C287.353116,26 296,31.5344633 296,46.2463277 L296,83.7966102 C291.746291,86.1084746 283.029674,88 274.661721,88 L274.661721,88 Z M284.563798,56.8248588 C272.430267,57.4553672 260.366469,58.5062147 260.366469,69.0847458 C260.366469,75.3898305 265.178042,79.2429379 274.313056,79.2429379 C278.148368,79.2429379 282.681009,78.6124294 284.563798,77.7016949 L284.563798,56.8248588 Z" id="Fill-6"></path>
                <path d="M322.674497,88 C315.697987,88 308.369128,86.1084746 304,83.7966102 L308.087248,74.5491525 C311.187919,76.440678 317.741611,78.4022599 322.322148,78.4022599 C328.875839,78.4022599 333.244966,75.179661 333.244966,70.2056497 C333.244966,64.8112994 328.66443,62.7096045 322.604027,60.4677966 C314.57047,57.4553672 305.620805,53.8124294 305.620805,42.6734463 C305.620805,32.8655367 313.302013,26 326.620805,26 C333.879195,26 339.869128,27.7514124 344.097315,30.2033898 L340.291946,38.6101695 C337.614094,36.9288136 332.258389,35.1073446 327.959732,35.1073446 C321.61745,35.1073446 318.09396,38.4 318.09396,42.7435028 C318.09396,48.1378531 322.533557,50.0293785 328.45302,52.2711864 C336.768456,55.3536723 346,58.7864407 346,70.4158192 C345.92953,80.9943503 337.684564,88 322.674497,88" id="Fill-7"></path>
                <path d="M404.894094,56.7548023 L365.002716,62.2892655 C366.202987,73.0079096 373.263408,78.4022599 383.35981,78.4022599 C389.361168,78.4022599 395.856755,76.9310734 399.951799,74.759322 L403.48201,83.7966102 C398.822132,86.2485876 390.773252,88 382.512559,88 C363.590631,88 353,75.9502825 353,56.9649718 C353,38.7502825 363.23761,26 380.041412,26 C395.644942,26 404.894094,36.1581921 404.894094,52.2011299 C405.035302,53.6723164 405.035302,55.2135593 404.894094,56.7548023 Z M379.970808,34.8971751 C370.651052,34.8971751 364.508486,41.9728814 364.296673,54.3728814 L393.385608,50.379661 C393.244399,40.0112994 387.949084,34.8971751 379.970808,34.8971751 L379.970808,34.8971751 Z" id="Fill-8"></path>
            </g>
        </g>
    </g>
</symbol>

<symbol id="apple" viewBox="0 0 228 280">
    <title>apple</title>
    <g stroke="none" stroke-width="1" fill="none" fill-rule="evenodd">
        <g id="All" transform="translate(-780, 0)" fill="#000000" fill-rule="nonzero">
            <g id="apple" transform="translate(780, 0)">
                <path d="M190.418643,148.755197 C190.812136,191.128546 227.592507,205.229164 228,205.408653 C227.689005,206.402591 222.1231,225.502897 208.622331,245.232163 C196.951031,262.289596 184.838738,279.283533 165.757564,279.635511 C147.008385,279.980989 140.979488,268.518206 119.543855,268.518206 C98.1147211,268.518206 91.4163356,279.284033 73.6681391,279.981489 C55.2499541,280.678946 41.2241939,261.537143 29.4568952,244.542206 C5.41080637,209.77938 -12.9653794,146.310849 11.7091987,103.468529 C23.966989,82.1928595 45.8726145,68.7202021 69.6492079,68.3747237 C87.7353986,68.0297453 104.806107,80.5419627 115.862918,80.5419627 C126.912729,80.5419627 147.657374,65.4949038 169.466001,67.7047656 C178.595845,68.0847418 204.223907,71.3925349 220.679625,95.4790285 C219.353648,96.3009771 190.100648,113.329912 190.418643,148.755197 M155.181745,44.706204 C164.960078,32.8704442 171.541465,16.3939747 169.745996,0 C155.651237,0.566464572 138.607529,9.39191261 128.497702,21.2211728 C119.437356,31.6965176 111.502492,48.462969 113.643456,64.532464 C129.353687,65.747888 145.402912,56.5494633 155.181745,44.706204" id="Shape"></path>
            </g>
        </g>
    </g>
</symbol>

<symbol id="american-express" width="235px" height="222px" viewBox="0 0 235 222">
    <title>american-express</title>
    <g stroke="none" stroke-width="1" fill="none" fill-rule="evenodd">
        <g id="All" transform="translate(-449, -29)" fill="#000000" fill-rule="nonzero">
            <g id="Shape" transform="translate(449, 29)">
                <path d="M5.9021918,219.783401 L5.16535858,219.783401 C5.16535858,219.4156 4.98081521,218.861734 4.98081521,218.675771 C4.98081521,218.492593 4.98081521,218.12469 4.4272882,218.12469 L3.32013109,218.12469 L3.32013109,219.783401 L2.76650098,219.783401 L2.76650098,215.909431 L4.4272882,215.909431 C5.16535858,215.909431 5.71764843,216.095394 5.71764843,216.831098 C5.71764843,217.384964 5.53310506,217.570824 5.34990195,217.752764 C5.53444532,217.938727 5.71764843,218.123349 5.71764843,218.492593 L5.71764843,219.229637 C5.71764843,219.4156 5.71764843,219.4156 5.9021918,219.4156 L5.9021918,219.783401 Z M5.16535858,217.017061 C5.16535858,216.463194 4.79637494,216.463194 4.61183157,216.463194 L3.32013109,216.463194 L3.32013109,217.570824 L4.4272882,217.570824 C4.79637494,217.570824 5.16535858,217.384964 5.16535858,217.017061 Z M8.3009463,217.754105 C8.3009463,215.541528 6.45705906,213.694173 4.05820146,213.694173 C1.84522749,213.694173 0,215.541528 0,217.754105 C0,220.152645 1.84522749,222 4.05820146,222 C6.4557188,221.998659 8.3009463,220.152645 8.3009463,217.754105 Z M7.74741929,217.754105 C7.74741929,219.784741 6.08797233,221.260274 4.05820146,221.260274 C2.0284306,221.260274 0.553527009,219.783401 0.553527009,217.754105 C0.553527009,215.909431 2.02977086,214.248039 4.05820146,214.248039 C6.08663207,214.248039 7.74741929,215.909431 7.74741929,217.754105 Z M235,143.202061 C235,148.738866 231.495429,151.319347 225.22281,151.319347 L213.235326,151.319347 L213.235326,145.782541 L225.22281,145.782541 C226.329967,145.782541 227.252581,145.59926 227.623008,145.231356 C227.990754,144.860875 228.359738,144.307008 228.359738,143.569964 C228.359738,142.830238 227.992094,142.093091 227.623008,141.72529 C227.252581,141.354705 226.515851,141.171424 225.408693,141.171424 C219.692385,140.985461 212.497256,141.354705 212.497256,133.236182 C212.497256,129.54405 214.894773,125.484117 221.350492,125.484117 L233.7083,125.484117 L233.7083,131.020923 L222.271766,131.020923 C221.167289,131.020923 220.427878,131.020923 219.874248,131.388723 C219.320721,131.94259 218.952975,132.496353 218.952975,133.41936 C218.952975,134.34247 219.506605,134.896233 220.243335,135.266818 C220.982746,135.4501 221.720816,135.634619 222.643533,135.634619 L225.962324,135.634619 C229.466895,135.634619 231.681209,136.371766 233.157453,137.665255 C234.26193,138.956166 235,140.619002 235,143.202061 Z M208.991241,137.665255 C207.5151,136.371766 205.300786,135.634619 201.796112,135.634619 L198.477321,135.634619 C197.556047,135.634619 196.816637,135.448656 196.079804,135.266818 C195.340393,134.896233 194.789443,134.34247 194.789443,133.41936 C194.789443,132.496353 194.972646,131.94259 195.71082,131.388723 C196.264347,131.020923 197.001077,131.020923 198.108234,131.020923 L209.544871,131.020923 L209.544871,125.484117 L197.186961,125.484117 C190.545358,125.484117 188.331147,129.54405 188.331147,133.236182 C188.331147,141.353365 195.526277,140.985461 201.245162,141.171424 C202.349639,141.171424 203.089152,141.354705 203.456796,141.72529 C203.824542,142.093091 204.19631,142.830238 204.19631,143.569964 C204.19631,144.307008 203.825883,144.860875 203.456796,145.231356 C202.903269,145.59926 202.166539,145.782541 201.059382,145.782541 L189.069217,145.782541 L189.069217,151.319347 L201.059382,151.319347 C207.329217,151.319347 210.835231,148.737526 210.835231,143.202061 C210.835231,140.619002 210.098398,138.956166 208.991241,137.665255 Z M185.38,145.969845 L170.810558,145.969845 L170.810558,140.802283 L185.012253,140.802283 L185.012253,135.6373 L170.810558,135.6373 L170.810558,130.837642 L185.38,130.837642 L185.38,125.486799 L164.722483,125.486799 L164.722483,151.320688 L185.38,151.320688 L185.38,145.969845 Z M158.080881,126.778947 C156.05111,125.671318 153.653695,125.485458 150.518108,125.485458 L136.31631,125.485458 L136.31631,151.319347 L142.586145,151.319347 L142.586145,141.908469 L149.227748,141.908469 C151.439381,141.908469 152.732319,142.094431 153.655036,143.016098 C154.762193,144.307008 154.762193,146.522267 154.762193,148.183763 L154.762193,151.319347 L160.847485,151.319347 L160.847485,146.336304 C160.847485,143.937867 160.664282,142.830238 159.926211,141.539328 C159.372581,140.799602 158.268104,139.877832 156.791964,139.324069 C158.449967,138.772884 161.219252,136.557626 161.219252,132.496353 C161.217912,129.545391 160.110755,127.883895 158.080881,126.778947 Z M123.034445,125.485458 L103.296862,125.485458 L95.3650023,133.974567 L87.8021264,125.485458 L62.9005247,125.485458 L62.9005247,151.319347 L87.4343799,151.319347 L95.3663426,142.830238 L102.929219,151.319347 L114.91928,151.319347 L114.91928,142.648298 L122.666699,142.648298 C128.015261,142.648298 133.366503,141.171424 133.366503,133.974567 C133.365162,126.962229 127.830717,125.485458 123.034445,125.485458 Z M153.100065,136.189826 C152.178792,136.557626 151.256178,136.557626 150.149021,136.557626 L142.586145,136.743589 L142.586145,130.836301 L150.149021,130.836301 C151.256178,130.836301 152.363335,130.836301 153.100065,131.390064 C153.839476,131.760649 154.390426,132.497694 154.390426,133.605323 C154.390426,134.712952 153.839476,135.635959 153.100065,136.189826 Z M123.034445,137.480736 L114.918042,137.480736 L114.918042,130.836301 L123.034445,130.836301 C125.24876,130.836301 126.723663,131.760649 126.723663,133.974567 C126.723663,136.189826 125.247419,137.480736 123.034445,137.480736 Z M99.2386604,138.402403 L108.829967,128.25448 L108.829967,149.10677 L99.2386604,138.402403 Z M84.297452,145.969845 L68.9871568,145.969845 L68.9871568,140.802283 L82.6366648,140.802283 L82.6366648,135.6373 L68.9871568,135.6373 L68.9871568,130.837642 L84.4819953,130.837642 L91.3066978,138.403743 L84.297452,145.969845 Z M217.844477,106.847086 L208.991241,106.847086 L197.370164,87.4703291 L197.370164,106.847086 L184.829153,106.847086 L182.428955,101.125659 L169.517518,101.125659 L167.12,106.847086 L159.924871,106.847086 C156.973723,106.847086 153.100065,106.108701 150.888432,103.893443 C148.858661,101.679525 147.751504,98.7272218 147.751504,94.1134233 C147.751504,90.23801 148.305134,86.731944 151.070295,83.96416 C152.914182,81.9335234 156.235653,81.011857 160.477058,81.011857 L166.379249,81.011857 L166.379249,86.5486627 L160.477058,86.5486627 C158.265424,86.5486627 156.972486,86.9178037 155.682126,88.025433 C154.574969,89.1330623 154.021339,91.1623581 154.021339,93.9301421 C154.021339,96.6978229 154.574969,98.7284595 155.682126,100.020711 C156.6034,100.942377 158.265424,101.311621 159.923531,101.311621 L162.691372,101.311621 L171.544608,81.0131978 L180.768168,81.0131978 L191.097648,105.371554 L191.097648,81.011857 L200.690295,81.011857 L211.573302,98.9117407 L211.573302,81.011857 L217.843137,81.011857 L217.843137,106.847086 L217.844477,106.847086 Z M144.615916,81.011857 L138.346081,81.011857 L138.346081,106.847086 L144.615916,106.847086 L144.615916,81.011857 Z M131.518595,82.1194863 C129.488824,81.011857 127.27719,81.011857 124.141602,81.011857 L109.937124,81.011857 L109.937124,106.847086 L116.023756,106.847086 L116.023756,97.4349704 L122.664018,97.4349704 C124.878333,97.4349704 126.354576,97.6195925 127.27585,98.5425997 C128.383007,99.834748 128.197123,102.050007 128.197123,103.525539 L128.197123,106.847086 L134.466959,106.847086 L134.466959,101.679525 C134.466959,99.4656069 134.283859,98.3579776 133.362482,97.0657263 C132.808955,96.3273411 131.701798,95.4043339 130.411438,94.8518085 C132.069544,94.1134233 134.838727,92.0841276 134.838727,88.0240922 C134.840066,85.0717893 133.547025,83.4103969 131.518595,82.1194863 Z M105.509836,101.496243 L91.1222575,101.496243 L91.1222575,96.3286819 L105.325293,96.3286819 L105.325293,90.9778391 L91.1222575,90.9778391 L91.1222575,86.3640406 L105.509836,86.3640406 L105.509836,81.0131978 L84.850979,81.0131978 L84.850979,106.848427 L105.509836,106.848427 L105.509836,101.496243 Z M80.2392505,81.011857 L70.0943139,81.011857 L62.531438,98.5425997 L54.415035,81.011857 L44.4546418,81.011857 L44.4546418,105.370213 L33.9407215,81.011857 L24.7183986,81.011857 L13.6508482,106.847086 L20.2911104,106.847086 L22.6886278,101.125659 L35.6000654,101.125659 L37.9975827,106.847086 L50.5412738,106.847086 L50.5412738,86.5486627 L59.5790534,106.847086 L64.927615,106.847086 L73.9666317,86.5486627 L73.9666317,106.847086 L80.2379102,106.847086 L80.2379102,81.011857 L80.2392505,81.011857 Z M180.217322,95.5901936 L175.973236,85.4410334 L171.731832,95.5901936 L180.217322,95.5901936 Z M126.723663,91.5316022 C125.802287,92.0854684 124.879673,92.0854684 123.587972,92.0854684 L116.023756,92.0854684 L116.023756,86.3653815 L123.586632,86.3653815 C124.693789,86.3653815 125.982809,86.3653815 126.722323,86.7346256 C127.459053,87.2883887 127.829377,88.0267739 127.829377,89.1330623 C127.829377,90.2393508 127.460393,91.1611204 126.723663,91.5316022 Z M24.9016017,95.5901936 L29.1443466,85.4410334 L33.3870914,95.5901936 L24.9016017,95.5901936 Z M233.525096,0 L13.4649646,0 L13.4649646,93.0071348 L21.0278405,75.8456363 L37.074969,75.8456363 L39.2892832,80.0901906 L39.2892832,75.8456363 L58.1041498,75.8456363 L62.3468946,85.0717893 L66.4050961,75.8456363 L126.354576,75.8456363 C129.119737,75.8456363 131.517254,76.3993994 133.363822,77.874932 L133.363822,75.8456363 L149.779934,75.8456363 L149.779934,77.874932 C152.545198,76.3980585 156.049769,75.8456363 160.109414,75.8456363 L183.903859,75.8456363 L186.118173,80.0901906 L186.118173,75.8456363 L203.641339,75.8456363 L206.22474,80.0901906 L206.22474,75.8456363 L223.377582,75.8456363 L223.377582,112.014648 L206.040197,112.014648 L202.721406,106.479183 L202.721406,112.014648 L181.138595,112.014648 L178.741078,106.110042 L173.389836,106.110042 L170.992421,112.014648 L159.741668,112.014648 C155.31438,112.014648 151.992908,110.907019 149.781275,109.80073 L149.781275,112.014648 L123.034445,112.014648 L123.034445,103.710161 C123.034445,102.602532 122.849902,102.41791 122.111832,102.41791 L121.190558,102.41791 L121.190558,112.013307 L69.5407869,112.013307 L69.5407869,107.399612 L67.6967965,112.013307 L56.8137895,112.013307 L54.9699023,107.584131 L54.9699023,112.013307 L34.1251618,112.013307 L31.9121878,106.108701 L26.5622859,106.108701 L24.1648716,112.013307 L13.4649646,112.013307 L13.4649646,221.075652 L233.525096,221.075652 L233.525096,154.825516 C231.127682,155.933145 227.806211,156.486908 224.48608,156.486908 L208.437714,156.486908 L208.437714,154.27165 C206.593724,155.749864 203.272356,156.486908 200.138005,156.486908 L149.595391,156.486908 L149.595391,148.183763 C149.595391,147.076133 149.412188,147.076133 148.488234,147.076133 L147.56696,147.076133 L147.56696,156.486908 L130.965068,156.486908 L130.965068,146.706889 C128.199804,147.9978 125.062876,147.9978 122.296375,147.9978 L120.451044,147.9978 L120.451044,156.486908 L100.161274,156.486908 L95.3663426,150.950103 L90.0177809,156.486908 L57.3660794,156.486908 L57.3660794,120.319134 L90.5686274,120.319134 L95.3650023,125.853258 L100.530361,120.319134 L122.849902,120.319134 C125.430622,120.319134 129.674707,120.687038 131.518595,122.531815 L131.518595,120.319134 L151.439381,120.319134 C153.469152,120.319134 157.34415,120.687038 159.924871,122.531815 L159.924871,120.319134 L189.991831,120.319134 L189.991831,122.533052 C191.652515,121.056282 194.789443,120.320475 197.554707,120.320475 L214.339803,120.320475 L214.339803,122.533052 C216.186474,121.242245 218.767091,120.320475 222.088562,120.320475 L233.525096,120.320475 L233.525096,0 Z"></path>
            </g>
        </g>
    </g>
</symbol>

<symbol id="hp" width="280px" height="280px" viewBox="0 0 280 280">
    <title>hp</title>
    <g stroke="none" stroke-width="1" fill="none" fill-rule="evenodd">
        <g id="All" transform="translate(-1057, 0)" fill="#000000" fill-rule="nonzero">
            <g id="Path" transform="translate(1057, 0)">
                <path d="M280,140 C280,62.6773547 217.322645,0 140,0 C137.892986,0 135.791583,0.0533066132 133.707014,0.148697395 L105.07014,78.8573146 L130.012024,78.8573146 C144.850902,78.8573146 152.846894,90.2817635 147.768737,104.234068 L112.446092,201.308216 L82.7851703,201.302605 L120.688978,97.256513 L98.3927856,97.256513 L60.4861723,201.302605 L30.8112224,201.302605 L75.3811623,78.8573146 L75.3867735,78.8573146 L102.197194,5.17074148 C43.2456914,21.6593186 0,75.7795591 0,140 C0,206.128257 45.8549098,261.541884 107.496994,276.198397 L133.476954,204.801202 L133.499399,204.801202 L179.331864,78.8573146 L233.957114,78.8573146 C248.812826,78.8573146 256.803206,90.2817635 251.72505,104.234068 L220.689379,189.496593 C218.327054,195.991583 210.740681,201.302605 203.827655,201.302605 L164.453707,201.302605 L135.842084,279.935471 C137.219639,279.974749 138.611222,280 140,280 C217.322645,280 280,217.317034 280,140"></path>
                <polygon points="225 97 202.921298 97 172 183 194.078702 183"></polygon>
            </g>
        </g>
    </g>
</symbol>
</svg>
