<?xml version="1.0" encoding="UTF-8"?>
<svg id="bww-clip" viewBox="0 0 839 258" version="1.1" xmlns="http://www.w3.org/2000/svg" xmlns:xlink="http://www.w3.org/1999/xlink">
    <title>BUILT WITH WEB</title>
   
    <g stroke="none" stroke-width="1" fill="none" fill-rule="evenodd">
        <g fill="#000000" fill-rule="nonzero">
            <path d="M298.2,0 C327.6,0 342.3,12.4 342.3,37.2 L342.3,61.8 C342.3,79.2 337.5,90.5 327.9,95.7 C333.5,98.1 337.3,101.75 339.3,106.65 C341.3,111.55 342.3,118.2 342.3,126.6 L342.3,155.4 C342.3,180.2 327.6,192.6 298.2,192.6 L210,192.6 L209.999,83.785 L151.340426,193 L87,193 L194.234043,0 L298.2,0 Z M283.2,113.4 L261.6,113.4 L261.6,158.1 L283.2,158.1 C288.2,158.1 290.7,155.9 290.7,151.5 L290.7,120 C290.7,115.6 288.2,113.4 283.2,113.4 Z M283.2,34.5 L261.6,34.5 L261.6,78.9 L283.2,78.9 C288.2,78.9 290.7,76.7 290.7,72.3 L290.7,41.1 C290.7,36.7 288.2,34.5 283.2,34.5 Z" id="Combined-Shape"></path>
            <path d="M444.9,0.4 L497.4,0.4 L497.4,155.8 C497.4,180.6 482.7,193 453.3,193 L408.9,193 C379.5,193 364.8,180.6 364.8,155.8 L364.8,0.4 L417.3,0.4 L417.3,148.9 C417.3,153.3 419.8,155.5 424.8,155.5 L437.4,155.5 C442.4,155.5 444.9,153.3 444.9,148.9 L444.9,0.4 Z" id="Path"></path>
            <polygon id="Path" points="521.4 0.4 573.9 34.9 573.9 193 521.4 193"></polygon>
            <polygon id="Path" points="650.4 155.5 710.1 155.5 710.1 193 597.9 193 597.9 0.4 650.4 0.4"></polygon>
            <polygon id="Path" points="838.2 0.4 838.2 37.9 801 37.9 801 193 748.5 193 748.5 37.9 711.6 37.9 711.6 0.4"></polygon>
            <polygon id="Path" points="0 193 107.234043 0 168 0 64.3404255 193"></polygon>
            <polygon id="Path" points="249.079163 219.48 259.593463 219.48 251.327886 258 239.111849 258 234.796732 235.02 230.481614 258 218.265577 258 210 219.48 221.061287 219.48 224.343207 245.4 229.56997 219.48 239.962717 219.48 245.189479 245.4"></polygon>
            <polygon id="Path" points="299.09806 219.48 309.733913 219.48 309.733913 258 299.09806 258"></polygon>
            <polygon id="Path" points="374.582228 219.48 374.582228 226.98 367.045967 226.98 367.045967 258 356.410114 258 356.410114 226.98 348.934628 226.98 348.934628 219.48"></polygon>
            <polygon id="Path" points="431.894282 219.48 442.347806 219.48 442.347806 258 431.894282 258 431.894282 242.76 424.236468 242.76 424.236468 258 413.782944 258 413.782944 219.48 424.236468 219.48 424.236468 235.26 431.894282 235.26"></polygon>
            <polygon id="Path" points="569.552608 219.48 580.066908 219.48 571.801331 258 559.585294 258 555.270177 235.02 550.955059 258 538.739022 258 530.473445 219.48 541.534732 219.48 544.816653 245.4 550.043415 219.48 560.436162 219.48 565.662925 245.4"></polygon>
            <polygon id="Path" points="630.207358 250.5 643.517369 250.5 643.517369 258 619.571505 258 619.571505 219.48 642.970382 219.48 642.970382 226.98 630.207358 226.98 630.207358 234.84 641.207869 234.84 641.207869 242.34 630.207358 242.34"></polygon>
            <path d="M699.674672,233.94 L699.674672,227.7 C699.674672,226.82 699.168203,226.38 698.155265,226.38 L693.779371,226.38 L693.779371,235.26 L698.155265,235.26 C699.168203,235.26 699.674672,234.82 699.674672,233.94 Z M699.674672,249.78 L699.674672,243.48 C699.674672,242.6 699.168203,242.16 698.155265,242.16 L693.779371,242.16 L693.779371,251.1 L698.155265,251.1 C699.168203,251.1 699.674672,250.66 699.674672,249.78 Z M683.325847,219.48 L701.19408,219.48 C707.150158,219.48 710.128197,221.96 710.128197,226.92 L710.128197,231.84 C710.128197,235.32 709.155776,237.58 707.210934,238.62 C708.345425,239.1 709.115258,239.83 709.520434,240.81 C709.925609,241.79 710.128197,243.12 710.128197,244.8 L710.128197,250.56 C710.128197,255.52 707.150158,258 701.19408,258 L683.325847,258 L683.325847,219.48 Z" id="Shape"></path>
        </g>
    </g>
         
</svg>