<?xml version="1.0" encoding="UTF-8"?>
<svg id="adobe" viewBox="0 0 565 135" version="1.1" xmlns="http://www.w3.org/2000/svg" xmlns:xlink="http://www.w3.org/1999/xlink">
    <g stroke="none" stroke-width="1" fill="none" fill-rule="evenodd">
        <g transform="translate(0, 0)" fill="currentColor" fill-rule="nonzero">
            <path d="M219.46766,97.5848285 L211.750255,133.450783 L194,133.450783 L223.326486,3.46820459 L244.353422,3.46820459 L271.943634,133.450783 L254.00024,133.450783 L246.475727,97.5848285 L219.46766,97.5848285 Z M244.353422,83.1201798 L238.37229,52.0661922 C236.636016,43.1946864 234.899495,31.629213 233.552228,22.3688539 L232.77719,22.3688539 C231.429923,31.8190547 229.494063,43.7731336 227.763988,52.0661922 L221.589965,83.1201798 L244.353422,83.1201798 Z M339.696982,0 L339.696982,109.346092 C339.696982,116.48523 340.082765,126.899757 340.465325,133.454005 L324.840599,133.454005 L323.683,122.078373 L323.104325,122.078373 C320.017314,128.632372 312.878584,135 303.42788,135 C286.063409,135 275.451884,116.096377 275.451884,86.9807074 C275.451884,53.808473 289.532981,38.1866823 304.392587,38.1866823 C311.913877,38.1866823 317.895009,41.6613306 321.174912,48.7940252 L321.560695,48.7940252 L321.560695,0 L339.696982,0 Z M321.557472,75.4058162 C321.557472,73.6732009 321.557472,71.5517324 321.364581,69.6166358 C320.399874,61.1339833 315.576341,53.8052512 309.019757,53.8052512 C297.633194,53.8052512 293.777591,69.6166358 293.777591,86.9774856 C293.777591,106.263518 298.794016,119.760619 308.441082,119.760619 C312.492552,119.760619 317.891785,117.63915 320.978797,106.456582 C321.364581,104.913561 321.557472,102.596054 321.557472,100.48103 L321.557472,75.4058162 Z M382.895806,134.996778 C364.183819,134.996778 350.675199,118.989356 350.675199,86.7878917 C350.675199,52.648109 366.685709,38.1834604 383.857041,38.1834604 C402.379111,38.1834604 415.688641,54.7695776 415.688641,86.3987906 C415.688641,123.621146 397.359711,134.996778 383.085474,134.996778 L382.895806,134.996778 Z M383.471258,120.728167 C394.658483,120.728167 397.169794,100.863439 397.169794,86.5948281 C397.169794,72.5128369 394.661706,52.4582673 383.088697,52.4582673 C371.123211,52.4582673 368.811238,72.5128369 368.811238,86.5948281 C368.811238,102.213397 371.512466,120.728167 383.281589,120.728167 L383.471258,120.728167 Z M426.621735,0 L444.754798,0 L444.754798,50.3335769 L445.140581,50.3335769 C449.964114,41.8509244 456.523921,38.1834604 464.820249,38.1834604 C480.831008,38.1834604 490.866832,56.3123512 490.866832,85.0488327 C490.866832,118.603477 477.168296,134.996778 461.733238,134.996778 C452.472203,134.996778 447.262886,129.979108 443.207945,121.68605 L442.442824,121.68605 L441.474894,133.450783 L425.850168,133.450783 C426.235951,127.089351 426.621735,116.482008 426.621735,109.34287 L426.621735,0 Z M444.754798,100.278548 C444.754798,102.406461 444.94769,104.527929 445.526613,106.067481 C448.417262,117.449556 454.015833,119.760619 457.678296,119.760619 C468.482961,119.760619 472.534679,105.492256 472.534679,86.2059748 C472.534679,68.2698998 468.293292,53.8052512 457.485405,53.8052512 C451.504273,53.8052512 446.680988,60.9411676 445.33025,67.6912048 C444.944466,69.6198577 444.751575,72.1301795 444.751575,74.0556105 L444.751575,100.278548 L444.754798,100.278548 Z M517.627462,90.2528744 C517.820354,114.36054 528.235764,120.336092 539.23332,120.336092 C545.793127,120.336092 551.388227,118.796292 555.439945,116.864666 L558.141173,129.979108 C552.545825,132.872088 544.056605,134.418331 535.760277,134.418331 C512.225254,134.418331 499.877207,116.674824 499.877207,87.7457744 C499.877207,57.08064 513.958304,38.1802385 533.445081,38.1802385 C552.931857,38.1802385 562,56.8878243 562,80.4200163 C562,85.0456108 561.803637,87.941812 561.613969,90.4456901 L517.627462,90.2528744 Z M544.82842,77.3342213 C545.021312,60.7481041 539.23332,51.8798202 532.097814,51.8798202 C522.640664,51.8798202 518.395806,65.5729581 517.820354,77.3342213 L544.82842,77.3342213 Z" id="Shape"></path>
            <path d="M92.0294205,4 L146,4 L146,134 L92.0294205,4 Z M54.0091121,4 L0,4 L0,134 L54.0091121,4 Z M73.0224773,51.9095572 L107.409607,134 L84.8756962,134 L74.5921866,107.854907 L49.4217573,107.854907 L73.0224773,51.9095572 Z" id="Shape"></path>
            <path d="M560.908968,37.7379901 C562.005226,37.7428903 563.05395,38.1812147 563.822172,38.9552039 C564.590395,39.729193 565.014241,40.7746542 564.999635,41.8595621 C564.999635,44.1856949 563.185412,46 560.889657,46 C558.612966,46 556.760309,44.18888 556.760309,41.8595621 C556.754427,40.770734 557.186444,39.7242928 557.961104,38.9510387 C558.735763,38.1777845 559.789438,37.7414202 560.889657,37.7379901 L560.908968,37.7379901 Z M560.889657,38.3767333 C559.059342,38.3767333 557.556568,39.9369622 557.556568,41.8595621 C557.556568,43.8201387 559.059342,45.3583167 560.908968,45.3583167 C562.758594,45.3771825 564.238839,43.8201387 564.238839,41.878673 C564.238839,39.9369622 562.758594,38.3767333 560.908968,38.3767333 L560.889657,38.3767333 Z M560.112522,44.2618932 L559.374009,44.2618932 L559.374009,39.66059 C559.7627,39.6064426 560.135052,39.5493551 560.690608,39.5493551 C561.393718,39.5493551 561.852968,39.6985667 562.132232,39.8987405 C562.411743,40.0991594 562.559297,40.4105681 562.559297,40.8520776 C562.559297,41.4560293 562.151542,41.8245256 561.6507,41.970797 L561.6507,42.0055886 C562.058455,42.0788468 562.337718,42.4473431 562.427835,43.124308 C562.540234,43.8392496 562.649166,44.1124366 562.726409,44.2618932 L561.949274,44.2618932 C561.836876,44.1124366 561.727696,43.6929781 561.634608,43.0892714 C561.522209,42.5014905 561.226853,42.2822058 560.632675,42.2822058 L560.115741,42.2822058 L560.115741,44.2618932 L560.112522,44.2618932 Z M560.112522,41.7132907 L560.648768,41.7132907 C561.259038,41.7132907 561.782409,41.494006 561.782409,40.9253359 C561.782409,40.521803 561.483588,40.1180252 560.648768,40.1180252 C560.411344,40.1180252 560.241013,40.1371361 560.112522,40.1562469 L560.112522,41.7132907 Z M154.148719,4 C155.244977,4.00490022 156.2937,4.44322458 157.061923,5.21721376 C157.830145,5.99120294 158.253992,7.03666412 158.239633,8.12157204 C158.239633,10.4477048 156.42541,12.2620099 154.129408,12.2620099 C151.852964,12.2620099 150.000059,10.4508899 150.000059,8.12157204 C149.994178,7.03274395 150.426195,5.98630273 151.200854,5.21304858 C151.975513,4.43979442 153.029189,4.00343015 154.129408,4 L154.148719,4 Z M154.129408,4.63874321 C152.296122,4.63874321 150.796566,6.19897212 150.796566,8.12157204 C150.796566,10.0821486 152.296122,11.6203266 154.148719,11.6203266 C155.998345,11.6391924 157.481808,10.0821486 157.481808,8.14068288 C157.481808,6.19897212 155.998345,4.63874321 154.148719,4.63874321 L154.129408,4.63874321 Z M153.35252,10.5239031 L152.610788,10.5239031 L152.610788,5.92259991 C153.045776,5.85105676 153.48621,5.81504016 153.92714,5.81455014 C154.630498,5.81455014 155.092719,5.95739145 155.369011,6.16075043 C155.648275,6.36116928 155.796077,6.67576318 155.796077,7.11408754 C155.796077,7.71803921 155.388074,8.08653549 154.887232,8.23280695 L154.887232,8.26759849 C155.294987,8.34085672 155.574498,8.709353 155.667586,9.38950304 C155.776766,10.1044446 155.889164,10.3776317 155.962941,10.5270883 L155.185806,10.5270883 C155.073408,10.3776317 154.961009,9.95817315 154.87114,9.35446649 C154.758741,8.76668553 154.463385,8.54740084 153.869455,8.54740084 L153.35252,8.54740084 L153.35252,10.5239031 Z M153.35252,7.97530058 L153.888766,7.97530058 C154.498788,7.97530058 155.018941,7.75601589 155.018941,7.18734577 C155.018941,6.78381295 154.723586,6.38003512 153.888766,6.38003512 C153.647876,6.38003512 153.480764,6.39914596 153.35252,6.41825681 L153.35252,7.97530058 Z" id="Shape"></path>
        </g>
    </g>
</svg>