<?xml version="1.0" encoding="UTF-8"?>
<svg id="american-express" viewBox="0 0 336 317" version="1.1" xmlns="http://www.w3.org/2000/svg" xmlns:xlink="http://www.w3.org/1999/xlink">
    <g stroke="none" stroke-width="1" fill="none" fill-rule="evenodd">
        <g transform="translate(0, 0)" fill="currentColor" fill-rule="nonzero">
            <path d="M8.43887848,313.834856 L7.38536376,313.834856 C7.38536376,313.309664 7.121506,312.518783 7.121506,312.253241 C7.121506,311.991676 7.121506,311.466336 6.33008015,311.466336 L4.74708104,311.466336 L4.74708104,313.834856 L3.95550778,313.834856 L3.95550778,308.303107 L6.33008015,308.303107 C7.38536376,308.303107 8.17502073,308.568648 8.17502073,309.61918 C8.17502073,310.410061 7.91116298,310.675455 7.64922151,310.935253 C7.91307926,311.200795 8.17502073,311.464422 8.17502073,311.991676 L8.17502073,313.044122 C8.17502073,313.309664 8.17502073,313.309664 8.43887848,313.309664 L8.43887848,313.834856 Z M7.38536376,309.884722 C7.38536376,309.09384 6.85779566,309.09384 6.5939379,309.09384 L4.74708104,309.09384 L4.74708104,310.675455 L6.33008015,310.675455 C6.85779566,310.675455 7.38536376,310.410061 7.38536376,309.884722 Z M11.868587,310.937168 C11.868587,307.777767 9.23222062,305.139877 5.80236465,305.139877 C2.63828271,305.139877 0,307.777767 0,310.937168 C0,314.36211 2.63828271,317 5.80236465,317 C9.23030433,316.998085 11.868587,314.36211 11.868587,310.937168 Z M11.0771612,310.937168 C11.0771612,313.83677 8.70450511,315.943725 5.80236465,315.943725 C2.90022418,315.943725 0.791425851,313.834856 0.791425851,310.937168 C0.791425851,308.303107 2.90214047,305.930758 5.80236465,305.930758 C8.70258883,305.930758 11.0771612,308.303107 11.0771612,310.937168 Z M336,204.482222 C336,212.388381 330.989209,216.073121 322.020698,216.073121 L304.881147,216.073121 L304.881147,208.166962 L322.020698,208.166962 C323.603697,208.166962 324.922839,207.905249 325.452471,207.37991 C325.97827,206.850889 326.505838,206.060008 326.505838,205.007561 C326.505838,203.951286 325.980186,202.898692 325.452471,202.3735 C324.922839,201.844332 323.869471,201.582619 322.286472,201.582619 C314.113368,201.317078 303.825864,201.844332 303.825864,190.251665 C303.825864,184.979567 307.253803,179.182276 316.484108,179.182276 L334.153143,179.182276 L334.153143,187.088435 L317.801333,187.088435 C316.222166,187.088435 315.164966,187.088435 314.373393,187.613628 C313.581967,188.404509 313.056168,189.195242 313.056168,190.51323 C313.056168,191.831365 313.847741,192.622099 314.901109,193.151268 C315.958309,193.41298 317.013592,193.67646 318.332881,193.67646 L323.078046,193.67646 C328.088837,193.67646 331.254835,194.729053 333.36555,196.576062 C334.944716,198.41939 336,200.7938 336,204.482222 Z M298.813009,196.576062 C296.702441,194.729053 293.536443,193.67646 288.525504,193.67646 L283.78034,193.67646 C282.463115,193.67646 281.405915,193.410918 280.3524,193.151268 C279.2952,192.622099 278.507459,191.831365 278.507459,190.51323 C278.507459,189.195242 278.769401,188.404509 279.824832,187.613628 C280.616258,187.088435 281.669625,187.088435 283.252624,187.088435 L299.604582,187.088435 L299.604582,179.182276 L281.935399,179.182276 C272.439321,179.182276 269.27347,184.979567 269.27347,190.251665 C269.27347,201.842417 279.560974,201.317078 287.737764,201.582619 C289.31693,201.582619 290.374278,201.844332 290.899929,202.3735 C291.425729,202.898692 291.957277,203.951286 291.957277,205.007561 C291.957277,206.060008 291.427645,206.850889 290.899929,207.37991 C290.108504,207.905249 289.055136,208.166962 287.472137,208.166962 L270.328753,208.166962 L270.328753,216.073121 L287.472137,216.073121 C296.436667,216.073121 301.449522,212.386467 301.449522,204.482222 C301.449522,200.7938 300.396008,198.41939 298.813009,196.576062 Z M265.053957,208.434418 L244.222756,208.434418 L244.222756,201.055513 L264.528158,201.055513 L264.528158,193.680289 L244.222756,193.680289 L244.222756,186.826723 L265.053957,186.826723 L265.053957,179.186105 L235.518103,179.186105 L235.518103,216.075036 L265.053957,216.075036 L265.053957,208.434418 Z M226.022025,181.0312 C223.119885,179.449585 219.692092,179.18419 215.208869,179.18419 L194.90332,179.18419 L194.90332,216.073121 L203.86785,216.073121 L203.86785,202.635065 L213.363928,202.635065 C216.526094,202.635065 218.37472,202.900607 219.694009,204.21668 C221.277008,206.060008 221.277008,209.223237 221.277008,211.595733 L221.277008,216.073121 L229.97768,216.073121 L229.97768,208.957696 C229.97768,205.532901 229.715739,203.951286 228.660455,202.107959 C227.868882,201.051683 226.289715,199.735463 224.179148,198.944729 C226.549741,198.157677 230.509228,194.994448 230.509228,189.195242 C230.507312,184.981481 228.924313,182.608985 226.022025,181.0312 Z M175.913079,179.18419 L147.692534,179.18419 L136.351663,191.306026 L125.538359,179.18419 L89.9343672,179.18419 L89.9343672,216.073121 L125.01256,216.073121 L136.353579,203.951286 L147.166883,216.073121 L164.310119,216.073121 L164.310119,203.691488 L175.38728,203.691488 C183.034585,203.691488 190.685723,201.582619 190.685723,191.306026 C190.683807,181.292912 182.770728,179.18419 175.913079,179.18419 Z M218.900519,194.469255 C217.583294,194.994448 216.264153,194.994448 214.681153,194.994448 L203.86785,195.259989 L203.86785,186.824808 L214.681153,186.824808 C216.264153,186.824808 217.847152,186.824808 218.900519,187.615542 C219.957719,188.144711 220.74546,189.197157 220.74546,190.778772 C220.74546,192.360387 219.957719,193.678374 218.900519,194.469255 Z M175.913079,196.312583 L164.30835,196.312583 L164.30835,186.824808 L175.913079,186.824808 C179.079077,186.824808 181.187876,188.144711 181.187876,191.306026 C181.187876,194.469255 179.077161,196.312583 175.913079,196.312583 Z M141.89017,197.628656 L155.603697,183.138154 L155.603697,212.913721 L141.89017,197.628656 Z M120.527421,208.434418 L98.6369561,208.434418 L98.6369561,201.055513 L118.152848,201.055513 L118.152848,193.680289 L98.6369561,193.680289 L98.6369561,186.826723 L120.791278,186.826723 L130.549151,197.63057 L120.527421,208.434418 Z M311.471253,152.569939 L298.813009,152.569939 L282.197341,124.901326 L282.197341,152.569939 L264.266364,152.569939 L260.834591,144.400152 L242.373983,144.400152 L238.946043,152.569939 L228.658539,152.569939 C224.439026,152.569939 218.900519,151.515578 215.738353,148.352348 C212.836213,145.191033 211.253214,140.975357 211.253214,134.387186 C211.253214,128.853375 212.044787,123.846965 215.998379,119.894769 C218.634745,116.995166 223.383742,115.679093 229.448048,115.679093 L237.886927,115.679093 L237.886927,123.585253 L229.448048,123.585253 C226.285883,123.585253 224.437257,124.112359 222.592316,125.693974 C221.009317,127.275589 220.217744,130.173277 220.217744,134.125473 C220.217744,138.077522 221.009317,140.977125 222.592316,142.822366 C223.909542,144.13844 226.285883,144.665694 228.656623,144.665694 L232.614047,144.665694 L245.272291,115.681008 L258.460019,115.681008 L273.228978,150.462984 L273.228978,115.679093 L286.944422,115.679093 L302.504806,141.238837 L302.504806,115.679093 L311.469336,115.679093 L311.469336,152.569939 L311.471253,152.569939 Z M206.76999,115.679093 L197.80546,115.679093 L197.80546,152.569939 L206.76999,152.569939 L206.76999,115.679093 Z M188.043608,117.260708 C185.141467,115.679093 181.979302,115.679093 177.496078,115.679093 L157.186697,115.679093 L157.186697,152.569939 L165.889285,152.569939 L165.889285,139.130115 L175.383447,139.130115 C178.549446,139.130115 180.66016,139.393742 181.977385,140.71173 C183.560384,142.556825 183.29461,145.720054 183.29461,147.827009 L183.29461,152.569939 L192.259141,152.569939 L192.259141,145.191033 C192.259141,142.029718 191.997347,140.448103 190.679974,138.602861 C189.888548,137.548501 188.305549,136.230513 186.460609,135.441546 C188.831348,134.387186 192.79069,131.489498 192.79069,125.69206 C192.792605,121.476384 190.943832,119.104035 188.043608,117.260708 Z M150.856616,144.929321 L130.285441,144.929321 L130.285441,137.550415 L150.592759,137.550415 L150.592759,129.909797 L130.285441,129.909797 L130.285441,123.321626 L150.856616,123.321626 L150.856616,115.681008 L121.318847,115.681008 L121.318847,152.571853 L150.856616,152.571853 L150.856616,144.929321 Z M114.725056,115.679093 L100.219955,115.679093 L89.4066517,140.71173 L77.8019224,115.679093 L63.5606793,115.679093 L63.5606793,150.46107 L48.5280103,115.679093 L35.3420508,115.679093 L19.5178086,152.569939 L29.0119706,152.569939 L32.4399103,144.400152 L50.900519,144.400152 L54.3284587,152.569939 L72.2632681,152.569939 L72.2632681,123.585253 L85.1853699,152.569939 L92.8326751,152.569939 L105.756546,123.585253 L105.756546,152.569939 L114.72314,152.569939 L114.72314,115.679093 L114.725056,115.679093 Z M257.672426,136.495907 L251.604287,122.003638 L245.539981,136.495907 L257.672426,136.495907 Z M181.187876,130.700531 C179.870503,131.491412 178.551362,131.491412 176.704505,131.491412 L165.889285,131.491412 L165.889285,123.32354 L176.702589,123.32354 C178.285588,123.32354 180.128612,123.32354 181.18596,123.850794 C182.239327,124.641528 182.768811,125.695889 182.768811,127.275589 C182.768811,128.855289 182.241243,130.17151 181.187876,130.700531 Z M35.6039923,136.495907 L41.6702147,122.003638 L47.7364371,136.495907 L35.6039923,136.495907 Z M333.891202,0 L19.2520345,0 L19.2520345,132.807485 L30.065338,108.302102 L53.0093173,108.302102 L56.1753155,114.36302 L56.1753155,108.302102 L83.0765716,108.302102 L89.142794,121.476384 L94.9451586,108.302102 L180.66016,108.302102 C184.613752,108.302102 188.041691,109.092836 190.68189,111.19979 L190.68189,108.302102 L214.153438,108.302102 L214.153438,111.19979 C218.107177,109.090921 223.117968,108.302102 228.922397,108.302102 L262.94339,108.302102 L266.109388,114.36302 L266.109388,108.302102 L291.163787,108.302102 L294.857501,114.36302 L294.857501,108.302102 L319.382416,108.302102 L319.382416,159.948844 L294.593643,159.948844 L289.848478,152.044599 L289.848478,159.948844 L258.989651,159.948844 L255.561711,151.517492 L247.910573,151.517492 L244.482781,159.948844 L228.396597,159.948844 C222.066517,159.948844 217.31752,158.367229 214.155354,156.787529 L214.155354,159.948844 L175.913079,159.948844 L175.913079,148.090636 C175.913079,146.509021 175.649222,146.245394 174.593938,146.245394 L173.276713,146.245394 L173.276713,159.946929 L99.4285293,159.946929 L99.4285293,153.358905 L96.7920155,159.946929 L81.231631,159.946929 L78.5952646,153.622385 L78.5952646,159.946929 L48.7917207,159.946929 L45.6276387,151.515578 L37.9784172,151.515578 L34.5506249,159.946929 L19.2520345,159.946929 L19.2520345,315.680098 L333.891202,315.680098 L333.891202,221.079678 C330.463409,222.661293 325.714412,223.452027 320.967331,223.452027 L298.021583,223.452027 L298.021583,220.288797 C295.385069,222.399581 290.636219,223.452027 286.154765,223.452027 L213.88958,223.452027 L213.88958,211.595733 C213.88958,210.014118 213.627639,210.014118 212.306581,210.014118 L210.989356,210.014118 L210.989356,223.452027 L187.252182,223.452027 L187.252182,209.486864 C183.298443,211.330191 178.813303,211.330191 174.857796,211.330191 L172.219366,211.330191 L172.219366,223.452027 L143.209311,223.452027 L136.353579,215.545867 L128.706274,223.452027 L82.021288,223.452027 L82.021288,171.807052 L129.493867,171.807052 L136.351663,179.709383 L143.737027,171.807052 L175.649222,171.807052 C179.339103,171.807052 185.407241,172.332392 188.043608,174.9666 L188.043608,171.807052 L216.526094,171.807052 C219.428234,171.807052 224.968658,172.332392 228.658539,174.9666 L228.658539,171.807052 L271.647895,171.807052 L271.647895,174.968367 C274.02232,172.859646 278.507459,171.808967 282.461198,171.808967 L306.460314,171.808967 L306.460314,174.968367 C309.10066,173.125187 312.790394,171.808967 317.539391,171.808967 L333.891202,171.808967 L333.891202,0 Z" id="Shape"></path>
        </g>
    </g>
</svg>