<?xml version="1.0" encoding="UTF-8"?>
<svg id="apple" viewBox="0 0 203 249" version="1.1" xmlns="http://www.w3.org/2000/svg" xmlns:xlink="http://www.w3.org/1999/xlink">
    <g stroke="none" stroke-width="1" fill="none" fill-rule="evenodd">
        <g transform="translate(0, 0)" fill="currentColor" fill-rule="nonzero">
            <path d="M169.539406,132.285871 C169.889753,169.967886 202.637188,182.507364 203,182.666981 C202.723106,183.550876 197.767497,200.536504 185.747076,218.081459 C175.355523,233.250391 164.571333,248.362856 147.582393,248.675865 C130.889045,248.983094 125.521211,238.789405 106.435976,238.789405 C87.356528,238.789405 81.3926146,248.363301 65.5904923,248.983539 C49.1918451,249.603777 36.7039972,232.581245 26.2269725,217.46789 C4.81751619,186.553806 -11.5437369,130.112148 10.4252953,92.0130846 C21.3390297,73.0929357 40.8427225,61.111894 62.0122333,60.804665 C78.1152891,60.4978806 93.314209,71.6248168 103.15865,71.6248168 C112.996859,71.6248168 131.466872,58.2436823 150.884203,60.2088808 C159.012967,60.5467883 181.830934,63.4883614 196.482298,84.9081361 C195.301713,85.6390832 169.256279,100.782672 169.539406,132.285871 M138.166203,39.7565885 C146.87235,29.2312165 152.732094,14.5789275 151.133497,0 C138.584216,0.503748852 123.409335,8.35209371 114.408041,18.8716858 C106.341155,28.1872603 99.2763417,43.097426 101.18255,57.3877983 C115.170169,58.4686575 129.459611,50.2886298 138.166203,39.7565885" id="Shape"></path>
        </g>
    </g>
</svg>