<?xml version="1.0" encoding="UTF-8"?>
<svg id="atlassian" viewBox="0 0 726 154" version="1.1" xmlns="http://www.w3.org/2000/svg" xmlns:xlink="http://www.w3.org/1999/xlink">
    <defs>
        <polyline id="path-1" points="-2.07769103e-15 4.1525669e-15 725 4.1525669e-15 725 154 -2.07769103e-15 154"></polyline>
        <polyline id="path-3" points="-2.02701564e-15 4.1525669e-15 725 4.1525669e-15 725 154 -2.02701564e-15 154"></polyline>
    </defs>
    <g stroke="none" stroke-width="1" fill="none" fill-rule="evenodd">
        <g transform="translate(0, 0)">
            <g id="Clipped">
                <mask id="mask-2" fill="white">
                    <use xlink:href="#path-1"></use>
                </mask>
                <g id="a"></g>
                <path d="M211.534103,41.3585925 C211.155828,40.1635227 210.046072,39.3516023 208.791791,39.3516023 L181.9584,39.3516023 C180.704119,39.3516023 179.594364,40.1635227 179.216088,41.3585925 L145.360773,148.657757 C145.086907,149.53171 145.242098,150.482294 145.784352,151.223056 C146.326536,151.960417 147.187441,152.396232 148.103084,152.396232 L166.577172,152.396232 C167.851562,152.396232 168.974413,151.556946 169.33409,150.334506 L192.649216,71.4233043 C192.649216,71.4233043 193.259024,69.4528049 195.369618,69.4528049 C197.516728,69.4528049 198.038899,71.5026716 198.038899,71.5054084 L208.856606,108.921178 L194.326189,108.921178 C193.037497,108.920275 191.905776,109.776787 191.557404,111.016658 L187.387337,125.831894 C187.141898,126.697922 187.317375,127.628857 187.861291,128.346297 C188.405207,129.063737 189.25451,129.484514 190.15521,129.482791 L214.903568,129.482791 L221.41884,150.377383 C221.79327,151.577928 222.905534,152.396232 224.16389,152.396232 L242.645281,152.396232 C243.561205,152.394434 244.422029,151.957977 244.96365,151.219854 C245.50527,150.481731 245.663022,149.530071 245.388506,148.656845 L211.534103,41.3585925 M292.023322,135.860459 C291.900774,135.060559 291.447643,134.348883 290.774493,133.899082 C290.101354,133.44871 289.268991,133.303891 288.483147,133.500421 C285.484315,134.243919 282.61146,134.655352 280.394971,134.655352 C276.190215,134.655352 274.316972,132.833553 274.316972,128.749328 L274.316972,87.6397844 L290.812834,87.6397844 C292.401068,87.6392817 293.688742,86.3532962 293.690253,84.7661394 L293.690253,71.9432972 C293.690253,70.3559505 292.403083,69.0714768 290.81466,69.0714768 L274.316972,69.0714768 L274.316972,49.2752562 C274.317323,48.4437654 273.957141,47.6529107 273.329494,47.1070443 C272.701847,46.5611778 271.868314,46.3138538 271.044273,46.4289793 L254.059103,48.7935786 C252.637555,48.9911243 251.579231,50.2056003 251.57879,51.6398555 L251.57879,69.0705645 L242.326684,69.0705645 C240.73925,69.0705642 239.452099,70.3560272 239.451091,71.9423849 L239.451091,84.7652272 C239.451091,85.5273652 239.754054,86.258288 240.293332,86.797201 C240.832611,87.336114 241.564029,87.6388721 242.326684,87.6388721 L251.57879,87.6388721 L251.57879,131.40494 C251.57879,146.435472 259.484389,154.053824 275.076494,154.053824 C279.513123,154.053824 287.04809,153.032083 291.975852,151.320668 C293.28249,150.868107 294.080626,149.549007 293.874656,148.182465 L292.021496,135.859546 M323.466791,37.2570345 L306.481621,37.2570345 C305.71865,37.2570345 304.986955,37.560043 304.447624,38.0993506 C303.908293,38.6386583 303.605544,39.3700499 303.606028,40.132504 L303.606028,149.522588 C303.606028,151.109658 304.893475,152.396232 306.481621,152.396232 L323.466791,152.396232 C325.054937,152.396232 326.342384,151.109658 326.342384,149.522588 L326.342384,40.1306795 C326.342384,38.5415082 325.055214,37.2570345 323.466791,37.2570345 M378.537593,121.845282 L378.537593,131.840092 C375.722251,133.338949 370.62104,135.486429 364.484616,135.486429 C359.189873,135.486429 357.575889,133.873538 357.575889,128.580558 C357.575889,123.442663 358.574587,121.844369 364.816906,121.844369 L378.537593,121.844369 L378.537593,121.845282 Z M367.142029,67.4102364 C358.542636,67.4102364 348.078216,68.7649547 340.482999,70.8640839 C339.069472,71.2524267 338.175987,72.64288 338.410746,74.0889521 L340.399013,86.4109591 C340.522545,87.1788389 340.952828,87.8636658 341.591243,88.308477 C342.228438,88.7554884 343.020824,88.9233458 343.786736,88.7719092 C350.84974,87.3998578 358.141879,86.6426752 364.317557,86.6426752 C376.577626,86.6426752 378.537593,89.2289556 378.537593,97.5305965 L378.537593,104.769445 L360.330981,104.769445 C342.929535,104.769445 335.504115,111.941698 335.504115,128.75024 C335.504115,144.831704 343.644325,154.054736 357.837888,154.054736 C366.047478,154.054736 374.269848,151.777715 381.1804,147.614122 L381.906145,150.277946 C382.247426,151.528594 383.384126,152.396235 384.681321,152.396232 L398.398356,152.396232 C399.986502,152.396232 401.273949,151.109658 401.273949,149.522588 L401.273949,97.8644867 C401.273949,75.663527 392.022755,67.4102364 367.141116,67.4102364 L367.142029,67.4102364 Z M443.836378,100.823885 C433.297101,98.1089746 433.297101,97.9995024 433.297101,92.2211954 C433.297101,88.3404064 433.682339,86.4766424 442.365718,86.4766424 C448.313174,86.4766424 457.09058,87.5166282 462.726742,88.4799834 C463.502696,88.6122623 464.296907,88.4225105 464.926799,87.9508678 C465.557272,87.4827766 465.968865,86.7774774 466.066082,85.9986138 L467.667285,73.0626503 C467.848133,71.6034499 466.898274,70.2429863 465.465402,69.908939 C458.947391,68.3909247 449.878775,67.4093241 442.364805,67.4093241 C416.243465,67.4093241 410.89121,77.261821 410.89121,92.0515135 C410.89121,108.314519 413.914691,113.779918 433.934296,118.653255 C447.112728,121.823387 447.112728,124.178864 447.112728,128.084284 C447.112728,133.213056 446.674543,134.987418 438.045938,134.987418 C431.09887,134.987418 423.059077,133.907292 415.986031,132.022546 C415.210565,131.816009 414.384013,131.942708 413.706146,132.372021 C413.02828,132.801334 412.560782,133.494197 412.416644,134.283147 L410.170943,146.557716 C409.910891,147.974485 410.741305,149.364593 412.112653,149.808127 C419.826545,152.309567 430.899861,154.053824 439.04281,154.053824 C464.334336,154.053824 469.517706,143.473337 469.517706,127.585273 C469.517706,110.042355 466.399285,106.791031 443.835465,100.822973 M509.46654,100.823885 C498.927264,98.1089746 498.927264,97.9995024 498.927264,92.2211954 C498.927264,88.3404064 499.312502,86.4766424 507.99588,86.4766424 C513.94425,86.4766424 522.720742,87.5166282 528.357818,88.4799834 C529.133771,88.6122623 529.927983,88.4225105 530.557874,87.9508678 C531.188409,87.4829682 531.599769,86.7775045 531.696244,85.9986138 L533.297447,73.0626503 C533.479314,71.6037928 532.530032,70.2430268 531.097391,69.908939 C524.577554,68.3909247 515.50985,67.4093241 507.99588,67.4093241 C481.875453,67.4093241 476.523199,77.261821 476.523199,92.0515135 C476.523199,108.314519 479.544854,113.779918 499.566284,118.653255 C512.744717,121.823387 512.744717,124.178864 512.744717,128.084284 C512.744717,133.213056 512.306531,134.987418 503.6761,134.987418 C496.729033,134.987418 488.68924,133.907292 481.617106,132.022546 C480.841657,131.816261 480.015223,131.943267 479.337628,132.372857 C478.658657,132.800894 478.190416,133.493845 478.046807,134.283147 L475.801105,146.557716 C475.540631,147.974561 476.3712,149.364929 477.742815,149.808127 C485.456708,152.309567 496.530023,154.053824 504.672973,154.053824 C529.964498,154.053824 535.147869,143.473337 535.147869,127.585273 C535.147869,110.042355 532.029448,106.791031 509.465628,100.822973 M565.347073,69.0714768 L548.361904,69.0714768 C546.77447,69.0714765 545.487318,70.3569395 545.48631,71.9432972 L545.48631,149.522588 C545.48631,151.109658 546.773757,152.396232 548.361904,152.396232 L565.347073,152.396232 C566.935219,152.396232 568.222666,151.109658 568.222666,149.522588 L568.222666,71.9414727 C568.222666,70.3541259 566.935496,69.0696523 565.347073,69.0696523 M620.845106,121.845282 L620.845106,131.840092 C618.028851,133.338949 612.928553,135.486429 606.791216,135.486429 C601.496473,135.486429 599.883402,133.873538 599.883402,128.580558 C599.883402,123.442663 600.8821,121.844369 607.122594,121.844369 L620.845106,121.844369 L620.845106,121.845282 Z M609.449542,67.4102364 C600.850149,67.4102364 590.385729,68.7649547 582.790512,70.8640839 C581.376985,71.2524267 580.483501,72.64288 580.718259,74.0889521 L582.705614,86.4109591 C582.830679,87.1790889 583.262474,87.8632901 583.899669,88.308477 C584.536864,88.7554884 585.328337,88.9233458 586.095162,88.7719092 C593.157253,87.3998578 600.449392,86.6426752 606.625983,86.6426752 C618.886052,86.6426752 620.846019,89.2289556 620.846019,97.5305965 L620.846019,104.769445 L602.638494,104.769445 C585.238874,104.769445 577.812541,111.941698 577.812541,128.75024 C577.812541,144.831704 585.952752,154.054736 600.146314,154.054736 C608.355904,154.054736 616.578274,151.777715 623.487,147.614122 L624.214571,150.277946 C624.555852,151.528594 625.692552,152.396235 626.989747,152.396232 L640.706782,152.396232 C642.294928,152.396232 643.582375,151.109658 643.582375,149.522588 L643.582375,97.8644867 C643.582375,75.663527 634.331181,67.4102364 609.449542,67.4102364 L609.449542,67.4102364 Z M706.403585,67.4102364 C697.399784,67.4102364 685.138803,70.5119483 674.779365,75.3706889 L673.539665,71.1350275 C673.180236,69.9110709 672.056445,69.0703771 670.780008,69.0705645 L658.20043,69.0705645 C656.612996,69.0705642 655.325844,70.3560272 655.324837,71.9423849 L655.324837,149.521675 C655.324837,151.108746 656.612283,152.39532 658.20043,152.39532 L675.185599,152.39532 C676.773746,152.39532 678.061192,151.108746 678.061192,149.521675 L678.061192,95.7927255 C684.179359,92.6818909 692.78149,89.4661454 697.930171,89.4661454 C701.755166,89.4661454 703.177444,90.8874593 703.177444,94.7089509 L703.177444,149.521675 C703.176959,150.284129 703.479709,151.015521 704.01904,151.554829 C704.558371,152.094136 705.290066,152.397145 706.053037,152.397145 L723.038207,152.397145 C724.626353,152.397145 725.9138,151.11057 725.9138,149.5235 L725.9138,92.5523488 C725.9138,75.8687874 719.350144,67.4102364 706.405411,67.4102364 M564.434187,37.2533855 L547.449017,37.2533855 C545.860871,37.2533855 544.573424,38.5399601 544.573424,40.1270304 L544.573424,55.1338428 C544.573424,56.7209131 545.860871,58.0074877 547.449017,58.0074877 L564.434187,58.0074877 C566.022333,58.0074877 567.30978,56.7209131 567.30978,55.1338428 L567.30978,40.1270304 C567.30978,38.5399601 566.022333,37.2533855 564.434187,37.2533855" id="Shape" fill="currentColor" fill-rule="nonzero" mask="url(#mask-2)"></path>
            </g>
            <g id="Clipped" transform="translate(1, 0)">
                <mask id="mask-4" fill="white">
                    <use xlink:href="#path-3"></use>
                </mask>
                <g id="c"></g>
                <path d="M138.667488,37.7423612 C138.123766,37.3286449 137.459379,37.1043419 136.775986,37.1037735 C136.401703,37.1037735 136.024681,37.1731059 135.665916,37.3099461 C128.94068,39.8798057 122.112288,41.8311474 115.878184,43.2825662 C114.607446,43.5790534 113.580449,44.523251 113.154131,45.6544636 C108.612519,58.086855 97.0161197,69.9235353 84.8491659,82.3230851 C84.3607716,82.7865174 83.6770194,83.3977371 82.5632977,83.3977371 C81.4523146,83.3977371 80.7740398,82.8047628 80.2774294,82.3230851 C68.1123014,69.9235353 56.514989,58.1297317 51.9733777,45.6955157 C51.5470596,44.5643031 50.5191492,43.6201054 49.2502367,43.3236183 C43.0133949,41.8712872 36.1667447,39.8597358 29.4497245,37.2907885 C29.0941015,37.155017 28.7166946,37.0846049 28.3360027,37.0846049 C27.6581451,37.0828055 26.9987807,37.3054388 26.4609335,37.71773 C25.6133662,38.3651788 25.1574021,39.4018544 25.2531844,40.4636574 C26.2847464,50.801481 30.3708272,60.9075884 37.7478645,71.4990226 C44.6821517,81.455518 53.727033,90.6712517 62.4715746,99.5841123 C78.5840246,116.006765 93.8054972,131.518062 95.1410504,149.505254 C95.2610832,151.129496 96.6150964,152.385285 98.2448652,152.385285 L117.174483,152.385285 C118.026718,152.384024 118.841305,152.034259 119.428826,151.417324 C120.016346,150.800389 120.325605,149.970041 120.284688,149.119365 C119.688573,137.093845 115.159743,125.050992 106.439849,112.306605 C104.597889,109.626327 102.651959,107.018905 100.606503,104.490291 C99.7757761,103.453042 100.124499,102.165831 100.761694,101.516296 C101.388847,100.873147 102.021477,100.231823 102.655934,99.5822878 C111.401388,90.6694272 120.444444,81.4536935 127.380557,71.4962858 C134.756681,60.9048516 138.843675,50.8580416 139.874324,40.5220425 C139.97748,39.4838813 139.504605,38.380949 138.666575,37.741449 M166.245794,1.58734672 C165.499397,0.591144516 164.327978,0.00329812001 163.082642,0 C162.443621,0 161.811904,0.160559209 161.258694,0.462519993 C138.055854,13.1549079 111.159473,19.8692021 83.4743586,19.8755879 C55.7901569,19.8673775 28.8928636,13.1549079 5.69184849,0.461607725 C5.13180118,0.159241177 4.50536867,0.000623193783 3.86881378,0 C2.62728788,0 1.44601251,0.59297435 0.705661408,1.58369765 C-0.392541275,3.04332682 -0.426318082,5.49185475 1.44236096,6.94965938 C13.0634085,15.6070849 25.8730345,22.3669925 39.5170389,26.9885433 C53.6594794,31.7834252 68.446418,34.2182691 83.4688813,34.2246549 L83.4798359,34.2246549 C98.5032121,34.2182691 113.291064,31.7834252 127.432591,26.9885433 C141.077508,22.3651679 153.886222,15.6070849 165.521875,6.93871216 C167.377774,5.49003021 167.342171,3.04150228 166.245794,1.58643445 M62.2497431,113.573746 C61.8024287,113.105752 61.1451502,112.627723 60.0405574,112.627723 C58.6274088,112.627723 57.7884659,113.60385 57.4716942,114.087353 C49.5094965,126.194977 45.396942,137.623873 44.8282136,149.107505 C44.7871337,149.95409 45.099341,150.795202 45.6863271,151.415544 C46.2786,152.031248 47.0956594,152.380238 47.9502861,152.382548 L66.8488663,152.382548 C68.4738046,152.382548 69.8431346,151.111759 69.9636356,149.490658 C70.3744346,143.956839 72.0997905,138.408424 75.2382949,132.577205 C76.3264558,130.561092 75.4811228,128.666311 74.8548825,127.856217 C71.7401131,123.808483 67.9260725,119.490717 62.250656,113.572833 M82.5815554,47.0091819 C88.5134931,47.0091819 91.954163,46.6533973 93.1637379,46.6533973 C94.6270952,46.6533973 96.0265505,47.8521178 96.0265505,49.5306913 C96.0265505,50.0214916 95.9106139,50.3699781 95.7955902,50.6801493 C95.0086819,52.7820153 91.422863,60.3447189 84.7478355,66.8327706 C83.9992684,67.5598484 83.1502838,67.6957763 82.5660363,67.6957763 L82.5569075,67.6957763 C81.9753986,67.6957763 81.126414,67.5589361 80.3787598,66.8327706 C73.7019066,60.3447189 70.1151748,52.7820153 69.3300923,50.6801493 C69.2141557,50.3699781 69.0982191,50.0214916 69.0982191,49.5306913 C69.0982191,47.8521178 70.4985872,46.6533973 71.9628575,46.6533973 C73.1724323,46.6533973 76.6121894,47.0091819 82.5432142,47.0091819 L82.5815554,47.0091819" id="Shape" fill="currentColor" fill-rule="nonzero" mask="url(#mask-4)"></path>
            </g>
        </g>
    </g>
</svg>