<?xml version="1.0" encoding="UTF-8"?>
<svg id="bae-systems" viewBox="0 0 370 58" version="1.1" xmlns="http://www.w3.org/2000/svg" xmlns:xlink="http://www.w3.org/1999/xlink">
    <g stroke="none" stroke-width="1" fill="none" fill-rule="evenodd">
        <g transform="translate(0.9597, 0.352)" fill="currentColor">
            <path d="M368.5,0 L368.5,56.69 L0,56.69 L0,0 L368.5,0 Z M329.69,15.93 C327.43878,17.5504518 326.106114,20.1562227 326.11,22.93 C326.11,29.57 332.33,30.99 337.59,32.01 C338.84,32.25 341.01,32.58 341.01,34.29 C341.01,35.83 338.81,36 337.71,36 C335.23,36 333.36,35.1 332.62,32.62 L324.68,34.05 L324.66,34.05 C326.17,40.11 331.38,42.56 337.24,42.56 C343.1,42.56 349.69,39.87 349.69,33.16 C349.797956,30.1767184 348.189381,27.3947379 345.55,26 C343.029483,24.8914783 340.367492,24.13764 337.64,23.76 C336.64,23.51 334.55,23.23 334.55,21.76 C334.55,20.29 336.18,20 337.32,20 C339.48,20 341.03,20.73 341.84,22.8 L348.92,20.65 C347.21,15.8 342.54,13.81 337.69,13.81 C334.871375,13.701142 332.084816,14.43958 329.69,15.93 Z M197.37,15.93 C195.126461,17.5570395 193.795951,20.1585942 193.79,22.93 C193.79,29.0430159 199.070353,30.7317234 203.997283,31.7571747 L204.505473,31.8610442 C204.758707,31.9119501 205.010476,31.9614286 205.26,32.01 C206.53,32.25 208.69,32.58 208.69,34.29 C208.69,35.83 206.5,36 205.39,36 C202.92,36 201.04,35.1 200.3,32.62 L192.37,34.05 C193.88,40.11 199.08,42.56 204.95,42.56 C210.82,42.56 217.4,39.87 217.4,33.16 C217.508484,30.1739042 215.894997,27.3901534 213.25,26 C210.732954,24.8915135 208.074268,24.1376581 205.35,23.76 C204.35,23.51 202.26,23.23 202.26,21.76 C202.26,20.29 203.89,20 205,20 C207.16,20 208.71,20.73 209.52,22.8 L216.6,20.65 C214.9,15.8 210.22,13.81 205.37,13.81 C202.551511,13.7023728 199.765308,14.4407168 197.37,15.93 Z M135.11,15.93 C132.860133,17.5527051 131.525012,20.1560049 131.52,22.93 C131.52,29.57 137.75,30.99 143,32.01 C144.26,32.25 146.42,32.58 146.42,34.29 C146.42,35.83 144.21,36 143.12,36 C140.64,36 138.76,35.1 138.03,32.62 L130.09,34.05 L130.08,34.05 C131.59,40.11 136.8,42.56 142.66,42.56 C148.52,42.56 155.12,39.87 155.12,33.16 C155.241555,30.1787134 153.638619,27.39303 151,26 C148.486426,24.8915478 145.831044,24.1376751 143.11,23.76 C142.05,23.51 140.01,23.23 140.01,21.76 C140.01,20.29 141.6,20 142.75,20 C144.9,20 146.45,20.73 147.27,22.8 L154.34,20.65 C152.64,15.8 147.95,13.81 143.11,13.81 C140.29117,13.6992887 137.504077,14.4378685 135.11,15.93 Z M296.93,14.21 L285.75,14.21 L285.75,42.14 L292.18,42.14 L292.18,22.19 L297.51,42.14 L302.97,42.14 L308.06,22.19 L308.13,42.14 L316.12,42.14 L316.12,14.21 L304.84,14.21 L301.01,29.03 L296.93,14.21 Z M275.21,14.22 L254.25,14.22 L254.25,42.14 L275.21,42.14 L275.21,35.47 L262.63,35.47 L262.63,30.95 L272.82,30.95 L272.82,24.73 L262.63,24.73 L262.63,20.64 L275.21,20.64 L275.21,14.22 Z M244.84,14.21 L225.1,14.21 L225.1,20.93 L230.97,20.93 L230.97,42.14 L239.1,42.14 L239.1,20.93 L244.84,20.93 L244.84,14.21 Z M170.39,14.21 L160.98,14.21 L170.39,30.34 L170.39,42.14 L178.7,42.14 L178.7,30.34 L187.45,14.21 L179.95,14.21 L175.28,23.41 L170.39,14.21 Z M108.73,14.22 L87.75,14.22 L87.75,42.14 L108.73,42.14 L108.73,35.47 L96.15,35.47 L96.15,30.95 L106.31,30.95 L106.31,24.73 L96.15,24.73 L96.15,20.64 L108.73,20.64 L108.73,14.22 Z M69.93,14.21 L60.88,14.21 L52.22,42.14 L59.19,42.14 L60.88,36.66 L68.34,36.66 L69.93,42.14 L78.67,42.14 L69.93,14.21 Z M34.73,14.22 L21.07,14.22 L21.07,42.14 L33.87,42.14 C36.39,42.14 39.41,42.14 41.55,40.56 C43.69,38.98 44.42,36.45 44.42,34.05 C44.4905723,30.8612244 42.1596154,28.1260055 39,27.69 C41.8128325,26.9925695 43.7733078,24.4476819 43.73,21.55 C43.7190111,19.2168796 42.6068745,17.0259704 40.73,15.64 C38.97,14.37 36.81,14.22 34.73,14.22 Z" id="Combined-Shape" fill-rule="nonzero"></path>
            <polygon id="Path" points="62.31 30.55 64.58 22.44 66.88 30.55"></polygon>
            <path d="M28.93,24.94 L28.93,20.2 L32.27,20.2 C33.91,20.2 35.61,20.48 35.61,22.57 C35.6026127,23.2624262 35.3094939,23.9210388 34.8,24.39 C34.0956423,24.8640497 33.2404987,25.0600201 32.4,24.94 L28.93,24.94" id="Path"></path>
            <path d="M28.93,35.92 L28.93,30.87 L32.32,30.87 C33.1638197,30.8093912 34.0106181,30.9357281 34.8,31.24 C35.5611725,31.6223486 36.0665717,32.3753391 36.1320588,33.2246244 C36.1975458,34.0739097 35.8135585,34.8954793 35.12,35.39 C34.3802855,35.8500994 33.5031635,36.0375489 32.64,35.92 L28.93,35.92" id="Path"></path>
        </g>
    </g>
</svg>