<?xml version="1.0" encoding="UTF-8"?>
<svg id="berkeley" viewBox="0 0 461 142" version="1.1" xmlns="http://www.w3.org/2000/svg" xmlns:xlink="http://www.w3.org/1999/xlink">
    <g stroke="none" stroke-width="1" fill="none" fill-rule="evenodd">
        <g transform="translate(0, 0)" fill="currentColor" fill-rule="nonzero">
            <path d="M46.3974305,0 C31.2691409,0 23.2000131,1.01102748 19.6687017,1.01102748 C13.7849852,1.01102748 8.57400254,0.841945581 3.36085671,0.841945581 C0.504225848,0.841945581 0,1.01102748 0,2.18853892 C0,4.206264 0.671652191,4.37686135 8.23850092,4.37686135 C12.943311,4.37686135 15.6361928,5.89123763 15.6361928,19.1826768 L15.6361928,96.5793199 C15.6361928,99.1027752 15.2978791,99.4396401 7.73362613,99.4396401 C4.03467203,99.4396401 3.02513877,99.7741235 3.02513877,101.458664 C3.02513877,103.140823 4.20209838,103.308606 5.88523065,103.308606 C11.2634234,103.308606 14.9623775,102.636392 22.0221883,102.636392 C29.4187986,102.636392 36.4805562,104.317036 43.5416649,104.317036 C66.910186,104.317036 82.5455135,95.4022415 82.5455135,76.557079 C82.5455135,61.9194794 72.6238803,56.1975402 64.7230441,52.1571107 C61.3606732,50.4753845 58.165945,49.6343049 58.165945,49.2989555 C58.165945,48.7956067 61.8648991,46.9434996 65.0609252,44.7556102 C70.4417137,41.0548599 77.6702487,35.1631893 77.6702487,23.218127 C77.6702487,11.2717657 68.2547882,0 46.3967816,0 L46.3974305,0 Z M334.445369,0.192896249 C333.568003,0.192896249 328.011136,2.68084652 316.606027,3.4125966 C314.121239,3.55873012 312.949254,3.41108114 312.949254,5.16749783 C312.949254,6.77886347 314.413045,7.07242948 317.045143,7.07242948 C323.623873,7.07242948 324.502104,7.0715635 324.502104,16.2900991 L324.502104,96.9261435 C324.502104,99.5604438 322.015153,99.4145268 316.020684,99.4145268 C312.509706,99.4145268 312.364127,100.295008 312.364127,101.319458 C312.364127,102.489826 312.655717,102.782309 316.020684,102.782309 C318.067655,102.782309 325.818802,102.490692 330.788596,102.490692 C333.423722,102.490692 336.639865,102.782309 338.832848,102.782309 C344.095962,102.782309 345.119339,102.782309 345.119339,101.319458 C345.119339,100.14606 345.411362,99.2686097 338.099979,99.2686097 C335.468963,99.2686097 334.445153,97.658976 334.445153,85.5136567 C334.445153,81.2675577 335.176291,69.7082879 335.176291,13.9487153 C335.176291,9.55929728 335.906997,4.28831526 335.906997,2.53189858 C335.906997,0.921831906 335.175209,0.191597284 334.445153,0.191597284 L334.445369,0.192896249 Z M213.047859,0.338163795 C211.730945,0.338163795 203.102647,3.55656518 192.576203,3.55656518 C190.967482,3.55656518 190.675027,4.14261473 190.675027,5.60524891 C190.675027,6.63229696 191.259937,7.07264597 197.253108,7.07264597 C201.200823,7.07264597 202.371725,8.38979611 202.371725,18.7789153 C202.371725,49.6592017 201.932177,92.976858 201.932177,97.2201425 C201.932177,99.4149597 200.616993,99.4147432 195.645686,99.4147432 C192.136006,99.4147432 191.405949,100.146493 191.405949,101.319675 C191.405949,102.635959 192.283315,102.782526 195.645686,102.782526 C197.69244,102.782526 203.103513,102.490908 208.077416,102.490908 C212.756485,102.490908 219.480145,102.782526 221.672911,102.782526 C224.889487,102.782526 225.621274,102.782309 225.621274,101.319675 C225.621274,100.146277 225.036796,99.4145268 221.672911,99.4145268 C212.608094,99.4145268 212.902064,99.4156092 212.902064,92.5393234 L212.902064,83.3194889 C212.902064,82.0014728 214.948386,80.9757237 217.287596,79.5117905 C219.772384,77.9017239 221.81849,76.4397392 222.403833,76.4397392 C223.281199,76.4397392 229.426005,85.6613056 235.566486,92.6854569 C241.707182,99.7091752 243.02388,103.368142 245.657492,103.368142 C247.704463,103.368142 252.090427,103.222225 253.845159,103.222225 C255.160776,103.222225 257.061086,103.368142 258.816034,103.368142 C262.032178,103.368142 263.055771,103.075226 263.055771,102.050992 C263.055771,100.880625 261.887032,100.14606 258.378649,100.14606 C253.407558,100.14606 248.728056,92.976425 243.754153,86.9767238 C233.519947,74.682673 230.88958,71.9033217 230.88958,70.585522 C230.88958,69.5612884 239.954397,63.1238362 247.267078,55.9509534 C251.798837,51.5615354 256.769063,45.2700002 256.769063,43.9506851 C256.769063,43.511202 256.185018,43.3650685 255.015629,43.3650685 C253.262195,43.3650685 244.778395,43.8028196 242.877436,43.8028196 C241.122704,43.8028196 238.346109,43.3650685 236.884481,43.3650685 C234.983738,43.3650685 234.252383,43.6573356 234.252383,44.8303006 C234.252383,46.1481003 234.983089,46.4390683 237.175855,46.4390683 C243.608574,46.4390683 244.04769,46.7326344 244.04769,49.0733686 C244.04769,52.146286 242.731425,54.6346692 237.030276,60.0483209 C232.350991,64.4405533 217.140719,77.9028063 213.485027,77.9028063 C213.046993,77.9028063 212.902064,77.4633233 212.902064,76.8774903 C212.902064,53.0239531 213.776618,36.6340503 213.776618,14.3892808 C213.776618,9.70608028 214.070154,3.55634869 214.070154,1.65509745 C214.070154,0.777213843 213.777915,0.338163795 213.047859,0.338163795 L213.047859,0.338163795 Z M41.3519273,4.03869756 C56.6506717,4.03869756 63.712213,20.1919723 63.712213,28.6055828 C63.712213,41.897022 58.1644308,45.0939905 53.289166,48.7960397 C53.289166,48.7960397 46.2269758,47.7854452 35.9737346,47.7854452 C31.9366831,47.7854452 29.7525697,48.1207946 29.7525697,45.4280409 L29.7525697,8.91912421 C29.7525697,5.55393981 30.2576608,4.03956354 41.351711,4.03956354 L41.3519273,4.03869756 Z M115.076841,41.9007024 C101.77099,41.9007024 87.8782805,54.1949697 87.8782805,74.829456 C87.8782805,99.2690427 105.718704,105.125208 117.707858,105.125208 C129.552298,105.125208 141.981649,95.9021264 141.981649,95.1714588 C141.981649,94.8778928 141.54275,94.0002256 140.811395,94.0002256 C139.935327,94.0002256 134.671348,97.513925 125.021187,97.513925 C113.906587,97.513925 98.2589301,92.0985414 98.2589301,71.9024557 C98.2589301,68.5372713 98.6993436,67.8053047 101.040717,67.6591712 C117.707641,66.6349376 132.330407,63.4171857 136.132326,62.5362711 C140.082636,61.6581711 142.129607,61.073637 142.129607,60.4875874 C142.129607,59.3172203 139.788234,55.8041704 137.300633,52.8786855 C132.037519,46.7315519 122.68068,41.9020014 115.07576,41.9020014 L115.076841,41.9007024 Z M285.577643,41.9007024 C272.273089,41.9007024 258.378866,54.1949697 258.378866,74.829456 C258.378866,99.2690427 276.218207,105.125208 288.208443,105.125208 C300.051585,105.125208 312.48245,95.9021264 312.48245,95.1714588 C312.48245,94.8778928 312.042253,94.0002256 311.312197,94.0002256 C310.434614,94.0002256 305.169986,97.513925 295.519609,97.513925 C284.406524,97.513925 268.761462,92.0985414 268.761462,71.9024557 C268.761462,68.5372713 269.200578,67.8053047 271.539139,67.6591712 C288.208875,66.6349376 302.828829,63.4171857 306.633344,62.5362711 C310.581058,61.6581711 312.628462,61.073637 312.628462,60.4875874 C312.628462,59.3172203 310.289901,55.8041704 307.803598,52.8786855 C302.537672,46.7315519 293.181265,41.9020014 285.576561,41.9020014 L285.577643,41.9007024 Z M369.918122,41.9007024 C356.610757,41.9007024 342.719345,54.1949697 342.719345,74.829456 C342.719345,99.2690427 360.558687,105.125208 372.548922,105.125208 C384.393579,105.125208 396.823146,95.9021264 396.823146,95.1714588 C396.823146,94.8778928 396.382949,94.0002256 395.652893,94.0002256 C394.77531,94.0002256 389.513278,97.513925 379.860305,97.513925 C368.748517,97.513925 353.102158,92.0985414 353.102158,71.9024557 C353.102158,68.5372713 353.541274,67.8053047 355.880051,67.6591712 C372.549788,66.6349376 387.172554,63.4171857 390.974256,62.5362711 C394.921971,61.6581711 396.969374,61.073637 396.969374,60.4875874 C396.969374,59.3172203 394.631029,55.8041704 392.14451,52.8786855 C386.881396,46.7315519 377.521744,41.9020014 369.919637,41.9020014 L369.918122,41.9007024 Z M165.961904,42.92407 C163.620314,42.92407 160.841772,43.6556036 158.502779,43.6556036 C155.578658,43.6556036 152.799684,43.3616046 147.828592,43.3616046 C145.340992,43.3616046 145.488084,43.8028196 145.488084,45.5603188 C145.488084,47.1706019 145.487219,47.0233859 148.122345,47.0233859 C156.309796,47.0233859 156.01626,47.316086 156.01626,57.2668046 L156.01626,97.3669255 C156.01626,99.4156092 155.578658,99.5615263 149.583973,99.5615263 C146.072995,99.5615263 145.9272,99.8529273 145.9272,101.318376 C145.9272,102.782526 146.21879,102.781443 149.583973,102.781443 C151.630944,102.781443 156.603117,102.04991 161.574209,102.04991 C166.254791,102.04991 176.050747,102.781443 178.097501,102.781443 C181.899204,102.781443 182.045864,102.928659 182.045864,101.318376 C182.045864,99.9990608 181.899204,99.5615263 178.097501,99.5615263 C167.277952,99.5615263 166.840567,99.5602273 166.840567,92.390159 L166.840567,62.2405402 C166.840567,56.094922 170.055413,52.5827381 178.534886,52.5827381 C185.847567,52.5827381 187.603381,58.5828723 189.650352,58.5828723 C190.527718,58.5828723 192.86563,52.1443375 192.86563,50.6801879 C192.86563,46.8763864 186.140455,43.6545211 183.505329,43.6545211 C176.633494,43.6545211 169.764039,51.2658045 167.571273,51.2658045 C166.98593,51.2658045 166.840351,50.2417873 166.840351,48.9255032 C166.840351,48.4855871 167.131941,45.2661033 167.131941,44.5339202 C167.131941,43.3609551 166.547031,42.9229876 165.961687,42.9229876 L165.961904,42.92407 Z M457.930517,43.0697706 C455.883546,43.0697706 451.935616,43.6556036 449.74285,43.6556036 C445.792323,43.6556036 443.160875,43.3637696 439.214242,43.3637696 C436.581928,43.3637696 436.142812,43.3626871 436.142812,45.2665363 C436.142812,46.7304694 436.728155,46.7317684 441.261429,46.7317684 C446.231223,46.7317684 446.229925,47.6085695 446.229925,51.998204 C446.229925,54.0466713 440.96746,69.2690214 437.458861,79.8040576 C435.120084,86.6846733 434.242502,88.7322745 433.219124,88.7322745 C432.633781,88.7322745 430.8784,86.2447573 429.706199,83.1720564 C420.934703,60.6322055 417.133,55.5095219 417.133,51.2662374 C417.133,47.901053 418.01015,47.0229529 421.518532,47.0229529 C424.58888,47.0229529 425.175089,46.8763864 425.175089,45.5598858 C425.175089,43.9470047 424.58888,43.3631201 421.518532,43.3631201 C416.840761,43.3631201 411.720846,43.8008712 407.627121,43.8008712 C404.118739,43.8008712 403.09601,43.5090371 399.002285,43.5090371 C396.36997,43.5090371 395.932802,44.2418697 395.932802,45.5598858 C395.932802,46.8763864 396.077948,47.0229529 399.002285,47.0229529 C401.633085,47.0229529 402.657544,47.7557855 406.313235,56.5346215 C414.356189,75.5601236 426.051806,102.634227 426.051806,104.24451 C426.051806,108.633928 413.480337,125.901715 408.214627,132.486166 C403.243319,138.780733 396.36997,139.658616 396.36997,140.536933 C396.36997,141.268899 397.831814,142 400.318117,142 C403.534693,142 404.557422,140.829633 408.94317,140.245099 C412.162125,139.805616 413.916641,139.658616 415.525577,136.439782 C420.203348,126.780031 426.784891,114.925031 435.997233,92.534777 C447.548353,64.4392543 453.983235,46.8761699 457.199595,46.8761699 C458.954543,46.8761699 461,46.1439869 461,44.8274862 C461,43.2159041 460.269511,43.0684716 457.930517,43.0684716 L457.930517,43.0697706 Z M113.614132,44.9749187 C120.34147,44.9749187 128.967171,55.8024385 128.967171,59.4611889 C128.967171,60.339289 128.82289,60.631989 127.213953,60.924256 C116.246879,62.6804562 108.350585,64.5860373 100.74718,64.5860373 C98.9909336,64.5860373 98.9917989,64.4383884 98.9917989,63.7064218 C98.9917989,61.6551401 102.502128,44.9744857 113.613916,44.9744857 L113.614132,44.9749187 Z M284.112122,44.9749187 C290.840757,44.9749187 299.467324,55.8024385 299.467324,59.4611889 C299.467324,60.339289 299.32088,60.631989 297.711943,60.924256 C286.744868,62.6804562 278.84944,64.5860373 271.247332,64.5860373 C269.4926,64.5860373 269.491951,64.4383884 269.491951,63.7064218 C269.491951,61.6551401 273.000334,44.9744857 284.111905,44.9744857 L284.112122,44.9749187 Z M368.452601,44.9749187 C375.178641,44.9749187 383.807803,55.8024385 383.807803,59.4611889 C383.807803,60.339289 383.661359,60.631989 382.052422,60.924256 C371.085348,62.6804562 363.190352,64.5860373 355.585649,64.5860373 C353.830917,64.5860373 353.830268,64.4383884 353.830268,63.7064218 C353.830268,61.6551401 357.338001,44.9744857 368.452385,44.9744857 L368.452601,44.9749187 Z M35.8171239,50.9785168 C54.1401418,50.9785168 66.5794432,62.7573116 66.5794432,77.9010744 C66.5794432,92.5388904 57.1665785,101.290665 44.3906938,101.290665 C39.0099054,101.290665 33.6323616,100.112071 31.7815866,98.0919643 C30.2699907,96.4087226 29.7642506,86.987765 29.7642506,85.4723063 L29.7642506,55.3527802 C29.7642506,51.6520299 31.1107997,50.9785168 35.8184218,50.9785168 L35.8171239,50.9785168 Z M119.181383,119.664953 C115.727295,119.664953 112.846221,121.75044 112.846221,125.206336 C112.846221,131.774334 121.492472,130.603317 121.492472,134.259253 C121.492472,135.715176 120.379108,136.971924 118.125342,136.971924 C116.612448,136.971924 114.701322,136.259659 113.101903,135.17459 L111.676183,137.68852 C113.274088,138.80065 115.441762,139.859739 118.125558,139.859739 C121.863665,139.859739 124.974031,137.457304 124.974031,134.145161 C124.974031,127.489266 116.327564,129.490971 116.327564,125.062584 C116.327564,123.606661 117.298377,122.551035 119.181599,122.551035 C120.864731,122.551035 122.176454,123.12258 123.632457,123.863856 L124.859818,121.407081 C123.206537,120.380249 121.235275,119.665169 119.181599,119.665169 L119.181383,119.664953 Z M188.112366,119.664953 C182.234057,119.664953 179.609963,123.864289 179.609963,129.747516 C179.609963,135.345404 182.20572,139.859956 188.112366,139.859956 C194.019011,139.859956 196.616932,135.345404 196.616932,129.747516 C196.616932,123.864289 193.990674,119.664953 188.112366,119.664953 L188.112366,119.664953 Z M233.935485,119.664953 C228.057176,119.664953 225.17329,123.892433 225.17329,129.777176 C225.17329,135.774062 227.801494,139.859739 233.821488,139.859739 C236.44688,139.859739 238.901385,138.772289 240.898171,136.94443 L239.157499,134.718221 C237.559594,136.175226 235.733912,136.971924 233.992591,136.971924 C230.367833,136.971924 228.654417,134.375294 228.654417,129.747733 C228.654417,125.149831 230.482695,122.550819 233.935485,122.550819 C235.79037,122.550819 237.160064,123.208528 238.67166,124.464194 L240.44175,122.178882 C238.386776,120.492826 236.361004,119.664953 233.935701,119.664953 L233.935485,119.664953 Z M308.231033,119.664953 C302.351426,119.664953 299.72863,123.864289 299.72863,129.747516 C299.72863,135.345404 302.324387,139.859956 308.231033,139.859956 C314.137678,139.859956 316.735599,135.345404 316.735599,129.747516 C316.735599,123.864289 314.109341,119.664953 308.231033,119.664953 L308.231033,119.664953 Z M35.1627768,119.950292 L31.8800091,120.29495 L31.8800091,139.54474 L35.2765575,139.54474 L35.2765575,126.407012 L35.3336641,126.407012 L43.5806013,139.54474 L46.60574,139.54474 L46.60574,119.979951 L43.2089754,119.979951 L43.2089754,132.834289 L43.1246132,132.834289 L35.1629931,119.950508 L35.1627768,119.950292 Z M78.7282361,119.950292 L78.7282361,139.54474 L90.599932,139.54474 L90.8577772,136.658874 L82.1247845,136.658874 L82.1247845,131.119439 L89.459313,131.119439 L89.459313,128.233573 L82.1247845,128.233573 L82.1247845,122.836375 L90.3717216,122.836375 L90.3717216,119.950508 L78.7282361,119.950292 Z M200.985591,119.950292 L200.985591,139.54474 L204.380409,139.54474 L204.380409,131.119439 L211.573469,131.119439 L211.573469,128.233573 L204.380409,128.233573 L204.380409,122.836375 L212.399136,122.836375 L212.399136,119.950508 L200.985591,119.950292 Z M253.484782,119.950292 L249.519762,120.265291 L242.641655,139.54474 L245.810425,139.54474 L247.434937,134.829932 L255.312195,134.829932 L256.938869,139.54474 L260.422159,139.54474 L253.484998,119.950292 L253.484782,119.950292 Z M286.123833,119.950292 L286.123833,139.54474 L289.518651,139.54474 L289.518651,131.119439 L296.711495,131.119439 L296.711495,128.233573 L289.518651,128.233573 L289.518651,122.836375 L297.539541,122.836375 L297.539541,119.950508 L286.123833,119.950292 Z M339.593621,119.950292 L336.310853,120.29495 L336.310853,139.54474 L339.705671,139.54474 L339.705671,126.407012 L339.764941,126.407012 L348.009715,139.54474 L351.034854,139.54474 L351.034854,119.979951 L347.640036,119.979951 L347.640036,132.834289 L347.553511,132.834289 L339.593621,119.950508 L339.593621,119.950292 Z M372.316386,119.950292 L368.349203,120.265291 L361.471096,139.54474 L364.639866,139.54474 L366.266541,134.829932 L374.14142,134.829932 L375.768094,139.54474 L379.2516,139.54474 L372.316602,119.950292 L372.316386,119.950292 Z M12.6958488,119.979735 L12.6958488,132.74531 C12.6958488,137.14447 15.1207187,139.859739 19.9163802,139.859739 C24.68046,139.859739 27.1070604,137.14512 27.1070604,132.717815 L27.1070604,119.979735 L23.7100794,119.979735 L23.7100794,132.946216 C23.7100794,135.375064 22.6849716,136.971708 19.9161639,136.971708 C17.1192354,136.971708 16.0906666,135.373981 16.0906666,132.916773 L16.0906666,119.979735 L12.6962814,119.979735 L12.6958488,119.979735 Z M51.4429337,119.979735 L51.4429337,139.54474 L54.8377516,139.54474 L54.8377516,119.979735 L51.4429337,119.979735 Z M58.1752465,119.979735 L64.909506,139.54474 L68.6463149,139.54474 L75.4104257,119.979735 L72.0705514,119.979735 L68.3337425,130.918749 C68.3337425,130.918749 67.9631981,132.031312 66.9926012,135.373332 L66.8212813,135.373332 C65.8790214,132.031312 65.5093423,130.889306 65.5093423,130.889306 L61.7703703,119.979735 L58.1752465,119.979735 Z M95.3512493,119.979735 L95.3512493,139.54474 L98.7460672,139.54474 L98.7460672,131.717829 L100.372742,131.717829 C101.600319,131.717829 102.313936,132.862433 102.884353,134.033017 L105.59454,139.544524 L109.333512,139.544524 L105.59454,132.48963 C105.367411,132.032178 105.024122,131.517139 104.396814,131.145202 L104.396814,131.089996 C106.964235,130.118587 108.07868,128.12013 108.07868,125.779396 C108.07868,122.380438 105.937396,119.979951 101.627358,119.979951 L95.3514656,119.979951 L95.3512493,119.979735 Z M129.017788,119.979735 L129.017788,139.54474 L132.412606,139.54474 L132.412606,119.979735 L129.017788,119.979735 Z M136.320519,119.979735 L136.320519,122.893313 L141.487374,122.893313 L141.487374,139.54474 L144.882191,139.54474 L144.882191,122.863436 L149.818889,122.863436 L150.076734,119.979735 L136.320519,119.979735 Z M152.298919,119.979735 L158.463193,131.174645 L158.463193,139.54474 L161.857795,139.54474 L161.857795,131.174429 L168.024233,119.979735 L164.283098,119.979735 L161.515804,125.550778 C161.515804,125.550778 161.17338,126.262827 160.204081,128.434479 L160.119719,128.434479 C159.090934,126.262827 158.719092,125.550778 158.719092,125.550778 L156.122902,119.979735 L152.299568,119.979735 L152.298919,119.979735 Z M263.173013,119.979735 L263.173013,139.54474 L274.729973,139.54474 L274.987818,136.658874 L266.569561,136.658874 L266.569561,119.979735 L263.173013,119.979735 Z M278.293732,119.979735 L278.293732,139.54474 L281.688549,139.54474 L281.688549,119.979735 L278.293732,119.979735 Z M319.663613,119.979735 L319.663613,139.54474 L323.060378,139.54474 L323.060378,131.717829 L324.687052,131.717829 C325.913115,131.717829 326.62803,132.862433 327.198447,134.033017 L329.908851,139.544524 L333.648039,139.544524 L329.909067,132.48963 C329.681938,132.032178 329.338649,131.517139 328.711341,131.145202 L328.711341,131.089996 C331.278545,130.118587 332.393207,128.12013 332.393207,125.779396 C332.393207,122.380438 330.251707,119.979951 325.941885,119.979951 L319.663613,119.979951 L319.663613,119.979735 Z M355.301197,119.979735 L355.301197,139.54474 L358.696015,139.54474 L358.696015,119.979735 L355.301197,119.979735 Z M188.10739,122.550602 C191.475385,122.550602 193.101411,125.492108 193.101411,129.747516 C193.101411,134.002924 191.448346,136.971708 188.10739,136.971708 C184.741126,136.971708 183.086331,134.001625 183.086331,129.71764 C183.086331,125.462232 184.741126,122.550602 188.10739,122.550602 L188.10739,122.550602 Z M308.223462,122.550602 C311.59124,122.550602 313.217266,125.492108 313.217266,129.747516 C313.217266,134.002924 311.562903,136.971708 308.223462,136.971708 C304.855683,136.971708 303.202186,134.001625 303.202186,129.71764 C303.202186,125.462232 304.855899,122.550602 308.223462,122.550602 L308.223462,122.550602 Z M98.7458509,122.893313 L101.542779,122.893313 C103.854517,122.893313 104.597337,123.978598 104.597337,125.806674 C104.597337,127.663111 103.65486,128.861622 101.599886,128.861622 L98.7458509,128.861622 L98.7458509,122.893313 Z M323.059729,122.893313 L325.856657,122.893313 C328.168612,122.893313 328.911431,123.978598 328.911431,125.806674 C328.911431,127.663111 327.968738,128.861622 325.913764,128.861622 L323.059729,128.861622 L323.059729,122.893313 Z M251.303264,123.407053 L251.360371,123.407053 C252.701512,127.461988 252.929938,128.089821 252.929938,128.089821 L254.4424,132.403033 L248.248923,132.403033 L249.761384,128.090037 C249.761384,128.090037 249.990676,127.462204 251.30348,123.407053 L251.303264,123.407053 Z M370.134868,123.407053 L370.191975,123.407053 C371.533116,127.461988 371.763706,128.089821 371.763706,128.089821 L373.274004,132.403033 L367.080527,132.403033 L368.595151,128.090037 C368.595151,128.090037 368.82228,127.462204 370.135084,123.407053 L370.134868,123.407053 Z" id="Shape"></path>
        </g>
    </g>
</svg>