<?xml version="1.0" encoding="UTF-8"?>
<svg id="betterment" viewBox="0 0 481 64" version="1.1" xmlns="http://www.w3.org/2000/svg" xmlns:xlink="http://www.w3.org/1999/xlink">
    <g stroke="none" stroke-width="1" fill="none" fill-rule="evenodd">
        <g transform="translate(0.9597, 0.752)" fill="currentColor" fill-rule="nonzero">
            <path d="M449.7,44.3 C449.7,55.9 455.8,62.3 467.4,62.3 C472.4,62.3 476.4,61.3 479.9,59.6 L476.4,48.6 C474.528808,49.6259135 472.433836,50.1754143 470.3,50.2 C465.9,50.2 463.7,47.6 463.7,42.8 L463.7,26.9 L477.4,26.9 L477.4,15.7 L463.6,15.7 L463.6,0 L449.7,4.6 L449.7,44.3 Z" id="Path"></path>
            <path d="M358,33.2 C359.189122,28.7818646 363.225111,25.7342813 367.8,25.8 C372.3,25.8 375.8,28.4 377.1,33.2 L358,33.2 Z M391.1,38.2 C390.9,24.2 381.3,14.2 367.8,14.2 C354.1,14.2 343.8,24.6 343.8,38.2 C343.8,51.2 353.3,62.2 367.7,62.2 C378.1,62.2 387.5,55.7 390.3,46.7 L376.8,46.7 C374.8,49.5 371.8,50.9 367.7,50.9 C362.7,50.9 358.8,47.5 357.7,41.9 L391.1,41.9 L391.1,38.3 L391.1,38.2 Z" id="Shape"></path>
            <path d="M428.6,60.9 L442.4,60.9 L442.4,33.1 C442.4,27.5 440.7,22.8 437.6,19.4 C434.397129,15.9890446 429.875888,14.129502 425.2,14.3 C419.866127,14.2320168 414.749355,16.4093668 411.1,20.3 L411.1,15.6 L397.1,15.6 L397.1,60.9 L411.1,60.9 L411.1,39.9 C411.1,31.6 414.5,27.1 420.6,27.1 C425.4,27.1 428.6,30.7 428.6,36.1 L428.6,60.9 Z" id="Path"></path>
            <path d="M324.2,60.9 L338,60.9 L338,33.6 C338,21.8 331.2,14.4 321.1,14.4 C314.4,14.4 308.9,17.1 305.1,22.2 C302.1,17.2 297,14.4 290.6,14.4 C285,14.4 280.6,16.3 277.3,20.1 L277.3,15.6 L263.3,15.6 L263.3,60.9 L277.3,60.9 L277.3,38.7 C277.3,31.3 280.3,27.1 285.9,27.1 C291.1,27.1 293.7,30.1 293.7,35.6 L293.7,60.9 L307.7,60.9 L307.7,38.7 C307.7,31.3 310.9,27.1 316.7,27.1 C321.2,27.1 324.2,30.8 324.2,35.9 L324.2,60.9 L324.2,60.9 Z" id="Path"></path>
            <path d="M225.6,60.9 L239.5,60.9 L239.5,46.6 C239.5,34 245.2,28.9 254.3,28.9 C256.6,28.9 258.1,29.2 258.1,29.2 L258.1,15.4 C257.1,15.1 256.2,15 254.9,15 C248.2,15 243.2,18.3 239.5,24.7 L239.5,15.7 L225.5,15.7 L225.5,60.9 L225.6,60.9 Z" id="Path"></path>
            <path d="M186.4,33.2 C187.589122,28.7818646 191.625111,25.7342813 196.2,25.8 C200.8,25.8 204.3,28.4 205.5,33.2 L186.4,33.2 L186.4,33.2 Z M219.6,38.2 C219.3,24.2 209.6,14.2 196.2,14.2 C182.5,14.2 172.2,24.6 172.2,38.2 C172.2,51.2 181.7,62.2 196.2,62.2 C206.5,62.2 216,55.7 218.7,46.7 L205.2,46.7 C203.2,49.5 200.2,50.9 196.2,50.9 C191.2,50.9 187.2,47.5 186.2,41.9 L219.6,41.9 L219.6,38.3 L219.6,38.2 Z" id="Shape"></path>
            <path d="M121.3,26.9 L140.7,26.9 L140.7,44.3 C140.7,55.9 146.7,62.3 158.4,62.3 C163.4,62.3 167.4,61.3 170.9,59.6 L167.3,48.6 C165.458612,49.6101829 163.399884,50.1591773 161.3,50.2 C156.8,50.2 154.6,47.6 154.6,42.8 L154.6,26.9 L168.3,26.9 L168.3,15.7 L154.6,15.7 L154.6,0 L140.7,4.6 L140.7,15.6 L121.3,15.6 L121.3,0.2 L107.4,4.6 L107.4,44.3 C107.4,55.9 113.4,62.3 125.1,62.3 C130.1,62.3 134.1,61.3 137.6,59.6 L134,48.6 C132.158612,49.6101829 130.099884,50.1591773 128,50.2 C123.5,50.2 121.3,47.6 121.3,42.8 L121.3,26.9 Z" id="Path"></path>
            <path d="M68.5,33.2 C69.689122,28.7818646 73.7251106,25.7342813 78.3,25.8 C82.8,25.8 86.4,28.4 87.6,33.2 L68.5,33.2 Z M101.6,38.2 C101.4,24.2 91.8,14.2 78.3,14.2 C64.6,14.2 54.3,24.6 54.3,38.2 C54.3,51.2 63.8,62.2 78.2,62.2 C88.6,62.2 98,55.7 100.8,46.7 L87.3,46.7 C85.3,49.5 82.3,50.9 78.2,50.9 C73.2,50.9 69.3,47.5 68.2,41.9 L101.6,41.9 L101.6,38.3 L101.6,38.2 Z" id="Shape"></path>
            <path d="M28.3,49.1 L14,49.1 L14,36.9 L28.3,36.9 C31.6,36.9 34.9,39 34.9,43.1 C34.9,46.6 32.2,49.1 28.3,49.1 L28.3,49.1 Z M14,13.2 L26.5,13.2 C31.1,13.2 33.1,16.2 33.1,19.2 C33.1,23.5 29.7,25.5 26.5,25.5 L14,25.5 L14,13.2 Z M40.7,29.6 C40.7,29.6 48,25.8 48,16.6 C48,9.4 41.7,1.3 29.2,1.3 L0,1.3 L0,61 L29.2,61 C45.2,61 49.6,51 49.6,44.2 C49.6,33.3 40.7,29.6 40.7,29.6 Z" id="Shape"></path>
        </g>
    </g>
</svg>