<?xml version="1.0" encoding="UTF-8"?>
<svg id="cisco" viewBox="0 0 356 203" version="1.1" xmlns="http://www.w3.org/2000/svg" xmlns:xlink="http://www.w3.org/1999/xlink">
    <defs>
        <polygon id="path-1" points="-8.55595761e-14 0 356 0 356 203 -8.55595761e-14 203"></polygon>
    </defs>
    <g stroke="none" stroke-width="1" fill="none" fill-rule="evenodd">
        <g transform="translate(0, 0)">
            <polygon id="Path" fill="currentColor" fill-rule="nonzero" points="116 182 101 182 101 124 116 124"></polygon>
            <g id="Group" transform="translate(178, 101.5) scale(-1, 1) rotate(-180) translate(-178, -101.5)translate(-0, 0)">
                <g id="Clipped" transform="translate(0, 0)">
                    <mask id="mask-2" fill="white">
                        <use xlink:href="#path-1"></use>
                    </mask>
                    <g id="a"></g>
                    <g id="Group" mask="url(#mask-2)" fill="currentColor" fill-rule="nonzero">
                        <g transform="translate(7.188, 20.572)" id="Shape">
                            <path d="M225.960784,42.2476058 C225.361015,42.552376 220.673587,45.332249 213.707036,45.332249 C204.290657,45.332249 197.757785,38.7750734 197.757785,29.9228862 C197.757785,21.3385273 204.009227,14.4996702 213.707036,14.4996702 C220.553633,14.4996702 225.319493,17.2241305 225.960784,17.5658425 L225.960784,2.05950729 C224.133795,1.55155706 219.155709,0.00461772935 212.687428,0.00461772935 C196.304498,0.00461772935 181.923875,11.3088192 181.923875,29.9275039 C181.923875,47.174723 194.934256,59.8273015 212.687428,59.8273015 C219.515571,59.8273015 224.581315,58.1649189 225.960784,57.753941 L225.960784,42.2476058 Z M73.928489,42.2476058 C73.3425606,42.552376 68.6597463,45.332249 61.6931949,45.332249 C52.2583622,45.332249 45.7301038,38.7750734 45.7301038,29.9228862 C45.7301038,21.3385273 51.9861592,14.4996702 61.6931949,14.4996702 C68.5397924,14.4996702 73.3010381,17.2241305 73.928489,17.5658425 L73.928489,2.05950729 C72.1199539,1.55155706 67.1464821,0.00461772935 60.6412918,0.00461772935 C44.272203,0.00461772935 29.9100346,11.3088192 29.9100346,29.9275039 C29.9100346,47.174723 42.9204152,59.8273015 60.6459054,59.8273015 C67.5017301,59.8273015 72.5582468,58.1649189 73.928489,57.753941 L73.928489,42.2476058 L73.928489,42.2476058 Z M271.778547,45.1152158 C263.137255,45.1152158 256.719723,38.3086827 256.719723,29.9228862 C256.719723,21.5186188 263.137255,14.7167034 271.778547,14.7167034 C280.410611,14.7167034 286.846597,21.5186188 286.846597,29.9228862 C286.846597,38.3086827 280.410611,45.1152158 271.778547,45.1152158 M302.279123,29.9228862 C302.279123,13.3960328 289.531719,0.00461772935 271.78316,0.00461772935 C254.025375,0.00461772935 241.296424,13.3960328 241.296424,29.9275039 C241.296424,46.4220332 254.029988,59.8273015 271.778547,59.8273015 C289.531719,59.8273015 302.279123,46.4220332 302.279123,29.9228862 M163.750865,45.6693433 C163.534025,45.7386092 157.402537,47.4333159 152.364475,47.4333159 C146.528258,47.4333159 143.354095,45.4753986 143.354095,42.7001433 C143.354095,39.1814335 147.635525,37.9531175 150.029988,37.1958099 L154.048443,35.9166989 C163.506344,32.9059394 167.810842,26.4272651 167.810842,19.3898455 C167.810842,4.87632219 155.058824,0 143.912341,0 C136.16609,0 128.908881,1.4314961 128.193772,1.57926344 L128.193772,14.878324 C129.476355,14.5550829 135.584775,12.7264621 141.946943,12.7264621 C149.194925,12.7264621 152.525952,14.8506176 152.525952,18.11997 C152.525952,21.0476104 149.642445,22.7376993 146.029988,23.8736607 C145.153403,24.1691954 143.824683,24.5847911 142.920415,24.8803257 C134.809689,27.4477833 128.046136,32.2225154 128.046136,41.7812152 C128.046136,52.5867018 136.129181,59.8411547 149.554787,59.8411547 C156.645905,59.8411547 163.317186,58.1187416 163.750865,58.0032984 L163.750865,45.673961 L163.750865,45.6693433 Z"></path>
                            <path d="M14.4636678,120.887537 C14.4636678,124.868019 11.2156863,128.095812 7.23414072,128.095812 C3.25259516,128.095812 8.35383545e-14,124.868019 8.35383545e-14,120.892154 L8.35383545e-14,105.722913 C0.0990917035,101.796518 3.3076898,98.665152 7.23183391,98.665152 C11.155978,98.665152 14.3645761,101.796518 14.4636678,105.722913 L14.4636678,120.887537 L14.4636678,120.887537 Z M54.1822376,140.78995 C54.1822376,144.787548 50.9444353,148.028241 46.9504037,148.028241 C42.9563721,148.028241 39.7185698,144.787548 39.7185698,140.78995 L39.7185698,105.722913 C39.7185698,101.725316 42.9563721,98.4846227 46.9504037,98.4846227 C50.9444353,98.4846227 54.1822376,101.725316 54.1822376,105.722913 L54.1822376,140.794568 L54.1822376,140.78995 Z M93.905421,168.025318 C93.905421,172.005801 90.6574394,175.238211 86.6758939,175.238211 C82.6897347,175.238211 79.4417532,172.005801 79.4417532,168.025318 L79.4417532,91.3109802 C79.5408449,87.3845849 82.749443,84.2532187 86.6735871,84.2532187 C90.5977312,84.2532187 93.8063293,87.3845849 93.905421,91.3109802 L93.905421,168.025318 L93.905421,168.025318 Z M133.623991,140.78995 C133.623991,144.787548 130.386188,148.028241 126.392157,148.028241 C122.398125,148.028241 119.160323,144.787548 119.160323,140.78995 L119.160323,105.722913 C119.160323,101.725316 122.398125,98.4846227 126.392157,98.4846227 C130.386188,98.4846227 133.623991,101.725316 133.623991,105.722913 L133.623991,140.794568 L133.623991,140.78995 Z M173.30104,120.887537 C173.303588,124.864206 170.086153,128.090715 166.113033,128.095814 C162.131809,128.098386 158.898759,124.876905 158.883506,120.892154 L158.883506,105.722913 C158.883506,101.738067 162.110981,98.5077114 166.092272,98.5077114 C170.073564,98.5077114 173.30104,101.738067 173.30104,105.722913 L173.30104,120.887537 L173.30104,120.887537 Z M213.038062,140.78995 C212.939132,144.703708 209.740814,147.824915 205.829296,147.824915 C201.917779,147.824915 198.719461,144.703708 198.620531,140.78995 L198.620531,105.722913 C198.620531,101.738067 201.848005,98.5077114 205.829296,98.5077114 C209.810588,98.5077114 213.038062,101.738067 213.038062,105.722913 L213.038062,140.794568 L213.038062,140.78995 Z M252.784314,168.025318 C252.784314,172.010164 249.556839,175.24052 245.575548,175.24052 C241.594256,175.24052 238.366782,172.010164 238.366782,168.025318 L238.366782,91.3109802 C238.250602,88.6578173 239.59861,86.1548809 241.876857,84.7935897 C244.155104,83.4322985 246.995992,83.4322985 249.274239,84.7935897 C251.552486,86.1548809 252.900494,88.6578173 252.784314,91.3109802 L252.784314,168.025318 L252.784314,168.025318 Z M292.521338,140.78995 C292.521338,144.775051 289.296424,148.012079 285.222607,148.012079 C281.241843,148.00953 278.016148,144.778887 278.016148,140.794568 L278.016148,105.722913 C278.016148,101.719342 281.245675,98.4915493 285.222607,98.4915493 C289.296424,98.4915493 292.521338,101.719342 292.521338,105.722913 L292.521338,140.794568 L292.521338,140.78995 Z M332.184544,120.887537 C332.184544,124.876208 328.953972,128.109665 324.968858,128.109665 C320.983745,128.109665 317.753172,124.876208 317.753172,120.887537 L317.753172,105.722913 C317.753172,101.719342 320.987313,98.4869316 324.968858,98.4869316 C328.94579,98.4869316 332.179931,101.719342 332.179931,105.722913 L332.179931,120.887537 L332.184544,120.887537 Z"></path>
                            <path d="M323.847751,8.63977162 L323.847751,7.73469666 L321.273356,7.73469666 L321.273356,1.03437137 L320.212226,1.03437137 L320.212226,7.73007893 L317.628604,7.73007893 L317.628604,8.63977162 L323.847751,8.63977162 L323.847751,8.63977162 Z M324.387543,8.63977162 L326.043829,8.63977162 L328.318339,2.40121926 L328.355248,2.40121926 L330.55594,8.63515389 L332.179931,8.63515389 L332.179931,1.03437137 L331.095732,1.03437137 L331.095732,7.268306 L331.058824,7.268306 L328.752018,1.03437137 L327.750865,1.03437137 L325.499423,7.268306 L325.448674,7.268306 L325.448674,1.03437137 L324.387543,1.03437137 L324.387543,8.63977162 L324.387543,8.63977162 Z"></path>
                        </g>
                    </g>
                </g>
            </g>
        </g>
    </g>
</svg>