<?xml version="1.0" encoding="UTF-8"?>
<svg id="coinbase" viewBox="0 0 409 89" version="1.1" xmlns="http://www.w3.org/2000/svg" xmlns:xlink="http://www.w3.org/1999/xlink">
    <g stroke="none" stroke-width="1" fill="none" fill-rule="evenodd">
        <g  fill="currentColor" fill-rule="nonzero">
            <path d="M26.5337838,89 C13.125,89 0,79.3186441 0,57.4644068 C0,35.5389831 13.125,26 26.5337838,26 C33.1317568,26 38.3108108,27.7084746 42,30.1288136 L37.9560811,39.0271186 C35.472973,37.2474576 31.7837838,36.1084746 28.0945946,36.1084746 C20.0067568,36.1084746 12.6283784,42.5152542 12.6283784,57.3220339 C12.6283784,72.1288136 20.2195946,78.6779661 28.0945946,78.6779661 C31.7837838,78.6779661 35.472973,77.5389831 37.9560811,75.759322 L42,84.8711864 C38.1689189,87.4338983 33.1317568,89 26.5337838,89" id="Fill-1"></path>
            <path d="M72.5,89 C55.4237968,89 46,75.4033898 46,57.4644068 C46,39.5254237 55.3529412,26 72.5,26 C89.5762032,26 99,39.4542373 99,57.4644068 C99,75.4033898 89.5762032,89 72.5,89 Z M72.5,35.7525424 C63.0053476,35.7525424 58.328877,44.2949153 58.328877,57.3220339 C58.328877,70.3491525 63.0053476,78.9627119 72.5,78.9627119 C81.9946524,78.9627119 86.671123,70.3491525 86.671123,57.3220339 C86.671123,44.2949153 81.9946524,35.7525424 72.5,35.7525424 Z" id="Fill-2"></path>
            <path d="M115.5,15.8833333 C111.349515,15.8833333 108,12.7666667 108,8.94166667 C108,5.11666667 111.349515,2 115.5,2 C119.650485,2 123,5.11666667 123,8.94166667 C123,12.7666667 119.57767,15.8833333 115.5,15.8833333 Z M109.165049,26.7916667 L121.834951,26.7916667 L121.834951,87 L109.165049,87 L109.165049,26.7916667 Z" id="Fill-3"></path>
            <path d="M169.717647,87.9285714 L169.717647,47.4285714 C169.717647,40.3571429 165.482353,35.9285714 157.152941,35.9285714 C152.705882,35.9285714 148.611765,36.7142857 146.141176,37.7142857 L146.141176,88 L134,88 L134,30.2857143 C140,27.7857143 147.694118,26 157.082353,26 C173.882353,26 182,33.4285714 182,46.2857143 L182,88 L169.717647,88" id="Fill-4"></path>
            <path d="M214.254958,89 C206.464589,89 198.745042,87.0867834 194,84.7484076 L194,0 L206.181303,0 L206.181303,29.0525478 C209.084986,27.7062102 213.759207,26.5724522 217.937677,26.5724522 C233.447592,26.5724522 244,37.7683121 244,56.191879 C244,78.9378981 232.243626,89 214.254958,89 Z M215.813031,36.138535 C212.484419,36.138535 208.518414,36.9179936 206.181303,38.1226115 L206.181303,77.6624204 C207.951841,78.441879 211.422096,79.2213376 214.892351,79.2213376 C224.594901,79.2213376 231.747875,72.4896497 231.747875,57.1130573 C231.818697,43.933121 225.586402,36.138535 215.813031,36.138535 Z" id="Fill-5"></path>
            <path d="M277.207715,89 C259.830861,89 251,81.9525424 251,69.9932203 C251,53.1220339 268.946588,50.1322034 287.249258,49.1355932 L287.249258,45.2915254 C287.249258,37.6745763 282.192878,34.9694915 274.430267,34.9694915 C268.732938,34.9694915 261.753709,36.7491525 257.694362,38.6711864 L254.560831,30.2711864 C259.403561,28.1355932 267.593472,26 275.712166,26 C290.169139,26 299,31.6237288 299,46.5728814 L299,84.7288136 C294.655786,87.0779661 285.753709,89 277.207715,89 L277.207715,89 Z M287.320475,57.3220339 C274.928783,57.9627119 262.608309,59.0305085 262.608309,69.779661 C262.608309,76.1864407 267.522255,80.1016949 276.851632,80.1016949 C280.768546,80.1016949 285.397626,79.4610169 287.320475,78.5355932 L287.320475,57.3220339 Z" id="Fill-6"></path>
            <path d="M326.674497,89 C319.697987,89 312.369128,87.0779661 308,84.7288136 L312.087248,75.3322034 C315.187919,77.2542373 321.741611,79.2474576 326.322148,79.2474576 C332.875839,79.2474576 337.244966,75.9728814 337.244966,70.9186441 C337.244966,65.4372881 332.66443,63.3016949 326.604027,61.0237288 C318.57047,57.9627119 309.620805,54.2610169 309.620805,42.9423729 C309.620805,32.9762712 317.302013,26 330.620805,26 C337.879195,26 343.869128,27.779661 348.097315,30.2711864 L344.291946,38.8135593 C341.614094,37.1050847 336.258389,35.2542373 331.959732,35.2542373 C325.61745,35.2542373 322.09396,38.6 322.09396,43.0135593 C322.09396,48.4949153 326.533557,50.4169492 332.45302,52.6949153 C340.768456,55.8271186 350,59.3152542 350,71.1322034 C349.92953,81.8813559 341.684564,89 326.674497,89" id="Fill-7"></path>
            <path d="M408.894094,57.2508475 L369.002716,62.8745763 C370.202987,73.7661017 377.263408,79.2474576 387.35981,79.2474576 C393.361168,79.2474576 399.856755,77.7525424 403.951799,75.5457627 L407.48201,84.7288136 C402.822132,87.220339 394.773252,89 386.512559,89 C367.590631,89 357,76.7559322 357,57.4644068 C357,38.9559322 367.23761,26 384.041412,26 C399.644942,26 408.894094,36.3220339 408.894094,52.6237288 C409.035302,54.1186441 409.035302,55.6847458 408.894094,57.2508475 Z M383.970808,35.040678 C374.651052,35.040678 368.508486,42.2305085 368.296673,54.8305085 L397.385608,50.7728814 C397.244399,40.2372881 391.949084,35.040678 383.970808,35.040678 L383.970808,35.040678 Z" id="Fill-8"></path>
        </g>
    </g>
</svg>