<?xml version="1.0" encoding="UTF-8"?>
<svg id="college-board" viewBox="0 0 411 73" version="1.1" xmlns="http://www.w3.org/2000/svg" xmlns:xlink="http://www.w3.org/1999/xlink">
    <g stroke="none" stroke-width="1" fill="none" fill-rule="evenodd">
        <g  fill="currentColor" fill-rule="nonzero">
            <g id="Background" fill-opacity="0">
                <rect id="Rectangle" x="0" y="0" width="411" height="73"></rect>
            </g>
            <g transform="translate(1, 2)">
                <path d="M159.622581,21.4109267 L148.316967,21.4109267 L148.316967,26.5497868 L152.162414,26.5497868 L152.162414,54.391671 L148.316967,54.391671 L148.316967,59.5305312 L163.352664,59.5305312 L163.352664,54.391671 L159.507217,54.391671 L159.507217,21.4109267 L159.622581,21.4109267 Z M141.779707,21.4109267 L130.474093,21.4109267 L130.474093,26.5497868 L134.31954,26.5497868 L134.31954,54.391671 L130.474093,54.391671 L130.474093,59.5305312 L145.50979,59.5305312 L145.50979,54.391671 L141.664343,54.391671 L141.664343,21.4109267 L141.779707,21.4109267 Z M46.2972587,14.9298269 C45.2974425,14.5118151 44.2707082,14.1666678 43.2209011,13.8943849 C41.6673406,13.4687032 40.0868619,13.1350608 38.4910014,12.8972926 C36.2221877,12.5137956 30.1848359,11.9385501 29.1850197,11.9002004 C28.877384,11.9002004 29.1850197,11.5550531 29.1850197,11.3633045 C29.1850197,11.171556 29.9925636,10.404562 30.3386538,9.90601584 C31.1000523,8.91659351 31.6499512,7.7814423 31.9537415,6.5695917 C32.2959863,5.19283737 32.3998134,3.76622843 32.2613773,2.3511244 C32.2113865,1.82956844 32.1075594,1.31568243 31.9537415,0.817136291 C31.9729688,0.52567855 31.8268418,0.24956069 31.5730423,0.10383182 C31.3192428,-0.0418970502 31.0039161,-0.0342271097 30.761653,0.126841642 C30.2848176,0.276405482 29.8195185,0.468153996 29.3772921,0.702087183 C26.6047248,2.00597708 24.2474658,4.05001623 22.5708509,6.6079414 C21.9555794,7.62420852 21.5748802,8.76319469 21.4556713,9.94436554 C21.4556713,10.2895129 21.4556713,10.6346602 21.4556713,10.9798075 C21.5095076,11.1945658 21.5095076,11.4169941 21.4556713,11.6317525 C21.2826262,11.8618507 21.0134449,12.0037446 20.7250364,12.0152495 C20.1482194,12.0152495 16.8795894,12.4370962 15.6105919,12.6288447 C13.0802878,13.0161767 10.5845928,13.6067621 8.15042484,14.3929311 C7.23520846,14.6882238 6.34691021,15.0602159 5.49706643,15.5050724 L5.49706643,15.5050724 L4.38188681,16.1570174 L4.38188681,16.1570174 C3.98965122,16.4139604 3.62048832,16.6939132 3.26670719,17.0007108 L2.57452674,17.6526558 L2.34379992,17.882754 L2.03616417,18.1895516 C1.59009232,18.7072726 1.20554762,19.2748482 0.882530078,19.8769385 L0.882530078,19.8769385 C0.755630328,20.1262116 0.640266919,20.3831546 0.536439851,20.6439326 L0.344167503,21.1424787 L0.344167503,21.4109267 C0.344167503,21.7177243 0.151895155,22.0245219 0.0749862158,22.3696692 C-0.0249954053,23.1328283 -0.0249954053,23.9074923 0.0749862158,24.6706514 C0.0749862158,24.9390993 0.0749862158,25.2075472 0.0749862158,25.4759951 L0.0749862158,25.9745413 L0.0749862158,26.4347377 C0.305713034,27.6542583 0.694103177,28.843099 1.2286203,29.9629104 C2.09000042,31.9225802 3.27055264,33.7250162 4.72797704,35.293519 C4.88564037,35.5312872 4.96639475,35.815075 4.95870386,36.0988628 C5.13174897,38.5954284 5.63550252,41.0574794 6.45842817,43.423656 C8.92335968,50.4723314 13.287942,56.707993 19.0714942,61.4480163 L21.840216,63.7489985 C22.9169412,64.6693913 24.9165736,66.0499806 24.9165736,66.0499806 C25.5472269,66.517847 26.3201617,66.7632851 27.1084784,66.7402753 C28.2313489,66.6712458 29.308074,66.257069 30.1848359,65.5514345 C31.3000156,64.7844404 35.837643,60.9111205 35.837643,60.9111205 C43.3977917,54.7559932 48.1969095,45.8588621 49.1813439,36.1755622 C48.992917,36.0221634 48.84679,35.8265799 48.7583448,35.6003167 C50.2157692,34.0318138 51.3963214,32.2293778 52.2577015,30.269708 C53.4344083,27.8958614 53.8497165,25.2190521 53.4497901,22.5997674 C52.511501,19.0064003 49.8235336,16.1263376 46.2972587,14.9298269 Z M25.2626638,10.0210649 C25.3126546,9.42664455 25.4549362,8.84372907 25.685663,8.29532832 C26.2124892,6.93774885 27.0123422,5.69521848 28.0313856,4.65210656 C28.3659395,4.38365864 28.7274115,4.15356043 29.1081108,3.96181191 C29.2811559,3.81608304 29.4965009,3.73554867 29.7233823,3.7317137 C29.7926003,3.7317137 29.6580097,5.16215761 29.3388376,5.80259764 C28.9158384,7.04129304 28.2774942,8.19561909 27.4545686,9.21572119 C27.0777148,9.67975259 26.6508702,10.1054343 26.1855711,10.4812614 C25.9932987,10.6883498 25.7356538,10.8264087 25.4549362,10.8647584 C25.2395911,10.6384952 25.1665276,10.3163577 25.2626638,10.0210649 Z M47.220166,27.3934803 L46.7587123,28.2371737 C45.1474701,30.4883013 44.2014901,33.1459357 44.028445,35.9071143 C44.9475068,39.2512084 44.5475803,42.8177307 42.9132654,45.878037 C41.0059237,50.518351 38.298729,54.7866729 34.9147357,58.4950892 C34.1033464,59.3464526 33.2419663,60.1556313 32.3382862,60.9111205 C30.6655168,62.4029239 28.7389479,63.5840947 26.6470247,64.4009434 C25.4472453,64.3012342 24.3282202,63.7681733 23.4937582,62.905305 C22.8400322,62.2917098 21.263399,60.6043228 21.1480356,60.450924 C13.4571416,50.8634983 13.1879604,43.0785087 14.6107757,37.4411024 C15.1068384,35.7575504 16.1989453,34.3117666 17.6871333,33.3760339 C19.8405836,32.0337943 22.2516788,31.1594211 24.7627557,30.8066038 C26.26248,30.8066038 26.916206,30.8066038 28.4159303,30.5765056 L31.7999237,30.5765056 L33.7226471,30.5765056 C34.599409,30.6455351 35.4723255,30.7644191 36.3375511,30.9216529 L37.9526388,31.2668003 C38.1372203,31.3396647 38.3410289,31.3319947 38.5179195,31.2437904 C38.6948101,31.1555861 38.8255553,30.9945174 38.8755461,30.8066038 C38.8870824,30.7299044 38.8870824,30.653205 38.8755461,30.5765056 C37.8641935,29.3071304 36.3490874,28.5363014 34.7224633,28.467272 C33.9995193,28.3023682 33.2688844,28.1873191 32.5305586,28.1221246 L31.1077432,28.1221246 L27.0315694,28.1221246 C21.7248526,28.1221246 16.9564984,28.6973702 16.9564984,28.6973702 C16.9564984,28.6973702 8.45806059,29.886211 8.45806059,23.7119088 C8.45806059,17.5376067 16.1489545,16.0419683 21.3403079,15.4667227 L21.5710347,15.4667227 L22.3401241,15.4667227 L22.8015778,15.4667227 L23.9167574,15.4667227 C24.7627557,15.4667227 25.685663,15.4667227 26.6085703,15.4667227 L27.0700239,15.4667227 C29.0388927,15.4820626 31.0000707,15.6086166 32.9535577,15.8502198 C34.3648368,16.0189584 35.7645795,16.2759015 37.1450949,16.6172138 C43.8746271,17.499257 50.2965235,20.5672332 47.220166,27.3934803 Z M83.3673674,54.8902171 C75.4072922,54.8902171 71.8310265,48.9460132 71.8310265,41.7746188 C71.8310265,34.6032244 74.5228394,26.9716335 82.9059138,26.9716335 C85.4131452,26.7952249 87.8780767,27.692608 89.6815913,29.4451894 C91.4812605,31.1977708 92.4426223,33.6329769 92.3272588,36.1372125 L99.5182447,36.1372125 L99.5182447,22.3313195 L92.3657133,22.3313195 L92.3657133,26.6648359 L92.3657133,26.6648359 C89.9584635,23.1865179 85.8592171,21.2651978 81.6369163,21.6410249 C69.6775762,21.6410249 63.7940424,29.9629104 63.7940424,41.3911218 C63.7940424,52.8193332 70.1390299,60.5659731 83.2904585,60.5659731 C90.6737167,60.5659731 99.5182447,57.3062484 99.710517,46.8751293 L92.0196231,46.8751293 C91.9388687,49.0840721 90.9813524,51.166461 89.3585738,52.6697693 C87.7357952,54.1730777 85.5823449,54.9745865 83.3673674,54.8902171 Z M115.82294,31.8803955 C111.973647,31.6387924 108.205109,33.0654013 105.494069,35.8035701 C102.779184,38.5379039 101.387132,42.3115146 101.671695,46.1464849 C101.417895,49.9929601 102.844556,53.7589009 105.590205,56.4740599 C108.332009,59.1892188 112.12362,60.585148 115.976758,60.2975252 C119.829896,60.585148 123.621506,59.1892188 126.36331,56.4740599 C129.108959,53.7589009 130.53562,49.9929601 130.28182,46.1464849 C130.524084,42.3076797 129.093577,38.5494088 126.347928,35.8457548 C123.606124,33.1382657 119.822205,31.7500065 115.976758,32.0337943 L115.82294,31.8803955 Z M115.82294,54.8902171 C110.977677,54.8902171 109.439498,50.3649522 109.439498,46.1464849 C109.439498,41.9280176 110.977677,37.4027527 115.82294,37.4027527 C120.668203,37.4027527 122.398654,41.9280176 122.398654,46.1464849 C122.398654,50.3649522 120.860475,54.8902171 115.976758,54.8902171 L115.82294,54.8902171 Z M191.309064,42.3115146 C190.328475,36.1103677 184.787186,31.6618022 178.503725,32.0337943 C174.689042,31.6963169 170.916658,33.0232166 168.159473,35.6693461 C165.402287,38.3193106 163.929481,42.0277268 164.121754,45.8396873 C163.687218,49.7666968 165.048506,53.6822015 167.83261,56.4932347 C170.616714,59.3081029 174.519842,60.7193719 178.465271,60.3358749 C184.579531,60.3358749 190.001612,57.7280951 191.116791,51.2469954 L184.118078,51.2469954 C183.61817,53.6898714 181.333974,55.3504136 178.849816,55.0819656 C177.000156,55.2315295 175.177414,54.5489048 173.885343,53.2181701 C172.589428,51.8912704 171.958775,50.0581546 172.158738,48.2173689 L191.616699,48.2173689 C191.66669,46.2423592 191.562863,44.2711844 191.309064,42.3115146 Z M172.081829,43.5003554 C171.928011,41.8474832 172.489446,40.206116 173.631544,38.9942653 C174.769796,37.7862497 176.377193,37.1227999 178.042272,37.1726545 C179.718887,37.0652753 181.353201,37.7133853 182.495299,38.9405758 C183.633552,40.1677663 184.160378,41.8436483 183.925805,43.5003554 L172.158738,43.5003554 L172.081829,43.5003554 Z M347.241938,43.7304536 C347.241938,35.6386664 344.434762,32.2255428 335.705597,32.2255428 C329.399064,32.2255428 323.130986,33.491083 322.669532,41.1226739 L329.822063,41.1226739 C329.806681,39.8417938 330.35658,38.6222732 331.329478,37.7862497 C332.298531,36.9502262 333.594447,36.585904 334.859599,36.7891574 C336.109369,36.5092046 337.420666,36.8121673 338.420483,37.6098411 C339.424144,38.4075149 340.008652,39.6155305 340.012498,40.8925756 L340.012498,42.9251099 L337.320685,42.9251099 C330.629607,42.9251099 321.938897,43.1552081 321.938897,51.93729 C321.904288,54.3456513 322.900259,56.6543035 324.676855,58.2841658 C326.453452,59.9178632 328.841474,60.7193719 331.244879,60.4892737 C334.874981,60.834421 338.366646,58.9974703 340.127861,55.81061 L340.127861,55.81061 L340.127861,59.6455803 L350.587477,59.6455803 L350.587477,54.391671 L347.165029,54.391671 L347.165029,43.6921039 L347.241938,43.7304536 Z M333.129148,55.2353645 C332.044732,55.4079381 330.944934,55.0666258 330.145081,54.3188066 C329.349073,53.5671524 328.945301,52.4895257 329.052974,51.4003942 C329.052974,47.7955221 332.552331,47.1819269 336.436232,47.1819269 L340.281679,47.1819269 C340.612387,49.2029562 340.027879,51.2661702 338.681973,52.8154982 C337.339912,54.3609912 335.374889,55.2353645 333.32142,55.1970147 L333.129148,55.2353645 Z M215.53538,36.9425563 L215.53538,36.9425563 C213.708792,33.8669101 210.347872,32.0299593 206.76776,32.1488434 C198.115505,32.1488434 194.500785,38.3231456 194.500785,46.1848346 C194.20084,49.4522293 195.273719,52.7004491 197.457933,55.1548301 C199.642147,57.6092111 202.745423,59.0549948 206.037126,59.1470341 C209.498028,59.4960164 212.897403,58.0502326 215.035471,55.3120639 L215.035471,58.3416904 C215.235435,61.747144 212.674367,64.6924011 209.267301,64.9761889 C208.075212,65.3366761 206.779297,65.098908 205.791017,64.3395839 C204.806583,63.5764248 204.252838,62.383749 204.306674,61.1412187 L195.808237,61.1412187 C196.192781,67.4689196 200.384318,70 208.267485,70 C219.034736,70 222.457184,63.8256979 222.457184,57.0378005 L222.457184,37.8629491 L226.302631,37.8629491 L226.302631,32.8391381 L215.53538,32.8391381 L215.53538,36.9425563 Z M208.767393,53.8164255 C206.871588,53.7013763 205.106527,52.8154982 203.883675,51.3658794 C202.664669,49.9162607 202.091697,48.0294553 202.307042,46.1464849 C202.307042,41.9280176 204.075948,37.8245994 208.882756,37.8245994 C213.689565,37.8245994 215.304653,41.6595697 215.304653,45.878037 C215.304653,50.0965043 213.458838,53.8164255 208.767393,53.8164255 Z M404.193008,54.2766219 L404.193008,21.2958775 L392.848939,21.2958775 L392.848939,26.4347377 L396.694386,26.4347377 L396.694386,36.6357586 L396.694386,36.6357586 C395.163898,33.5064229 391.872195,31.6196175 388.38822,31.8803955 C381.389507,31.8803955 376.390426,36.6357586 376.390426,46.4532825 C376.390426,53.6246769 380.235873,60.1824761 387.926767,60.1824761 C391.872195,60.5314584 395.633043,58.4529045 397.425021,54.9285668 L397.425021,54.9285668 L397.425021,59.3771323 L408,59.3771323 L408,54.1232231 L404.154553,54.1232231 L404.193008,54.2766219 Z M389.734127,54.775168 C386.465497,54.775168 384.08132,51.8222409 384.08132,46.0314358 C384.08132,41.62122 385.581044,37.2877036 390.426307,37.2877036 C395.271571,37.2877036 397.040476,41.1226739 397.040476,45.6095891 C397.078931,51.170296 395.463843,54.6601189 389.734127,54.6601189 L389.734127,54.775168 Z M364.46954,38.131397 L364.46954,38.131397 L364.46954,32.8391381 L353.663834,32.8391381 L353.663834,37.9779982 L357.509281,37.9779982 L357.509281,54.391671 L353.663834,54.391671 L353.663834,59.5305312 L369.583985,59.5305312 L369.583985,54.391671 L365.007903,54.391671 L365.007903,46.7217304 C364.823322,44.5779821 365.553956,42.4534085 367.015226,40.8734008 C368.476496,39.2895581 370.541501,38.392175 372.698797,38.399845 C373.848586,38.3576603 374.998374,38.4612045 376.121245,38.7066426 L376.121245,32.3405919 C375.048365,32.1104937 373.952413,31.9954446 372.852615,31.9954446 C369.091768,32.0913189 365.776992,34.4843403 364.507995,38.0163479 L364.46954,38.131397 Z M254.105213,42.3115146 C253.124624,36.1103677 247.583335,31.6618022 241.299874,32.0337943 C237.515954,31.7423366 233.789716,33.0884111 231.070985,35.7345406 C228.352254,38.3768351 226.910212,42.0584066 227.110175,45.8396873 C226.691021,49.7628619 228.056155,53.6706966 230.836413,56.4778948 C233.616671,59.288928 237.512109,60.7040321 241.453692,60.3358749 C247.567953,60.3358749 252.990033,57.7280951 254.105213,51.2469954 L246.952681,51.2469954 C246.452773,53.6898714 244.168578,55.3504136 241.684419,55.0819656 C239.834759,55.2315295 238.012017,54.5489048 236.719947,53.2181701 C235.424031,51.8912704 234.793378,50.0581546 234.993341,48.2173689 L254.451303,48.2173689 C254.493603,46.2423592 254.378239,44.2673495 254.105213,42.3115146 Z M234.877978,43.5003554 C234.704933,41.8052986 235.289441,40.1217466 236.473838,38.8945561 C237.658236,37.6673656 239.32716,37.0230906 241.030693,37.1343048 C242.707308,37.0269256 244.341623,37.6750356 245.48372,38.9022261 C246.621973,40.1294166 247.148799,41.8052986 246.914227,43.4620057 L234.993341,43.4620057 L234.877978,43.5003554 Z M305.518838,31.9954446 C301.688773,31.7538415 297.943308,33.1727805 295.236113,35.8802695 C292.525073,38.5877585 291.11764,42.3306895 291.367594,46.1464849 C291.367594,54.0273488 297.774108,60.4125743 305.672656,60.4125743 C313.57505,60.4125743 319.977719,54.0273488 319.977719,46.1464849 C320.223828,42.3000097 318.78563,38.5340689 316.03229,35.8304149 C313.282796,33.1229259 309.48734,31.7385016 305.634202,32.0337943 L305.518838,31.9954446 Z M305.518838,55.0052662 C300.673575,55.0052662 299.135396,50.4800013 299.135396,46.261534 C299.135396,42.0430667 300.673575,37.5178018 305.518838,37.5178018 C310.364102,37.5178018 312.056098,41.9280176 312.056098,46.1464849 C312.056098,50.3649522 310.51792,54.8902171 305.634202,54.8902171 L305.518838,55.0052662 Z M281.10025,40.0488822 L281.10025,40.0488822 C283.296,40.0603871 285.391769,39.1399942 286.86073,37.5139668 C288.329691,35.8879394 289.033407,33.7096763 288.791144,31.5352482 C288.791144,22.5614177 280.792614,22.4080189 273.986173,22.4080189 L256.104845,22.4080189 L256.104845,27.8536767 L260.79629,27.8536767 L260.79629,54.3149716 L256.104845,54.3149716 L256.104845,59.7222797 L273.716992,59.7222797 C279.600526,59.7222797 290.021687,60.067427 290.021687,48.8309641 C290.052451,46.4877973 289.144925,44.2328347 287.495229,42.5607877 C285.849377,40.8887407 283.603636,39.945338 281.254068,39.9338331 L281.10025,40.0488822 Z M268.717911,27.6235785 L273.447811,27.6235785 C276.947168,27.6235785 281.138705,27.8920264 281.138705,32.4172913 C281.138705,36.9425563 277.293258,37.7862497 273.447811,37.7862497 L268.717911,37.7862497 L268.717911,27.6235785 Z M273.986173,54.0848734 L268.717911,54.0848734 L268.717911,42.9251099 L274.024628,42.9251099 C277.870075,42.9251099 282.138521,42.9251099 282.138521,48.2940683 C282.138521,53.6630266 278.831437,54.0848734 273.947719,54.0848734 L273.986173,54.0848734 Z" id="Shape"></path>
            </g>
        </g>
    </g>
</svg>