<?xml version="1.0" encoding="UTF-8"?>
<svg id="credit-karma" viewBox="0 0 709 104" version="1.1" xmlns="http://www.w3.org/2000/svg" xmlns:xlink="http://www.w3.org/1999/xlink">
    <g stroke="none" stroke-width="1" fill="none" fill-rule="evenodd">
        <g transform="translate(0.9597, 0.452)" fill="currentColor" fill-rule="nonzero">
            <path d="M441,29.4 C424.2,29.4 417.7,33.9 417.7,39.1 C417.7,43 420,45.5 420.6,46.1 C422.8,44.7 429.1,41.1 439.1,41.1 C451.8,41.1 456.3,47.1 456.3,53.6 L456.3,55.5 C426.9,58.6 411.9,64.1 411.9,81.7 C411.9,93.7 420.9,102.7 433.5,102.7 C446.2,102.7 453.4,96.1 456.6,93.2 L456.6,101.3 L469.4,101.3 L469.4,53.1 C469.5,37.5 458.2,29.4 441,29.4 Z M456.3,81.9 C450.4,88 444.4,91 436.7,91 C429.3,91 425.3,86.2 425.3,81.2 C425.3,74 431.1,67.9 456.2,65.5 L456.2,81.9 L456.3,81.9 Z M671.6,29.4 C654.8,29.4 648.3,33.9 648.3,39.1 C648.3,43 650.6,45.5 651.2,46.1 C653.4,44.7 659.7,41.1 669.7,41.1 C682.4,41.1 686.9,47.1 686.9,53.6 L686.9,55.5 C657.5,58.6 642.5,64.1 642.5,81.7 C642.5,93.7 651.5,102.7 664.1,102.7 C676.8,102.7 684,96.1 687.2,93.2 L687.2,101.3 L700,101.3 L700,53.1 C700,37.5 688.7,29.4 671.6,29.4 Z M686.9,81.9 C681,88 675,91 667.3,91 C659.9,91 655.9,86.2 655.9,81.2 C655.9,74 661.7,67.9 686.8,65.5 L686.8,81.9 L686.9,81.9 Z M257.5,16.7 C252.9,16.7 249.1,13 249.1,8.4 C249.1,3.8 252.9,0 257.5,0 C262.1,0 265.8,3.8 265.8,8.4 C265.7,13 262.1,16.7 257.5,16.7 Z M250.8,101.3 L250.8,30.9 L264,30.9 L264,101.3 L250.8,101.3 Z M119.4,71.8 C139,71.8 164.8,68.8 164.8,48.2 C164.8,37.9 156.2,29.4 141.7,29.4 C117.3,29.4 105.6,46.5 105.6,67.2 C105.6,87 118.4,102.8 141.2,102.8 C153.9,102.8 163.4,99.3 163.4,92.1 C163.4,88.7 161.2,86 160.7,85.6 C159.4,86.4 152.6,91.1 142,91.1 C127.1,91 120.9,81.4 119.4,71.8 Z M119.3,61.6 C119.9,51.2 126.6,40.6 141.1,40.6 C147.6,40.6 151.5,44.3 151.5,48.8 C151.5,58.9 133.2,61.6 119.3,61.6 Z M234.8,99.2 C232.1,99.9 223.6,102.8 211.2,102.8 C184.1,102.8 173.6,87.7 173.6,67.4 C173.6,41.7 188.2,29.4 204.7,29.4 C213.9,29.4 220,32.3 221.7,33.1 L221.7,1.7 L234.7,1.7 L234.7,99.2 L234.8,99.2 Z M221.8,45 C220.2,44 214.5,41.1 207.2,41.1 C195.1,41.1 186.7,49.5 186.7,66.9 C186.7,82.4 194.5,91 211.2,91 C215.1,91 218.7,90.4 221.8,89.5 L221.8,45 Z M13.7,66 C13.7,49.6 22.2,41.1 35.2,41.1 C45,41.1 51.4,44.8 53.5,46.1 C55.1,44.6 56.4,41.9 56.4,39.1 C56.4,34.4 50.9,29.4 34.7,29.4 C15.8,29.4 0,42.1 0,66.2 C0,89.7 14.3,102.8 33.2,102.8 C44.5,102.8 53.6,99.2 56.2,97.8 L56.2,84.7 C53.3,86.7 44,91 35.4,91 C23,91 13.7,82.6 13.7,66 Z M385.4,65.4 C393.9,55.8 401.5,44.4 406.9,30.4 L394.7,25.9 C387,46.2 375.4,59.9 361.4,71.2 L361.4,1.7 L348.3,1.7 L348.3,101.3 L361.4,101.3 L361.4,86.6 C366.5,83 371,79.3 375.9,74.8 L387.9,95.1 C390.9,100.1 394.9,102.8 400.9,102.8 C404.3,102.8 406.2,101.7 407,101.3 L385.4,65.4 Z M80.5,39.8 C80.5,32.9 76.6,29.4 71.4,29.4 C70.2,29.4 68.9,29.6 67.6,30.1 L67.6,101.3 L80.7,101.3 L80.7,59.7 C84.4,50.9 93.3,42.7 104.9,42.7 L104.9,29.4 C92.4,29.4 85.3,35.4 80.5,44.4 L80.5,39.8 Z M498.6,39.8 C498.6,32.9 494.7,29.4 489.5,29.4 C488.3,29.4 487,29.6 485.7,30.1 L485.7,101.3 L498.8,101.3 L498.8,59.7 C502.5,50.9 511.4,42.7 523,42.7 L523,29.4 C510.5,29.4 503.4,35.4 498.6,44.4 L498.6,39.8 Z M544.5,40.1 L544.5,39.8 C544.5,32.9 540.8,29.4 535.6,29.4 C534.4,29.4 533.1,29.6 531.8,30.1 L531.8,101.3 L544.9,101.3 L544.9,52.6 C548.8,47.3 556.7,41.1 563.7,41.1 C571.4,41.1 575.2,46.1 575.2,53.3 L575.2,101.3 L588.3,101.3 L588.3,52.6 C592.8,46.5 600.1,41.1 607.1,41.1 C614.8,41.1 618.6,46.1 618.6,53.3 L618.6,101.3 L631.7,101.3 L631.7,52.6 C631.7,39.3 625.7,29.4 609.5,29.4 C599.6,29.4 592.3,34.7 586.4,41.2 C584.4,36.5 579.9,29.4 566.1,29.4 C556.6,29.4 549.8,34.4 544.5,40.1 Z M280.2,13.9 L280.2,82.1 C280.2,95.6 288.6,102.8 301,102.8 C306.9,102.8 312.2,101.3 313.4,100.9 L313.4,89.6 C312.3,89.9 308.7,91 303.9,91 C296.6,91 293.3,86.5 293.3,80.5 L293.3,41.9 L311.5,41.9 L311.5,30.9 L293.3,30.9 L293.3,23.7 C293.3,16.8 289.2,13.3 283.9,13.3 C282.7,13.2 281.4,13.4 280.2,13.9 Z" id="Shape"></path>
            <path d="M690.8,16 L697.3,16 L697.3,17.3 L694.9,17.3 L694.9,24.7 L693.2,24.7 L693.2,17.3 L690.8,17.3 L690.8,16 Z M706.1,24.8 C706.1,22.6 705.9,19.9 705.4,17.7 C704.3,19.3 703.6,21.2 703.3,23 L702.3,23 C702,21.2 701.2,19.3 700.2,17.7 C699.7,19.9 699.5,22.6 699.5,24.8 L697.8,24.8 C697.8,22 698.1,18.8 698.8,16.1 L700.3,16.1 C701.2,17.2 702.2,18.9 702.7,20.5 C703.3,18.9 704.2,17.1 705.1,16.1 L706.6,16.1 C707.3,18.8 707.6,22.1 707.6,24.8 L706.1,24.8 L706.1,24.8 Z" id="Shape"></path>
        </g>
    </g>
</svg>