<?xml version="1.0" encoding="UTF-8"?>
<svg id="discount-tire" viewBox="0 0 196 54" version="1.1" xmlns="http://www.w3.org/2000/svg" xmlns:xlink="http://www.w3.org/1999/xlink">
    <g stroke="none" stroke-width="1" fill="none" fill-rule="evenodd">
        <g transform="translate(0.5757, 0.612)" fill="currentColor" fill-rule="nonzero">
            <polyline id="Path" points="133.421 36.129 133.421 40.142 124.011 40.142 124.011 42.474 131.984 42.474 131.984 46.343 124.011 46.343 124.011 48.988 133.743 48.988 133.743 53.098 117.907 53.098 117.907 36.129 133.421 36.129"></polyline>
            <path d="M110.364,50.941 C110.385,48.38 110.495,45.714 106.835,45.191 C109.193,44.711 110.386,42.978 110.386,40.913 C110.386,37.475 107.054,36.129 103.632,36.129 L92.679,36.129 L92.679,53.099 L98.728,53.099 L98.728,47.211 L102.089,47.211 C105.183,47.211 104.206,51.368 104.612,53.099 L110.341,53.099 L110.341,50.95 L110.364,50.941 M101.845,43.461 L98.755,43.486 L98.755,40.169 L102.169,40.169 C103.55,40.169 104.532,40.552 104.532,41.922 C104.532,43.293 103.04,43.461 101.845,43.461 Z" id="Shape"></path>
            <polyline id="Path" points="70.979 36.129 70.979 40.408 65.208 40.408 65.208 53.098 58.991 53.098 58.995 40.432 53.22 40.432 53.22 36.129 70.979 36.129"></polyline>
            <rect id="Rectangle" x="78.217" y="36.129" width="6.238" height="16.971"></rect>
            <path d="M47.539,2.328 C46.105,2.386 44.779,3.002 43.805,4.058 C42.882,5.058 42.383,6.342 42.383,7.695 C42.383,7.769 42.635,13.997 42.635,13.997 C42.706,15.691 43.958,16.743 45.093,17.004 C45.028,16.988 52.223,19.019 52.234,19.022 C52.801,19.182 53.782,20.411 52.659,20.455 L41.786,20.903 L42.163,30.103 L60.122,29.365 C61.558,29.307 62.886,28.692 63.862,27.634 C64.834,26.58 65.338,25.209 65.279,23.773 L65.042,17.999 C64.971,16.3 63.629,15.248 62.407,14.992 C62.509,15.017 55.799,13.123 55.799,13.123 C54.781,12.836 53.531,10.875 55.354,10.8 C55.356,10.8 65.09,10.401 65.09,10.401 L64.729,1.623 L47.539,2.328" id="Path"></path>
            <polyline id="Path" points="28.381 3.086 27.491 29.088 39.201 29.486 40.143 1.972 28.431 1.572 28.381 3.086"></polyline>
            <path d="M24.926,5.062 C23.981,3.912 22.644,3.2 21.163,3.056 L2.669,1.253 L-1.13686838e-13,28.655 L18.492,30.457 C19.974,30.601 21.425,30.16 22.574,29.214 C23.721,28.269 24.435,26.933 24.577,25.454 L26.167,9.138 C26.313,7.66 25.871,6.211 24.926,5.062 M15.228,20.468 C15.197,20.785 15.044,21.07 14.801,21.271 C14.555,21.472 14.245,21.567 13.926,21.536 C13.926,21.536 11.998,21.349 10.56,21.209 C10.765,19.121 11.391,12.687 11.594,10.598 C13.033,10.739 14.964,10.927 14.964,10.927 C15.576,10.986 16.038,11.507 16.038,12.11 C16.038,12.148 15.228,20.468 15.228,20.468 Z" id="Shape"></path>
            <path d="M69.16,5.173 L69.16,5.173 L67.369,24.03 C67.171,26.101 68.667,27.946 70.697,28.14 C70.701,28.14 84.665,29.465 84.665,29.465 L85.459,21.1 L79.314,20.518 C79.004,20.489 78.719,20.337 78.514,20.088 C78.288,19.813 78.183,19.463 78.217,19.098 C78.217,19.096 78.897,11.964 78.897,11.964 C78.931,11.596 79.1,11.272 79.372,11.048 C79.62,10.841 79.928,10.745 80.239,10.774 C80.241,10.774 86.385,11.358 86.385,11.358 L87.17,3.085 L73.204,1.759 C71.171,1.568 69.356,3.099 69.16,5.173" id="Path"></path>
            <path d="M92.84,1.753 C91.075,1.753 89.64,3.18 89.64,4.937 L89.64,24.759 C89.64,26.515 91.075,27.941 92.84,27.941 L109.835,27.941 C111.597,27.941 113.032,26.515 113.032,24.759 L113.032,4.937 C113.032,3.18 111.596,1.753 109.835,1.753 L92.84,1.753 M99.304,18.879 L99.304,10.818 C99.304,10.121 99.88,9.553 100.591,9.553 L102.083,9.553 C102.792,9.553 103.37,10.121 103.37,10.818 L103.37,18.879 C103.37,19.574 102.792,20.142 102.083,20.142 L100.591,20.142 C99.88,20.142 99.304,19.574 99.304,18.879 Z" id="Shape"></path>
            <path d="M115.267,23.3 L115.267,23.3 C115.14,24.151 115.351,25.004 115.867,25.696 C116.383,26.392 117.138,26.844 117.992,26.968 L135.17,29.504 C136.932,29.766 138.578,28.543 138.838,26.781 C138.838,26.779 142.279,3.478 142.279,3.478 L132.578,2.049 L130.088,18.927 C129.979,19.664 129.293,20.174 128.559,20.064 L127.049,19.843 C126.692,19.79 126.377,19.601 126.162,19.312 C125.948,19.024 125.859,18.67 125.912,18.314 L128.406,1.431 L118.704,0 L115.267,23.3" id="Path"></path>
            <path d="M143.982,29.552 L153.959,29.552 C153.959,29.552 153.959,25.134 153.959,22.259 C155.512,25.473 157.482,29.552 157.482,29.552 L167.23,29.552 L167.23,1.91 L156.916,1.91 C156.916,1.91 156.916,7.534 156.916,11.572 C154.912,7.328 152.369,1.938 152.369,1.938 L143.982,1.902 L143.982,29.552" id="Path"></path>
            <path d="M169.386,3.663 L170.456,13.779 C170.456,13.779 173.175,13.492 174.282,13.374 C174.548,15.884 176.112,30.634 176.112,30.634 L187.171,29.463 C187.171,29.463 185.609,14.712 185.343,12.201 C186.448,12.086 189.165,11.797 189.165,11.797 L188.091,1.679 L169.386,3.663" id="Path"></path>
            <path d="M44.157,13.907 L43.906,7.832 C43.819,5.703 45.478,3.902 47.607,3.814 L63.285,3.17 L63.522,8.924 L55.299,9.259 C53.923,9.316 52.837,10.38 52.891,11.616 C52.941,12.859 54.068,14.178 55.394,14.552 L62.101,16.448 C62.101,16.448 63.481,16.738 63.536,18.035 L63.771,23.809 C63.86,25.938 62.201,27.738 60.067,27.826 L43.619,28.501 L43.367,22.326 L52.727,21.941 C53.877,21.895 54.776,21.014 54.731,19.98 C54.691,18.947 53.754,17.847 52.652,17.537 L45.439,15.502 C45.439,15.502 44.209,15.218 44.157,13.907" id="Path"></path>
            <polyline id="Path" points="37.747 27.894 29.063 27.599 29.902 3.111 38.585 3.408 37.747 27.894"></polyline>
            <path d="M21.024,4.535 L4.036,2.882 L1.661,27.267 L18.646,28.923 C20.876,29.141 22.861,27.508 23.076,25.281 L24.666,8.965 C24.883,6.736 23.253,4.754 21.024,4.535 M16.741,20.588 C16.598,22.072 15.276,23.162 13.787,23.017 L8.912,22.542 L10.238,8.918 L15.117,9.392 C16.602,9.537 17.692,10.861 17.546,12.347 L16.741,20.588 Z" id="Shape"></path>
            <path d="M83.812,22.44 L79.178,22.002 C77.671,21.858 76.567,20.481 76.716,18.927 L77.395,11.795 C77.541,10.24 78.881,9.097 80.389,9.24 L85.025,9.681 L85.525,4.425 L73.067,3.241 C71.863,3.127 70.792,4.045 70.673,5.289 L68.883,24.146 C68.764,25.392 69.647,26.49 70.849,26.605 L83.307,27.788 L83.812,22.44" id="Path"></path>
            <path d="M109.841,3.24 L92.845,3.24 C91.912,3.24 91.161,3.987 91.161,4.909 L91.161,24.733 C91.161,25.654 91.912,26.399 92.845,26.399 L109.841,26.399 C110.769,26.399 111.523,25.654 111.523,24.733 L111.523,4.909 C111.523,3.987 110.769,3.24 109.841,3.24 M104.89,18.851 C104.89,20.386 103.636,21.629 102.089,21.629 L100.595,21.629 C99.048,21.629 97.794,20.386 97.794,18.851 L97.794,10.791 C97.794,9.256 99.048,8.013 100.595,8.013 L102.089,8.013 C103.636,8.013 104.89,9.256 104.89,10.791 L104.89,18.851 Z" id="Shape"></path>
            <path d="M133.863,3.74 L131.593,19.124 C131.361,20.689 129.907,21.767 128.341,21.536 L126.831,21.314 C125.267,21.084 124.188,19.631 124.417,18.064 L126.688,2.682 L119.987,1.692 L116.77,23.496 C116.631,24.433 117.28,25.305 118.217,25.444 L135.393,27.978 C136.336,28.119 137.205,27.468 137.344,26.532 L140.563,4.729 L133.863,3.74" id="Path"></path>
            <polyline id="Path" points="158.437 3.398 158.437 18.304 151.415 3.422 145.505 3.398 145.505 28.01 152.448 28.01 152.448 15.608 158.437 28.01 165.72 28.01 165.72 3.398 158.437 3.398"></polyline>
            <polyline id="Path" points="186.751 3.318 171.056 4.981 171.812 12.087 175.634 11.683 177.466 28.942 185.513 28.089 183.683 10.828 187.503 10.424 186.751 3.318"></polyline>
            <path d="M190.54,4.073 C190.54,2.956 191.36,2.114 192.417,2.114 C193.458,2.114 194.28,2.956 194.28,4.073 C194.28,5.21 193.458,6.046 192.417,6.046 C191.361,6.046 190.54,5.21 190.54,4.073 M192.417,6.44 C193.673,6.44 194.745,5.441 194.745,4.073 C194.745,2.718 193.673,1.718 192.417,1.718 C191.149,1.718 190.077,2.718 190.077,4.073 C190.077,5.441 191.15,6.44 192.417,6.44 Z M191.931,4.26 L192.392,4.26 L193.091,5.441 L193.546,5.441 L192.788,4.241 C193.181,4.191 193.476,3.98 193.476,3.492 C193.476,2.956 193.169,2.718 192.538,2.718 L191.526,2.718 L191.526,5.441 L191.93,5.441 L191.93,4.26 L191.931,4.26 Z M191.931,3.909 L191.931,3.068 L192.478,3.068 C192.759,3.068 193.058,3.13 193.058,3.468 C193.058,3.886 192.751,3.909 192.412,3.909 L191.931,3.909 L191.931,3.909 Z" id="Shape"></path>
        </g>
    </g>
</svg>