<?xml version="1.0" encoding="UTF-8"?>
<svg id="disney" viewBox="0 0 694 287" version="1.1" xmlns="http://www.w3.org/2000/svg" xmlns:xlink="http://www.w3.org/1999/xlink">
    <g stroke="none" stroke-width="1" fill="none" fill-rule="evenodd">
        <g transform="translate(0.9676, 0.4126)" fill="currentColor" fill-rule="nonzero">
            <path d="M598.192065,124.539442 C586.492065,127.239442 555.592065,128.739442 555.592065,128.739442 L551.792065,140.939442 C551.792065,140.939442 567.092065,139.639442 578.292065,140.739442 C578.292065,140.739442 581.892065,140.439442 582.292065,144.739442 C582.492065,149.139442 581.992065,153.739442 581.992065,153.739442 C581.992065,153.739442 581.692065,156.439442 577.992065,157.139442 C573.692065,157.839442 544.692065,159.139442 544.692065,159.139442 L539.992065,174.939442 C539.992065,174.939442 538.292065,178.539442 542.192065,177.539442 C545.792065,176.539442 576.192065,170.739442 580.192065,171.539442 C584.392065,172.539442 589.192065,178.339442 587.792065,183.539442 C586.192065,189.839442 555.792065,209.239442 537.392065,207.939442 C537.392065,207.939442 527.692065,208.539442 519.592065,195.439442 C511.792065,182.939442 522.292065,159.439442 522.292065,159.439442 C522.292065,159.439442 517.592065,148.439442 521.092065,144.439442 C521.092065,144.439442 523.092065,142.739442 529.092065,142.239442 L536.592065,126.839442 C536.592065,126.839442 528.092065,127.339442 523.092065,121.139442 C518.492065,115.139442 518.092065,112.539442 521.692065,110.939442 C525.492065,108.939442 560.692065,102.639442 584.892065,103.439442 C584.892065,103.439442 593.392065,102.439442 600.892065,117.139442 C600.892065,117.139442 604.292065,123.139442 598.292065,124.539442 M506.992065,183.739442 C503.992065,191.039442 495.692065,198.739442 485.692065,194.039442 C475.492065,189.239442 459.392065,156.439442 459.392065,156.439442 C459.392065,156.439442 453.392065,144.239442 452.192065,144.639442 C452.192065,144.639442 450.892065,142.239442 450.192065,155.639442 C449.192065,168.939442 450.392065,194.839442 444.892065,198.939442 C439.892065,202.939442 433.892065,201.239442 430.492065,196.539442 C427.692065,191.839442 426.492065,180.539442 428.092065,160.839442 C429.892065,141.139442 434.392065,120.139442 440.092065,113.639442 C446.092065,107.039442 450.892065,111.839442 452.692065,113.639442 C452.692065,113.639442 460.392065,120.639442 473.392065,141.339442 L475.592065,145.139442 C475.592065,145.139442 487.392065,164.839442 488.592065,164.739442 C488.592065,164.739442 489.592065,165.739442 490.392065,164.939442 C491.592065,164.639442 491.192065,158.239442 491.192065,158.239442 C491.192065,158.239442 488.992065,136.939442 477.992065,100.939442 C477.992065,100.939442 476.392065,96.3394418 477.492065,91.9394418 C478.492065,87.9394418 482.792065,89.9394418 482.792065,89.9394418 C482.792065,89.9394418 499.392065,97.9394418 507.492065,124.939442 C515.492065,151.939442 510.092065,176.439442 507.092065,183.739442 M425.592065,114.439442 C423.992065,117.239442 423.292065,121.139442 416.392065,122.239442 C416.392065,122.239442 349.392065,126.939442 346.092065,131.639442 C346.092065,131.639442 343.892065,134.439442 347.492065,135.139442 C351.292065,135.939442 366.492065,137.939442 373.692065,138.339442 C381.492065,138.339442 407.692065,138.539442 417.292065,150.339442 C417.292065,150.339442 422.792065,155.939442 422.592065,168.639442 C422.392065,181.639442 420.092065,186.239442 414.992065,190.939442 C409.692065,195.339442 364.292065,215.739442 334.992065,184.539442 C334.992065,184.539442 321.592065,169.539442 339.692065,158.139442 C339.692065,158.139442 352.692065,150.139442 385.992065,159.439442 C385.992065,159.439442 395.992065,163.039442 395.592065,166.739442 C394.992065,170.739442 387.292065,174.739442 376.092065,174.539442 C365.292065,174.239442 357.292065,169.039442 358.892065,169.939442 C360.392065,170.439442 347.192065,163.539442 343.092065,168.239442 C339.092065,172.639442 340.092065,175.239442 344.092065,177.939442 C354.092065,183.739442 393.392065,181.639442 405.092065,168.539442 C405.092065,168.539442 409.792065,163.239442 402.692065,158.939442 C395.692065,154.939442 375.292065,152.439442 367.392065,152.139442 C359.892065,151.739442 331.792065,152.139442 327.592065,144.839442 C327.592065,144.839442 323.592065,139.639442 327.992065,125.439442 C332.592065,110.439442 365.292065,104.639442 379.492065,103.439442 C379.492065,103.439442 418.492065,101.839442 425.792065,109.839442 C425.792065,109.839442 426.792065,111.639442 425.592065,114.339442 M314.992065,202.339442 C310.292065,205.839442 300.292065,204.339442 297.392065,200.339442 C294.592065,196.839442 293.592065,183.039442 294.092065,161.339442 C294.792065,139.139442 295.092065,111.939442 300.092065,107.539442 C305.092065,103.239442 308.092065,107.039442 310.092065,109.939442 C312.092065,112.939442 314.692065,116.239442 315.092065,123.139442 C315.692065,130.139442 317.392065,166.139442 317.392065,166.139442 C317.392065,166.139442 319.592065,198.939442 315.092065,202.339442 M324.992065,85.3394418 C311.192065,90.0394418 301.792065,88.5394418 293.792065,85.0394418 C290.292065,91.3394418 288.192065,93.2394418 285.592065,93.6394418 C281.592065,94.0394418 278.092065,87.6394418 277.592065,85.6394418 C276.792065,84.1394418 274.892065,81.4394418 277.192065,75.3394418 C269.392065,68.3394418 268.792065,58.9394418 270.192065,52.6394418 C271.992065,45.2394418 285.192065,17.4394418 325.192065,14.1394418 C325.192065,14.1394418 344.792065,12.7394418 348.192065,23.1394418 L348.792065,23.1394418 C348.792065,23.1394418 367.792065,23.1394418 367.392065,40.1394418 C367.392065,57.1394418 346.392065,78.3394418 324.992065,85.6394418 M342.792065,36.9394418 C330.192065,38.9394418 310.792065,55.7394418 301.492065,69.6394418 C315.792065,72.2394418 340.792065,71.2394418 351.992065,48.6394418 C351.992065,48.6394418 357.292065,34.4394418 342.792065,36.9394418 M287.492065,47.9394418 C283.492065,54.4394418 283.292065,58.3394418 285.192065,60.9394418 C289.892065,53.9394418 298.192065,42.9394418 310.692065,34.3394418 C301.092065,35.3394418 292.992065,39.3394418 287.492065,47.9394418 M628.192065,201.639442 C618.992065,224.239442 611.192065,247.139442 606.692065,281.439442 C606.692065,281.439442 605.692065,288.139442 600.192065,285.939442 C594.692065,283.939442 585.692065,274.939442 583.692065,262.239442 C581.692065,245.639442 589.092065,217.639442 604.192065,185.439442 C599.792065,178.439442 596.692065,168.039442 599.192065,153.439442 C599.192065,153.439442 603.192065,126.439442 630.192065,102.039442 C630.192065,102.039442 633.392065,99.3394418 635.192065,100.239442 C637.392065,101.239442 636.492065,109.839442 634.692065,114.239442 C633.092065,118.439442 621.092065,139.239442 621.092065,139.239442 C621.092065,139.239442 613.592065,153.439442 615.692065,164.539442 C629.892065,142.739442 662.192065,98.5394418 682.192065,112.539442 C694.892065,121.539442 694.892065,150.539442 685.392065,167.339442 C677.892065,180.639442 656.692065,208.139442 628.392065,201.739442 M669.992065,133.739442 C662.592065,141.739442 649.392065,156.939442 638.992065,177.539442 C649.992065,176.339442 660.692065,170.239442 663.992065,167.139442 C669.292065,162.439442 681.492065,149.739442 679.592065,132.939442 C679.592065,132.939442 678.392065,124.139442 669.992065,133.739442 M221.992065,213.439442 C186.592065,224.239442 153.192065,219.239442 134.992065,214.439442 C134.492065,221.839442 133.692065,224.939442 132.492065,226.139442 C131.092065,227.739442 119.492065,234.339442 113.092065,224.939442 C110.292065,220.439442 108.892065,212.339442 108.092065,204.939442 C67.0920653,186.339442 48.0920653,158.939442 47.4920653,157.939442 C46.4920653,156.939442 37.1920653,147.239442 46.4920653,135.239442 C55.1920653,124.439442 83.9920653,113.539442 109.792065,109.239442 C110.792065,87.2394418 113.192065,70.2394418 116.292065,62.7394418 C119.992065,53.7394418 124.692065,61.7394418 128.892065,67.7394418 C132.292065,72.2394418 134.392065,91.5394418 134.592065,106.939442 C151.392065,106.139442 161.592065,107.339442 180.292065,110.939442 C204.892065,115.139442 221.292065,127.739442 219.992065,141.939442 C218.792065,155.939442 205.992065,161.739442 200.992065,162.139442 C195.992065,162.539442 187.992065,158.839442 187.992065,158.839442 C182.392065,156.239442 187.492065,153.839442 193.992065,151.039442 C201.192065,147.539442 199.592065,144.039442 199.592065,144.039442 C196.992065,136.039442 165.092065,130.739442 133.392065,130.739442 C133.392065,148.239442 134.092065,177.239442 134.592065,194.139442 C156.792065,198.339442 173.392065,197.439442 173.392065,197.439442 C173.392065,197.439442 254.392065,195.139442 256.692065,143.439442 C259.192065,91.6394418 175.692065,42.0394418 114.192065,26.4394418 C52.7920653,10.3394418 17.9920653,21.7394418 14.9920653,23.2394418 C11.6920653,24.8394418 14.6920653,25.4394418 14.6920653,25.4394418 C14.6920653,25.4394418 17.9920653,25.9394418 23.9920653,27.9394418 C29.9920653,29.9394418 25.1920653,32.9394418 25.1920653,32.9394418 C14.6920653,36.5394418 2.9920653,34.4394418 0.692065305,29.6394418 C-1.6079347,24.9394418 2.1920653,20.6394418 6.6920653,14.3394418 C10.8920653,7.83944182 15.6920653,8.03944182 15.6920653,8.03944182 C91.6920653,-18.4605582 184.492065,29.0394418 184.492065,29.0394418 C271.292065,72.8394418 286.092065,124.339442 284.492065,144.339442 C283.092065,164.039442 275.492065,197.339442 221.992065,213.539442 M54.9920653,141.939442 C46.3920653,145.939442 52.3920653,152.339442 52.3920653,152.339442 C68.5920653,169.639442 88.3920653,180.539442 107.392065,187.339442 C109.592065,157.339442 109.392065,146.639442 109.392065,131.539442 C79.9920653,133.539442 62.9920653,138.339442 54.9920653,141.939442" id="Shape"></path>
        </g>
    </g>
</svg>