<?xml version="1.0" encoding="UTF-8"?>
<svg id="dockyard" viewBox="0 0 427 110" version="1.1" xmlns="http://www.w3.org/2000/svg" xmlns:xlink="http://www.w3.org/1999/xlink">
    <g stroke="none" stroke-width="1" fill="none" fill-rule="evenodd">
        <g fill="currentColor" fill-rule="nonzero">
            <path d="M56.6822172,42.1239533 C55.3891029,42.5732462 54.696363,43.9838938 55.1285007,45.2888255 C55.5639372,46.5904535 56.9659107,47.3007328 58.2689214,46.8778688 C59.5752308,46.4517013 60.2943607,45.0542681 59.8853143,43.7427292 C59.6840899,43.1084333 59.2387572,42.5798534 58.6482789,42.27592 C58.0578007,41.9719865 57.3716583,41.9158249 56.7382962,42.1239533" id="Path"></path>
            <path d="M55,0 C24.6252217,0 0,24.6242857 0,55 C0,85.3757143 24.6252217,110 55,110 C85.3779253,110 110,85.3757143 110,55 C110,24.6242857 85.3779253,0 55,0 M86.885335,21.7485714 C86.7751903,22.1194286 86.5737827,22.4557143 86.2968473,22.726 C85.2929565,23.892 74.3665961,36.1177143 70.2943869,40.216 C72.0629971,44.7825714 72.0629971,52.5768571 71.4335984,60.1417143 C70.5492934,70.8557143 69.1425874,75.0891429 63.3961778,78.3545714 C57.6529153,81.6231429 41.6473079,82.0662857 33.6948561,80.1082857 C25.7392573,78.1534286 24.7479545,70.1862857 23.9863821,69.85 C20.8771528,68.5111429 21.3051439,63.624 21.3051439,63.624 C23.4891572,63.5171429 25.6731705,66.3017143 25.6731705,66.3017143 C26.6361504,65.1765714 27.8288608,64.262 29.1663329,63.624 C30.3590433,67.8825714 27.8288608,69.3031429 28.0680323,69.85 C28.6974309,71.4182857 32.0867426,75.2085714 37.442925,72.5308571 C42.7991074,69.85 43.000515,62.392 43.3372432,53.218 C43.6708245,44.044 46.0153344,36.7462857 53.9142873,35.0051429 C58.0525834,33.9837143 62.414316,34.3734286 66.3039995,36.1177143 C71.660182,32.1011429 84.0876581,23.3011429 85.1859587,22.5374286 C85.5447159,22.2702857 85.9286491,22.0408571 86.3377582,21.8554286 L86.913658,21.8554286 L86.885335,21.7485714 Z" id="Shape"></path>
            <path d="M50.2805876,62.6912944 C48.5420616,65.1336576 48.0201894,67.4015663 46.894706,70.0433061 C45.9987206,72.1803739 44.3545088,73.1772569 43.1630055,74.9436089 C42.251301,76.4420485 45.4234037,76.9747578 46.2659443,76.9996799 C48.7244025,77.0214867 51.0539645,75.9280308 52.5944306,74.0277226 C54.4807156,71.5043627 54.6819193,69.0090401 55.9928874,66.3143409 C56.7002443,64.8813217 58.8411778,62.121202 58.9637863,60.7909863 C59.2027157,58.3486231 52.8365038,59.080709 50.2648686,62.6912944 M136.301472,37.5480375 L149.200518,37.5480375 C160.11582,37.5480375 167.060493,45.0620427 167.060493,55.6819613 C167.060493,66.3018798 160.11582,73.815885 149.200518,73.815885 L136.301472,73.815885 L136.301472,37.5480375 Z M140.932302,41.9156309 L140.932302,69.4482916 L149.147073,69.4482916 C157.320975,69.4482916 162.269329,63.6321027 162.269329,55.6819613 C162.269329,47.7318198 157.305256,41.9156309 149.147073,41.9156309 L140.932302,41.9156309 Z M193.427614,37.0059824 C198.435701,36.9249856 203.261446,38.8689074 206.795087,42.3922655 C210.328728,45.9156237 212.26217,50.7131228 212.158424,55.6819613 C212.340765,62.470111 208.794549,68.8221245 202.896765,72.2707165 C196.99898,75.7193084 189.680194,75.7193084 183.785554,72.2707165 C177.887769,68.8221245 174.341553,62.470111 174.523894,55.6819613 C174.417005,50.6819702 176.375597,45.8564338 179.946964,42.3299603 C183.51833,38.8003717 188.391233,36.8782568 193.427614,37.0059824 M193.427614,69.8065464 C197.19704,69.8439295 200.821851,68.3579509 203.468938,65.691289 C206.116024,63.0277424 207.555889,59.4078113 207.461574,55.6695002 C207.461574,47.9935016 201.189677,41.7692137 193.455908,41.7692137 C185.718996,41.7692137 179.447098,47.9935016 179.447098,55.6695002 C179.343352,59.404696 180.770641,63.0215119 183.408297,65.691289 C186.045952,68.3579509 189.661331,69.8501601 193.427614,69.8190075 M248.026134,71.8501565 C245.09296,73.5137049 241.769955,74.3797469 238.393505,74.3579401 C233.369699,74.4607437 228.52509,72.5261677 224.972587,68.9996943 C221.423227,65.4763362 219.47721,60.6632607 219.580956,55.6819613 C219.47721,50.7006618 221.423227,45.8875863 224.972587,42.3642282 C228.52509,38.8377548 233.369699,36.9031788 238.393505,37.0059824 C241.769955,36.9779451 245.09296,37.8408718 248.026134,39.501305 L248.026134,44.9685849 C245.316171,42.7536356 241.901995,41.5636066 238.393505,41.6103355 C234.63351,41.5916439 231.024418,43.0838531 228.389907,45.7473997 C225.755395,48.4109463 224.321819,52.0184164 224.412989,55.7473817 C224.302956,59.4825775 225.730245,63.1025087 228.3679,65.7691705 C231.008699,68.4358324 234.627222,69.921811 238.393505,69.8844279 C241.895707,69.9436178 245.306739,68.7722804 248.026134,66.5791379 L248.026134,71.8501565 Z M259.167791,37.5480375 L263.782901,37.5480375 L263.782901,55.3112454 L277.442749,37.5480375 L282.982139,37.5480375 L271.689579,52.3766712 L283.516586,73.815885 L278.033785,73.815885 L268.467176,56.2115553 L263.782901,62.0277442 L263.782901,73.815885 L259.167791,73.815885 L259.167791,37.5480375 Z M302.153082,57.7660697 L290.058851,37.5480375 L295.318443,37.5480375 L304.466925,53.1741776 L313.659421,37.5480375 L318.981888,37.5480375 L306.768193,57.8190291 L306.768193,73.815885 L302.153082,73.815885 L302.153082,57.7660697 Z M343.868275,63.6850621 L329.152108,63.6850621 L325.432983,73.8283461 L320.226837,73.8283461 L333.899259,37.5480375 L339.117981,37.5480375 L352.897293,73.8283461 L347.678571,73.8283461 L343.868275,63.6850621 Z M330.635986,59.2520483 L342.356104,59.2520483 L336.496045,43.6414845 L330.635986,59.2520483 Z M361.659087,37.5480375 L372.458069,37.5480375 C379.292708,37.5480375 383.961264,41.3330774 383.961264,47.7318198 C384.131029,52.2520609 380.927488,56.2084401 376.444418,57.0215227 C380.792305,59.0402107 384.564875,65.2271154 385.900993,73.815885 L381.112973,73.815885 C379.453042,64.8003249 374.878801,58.6694948 370.087637,58.6694948 L366.274198,58.6694948 L366.274198,73.815885 L361.659087,73.815885 L361.659087,37.5480375 Z M372.458069,41.9156309 L366.274198,41.9156309 L366.274198,54.2614031 L372.458069,54.2614031 C376.284083,54.2614031 379.144949,52.0713758 379.144949,48.1149967 C379.144949,44.1586175 376.243214,41.8782478 372.458069,41.8782478 M396.256698,37.5480375 L409.1526,37.5480375 C420.071046,37.5480375 427,45.0620427 427,55.6819613 C427,66.3018798 420.071046,73.815885 409.1526,73.815885 L396.256698,73.815885 L396.256698,37.5480375 Z M400.871809,41.9156309 L400.871809,69.4482916 L409.099155,69.4482916 C417.273057,69.4482916 422.224555,63.6321027 422.224555,55.6819613 C422.224555,47.7318198 417.273057,41.9156309 409.099155,41.9156309 L400.871809,41.9156309 Z" id="Shape"></path>
        </g>
    </g>
</svg>