<?xml version="1.0" encoding="UTF-8"?>
<svg id="dreamworks" viewBox="0 0 410 241" version="1.1" xmlns="http://www.w3.org/2000/svg" xmlns:xlink="http://www.w3.org/1999/xlink">
    <g stroke="none" stroke-width="1" fill="none" fill-rule="evenodd">
        <g fill="currentColor" fill-rule="nonzero">
            <path d="M324.693111,225.864799 C323.480333,226.442447 321.947756,226.567467 319.90227,226.567467 L319.006012,226.567467 L319.006012,216.913319 C319.006012,215.258771 319.199122,214.834199 321.880106,214.834199 C324.376181,214.834199 328.272813,216.612117 328.272813,220.578495 C328.272813,222.598613 327.315055,224.535796 324.693111,225.864799 M286.443877,238.353135 C280.05937,238.353135 276.825706,231.785278 276.825706,226.329393 C276.825706,219.097654 281.438607,214.250362 286.459867,214.250362 C292.058406,214.250362 296.301487,218.226643 296.301487,226.528682 C296.301487,232.389745 292.047746,238.353135 286.443877,238.353135 M133.867602,229.557207 L137.737585,221.645081 L137.928234,221.645081 L141.860126,229.557207 L133.867602,229.557207 Z M79.2450515,225.958873 C78.0540039,226.545599 76.5480769,226.667317 74.5378509,226.667317 L73.6579927,226.667317 L73.6579927,217.039577 C73.6579927,215.366461 73.8515123,214.936113 76.484117,214.936113 C78.9318121,214.936113 82.7616145,216.580759 82.7616145,220.599951 C82.7607945,222.648538 81.8194364,224.61708 79.2450515,225.958873 M28.8713223,237.759395 C24.5560809,237.759395 22.5778348,236.512088 22.5778348,231.520385 L22.5778348,210.006713 C22.5778348,208.610868 22.6663947,207.318175 23.1169838,207.204708 C23.7446925,206.982314 24.9152402,206.815621 26.984506,206.815621 C34.6305807,206.815621 44.4344811,210.178357 44.4344811,222.223142 C44.4344811,232.141769 36.6112868,237.759395 28.8713223,237.759395 M398.979222,223.520374 L397.561855,223.110244 C393.372483,221.95371 390.922738,220.715893 390.922738,218.649564 C390.922738,216.666994 393.244154,215.186565 396.529067,215.186565 C401.617567,215.186565 403.877482,217.984444 405.294029,220.715481 L408.125484,220.422118 C407.422335,217.614336 406.968876,215.590918 406.716317,213.978455 C405.875818,213.811763 404.8459,213.646308 403.361293,213.40287 C401.490877,213.067422 399.427351,212.901555 397.433525,212.901555 C387.312695,212.901555 382.031086,216.704541 382.031086,221.375237 C382.031086,225.793831 387.962134,227.986417 393.305653,229.515534 L394.274481,229.802295 C398.267873,230.877133 400.720899,232.322078 400.720899,234.76099 C400.720899,237.445402 398.106744,238.708801 394.75213,238.708801 C388.437323,238.708801 384.669021,234.261324 383.321763,231.868624 L380.482519,232.408725 C381.056518,234.463501 381.666187,236.222026 382.151626,237.775074 L382.395985,238.574704 C381.910136,238.477329 381.534167,238.385318 381.531707,238.385318 C380.01594,237.975188 378.494023,237.129759 376.244768,235.174008 C372.243176,231.703994 368.056674,227.447142 364.122732,223.520374 C366.784856,221.497781 369.96481,219.393492 373.386663,217.242579 C376.687977,215.134576 378.652693,215.0797 382.272575,214.833787 L382.272575,213.142104 L365.263759,213.142104 L365.263759,214.537123 L367.676195,214.5429 C369.391221,214.66957 368.693403,215.794333 367.804934,216.539086 C364.123142,219.675714 360.253159,222.736836 355.620579,226.123916 L355.620579,219.675714 C355.620579,215.219986 356.127338,214.788813 360.317119,214.537536 L360.317119,213.142516 L340.519079,213.142516 L340.519079,214.537536 C344.95814,214.788813 345.464899,215.219986 345.464899,219.675714 L345.464899,233.767848 C345.464899,235.371646 345.395199,236.544271 345.11845,237.343489 C344.705581,238.420802 343.328803,238.61844 342.338245,238.467014 C340.991398,238.256585 339.92827,237.243638 339.029552,236.284743 C338.044734,235.242913 337.064836,234.188706 336.063618,233.151415 C334.226002,231.238988 331.850876,228.096171 330.957078,226.939637 C335.685599,225.738129 339.198882,223.591342 339.198882,219.955048 C339.198882,217.518199 337.282545,215.508397 334.724971,214.474407 C332.237096,213.439592 328.909132,213.142104 323.926002,213.142104 L303.620383,213.142104 L304.031202,214.537123 C308.314053,214.7884 308.411223,215.219573 308.411223,219.675302 L308.411223,225.551631 C308.196794,217.517787 298.207164,212.097799 286.412717,212.097799 C277.038086,212.097799 271.665457,214.902279 268.149714,218.591387 C270.298929,214.348563 271.729417,211.655073 271.928266,211.334478 C274.95898,206.344425 275.763398,206.404253 280.758008,205.947086 L280.758008,204.03796 L259.435591,204.03796 L259.435591,205.947086 L262.830794,206.174432 C266.665517,206.404253 266.933656,206.871323 265.771718,210.103676 C264.520811,213.447432 261.222778,221.364922 258.098994,228.003747 L257.924334,227.695118 L244.360741,204 L238.120964,204 L226.433117,227.695118 L226.253537,228.003747 L217.780904,209.101869 C216.707527,206.778487 216.976076,206.454591 220.279439,206.174019 L223.132624,205.946674 L223.132624,204.037547 L195.298599,204.037547 L195.298599,205.946674 C199.402691,206.285835 201.007018,206.285835 203.416993,210.990778 L204.504311,213.147467 L191.214188,213.147467 L181.273757,229.726788 L169.90284,213.147467 L154.626271,213.147467 L154.626271,214.536711 C159.76069,214.825122 160.281389,215.535216 159.82793,220.809555 L159.114122,229.267145 C158.789402,233.075496 158.397443,235.295727 158.072724,236.591721 C157.960384,237.03486 157.890684,237.57496 157.509385,237.661195 C157.060846,237.728862 156.070698,236.159723 155.22815,234.625655 C152.855894,230.353124 150.17204,225.412996 147.482855,220.433671 L143.237314,212.518244 L138.924532,213.104144 L126.434317,234.747374 C126.289177,234.997825 126.149368,235.225996 126.015708,235.441377 C125.538059,236.078852 125.05221,236.678368 124.563901,237.021656 C123.165804,238.028827 119.555761,238.280516 117.017046,238.280516 C115.04987,238.280516 113.592323,238.234717 112.575525,237.899268 C111.435317,237.521322 111.306167,236.381705 111.306167,234.210161 L111.306167,227.466534 L114.480791,227.466534 C119.93706,227.466534 120.12484,227.636528 120.760748,231.320271 L123.552023,231.320271 L123.552023,221.433827 L120.760748,221.433827 C120.12443,224.61708 119.93665,224.778821 114.480791,224.778821 L111.306167,224.778821 L111.306167,216.791601 C111.306167,215.322312 111.432037,215.118485 113.844472,215.118485 L114.92359,215.118485 C118.283533,215.118485 120.379859,215.369762 121.394197,216.079856 C122.408945,216.751991 123.106354,218.130093 123.742673,220.182394 L126.531077,220.054074 C126.214558,216.915382 125.902958,213.856737 125.835718,213.14788 L95.7614585,213.14788 L95.7614585,214.537123 C100.01274,214.7884 100.522779,215.321899 100.522779,219.847771 L100.522779,233.664284 C100.522779,236.857027 100.262019,237.936816 98.3920132,238.384905 C97.7343745,238.533856 97.0316359,238.547885 96.3789172,238.352722 C95.8344383,238.196345 95.3781092,237.856357 94.9328501,237.51307 C93.9316321,236.673417 92.5495249,235.251991 90.4187592,233.032585 C88.5963128,231.109842 86.2773574,228.219952 85.3970892,227.047327 C90.0399199,225.835092 93.493753,223.655296 93.493753,219.97114 C93.493753,217.498807 91.6126768,215.615262 89.0981518,214.572607 C86.6529167,213.521701 83.3868632,213.14788 78.489013,213.14788 L58.0575239,213.162321 C56.6114568,211.411223 54.9337401,210.043435 53.2535635,208.996655 C47.2237056,205.357473 38.0499739,204.014029 26.985326,204.014029 L0.718728563,204.014029 L0.718728563,206.198776 C6.56695687,206.536287 7.28609543,206.928262 7.28609543,212.980362 L7.28609543,231.466334 C7.28609543,237.521734 6.56695687,238.213261 0,238.548297 L0,240.355097 L23.2088236,240.355097 C43.986762,240.355097 60.988198,234.437507 60.988198,220.483184 C60.988198,218.367754 60.3170294,216.459453 59.2920314,214.791288 L59.8582403,214.791288 C59.8582403,214.791288 60.7495785,214.770246 61.5650669,214.900216 C61.6511667,214.916308 62.2817454,215.054943 62.6814946,215.411847 C63.4682831,216.129781 63.6183428,217.422475 63.6183428,219.848183 L63.6183428,233.664697 C63.6183428,238.183141 63.1165038,238.648148 58.6614527,238.904376 L58.6614527,240.359636 L78.488603,240.359636 L78.488603,238.904376 C74.1622917,238.648148 73.6579927,238.183141 73.6579927,233.664697 L73.6579927,228.635859 L74.479221,228.635859 C75.6678087,228.635859 76.5484869,229.267558 77.1151058,230.148471 C79.3368913,233.47366 81.6988966,237.267569 85.3942192,239.092937 C87.9005442,240.324977 90.6245788,240.359636 93.3596833,240.359636 L120.24825,240.359636 L127.421595,240.359636 L134.80199,240.359636 L134.80199,238.904376 L132.990204,238.904376 C130.11898,238.693122 130.05461,237.971887 130.929138,236.170863 L132.805294,232.239144 L143.046664,232.239144 L145.298379,236.425028 C146.108948,237.929389 145.982668,238.653099 143.674373,238.864353 L141.799036,238.904788 L141.799036,240.360049 L153.327803,240.360049 L161.411757,240.360049 L169.376811,240.360049 L169.376811,238.904788 C165.15546,238.688996 163.727843,238.143118 163.467493,236.592546 C163.204274,235.296552 163.142774,233.28675 163.338753,229.683877 L163.795082,220.389109 L163.923822,220.389109 L176.089318,240.360049 L179.054432,240.360049 L191.866906,218.926422 L192.127256,218.926422 L192.323235,233.665109 C192.387195,238.311049 192.194496,238.607712 187.317965,238.904788 L187.317965,240.360049 L207.657615,240.360049 L207.657615,239.034347 C202.980344,238.740159 202.851194,238.310636 202.655625,233.664697 L202.003316,219.633628 C201.837266,215.837244 202.011516,214.970772 205.256249,214.614693 L218.492253,240.379028 L225.360149,240.379028 L237.316135,217.736468 L237.493665,217.736468 L250.609129,240.379028 L257.479485,240.379028 C260.04198,234.750675 262.572905,229.845619 264.78198,225.346154 C264.736471,225.737717 264.706951,226.129279 264.706951,226.518779 C264.706951,234.11815 273.240674,240.799474 286.402057,240.799474 C298.763122,240.799474 308.196794,234.793173 308.411633,226.118139 L308.411633,233.767435 C308.411633,238.22894 307.901594,238.655987 303.360853,238.903963 L303.360853,240.378616 L323.926822,240.378616 L323.926822,238.903963 C319.516871,238.655575 319.007242,238.228528 319.007242,233.767435 L319.007242,228.505888 L319.83667,228.505888 C321.052318,228.505888 321.948166,229.127272 322.525855,229.996632 C324.090002,232.362513 325.622579,234.793173 327.659455,236.789359 C329.586041,238.672079 332.033736,239.897518 334.704061,240.206147 C336.062388,240.367476 337.428505,240.359223 338.794622,240.359223 L341.325547,240.359223 L341.346867,240.359223 L345.13362,240.359223 L360.632409,240.359223 L360.632409,238.903963 C356.128978,238.655575 355.493069,238.228528 355.621809,233.767435 L355.621809,227.160794 L355.748089,227.160794 C360.377389,231.659846 366.987396,237.716072 369.400241,240.359223 L382.174586,240.359223 L385.288119,240.359223 C387.003146,240.624529 389.515211,240.940172 391.745197,240.945123 L391.742327,240.945123 C392.367575,240.978132 393.001024,241 393.634473,241 C403.620823,241 410,237.280773 410,232.199946 C410,227.363796 404.9074,225.217008 398.979222,223.520374" id="Shape"></path>
            <path d="M201.065931,129.423308 C201.436198,130.465398 201.814238,131.512807 202.240147,132.531985 C202.728653,133.693135 203.266665,134.824828 203.874638,135.922561 C199.521858,138.262456 195.741457,140.903481 192.863198,143.132089 C191.99706,140.686635 193.227736,138.178582 194.064825,135.746629 C194.219069,135.271204 194.42159,134.789232 194.623703,134.32199 C194.659706,134.32199 194.686709,134.32199 194.694074,134.32199 C195.043065,134.279439 195.805692,134.238115 196.147728,134.160378 C196.887852,134.014314 197.853,133.916528 197.971239,132.959131 C197.991696,132.798337 197.991696,132.651455 197.991696,132.50539 C197.98515,131.302916 198.851287,126.594486 199.159365,124.875672 C199.934675,126.657085 200.793857,128.676211 201.058976,129.409806 C201.058567,129.416762 201.065931,129.416762 201.065931,129.423308 M168.842514,91.7980127 C171.909793,95.7429796 174.627673,99.8131446 177.003106,104.004825 C177.003106,103.977004 177.003106,103.947954 177.010062,103.913586 C177.073068,103.592408 177.254724,103.298234 177.576304,103.201676 C177.841832,103.117801 178.058673,103.313372 178.198188,103.522035 C178.386799,103.829712 178.533269,104.15089 178.750519,104.444246 C179.036913,104.807975 179.267256,105.170477 179.714439,105.324724 C180.126847,105.478971 180.664449,105.605397 181.084221,105.737141 C181.517494,105.869704 181.775249,105.940077 182.201976,106.065684 C182.928189,106.261664 183.620445,106.597162 184.115906,107.169145 C184.402709,107.504643 184.619141,107.924425 184.947676,108.223919 C185.324898,108.566781 185.737305,108.875276 186.18408,109.119535 C188.315261,110.355559 190.837574,110.857579 193.296471,110.851033 C194.471095,108.930101 196.237737,107.518554 198.998166,107.644162 C201.024609,107.728036 202.387026,108.622425 203.553059,109.865814 C207.353916,109.139583 210.484612,106.938797 213.159532,104.262586 C213.565802,103.857533 214.09645,103.284323 214.746564,102.725841 L213.29291,100.811047 C212.496325,100.796727 211.86094,100.853598 211.0574,100.83805 C210.442471,100.83805 209.631567,100.706306 209.07228,100.433407 C208.548588,100.167463 208.066628,99.7169957 207.975391,99.1163723 C207.93325,98.7943759 208.032261,98.4596961 207.96189,98.1520197 C207.884564,97.8586635 207.431243,97.7363294 207.270453,97.516619 C207.14444,97.3202299 207.192717,97.0276919 207.305229,96.8423497 C207.311775,96.8141187 207.528208,96.5412196 207.563393,96.5633134 C207.528208,96.5346733 207.501614,96.513807 207.466019,96.485576 C207.2009,96.2830497 206.900186,96.0981166 207.004925,95.6963372 C207.081842,95.3812963 207.605534,95.2593713 207.347779,94.8686388 C207.242223,94.7254384 207.108845,94.6039226 206.977104,94.4877257 C206.536057,94.1383167 206.250072,93.824094 206.201385,93.4771399 C206.18011,92.8282374 207.311775,92.077049 207.919749,91.5042473 C208.276923,91.1622029 208.514221,90.7321925 208.44385,90.2256722 C208.366933,89.6070464 208.220054,89.023607 208.198779,88.398844 C208.192233,88.0911677 208.198779,87.7765359 208.220054,87.4549487 C207.759778,88.2478699 206.738578,88.3149695 206.738578,88.3149695 C207.639901,87.0253474 207.507342,86.6550721 207.501205,85.5892519 C207.389511,84.2795818 208.590729,83.1937135 208.625097,83.175302 C207.605125,82.6479153 207.032337,83.8078387 206.990196,83.7771529 C207.179216,80.6357449 210.217856,81.0866216 210.183489,81.0444798 C208.77934,80.0944473 208.80798,78.6833095 208.80798,78.6698078 C209.156562,79.0846798 209.561605,79.4471815 210.09307,79.6300688 C210.672814,79.8219574 211.279969,79.9512469 211.895307,79.9933888 C212.50369,80.028166 213.13212,79.9062411 213.726183,79.8006819 C214.550998,79.6513443 215.368448,79.4696844 216.178534,79.3052085 C220.601685,77.9881738 223.319155,80.2650604 223.327338,80.2932913 C222.754141,79.4275425 222.969754,78.798279 222.983665,78.7770035 C223.166548,79.2773867 223.535587,79.4864593 223.948404,79.9438823 C224.366539,80.3947591 225.897929,81.3664762 226.973134,82.1381218 C228.04302,82.9073126 228.489794,84.6883167 228.524162,84.6883167 C230.271574,84.4645149 230.739624,85.8903819 230.809586,86.1452786 C229.572364,85.3376283 229.725789,87.7974023 229.747882,88.3632485 C229.76793,89.4532082 229.774476,90.5472594 229.530632,91.6196259 C228.964799,94.0368489 227.183019,96.1856735 225.030564,97.3869204 C224.534693,97.6639109 223.948404,97.9576763 223.703741,98.5018379 C223.655054,98.595941 223.6616,98.7330043 223.703741,98.8974802 C223.934493,98.7681907 224.206567,98.6806338 224.430364,98.6172165 C224.996197,98.473607 226.449442,98.1246071 226.644599,98.9666255 C226.764884,99.4244577 226.994408,100.57047 227.161744,100.776679 C227.315988,100.964476 227.762763,101.327387 228.209947,101.858865 C228.482839,102.124808 228.734048,102.418165 228.972573,102.725841 C229.60714,103.535537 230.159471,104.416833 230.627112,105.338226 C231.304638,106.651987 231.829558,108.035303 232.23501,109.448078 C232.800843,111.347733 233.164154,113.332491 233.394087,115.316022 C233.575743,116.824945 233.688255,118.355962 233.723031,119.886161 C233.736533,120.571068 233.729168,121.268658 233.716485,121.954384 C237.43347,117.817528 240.597715,113.241661 243.079114,108.245603 C247.640144,99.0545915 249.870335,88.8358098 249.946843,78.5826601 C250.239374,39.3052409 220.119316,4.20559164 172.203961,12.6736459 C163.554453,14.207527 155.009274,17.5121834 147.449699,21.9387128 C139.345158,26.6831472 132.078523,33.0657943 126.733593,40.8145733 C123.952707,44.8286855 121.493401,49.0694636 119.36222,53.4718535 C125.377722,56.290856 134.495689,61.0978893 144.053885,68.0954799 C153.793327,75.2154046 162.134757,83.1945318 168.842514,91.7980127 M182.899959,113.877471 C182.557514,113.906111 182.215068,113.920022 181.873032,113.933524 C182.250254,114.827913 182.613565,115.749714 182.962966,116.659241 C183.019017,116.448941 183.144212,116.22514 183.38151,116.057391 C184.05249,115.624925 184.877305,116.01484 185.464004,116.43544 C187.161911,117.629322 188.956783,118.013508 190.878487,117.790934 C191.074462,117.029517 191.277393,116.281602 191.486461,115.54146 C190.591684,115.282472 189.70509,115.009982 188.824224,114.730536 C187.796888,114.388492 186.776916,114.017808 185.707848,113.87788 C184.779522,113.751864 183.829103,113.835738 182.899959,113.877471 M204.503478,0 C183.857333,0 164.755262,6.63099753 149.202431,17.8726393 C149.237616,17.9217366 149.370176,17.9953825 149.796494,17.7368035 C154.148864,14.9452137 158.935326,12.6990129 163.693149,10.7322574 C165.132484,10.1312248 166.592684,9.57928952 168.060249,9.05190284 C182.417999,3.92737368 197.935645,2.46304715 212.824451,5.07297701 C218.68039,6.09665541 224.402134,7.74836992 229.885761,10.0088908 C245.914824,16.6079751 260.10442,28.290265 268.404937,43.6368489 C277.480763,60.4125731 280.477672,81.013794 275.559059,99.536154 C272.659524,110.453754 267.070341,120.564112 259.705923,129.094766 C252.125483,137.877861 242.657706,145.018652 232.16382,149.972977 C221.404816,155.044727 209.575516,157.755306 197.677072,157.825679 C197.250754,158.846084 197.027776,159.900039 196.713151,160.983862 C196.629279,161.278036 196.601049,161.584894 196.489355,161.863521 C196.188232,162.668308 195.301638,162.562748 194.588926,162.534108 C194.266937,162.521425 193.687603,162.464554 193.359068,162.423639 C192.507251,163.471457 191.709848,164.560599 191.207022,165.664879 L191.144424,165.776575 C190.243102,167.719191 189.698135,168.892207 190.354386,170.527146 C190.592093,171.099948 190.641189,171.757033 190.571636,172.358066 C190.514767,172.95828 190.361341,173.580588 189.87979,173.979504 C189.362645,174.398876 188.747307,174.343233 188.118876,174.370236 C186.847287,174.412787 185.638295,174.454111 184.478808,174.999091 C184.478808,174.999091 184.464898,175.013411 184.457943,175.013411 C183.032519,175.690953 181.684421,176.522334 180.188626,177.039901 C178.756247,177.528828 177.093525,177.772678 175.738063,176.969529 C175.500765,176.829601 175.29047,176.634849 175.046217,176.521925 C174.829785,176.410229 174.585123,176.410229 174.35478,176.375042 C173.460003,176.243298 172.866349,175.851747 172.657282,175.292447 C172.524722,174.901715 172.60123,174.496662 172.804161,174.132933 C173.027958,173.755702 173.411725,173.741382 173.817587,173.797435 C174.110936,173.839986 174.396921,173.909131 174.69027,173.902176 C175.214371,173.902176 175.738881,173.769613 176.220432,173.573633 C177.177807,173.155079 178.002212,172.491038 178.76402,171.791811 C179.455457,171.14209 180.3711,170.367171 181.188141,169.675718 C181.845211,169.123373 182.467095,168.59926 182.858227,168.235531 C183.543118,167.578854 184.828209,166.308053 185.99506,164.224692 C186.302729,163.66621 186.896383,162.170788 187.379161,160.619723 C187.217963,160.522347 187.064537,160.423743 186.917658,160.312047 C186.34487,159.878763 185.576516,159.418476 185.835089,158.607553 C186.002834,158.096941 186.239722,157.615788 186.450017,157.126861 C167.075463,154.583212 155.651615,145.988732 155.6868,145.988732 C161.99606,147.498065 168.612989,148.112599 175.278196,147.903526 C175.145637,147.777919 175.019623,147.623672 174.943115,147.442421 C174.831012,147.205118 174.796645,146.939583 174.802782,146.687141 C174.817102,146.408105 174.90793,146.129478 175.131726,145.954364 C175.173867,145.911813 175.222554,145.88481 175.278196,145.863125 C175.4038,145.820574 175.537178,145.848805 175.676693,145.863125 C176.277302,145.967866 176.89264,145.974821 177.50716,145.946181 C177.933478,145.919178 178.359387,145.848805 178.799615,145.75102 C179.023002,145.709287 179.239434,145.640142 179.456276,145.575906 C179.819587,145.471983 180.175943,145.359469 180.525344,145.233862 C180.874335,145.122984 181.18855,144.912683 181.496219,144.730614 C182.299759,144.242506 183.047657,143.696707 183.724774,143.053942 C184.996363,141.824055 185.856364,141.069593 186.785098,139.561079 C186.833785,139.490707 186.896383,139.330322 186.946297,139.19735 C187.6586,137.366431 188.119695,135.437726 188.518191,133.550753 C188.552968,133.419009 188.629885,133.006592 188.734214,132.419879 C188.692073,132.391239 188.657297,132.377328 188.62293,132.349506 C187.903672,131.895766 187.051036,131.245227 187.386117,130.210911 C187.609913,129.541142 187.714652,129.499 187.958905,128.841915 C188.175337,128.240882 188.525556,126.913619 188.776355,125.900578 C189.07666,124.726744 189.384329,123.553728 189.677678,122.371711 C189.251769,122.421217 188.832816,122.511638 188.426954,122.686752 C187.393072,123.140492 186.498704,123.783258 185.485688,124.272185 C185.737305,125.152663 185.974603,126.03355 186.197991,126.914028 C186.282272,127.277757 186.226221,127.625938 186.03761,127.933615 C185.848999,128.255611 185.54133,128.478595 185.171064,128.562469 C185.065916,128.590291 184.961996,128.604202 184.842529,128.604202 L184.794251,128.604202 C184.178913,128.577198 183.64131,128.143097 183.501387,127.556384 C183.228903,126.466424 182.921643,125.375646 182.607019,124.287323 C182.417999,124.133076 182.28503,123.966145 182.201976,123.839719 C181.014259,123.859768 180.69268,123.02225 180.615762,122.665067 C180.608398,122.665067 180.601852,122.651565 180.587941,122.651565 C179.322898,122.11395 179.498007,120.884063 179.498007,120.884063 C179.120786,120.821055 178.876123,120.444642 178.729244,120.053091 C178.317655,119.025321 179.239025,118.250403 180.070795,117.942726 C180.175534,117.908358 180.301138,117.879718 180.462337,117.851487 C179.952146,116.517678 179.413726,115.189596 178.840938,113.863151 C177.778825,113.582478 177.667131,112.981036 177.688406,112.996175 C176.730623,113.009677 176.437683,111.877575 176.465504,111.835024 C175.229509,111.737648 175.124771,110.131348 175.124771,110.131348 C174.432925,109.921048 174.229585,109.376887 174.272135,108.929283 C174.299547,108.607287 174.635855,108.32825 175.061764,108.111813 C175.061764,108.111813 175.075266,108.111813 175.075266,108.104449 C175.340385,107.978841 175.627597,107.867145 175.913991,107.769769 C173.314761,102.823217 170.212704,98.0468697 166.635234,93.4534095 C159.794918,84.6662229 151.711651,76.7398753 142.607186,69.8998052 C134.572197,63.8596116 126.342051,58.9167424 118.460897,55.3846019 C116.972467,58.6536628 115.659146,62.0078257 114.554892,65.4278608 C111.634901,74.4867191 110.111694,83.96495 110.006955,93.4734576 C110,93.8200026 110,94.1624562 110,94.497136 C110,146.701461 152.311851,189 204.496113,189 C256.688558,189 299,146.701461 299,94.5045006 C299.006955,42.313268 256.695104,0 204.503478,0 M214.885261,116.504176 C213.362054,117.076978 211.588456,117.651007 209.631158,118.112112 C211.510721,120.683582 213.425469,123.240733 215.402406,125.74183 L215.416317,125.755332 C215.472777,125.797883 215.996469,126.384186 216.702226,127.153786 C216.863425,125.992635 216.982074,124.805299 217.01685,123.616736 C217.079448,121.41595 216.332778,118.383374 214.948267,116.574958 C214.927401,116.546318 214.900399,116.532816 214.885261,116.504176" id="Shape"></path>
        </g>
    </g>
</svg>