<?xml version="1.0" encoding="UTF-8"?>
<svg id="duke" viewBox="0 0 200 87" version="1.1" xmlns="http://www.w3.org/2000/svg" xmlns:xlink="http://www.w3.org/1999/xlink">
    <g stroke="none" stroke-width="1" fill="none" fill-rule="evenodd">
        <g transform="translate(0.9048, 0.6465)" fill="currentColor" fill-rule="nonzero">
            <g id="Group" transform="translate(99.3783, 42.8584) scale(-1, 1) rotate(-180) translate(-99.3783, -42.8584)translate(0, 0)">
                <path d="M130.117387,85.7167875 C129.848637,85.7167875 129.58145,85.6497625 129.3127,85.52095 L122.482575,82.921325 C121.748825,82.652575 121.214825,82.4371875 120.881075,82.2709375 C120.548575,82.1034375 120.383025,81.8534375 120.383025,81.5209375 C120.383025,81.0534375 120.631075,80.7511 121.131075,80.6186 C121.629825,80.4861 122.199737,80.3035125 122.8322,80.0697625 C123.46595,79.8360125 124.033375,79.43485 124.533325,78.8686 C125.034575,78.3011 125.283325,77.35085 125.283325,76.0171 L125.283325,25.7921 C125.283325,24.72585 125.165575,23.925475 124.931763,23.391725 C124.699263,22.859225 124.349187,22.4561 123.882937,22.1886 C123.415437,21.9236 122.880125,21.7234375 122.281437,21.5909375 C121.681437,21.4584375 121.04925,21.2914875 120.382937,21.0889875 C119.850437,20.9577375 119.41715,20.806725 119.082188,20.641725 C118.748437,20.474225 118.582188,20.15735 118.582188,19.6886 C118.582188,19.2236 118.898913,18.9409375 119.531413,18.8409375 C120.165163,18.7434375 120.648825,18.69055 120.982538,18.69055 C121.850038,18.69055 122.969788,18.754425 124.336038,18.88195 C125.706038,19.00945 126.995163,19.0753125 128.205163,19.0753125 C129.345163,19.0753125 130.449663,19.0094375 131.519663,18.88195 C132.592163,18.75445 133.728538,18.69055 134.929788,18.69055 C135.463538,18.69055 135.979313,18.75855 136.480537,18.8897625 C136.979287,19.0235125 137.230537,19.2878875 137.230537,19.6866375 C137.230537,20.1541375 136.945938,20.43555 136.380937,20.5343 C135.814688,20.6343 135.128938,20.8182875 134.330187,21.0870375 C133.861437,21.2170375 133.378312,21.4995375 132.877062,21.9307875 C132.378312,22.3645375 132.130975,23.1452375 132.130975,24.2765375 L132.130975,38.4427875 C132.130975,38.7740375 132.363937,38.9427875 132.830187,38.9427875 C133.030187,38.9427875 133.331275,38.741925 133.732525,38.343175 L148.832525,24.078175 C149.565025,23.345675 149.930187,22.812425 149.930187,22.482425 C149.930187,22.148675 149.747612,21.8489875 149.381362,21.5839875 C149.012612,21.3177375 148.56605,21.15165 148.029862,21.0879 C147.163612,20.9529 146.463987,20.801725 145.930237,20.636725 C145.397737,20.469225 145.133362,20.155 145.133362,19.6875 C145.133362,19.22125 145.363825,18.9418 145.832575,18.8418 C146.298825,18.7443 147.065162,18.6914125 148.13145,18.6914125 C149.3302,18.6914125 150.529825,18.7552875 151.731075,18.8828125 C152.929825,19.0103125 154.198075,19.076175 155.531825,19.076175 C157.065575,19.076175 158.46545,19.0103 159.73295,18.8828125 C160.9992,18.7553125 162.1667,18.6914125 163.23295,18.6914125 C164.9667,18.6914125 165.832575,19.0232125 165.832575,19.6894625 C165.832575,20.0219625 165.617887,20.2902375 165.184137,20.4902375 C164.749137,20.6889875 164.166637,20.9370375 163.434137,21.2382875 C162.700387,21.5382875 161.848887,21.922425 160.881387,22.388675 C159.913887,22.857425 158.932138,23.5538375 157.932137,24.4863 L140.630887,40.1813 C140.495887,40.31255 140.328387,40.496375 140.130887,40.730125 C139.929637,40.963875 139.8301,41.2459875 139.8301,41.5797375 C139.8301,41.8459875 140.697212,42.561925 142.429725,43.7282375 C144.162225,44.8944875 146.1471,46.1424875 148.38085,47.4762375 C150.6146,48.8087375 152.7796,50.0579875 154.88085,51.2242375 C156.98085,52.3904875 158.39785,53.1392375 159.13285,53.4742375 C159.4641,53.6067375 159.9137,53.7572125 160.482475,53.9234625 C161.048725,54.0884625 161.598575,54.2722875 162.13485,54.4722875 C162.6661,54.6710375 163.11375,54.888925 163.482475,55.122675 C163.848725,55.356425 164.031312,55.606425 164.031312,55.872675 C164.031312,56.405175 163.83365,56.740175 163.43365,56.872675 C163.0324,57.005175 162.599825,57.07385 162.134775,57.07385 C161.132275,57.07385 159.948275,57.039975 158.582025,56.976225 C157.214525,56.912475 155.89465,56.8786 154.6309,56.8786 C153.29465,56.8786 151.94515,56.912475 150.58015,56.976225 C149.2139,57.039975 147.997275,57.07385 146.929775,57.07385 C146.596025,57.07385 146.28055,56.97185 145.98055,56.7730625 C145.68055,56.5718125 145.531337,56.3394 145.531337,56.0719 C145.531337,55.67065 145.72845,55.353775 146.13095,55.118775 C146.5297,54.886275 146.964225,54.654 147.4317,54.4215 C147.8992,54.18775 148.329975,53.8866625 148.73245,53.5191625 C149.12995,53.1516625 149.330112,52.633375 149.330112,51.9684125 C149.330112,51.6334125 148.945975,51.151 148.179725,50.5172875 C147.413475,49.8847875 146.4651,49.1656625 145.3301,48.3669125 C144.19885,47.5644125 142.9476,46.7317875 141.5801,45.8630375 C140.2126,44.9955375 138.930475,44.2127875 137.730475,43.5115375 C136.530475,42.8102875 135.4801,42.2441625 134.5801,41.8104125 C133.6801,41.3766625 133.1631,41.160025 133.02935,41.160025 C132.4306,41.160025 132.130912,41.6940875 132.130912,42.761525 L132.130912,83.914025 C132.130912,84.647775 132.014912,85.13075 131.777387,85.363275 C131.544887,85.598275 131.292237,85.7167875 131.023487,85.7167875 L130.117237,85.7167875 L130.117387,85.7167875 Z M29.0273875,80.8920125 C25.8211375,80.8920125 22.9673875,80.7973875 20.4648875,80.6049 C17.9598875,80.41115 15.4738875,80.3138875 13.0038875,80.3138875 L3.9003875,80.3138875 C3.5653875,80.3138875 3.18305,80.2987625 2.7480375,80.2650125 C2.3142875,80.2325125 1.9,80.1638875 1.5,80.06385 C1.1,79.9626 0.7499125,79.7943875 0.4511625,79.5618875 C0.148675,79.3281375 0,79.012675 0,78.612675 C0,78.078925 0.2146875,77.75955 0.6484375,77.65955 C1.0821875,77.5608 1.86625,77.4443875 2.9999375,77.3118875 C3.6649375,77.2443875 4.3809375,77.1932625 5.1484375,77.15955 C5.9159375,77.12705 6.6495625,77.05905 7.3495625,76.960325 C8.0483125,76.860325 8.6313125,76.693375 9.0975625,76.458375 C9.5650625,76.225875 9.7987375,75.87705 9.7987375,75.40955 L9.7987375,28.3608 C9.7987375,26.8933 9.66585,25.760425 9.39835,24.960425 C9.1321,24.157925 8.7832625,23.543925 8.349525,23.108925 C7.915775,22.675175 7.4328,22.3728375 6.900275,22.2065875 C6.366525,22.0390875 5.8324625,21.921275 5.298775,21.855025 C3.765025,21.588775 2.766275,21.255025 2.298775,20.855025 C1.831275,20.456275 1.5995625,20.05385 1.5995625,19.65385 C1.5995625,19.13885 1.831275,18.8504125 2.298775,18.7866625 C2.766275,18.7229125 3.1308875,18.6909125 3.3983875,18.6909125 C4.5983875,18.6909125 6.0310125,18.7547875 7.6972625,18.8823125 C9.3647625,19.0110625 10.9336375,19.075675 12.4023875,19.075675 L36.0373875,19.075675 C40.3098875,19.075675 44.3320125,19.7935625 48.1057625,21.22605 C51.8795125,22.6598 55.1672625,24.6088 57.9710125,27.07755 C60.7735125,29.54505 62.9930125,32.445675 64.6292625,35.780675 C66.2655125,39.113175 67.0843875,42.648425 67.0843875,46.382175 C67.0843875,52.384675 66.082975,57.57005 64.0805125,61.938425 C62.0767625,66.304675 59.3552625,69.889175 55.9165125,72.690425 C52.4777625,75.490425 48.4551375,77.5578 43.8501375,78.89155 C39.2413875,80.2253 34.3028875,80.8920125 29.0276375,80.8920125 L29.0273875,80.8920125 Z M26.8125125,77.9037625 C28.8862625,77.9037625 31.0950125,77.6537625 33.4375125,77.1537625 C35.7787625,76.6537625 38.0882625,75.8685125 40.3632625,74.8022625 C42.6382625,73.7347625 44.8300125,72.4022625 46.9375125,70.8022625 C49.0437625,69.2022625 50.9035125,67.2991375 52.5097625,65.0991375 C54.1172625,62.8978875 55.3860125,60.3971375 56.3222625,57.5971375 C57.2597625,54.7971375 57.7285125,51.6951375 57.7285125,48.2963875 C57.7285125,44.8938875 57.2597625,41.8753875 56.3222625,39.2416375 C55.3860125,36.6091375 54.1500125,34.3067625 52.6112625,32.3392625 C51.0712625,30.3717625 49.3317625,28.6897625 47.3905125,27.2885125 C45.4492625,25.8872625 43.5095125,24.7707625 41.5682625,23.9370125 C39.6282625,23.1032625 37.7533875,22.4873875 35.9471375,22.0873875 C34.1396375,21.6848875 32.5678875,21.485825 31.2303875,21.485825 C29.6228875,21.485825 28.0523875,21.6848875 26.5136375,22.0873875 C24.9723875,22.4873875 23.6015125,23.1032375 22.3965125,23.9370125 C21.1915125,24.7707625 20.2213875,25.8198875 19.4863875,27.0873875 C18.7513875,28.3536375 18.382875,29.8562625 18.382875,31.5912625 L18.382875,74.7025125 C18.382875,75.0350125 18.432,75.402125 18.5332625,75.802125 C18.6332625,76.200875 18.9501375,76.5516625 19.4863875,76.8529125 C20.0213875,77.1529125 20.8586375,77.4036125 21.9961375,77.6048625 C23.1323875,77.8036125 24.7375125,77.9037625 26.8125125,77.9037625 L26.8125125,77.9037625 Z M183.375013,58.7125125 C180.245013,58.7125125 177.545763,58.0436 175.283263,56.7086375 C173.019513,55.3736375 171.137513,53.6875125 169.638763,51.6500125 C168.140013,49.6125125 167.027513,47.3425125 166.295013,44.8375125 C165.562513,42.3337625 165.195413,39.9152625 165.195413,37.5777625 C165.195413,31.2990125 166.701163,26.3427625 169.714912,22.7027625 C172.727413,19.0640125 177.002162,17.2437625 182.537412,17.2437625 C185.137412,17.2437625 187.354037,17.6293 189.187787,18.39805 C191.020287,19.1668 192.535412,20.039425 193.736662,21.009425 C194.936662,21.979425 195.803787,22.883925 196.336287,23.716425 C196.872537,24.550175 197.139012,25.065925 197.139012,25.267175 C197.139012,25.799675 196.835425,26.066 196.236675,26.066 C195.836675,26.066 195.468312,25.84865 195.137062,25.41365 C194.802062,24.98115 194.335425,24.5164625 193.736687,24.01515 C193.136687,23.5139 192.304187,23.0668 191.236687,22.665525 C190.167937,22.264275 188.670437,22.0659125 186.736687,22.0659125 C183.669187,22.0659125 181.183562,22.5477875 179.283562,23.5190375 C177.383562,24.4877875 175.918812,25.7432875 174.885062,27.2807875 C173.851312,28.8157875 173.151687,30.5870375 172.785437,32.5932875 C172.417937,34.5970375 172.2366,36.6669125 172.2366,38.8081625 L172.2366,40.9136625 C172.2366,41.5136625 172.299225,41.9829625 172.428,42.3179125 L196.7605,42.3179125 C197.62675,42.3179125 198.1745,42.4671375 198.407,42.7671375 C198.63825,43.0671375 198.756612,43.6829875 198.756612,44.6167625 C198.756612,45.6817625 198.489575,47.0160125 197.955825,48.6147625 C197.423325,50.2147625 196.558825,51.7645125 195.360075,53.2632625 C194.161325,54.7632625 192.57895,56.0466375 190.61395,57.1128875 C188.64895,58.1803875 186.2382,58.7125125 183.3757,58.7125125 L183.375013,58.7125125 Z M72.2212625,57.0738875 C71.4875125,57.0738875 70.8886375,57.0386375 70.4223875,56.9722625 C69.9548875,56.9047625 69.7212125,56.640225 69.7212125,56.171475 C69.7212125,55.837725 69.919575,55.586475 70.320825,55.421475 C70.720825,55.253975 71.5224625,55.005225 72.7212,54.671475 C73.3212,54.537725 73.9565875,54.370225 74.621575,54.171475 C75.287825,53.971475 75.621575,53.5028875 75.621575,52.7691 C75.621575,51.30035 75.6052,49.649725 75.5727,47.815975 C75.5402,45.982225 75.525825,44.096725 75.525825,42.161725 C75.525825,40.291725 75.5082,38.425725 75.47695,36.558225 C75.44445,34.688225 75.430075,32.988475 75.430075,31.454725 C75.430075,29.318475 75.6114,27.38185 75.9789,25.6481 C76.3464,23.91435 76.9780375,22.414225 77.879275,21.144225 C78.780525,19.876725 80.01415,18.913225 81.5804,18.245725 C83.1479,17.579475 85.10015,17.243775 87.4339,17.243775 C89.4364,17.243775 91.2199,17.5568125 92.7874,18.1793125 C94.3549,18.8018125 95.7214,19.4950625 96.8889,20.2613125 C98.05515,21.0275625 99.006775,21.7120625 99.7404,22.3120625 C100.47415,22.9108125 101.0404,23.2124625 101.44165,23.2124625 C101.90915,23.2124625 102.14085,22.8119875 102.14085,22.0132375 L102.14085,19.7124875 C102.14085,19.2449875 102.172225,18.8633375 102.238475,18.5620875 C102.302225,18.2608375 102.528712,18.112875 102.916212,18.112875 C103.387462,18.112875 104.632587,18.3089625 106.652587,18.7027125 C108.672587,19.0977125 111.447712,19.559275 114.982712,20.0854625 C115.715212,20.2192125 116.233462,20.3482 116.533462,20.48195 C116.830962,20.61195 116.984625,20.8760125 116.984625,21.2710125 C116.984625,21.7972625 116.598537,22.0927375 115.832287,22.1577375 C115.064787,22.2252375 113.715287,22.2592375 111.781537,22.2592375 C111.315287,22.2592375 110.76365,22.388925 110.131162,22.657675 C109.496162,22.923925 109.181937,23.590875 109.181937,24.659675 C109.181937,29.728425 109.245312,34.778925 109.3753,39.813425 C109.5028,44.849675 109.568662,49.902925 109.568662,54.972175 C109.568662,55.904675 109.300762,56.487175 108.762012,56.722175 C108.228262,56.955925 107.793025,57.0738875 107.459262,57.0738875 C106.453012,57.0738875 105.466887,57.0398625 104.494387,56.9761125 C103.524387,56.9123625 102.536637,56.8803625 101.535387,56.8803625 C100.667887,56.8803625 99.8171375,56.9123625 98.9846375,56.9761125 C98.1496375,57.0398625 97.3007625,57.0738875 96.4357625,57.0738875 C95.9020125,57.0738875 95.4013125,57.0213625 94.9337625,56.9213875 C94.4675125,56.8213875 94.23455,56.6067 94.23455,56.27295 C94.23455,55.87295 94.6174375,55.54045 95.3849375,55.27295 C96.1511875,55.0067 96.7349375,54.8051375 97.1349375,54.6713875 C98.3349375,54.3376375 99.2688125,54.0876375 99.9338125,53.9213875 C100.600062,53.7538875 101.117087,53.604675 101.484562,53.472175 C101.850812,53.339675 102.08575,53.172725 102.18575,52.970225 C102.2845,52.771475 102.336137,52.53725 102.336137,52.271 C102.336137,48.671 102.302262,45.10425 102.238512,41.57175 C102.172262,38.03675 102.140887,34.470375 102.140887,30.866625 C102.140887,29.867875 102.023762,28.831375 101.791287,27.765125 C101.560037,26.697625 101.043162,25.74925 100.244412,24.9155 C99.4469125,24.083 98.2632875,23.400375 96.6995375,22.866625 C95.1357875,22.331625 92.9561625,22.0639 90.1624125,22.0639 C87.6999125,22.0639 85.7689125,22.6162375 84.3714125,23.716275 C82.9726625,24.816275 82.2756625,26.398775 82.2756625,28.466275 C82.2756625,32.933775 82.3070375,37.384025 82.3732875,41.817525 C82.4357875,46.252525 82.4670375,50.703025 82.4670375,55.172525 C82.4670375,55.903775 82.3845375,56.4030625 82.2170375,56.670525 C82.0482875,56.938025 81.628525,57.072875 80.9572875,57.072875 C80.2197875,57.072875 79.4811625,57.039 78.7424125,56.97525 C78.0049125,56.9115 77.2662875,56.8795 76.5275375,56.8795 C75.7900375,56.8795 75.0700375,56.9115 74.3712875,56.97525 C73.6725375,57.039 72.9534125,57.072875 72.2209125,57.072875 L72.2212625,57.0738875 Z M184.797512,56.3024625 C186.931262,56.3024625 188.697012,55.71865 190.098262,54.5524 C191.497012,53.38615 192.197887,51.938525 192.197887,50.204775 C192.197887,49.271025 192.082637,48.5059 191.846325,47.9059 C191.613825,47.3059 191.131562,46.8078625 190.399075,46.4079 C189.665325,46.0079 188.62995,45.7225875 187.29745,45.5563375 C185.9637,45.3888375 184.1967,45.3063375 181.9967,45.3063375 C179.86295,45.3063375 178.211825,45.3245875 177.045575,45.3570875 C175.879325,45.3895875 175.0122,45.4399625 174.44595,45.507475 C173.8797,45.572475 173.544,45.657475 173.444,45.757475 C173.3465,45.856225 173.29555,46.0067 173.29555,46.2067 C173.29555,47.00545 173.562588,47.97145 174.096337,49.1052 C174.628837,50.2377 175.377587,51.337825 176.346338,52.404075 C177.313837,53.469075 178.514087,54.384575 179.947837,55.152075 C181.380337,55.917075 182.997462,56.3024625 184.797462,56.3024625 L184.797512,56.3024625 Z M133.537512,11.22865 C131.532512,11.22865 129.947637,10.0779375 129.947637,8.1954 C129.947637,6.2504 131.049437,5.676025 133.351888,4.992275 C135.170637,4.447275 135.808887,4.0275875 135.808887,3.187525 C135.808887,2.128775 135.078738,1.601525 133.555013,1.601525 C132.528762,1.601525 131.454262,2.0988 130.723013,2.892525 L129.558938,1.75775 C130.473938,0.684 131.843813,0 133.430063,0 C136.213812,0 137.455438,1.338125 137.455438,3.296875 C137.455438,5.240625 136.119813,5.925625 133.971063,6.578125 C132.091062,7.136875 131.594063,7.5109375 131.594063,8.273375 C131.594063,9.003375 132.138125,9.626875 133.414313,9.626875 C134.486813,9.626875 135.263813,9.2839 135.947563,8.5839 L137.099913,9.751875 C136.136163,10.684375 135.013663,11.228375 133.537412,11.228375 L133.537512,11.22865 Z M7.0375125,11.058725 L7.0375125,4.74235 C7.0375125,1.74235 8.4373875,0.0001 11.1273875,0.0001 C13.8336375,0.0001 15.3110125,1.66235 15.3110125,4.7111 L15.3110125,11.058725 L13.6762625,11.058725 L13.6762625,4.67985 C13.6762625,2.68985 12.8686875,1.634975 11.1586375,1.634975 C9.5248875,1.634975 8.6703875,2.737475 8.6703875,4.791225 L8.6703875,11.05885 L7.0376375,11.05885 L7.0375125,11.058725 Z M51.0162625,11.058725 L51.0162625,0.171975 L52.6490125,0.171975 L52.6490125,11.058725 L51.0162625,11.058725 Z M150.857513,11.058725 L150.857513,0.171975 L152.490263,0.171975 L152.490263,11.058725 L150.857513,11.058725 Z M185.829987,11.058725 L189.734263,4.4786 L189.734263,0.171975 L191.369013,0.171975 L191.369013,4.4786 L195.269388,11.058725 L193.388513,11.058725 L191.677513,8.0411 C191.290012,7.33985 190.744625,6.2971 190.558375,5.8946 C190.370875,6.2971 189.812987,7.385975 189.439238,8.054725 L187.743988,11.0586 L185.829987,11.0586 L185.829987,11.058725 Z M28.9550125,11.056225 L28.9550125,0.171475 L30.5390125,0.171475 L30.5390125,5.815975 C30.5390125,6.422225 30.5253875,7.931725 30.5253875,8.335475 C30.6953875,8.055475 31.0702375,7.4013375 31.3339875,6.9976 L35.6718625,0.171475 L37.2284875,0.171475 L37.2284875,11.056225 L35.6406125,11.056225 L35.6406125,5.442975 C35.6406125,4.835475 35.6582375,3.2816 35.6582375,2.8766 C35.5019875,3.1566 35.0359,3.9644125 34.7559,4.4156 L30.61915,11.056225 L28.95515,11.056225 L28.9550125,11.056225 Z M65.7650125,11.056225 L69.5423875,0.171475 L71.2688875,0.171475 L75.0012625,11.056225 L73.2610125,11.056225 L71.0207625,4.13635 C70.8182625,3.49885 70.5058375,2.51985 70.4133375,2.1286 C70.3195875,2.51985 70.0091125,3.48335 69.8078625,4.12085 L67.5363625,11.05635 L65.7648625,11.05635 L65.7650125,11.056225 Z M88.0325125,11.056225 L88.0325125,0.171475 L95.2805125,0.171475 L95.2805125,1.757475 L89.6672625,1.757475 L89.6672625,5.192975 L92.7922625,5.192975 L92.7922625,6.778975 L89.6672625,6.778975 L89.6672625,9.47035 L95.0461375,9.47035 L95.0461375,11.05635 L88.0325125,11.05635 L88.0325125,11.056225 Z M108.483762,11.056225 L108.483762,0.171475 L110.085388,0.171475 L110.085388,4.4781 L112.542388,4.4781 L114.702513,0.171475 L116.587262,0.171475 L114.362638,4.618725 C115.840138,4.992475 116.757137,6.064975 116.757137,7.806225 C116.757137,10.047475 115.156638,11.056225 113.259137,11.056225 L108.483762,11.056225 L108.483762,11.056225 Z M165.605012,11.056225 L165.605012,9.454725 L168.776888,9.454725 L168.776888,0.171475 L170.409763,0.171475 L170.409763,9.454725 L173.581638,9.454725 L173.581638,11.056225 L165.605138,11.056225 L165.605012,11.056225 Z M110.085013,9.517225 L113.258888,9.517225 C114.362638,9.517225 115.108513,8.8944125 115.108513,7.759475 C115.108513,6.576975 114.347663,6.017225 113.258888,6.017225 L110.085013,6.017225 L110.085013,9.517225 Z" id="Shape"></path>
            </g>
        </g>
    </g>
</svg>