<?xml version="1.0" encoding="UTF-8"?>
<svg id="dynatrace" viewBox="0 0 192 179" version="1.1" xmlns="http://www.w3.org/2000/svg" xmlns:xlink="http://www.w3.org/1999/xlink">
    <g stroke="none" stroke-width="1" fill="none" fill-rule="evenodd">
        <g fill="currentColor" fill-rule="nonzero">
            <path d="M126,146.062918 L120.539185,146.062918 C118.990596,146.062918 117.931034,146.403055 117.278997,147.04081 C116.626959,147.678565 116.30094,148.826525 116.30094,150.357137 L116.30094,170 L113,170 L113,150.102035 C113,148.61394 113.244514,146.955776 114.018809,145.722782 C115.404389,143.426863 118.094044,143.001693 120.050157,143.001693 L125.959248,143.001693 C126,142.916659 126,146.062918 126,146.062918 Z" id="Path"></path>
            <path d="M103.562893,167.03632 C102.009434,167.03632 100.946541,166.707022 100.292453,166.089588 C99.6383648,165.472155 99.3113208,164.443099 99.3113208,162.920097 L99.3113208,146.825666 L106.179245,146.825666 L106.179245,143.861985 L99.3113208,143.861985 L99.3113208,136 L96,136 L96,163.125908 C96,164.566586 96.245283,166.171913 97.0220126,167.365617 C98.4119497,169.588378 101.110063,170 103.072327,170 L109,170 L109,167.077482 L103.522013,167.077482 L103.522013,167.03632 L103.562893,167.03632 Z" id="Path"></path>
            <path d="M17.7478992,136.042198 L17.7478992,144.102061 L10.7976729,144.102061 C6.5778927,144.102061 4.01292825,145.368008 2.44085326,146.929342 C0,149.334642 0,152.794897 0,153.174681 L0,161.783121 C0,162.162905 0,165.62316 2.44085326,168.028459 C4.01292825,169.589794 6.5778927,170.855741 10.7976729,170.855741 L13.8590821,170.855741 C15.844861,170.855741 18.575307,170.433759 19.9819005,168.155054 C20.7679379,166.931305 21.0161603,165.285574 21.0161603,163.808636 L21.0161603,136 L17.7065288,136 L17.7065288,136.042198 L17.7478992,136.042198 Z M16.7550097,166.889107 C16.0930834,167.52208 15.0174531,167.859666 13.4453782,167.859666 L10.4667098,167.859666 C7.73626374,167.859666 6.04007757,167.0579 4.96444732,166.002944 C3.72333549,164.779195 3.30963154,163.175662 3.30963154,161.909715 L3.30963154,153.090285 C3.30963154,151.824338 3.72333549,150.220805 4.96444732,148.997056 C5.99870718,147.9421 7.73626374,147.140334 10.4667098,147.140334 L17.7065288,147.140334 L17.7065288,163.639843 C17.7478992,165.158979 17.3755656,166.256133 16.7550097,166.889107 Z M155.676794,148.997056 C156.711054,147.9421 158.44861,147.140334 161.179056,147.140334 L169.163542,147.140334 L169.163542,144.102061 L161.55139,144.102061 C157.33161,144.102061 154.766645,145.368008 153.19457,146.929342 C150.753717,149.334642 150.753717,152.794897 150.753717,153.174681 L150.753717,161.783121 C150.753717,162.162905 150.753717,165.62316 153.19457,168.028459 C154.766645,169.589794 157.33161,170.855741 161.55139,170.855741 L169.163542,170.855741 L169.163542,167.817468 L161.179056,167.817468 C158.44861,167.817468 156.752424,167.015702 155.676794,165.960746 C154.435682,164.736997 154.021978,163.133464 154.021978,161.867517 L154.021978,153.048086 C154.063348,151.824338 154.477052,150.220805 155.676794,148.997056 Z M93.37298,153.174681 C93.37298,152.794897 93.37298,149.334642 90.9321267,146.929342 C89.3600517,145.368008 86.7950873,144.102061 82.575307,144.102061 L75.2113769,144.102061 L75.2113769,147.140334 L82.9476406,147.140334 C85.6780866,147.140334 87.3742728,147.9421 88.449903,148.997056 C89.6910149,150.220805 90.1047188,151.824338 90.1047188,153.090285 L90.1047188,155.664377 L79.5552683,155.664377 C77.5694893,155.664377 74.8390433,156.086359 73.4324499,158.365064 C72.6464124,159.588813 72.39819,161.234544 72.39819,162.711482 L72.39819,163.766438 C72.39819,165.243376 72.6464124,166.889107 73.4324499,168.112856 C74.8390433,170.39156 77.5694893,170.813543 79.5552683,170.813543 L86.2572721,170.813543 C88.2430511,170.813543 90.9734971,170.39156 92.3800905,168.112856 C93.166128,166.889107 93.4143504,165.243376 93.4143504,163.766438 C93.37298,163.850834 93.37298,153.174681 93.37298,153.174681 Z M89.0290886,166.889107 C88.3671622,167.52208 87.291532,167.859666 85.719457,167.859666 L79.9276018,167.859666 C78.3555268,167.859666 77.2798966,167.52208 76.6179703,166.889107 C75.956044,166.256133 75.6250808,165.201178 75.6250808,163.639843 L75.6250808,162.880275 C75.6250808,161.31894 75.956044,160.263984 76.6179703,159.631011 C77.2798966,158.998037 78.3555268,158.660451 79.9276018,158.660451 L90.0633484,158.660451 L90.0633484,163.597645 C90.021978,165.158979 89.7323853,166.256133 89.0290886,166.889107 Z M148.106012,153.174681 C148.106012,152.794897 148.106012,149.334642 145.665158,146.929342 C144.093083,145.368008 141.528119,144.102061 137.308339,144.102061 L129.944409,144.102061 L129.944409,147.140334 L137.639302,147.140334 C140.369748,147.140334 142.065934,147.9421 143.141564,148.997056 C144.382676,150.220805 144.79638,151.824338 144.79638,153.090285 L144.79638,155.664377 L134.24693,155.664377 C132.261151,155.664377 129.530705,156.086359 128.124111,158.365064 C127.338074,159.588813 127.089851,161.234544 127.089851,162.711482 L127.089851,163.766438 C127.089851,165.243376 127.338074,166.889107 128.124111,168.112856 C129.530705,170.39156 132.261151,170.813543 134.24693,170.813543 L140.948933,170.813543 C142.934712,170.813543 145.665158,170.39156 147.071752,168.112856 C147.857789,166.889107 148.106012,165.243376 148.106012,163.766438 C148.106012,163.850834 148.106012,154.947007 148.106012,153.174681 Z M143.76212,166.889107 C143.100194,167.52208 142.024564,167.859666 140.452489,167.859666 L134.619263,167.859666 C133.047188,167.859666 131.971558,167.52208 131.309632,166.889107 C130.647705,166.256133 130.316742,165.201178 130.316742,163.639843 L130.316742,162.880275 C130.316742,161.31894 130.647705,160.263984 131.309632,159.631011 C131.971558,158.998037 133.047188,158.660451 134.619263,158.660451 L144.75501,158.660451 L144.75501,163.597645 C144.75501,165.158979 144.424047,166.256133 143.76212,166.889107 Z M47.3277311,144.102061 L43.8939884,144.102061 L35.4957983,166.34053 L27.1389787,144.102061 L23.7052359,144.102061 L33.7996122,170.940137 L30.7795734,179 L34.2133161,179 L47.3277311,144.102061 Z M69.667744,153.174681 C69.667744,152.794897 69.667744,149.334642 67.2682612,146.929342 C65.7375566,145.368008 63.2967033,144.144259 59.3251454,144.102061 L58.9528119,144.102061 C54.981254,144.144259 52.5404008,145.452404 51.0096962,146.929342 C48.6102133,149.334642 48.6102133,152.794897 48.6102133,153.174681 L48.6102133,170.897939 L51.9198449,170.897939 L51.9198449,153.048086 C51.9198449,151.782139 52.3335488,150.178606 53.5332902,148.954858 C54.5675501,147.9421 56.5119586,147.140334 59.1182935,147.140334 C61.7246283,147.182532 63.7104072,147.9421 64.7032967,148.954858 C65.9030381,150.178606 66.3167421,151.782139 66.3167421,153.048086 L66.3167421,170.897939 L69.6263736,170.897939 C69.667744,169.547596 69.667744,153.638862 69.667744,153.174681 Z M189.600517,146.971541 C188.069813,145.410206 185.628959,144.186457 181.657401,144.144259 L181.285068,144.144259 C177.31351,144.186457 174.872657,145.494603 173.341952,146.971541 C170.942469,149.37684 170.942469,152.837095 170.942469,153.174681 L170.942469,161.783121 C170.942469,162.162905 170.942469,165.62316 173.341952,168.028459 C174.872657,169.589794 177.31351,170.813543 181.285068,170.855741 L189.062702,170.855741 L189.062702,167.817468 L181.450549,167.817468 C178.844215,167.77527 176.858436,167.015702 175.865546,166.002944 C174.665805,164.779195 174.252101,163.175662 174.252101,161.909715 L174.252101,158.70265 L192,158.70265 L192,153.090285 C192,152.837095 192,149.37684 189.600517,146.971541 Z M174.252101,155.706575 L174.252101,153.048086 C174.252101,151.782139 174.665805,150.178606 175.865546,148.954858 C176.899806,147.9421 178.844215,147.140334 181.450549,147.140334 C184.056884,147.182532 186.042663,147.9421 187.035553,148.954858 C188.235294,150.178606 188.648998,151.782139 188.648998,153.048086 L188.648998,155.706575 C188.648998,155.706575 174.252101,155.706575 174.252101,155.706575 Z" id="Shape"></path>
            <g id="Group" transform="translate(41, 0)">
                <path d="M36.9333356,9.28181211 C35.5365242,16.8406525 33.728886,27.9930399 32.7839842,39.3106479 C31.1406767,59.34364 32.1677439,72.6851997 32.1677439,72.6851997 L4.23151676,99.4096244 C4.23151676,99.4096244 2.05413435,84.4158591 0.9449018,67.5220574 C0.287578809,57.1131625 0.0821653739,47.8608114 0,42.2846177 C0,41.9541766 0.164330748,41.6650406 0.164330748,41.3345995 C0.164330748,40.9628534 0.616240304,37.2040858 4.27259944,33.7757593 C8.25762008,29.9756866 37.3441624,7.05133462 36.9333356,9.28181211 Z" id="Path"></path>
                <path d="M36.9333356,9.28181211 C35.5365242,16.8406525 33.728886,27.9930399 32.7839842,39.3106479 C32.7839842,39.3106479 1.84872091,35.5931854 0,43.1107205 C0,42.7389742 0.53407493,38.154104 4.14935138,34.6844724 C8.1754547,30.8017893 37.3441624,7.05133462 36.9333356,9.28181211 Z" id="Path"></path>
                <path d="M0.041082687,41.3345995 L0.041082687,43.0694153 C0.369744183,41.7063458 0.862736426,40.7150226 2.01305166,39.3106479 C4.31368213,36.377983 8.01112396,35.5931854 9.53118337,35.3866597 C17.0903978,34.3953364 28.3059713,33.1561822 39.5626275,32.8257411 C59.5288134,32.206164 72.6752732,33.8583696 72.6752732,33.8583696 L100.6115,7.1339449 C100.6115,7.1339449 85.9449811,4.32519547 69.1832448,2.34254881 C58.2552501,1.02078437 48.6008187,0.359902156 43.2189867,0.0294610468 C42.8492425,0.0294610468 38.9874699,-0.507505755 35.3311108,3.00343103 C31.3460901,6.80350379 11.3388216,25.8864778 3.28661496,33.6105388 C-0.246496122,37.0801704 0.041082687,41.0041586 0.041082687,41.3345995 Z" id="Path"></path>
                <path d="M99.6255159,75.4939492 C92.0663015,76.5265776 80.8918106,77.8070369 69.5940717,78.137478 C49.6278858,78.7983602 36.3992606,77.1461547 36.3992606,77.1461547 L8.42195083,103.870579 C8.42195083,103.870579 23.2528008,106.803244 39.9323717,108.703281 C50.1619608,109.90113 59.2823173,110.520707 64.7463146,110.851148 C65.1160588,110.851148 65.7733818,110.520707 66.143126,110.520707 C66.5128702,110.520707 70.3746428,109.859824 74.0310019,106.348888 C78.0981879,102.59012 101.843981,75.2461183 99.6255159,75.4939492 Z" id="Path"></path>
                <path d="M99.6255159,75.4939492 C92.0663015,76.5265776 80.8918106,77.8070369 69.5940717,78.137478 C69.5940717,78.137478 71.7714541,109.405468 64.2122397,110.809843 C64.5819839,110.809843 69.7173198,110.562012 73.3325962,107.09238 C77.3176169,103.333613 101.843981,75.2461183 99.6255159,75.4939492 Z" id="Path"></path>
                <path d="M65.9377126,110.975063 C65.4036376,110.933758 64.82848,110.933758 64.2122397,110.851148 C65.6090511,110.603317 66.5539529,110.107655 68.0329296,109.075027 C71.0319657,106.885855 72.0179502,103.251002 72.2644464,101.722712 C73.620175,94.1638718 75.3867306,83.0114844 76.2905497,71.6938764 C77.8927745,51.6608842 76.8657073,38.4019348 76.8657073,38.4019348 L104.801934,11.6775101 C104.801934,11.6775101 106.856069,26.5473601 108.006384,43.4411616 C108.745872,54.5109387 108.951286,64.1763412 108.992368,69.5873143 C108.992368,69.9590606 109.32103,73.8417436 105.664671,77.3526804 C101.67965,81.1527531 81.7134644,100.359643 73.6612577,108.042398 C70.1692293,111.470725 66.2663741,110.975063 65.9377126,110.975063 Z" id="Path"></path>
            </g>
        </g>
    </g>
</svg>