<?xml version="1.0" encoding="UTF-8"?>
<svg id="experian" viewBox="0 0 509 167" version="1.1" xmlns="http://www.w3.org/2000/svg" xmlns:xlink="http://www.w3.org/1999/xlink">
    <g stroke="none" stroke-width="1" fill="none" fill-rule="evenodd">
        <g fill="currentColor" fill-rule="nonzero">
            <path d="M81.8936398,39 L63.1103237,39 C57.5202613,39 53,34.4721301 53,28.8903035 L53,10.1053726 C53,4.52786991 57.5206216,0 63.1106841,0 L81.8940001,0 C87.4764958,0 92,4.52786991 92,10.1053726 L92,28.8903035 C92,34.4721301 87.4761355,39 81.8936398,39" id="Path"></path>
            <path d="M32.595015,82 L11.4035396,82 C5.10770747,82 0,76.9067048 0,70.5999803 L0,49.4025492 C0,43.1099175 5.10770747,38 11.4035396,38 L32.595015,38 C38.8940993,38 44,43.1099175 44,49.4025492 L44,70.5999803 C44,76.9067048 38.8940993,82 32.595015,82" id="Path"></path>
            <path d="M29.9998119,126 L17.0034538,126 C13.1397796,126 10,122.871874 10,119.000632 L10,106.009528 C10,102.133206 13.1397796,99 17.0034538,99 L29.9998119,99 C33.8653004,99 37,102.133206 37,106.009528 L37,119.000632 C37,122.871874 33.8653004,126 29.9998119,126" id="Path"></path>
            <path d="M65.7057118,167 L50.2946521,167 C45.7137626,167 42,163.29574 42,158.707262 L42,143.294558 C42,138.706079 45.7133988,135 50.2946521,135 L65.7057118,135 C70.2866012,135 74,138.705715 74,143.294558 L74,158.707262 C74,163.29574 70.2866012,167 65.7057118,167" id="Path"></path>
            <path d="M121.305504,47 L110.702084,47 C107.551845,47 105,44.4408856 105,41.3003515 L105,30.7097664 C105,27.5591144 107.551484,25 110.702084,25 L121.305504,25 C124.453214,25 127,27.5591144 127,30.7097664 L127,41.3003515 C127,44.4405243 124.453575,47 121.305504,47" id="Path"></path>
            <path d="M355.012417,54 C358.321429,54 361,51.321153 361,48.0040798 C361,44.6919734 358.321074,42 355.012417,42 C351.701987,42 349,44.6919734 349,48.0040798 C348.999645,51.3215078 351.701632,54 355.012417,54 Z" id="Path"></path>
            <path d="M130.314659,120.162064 C129.365058,121.578336 127.821366,122.285028 126.159291,122.285028 C125.211506,122.285028 124.141707,122.049705 123.310851,121.578336 C122.006103,120.750734 121.054686,118.98256 121.054686,117.212942 C121.054686,116.38534 121.293266,115.559181 121.767522,114.85285 L136.013719,92.5559542 L121.767522,70.2583367 C121.293629,69.5502009 121.054686,68.6063806 121.054686,67.7787784 C121.054686,66.128627 121.887357,64.3586482 123.431049,63.531046 C124.260452,63.0600382 125.093124,62.8243539 126.040909,62.8243539 C127.702984,62.8243539 129.365058,63.531046 130.314659,64.9491224 L141.947728,83.2346918 L153.697726,64.9491224 C154.64878,63.531046 156.311217,62.8243539 157.973292,62.8243539 C158.922893,62.8243539 159.754112,63.0596773 160.583152,63.531046 C162.126844,64.3586482 162.956247,66.128627 162.956247,67.7787784 C162.956247,68.6063806 162.719482,69.5502009 162.245589,70.2583367 L148.000845,92.5559542 L162.245589,114.85285 C162.719482,115.559181 162.956247,116.38534 162.956247,117.212942 C162.956247,118.98256 162.008461,120.750734 160.701534,121.578336 C159.872131,122.049344 158.802332,122.285028 157.853094,122.285028 C156.192835,122.285028 154.64878,121.578336 153.697726,120.162064 L141.947728,101.993435 L130.314659,120.162064 Z M181.098532,69.7855243 C186.440266,64.9491224 193.681202,62 201.516229,62 C218.611229,62 232.261882,75.5682729 232.261882,92.5559542 C232.261882,109.31156 218.611229,122.877307 201.516229,122.877307 C193.681202,122.877307 186.440266,119.926741 181.098532,115.089978 L181.098532,141.163598 C181.098532,143.759374 178.725437,146 175.997195,146 C173.502449,146 171.010971,143.759013 171.010971,141.163598 L171.010971,67.3077706 C171.010971,64.713799 173.502449,62.4710078 175.997195,62.4710078 C178.725437,62.4710078 181.098532,64.713438 181.098532,67.3077706 L181.098532,69.7855243 Z M201.516229,72.1481427 C190.120288,72.1481427 181.098532,81.111367 181.098532,92.5559542 C181.098532,103.882519 190.119925,112.847548 201.516229,112.847548 C213.032367,112.847548 222.050492,103.88288 222.050492,92.5559542 C222.050492,81.111367 213.032367,72.1481427 201.516229,72.1481427 Z M319.166914,87.0110555 L319.166914,117.566288 C319.166914,120.162064 316.672168,122.403051 314.180691,122.403051 C311.448817,122.403051 309.075722,120.162064 309.075722,117.566288 L309.075722,67.3077706 C309.075722,64.7119943 311.448817,62.4710078 314.180691,62.4710078 C316.557054,62.4710078 319.0449,64.5943326 319.166914,67.0720863 C323.320466,63.8876404 328.6622,62.116218 334.477826,62 C337.683593,62 340.054872,64.47631 340.054872,66.9544246 C340.054872,69.666058 337.56521,72.1452553 334.477826,72.1452553 C326.526233,72.3805788 319.166914,75.2134831 319.166914,87.0110555 Z M354.534929,62.4710078 C351.806686,62.4710078 349.433591,64.7119943 349.433591,67.3077706 L349.433591,117.566288 C349.433591,120.162064 351.806686,122.403051 354.534929,122.403051 C357.029674,122.403051 359.521152,120.162064 359.521152,117.566288 L359.521152,67.3077706 C359.521152,64.7116334 357.029674,62.4710078 354.534929,62.4710078 Z M418.994874,67.3077706 C418.994874,64.7119943 421.364338,62.4710078 424.096212,62.4710078 C426.589505,62.4710078 429.082435,64.7119943 429.082435,67.3077706 L429.082435,117.566288 C429.082435,120.162064 426.589142,122.403051 424.096212,122.403051 C421.364338,122.403051 418.994874,120.162064 418.994874,117.566288 L418.994874,115.088534 C413.534758,119.924936 406.408936,122.874058 398.572094,122.874058 C381.480362,122.874058 367.829708,109.310117 367.829708,92.3206308 C367.829708,75.5686339 381.480362,62.0003609 398.572094,62.0003609 C406.408936,62.0003609 413.534395,64.9494833 418.994874,69.7876899 L418.994874,67.3077706 Z M398.572457,112.729525 C409.968761,112.729525 418.995237,103.763052 418.995237,92.3202698 C418.995237,80.9937053 409.968761,72.0286764 398.572457,72.0286764 C387.059586,72.0286764 378.041462,80.9933444 378.041462,92.3202698 C378.041462,103.763413 387.059586,112.729525 398.572457,112.729525 Z M480.479282,87.599725 C480.479282,79.2255312 473.119963,71.90921 464.690846,71.90921 C456.500309,71.90921 448.90241,75.2131222 448.90241,87.0110555 L448.90241,117.566288 C448.90241,120.162064 446.410932,122.403051 443.916186,122.403051 C441.184313,122.403051 438.814486,120.162064 438.814486,117.566288 L438.814486,67.3077706 C438.814486,64.7119943 441.183949,62.4710078 443.916186,62.4710078 C446.290734,62.4710078 448.784027,64.5943326 448.90241,67.0720863 C453.177975,63.7663695 458.638091,62 464.568832,62 C478.339683,62 490.566843,72.7371732 490.566843,86.1834533 L490.566843,117.565927 C490.566843,120.161703 488.078633,122.403051 485.583888,122.403051 C482.852014,122.403051 480.479282,120.161703 480.479282,117.565927 L480.479282,87.599725 Z M118.248369,90.6701184 C118.011604,75.2134831 104.125639,62 87.7438379,62 C70.6488376,62 57,75.5682729 57,92.3202698 C57,109.309395 70.6488376,122.873698 87.7438379,122.873698 C95.9332858,122.873698 103.533,119.689252 108.991664,114.263819 C110.059648,113.319999 110.772121,111.903366 110.772121,110.487095 C110.772121,107.775461 108.397573,105.415008 105.667515,105.415008 C104.125639,105.415008 102.700329,106.358829 101.632345,107.422115 C98.1879985,111.077569 93.0855716,112.729525 87.7438379,112.729525 C77.5375316,112.729525 69.2336958,105.776656 67.4467025,96.1060176 L113.265414,96.1060176 C113.299186,96.1060176 113.329689,96.094468 113.363461,96.094468 L113.502179,96.094468 C113.58679,96.0861667 113.6714,96.0572926 113.757827,96.0439384 C113.933585,96.0186736 114.108253,95.9934088 114.277475,95.9428792 C116.440677,95.3646766 118.248369,93.307762 118.248369,90.6701184 Z M87.7438379,72.0290373 C96.9489778,72.0290373 104.5959,77.9002127 107.20576,86.0809504 L68.1606283,86.0809504 C70.7704883,77.8998518 78.4279416,72.0290373 87.7438379,72.0290373 Z M300.535121,90.6701184 C300.295088,75.2134831 286.407307,62 270.028411,62 C252.933411,62 239.277674,75.5682729 239.277674,92.3202698 C239.277674,109.309395 252.933411,122.873698 270.028411,122.873698 C278.217133,122.873698 285.815032,119.689252 291.273695,114.263819 C292.343495,113.319999 293.054152,111.903366 293.054152,110.487095 C293.054152,107.775461 290.681057,105.415008 287.952815,105.415008 C286.407307,105.415008 284.980545,106.358829 283.914377,107.422115 C280.471846,111.077569 275.366877,112.729525 270.028411,112.729525 C259.822105,112.729525 251.515001,105.776656 249.729097,96.1060176 L295.470824,96.1060176 C295.501327,96.1060176 295.535462,96.094468 295.565602,96.094468 L295.783847,96.094468 C295.921113,96.0829183 296.054747,96.0406901 296.190197,96.0136206 C296.259556,95.9984618 296.33073,95.9934088 296.398274,95.973197 C298.632651,95.4603218 300.535121,93.3716459 300.535121,90.6701184 Z M270.028048,72.0290373 C279.230283,72.0290373 286.880837,77.9002127 289.492512,86.0809504 L250.44157,86.0809504 C253.05143,77.8998518 260.708884,72.0290373 270.028048,72.0290373 Z M503.298398,111.567345 C500.215735,111.567345 497.610959,114.077582 497.610959,117.047999 C497.610959,120.018416 500.216098,122.528653 503.298398,122.528653 C506.442069,122.528653 509,120.070028 509,117.047999 C509,114.025969 506.442069,111.567345 503.298398,111.567345 Z M508.002465,117.047999 C508.002465,119.48966 505.891917,121.475472 503.298398,121.475472 C500.760076,121.475472 498.695284,119.489299 498.695284,117.047999 C498.695284,114.60706 500.760076,112.621247 503.298398,112.621247 C505.891917,112.621247 508.002465,114.60742 508.002465,117.047999 Z M504.226211,117.562318 C504.844269,117.189482 505.209584,116.530432 505.209584,115.775375 C505.209584,114.63052 504.33261,113.767547 503.168759,113.767547 L502.347345,113.767547 C501.899598,113.767547 501.574228,114.117284 501.574228,114.598758 L501.574228,119.746639 C501.574228,120.044763 501.829876,120.287666 502.145441,120.287666 C502.462459,120.287666 502.701039,120.05523 502.701039,119.746639 L502.701039,117.837704 L503.127361,117.837704 L504.140511,119.987015 C504.224396,120.170005 504.413227,120.288027 504.623846,120.288027 C504.713177,120.288027 504.810134,120.266011 504.878404,120.233527 C505.078855,120.155928 505.209584,119.970052 505.209584,119.761076 C505.209584,119.695387 505.209584,119.621398 505.164192,119.530805 L504.226211,117.562318 Z M504.08132,115.775375 C504.08132,115.78512 504.071515,116.743017 503.183284,116.743017 L502.701402,116.743017 L502.701402,114.84888 L503.183284,114.84888 C504.071515,114.84888 504.08132,115.737117 504.08132,115.775375 Z" id="Shape"></path>
        </g>
    </g>
</svg>