<?xml version="1.0" encoding="UTF-8"?>
<svg id="hp" viewBox="0 0 203 203" version="1.1" xmlns="http://www.w3.org/2000/svg" xmlns:xlink="http://www.w3.org/1999/xlink">
    <g stroke="none" stroke-width="1" fill="none" fill-rule="evenodd">
        <g transform="translate(0, 0)" fill="currentColor" fill-rule="nonzero">
            <path d="M203,101.5 C203,45.4410822 157.558918,0 101.5,0 C99.9724148,0 98.4488978,0.0386472946 96.9375852,0.107805611 L76.1758517,57.1715531 L94.2587174,57.1715531 C105.016904,57.1715531 110.813998,65.4542786 107.132335,75.5696994 L81.5234168,145.948457 L60.0192485,145.944389 L87.499509,70.5109719 L71.3347695,70.5109719 L43.8524749,145.944389 L22.3381363,145.944389 L54.6513427,57.1715531 L54.6554108,57.1715531 L74.0929659,3.74878758 C31.3531263,15.703006 0,54.9401804 0,101.5 C0,149.442986 33.2448096,189.617866 77.9353206,200.243838 L96.7707916,148.480872 L96.7870641,148.480872 L130.015601,57.1715531 L169.618908,57.1715531 C180.389299,57.1715531 186.182325,65.4542786 182.500661,75.5696994 L159.9998,137.38503 C158.287114,142.093898 152.786994,145.944389 147.77505,145.944389 L119.228938,145.944389 L98.485511,202.953216 C99.4842385,202.981693 100.493136,203 101.5,203 C157.558918,203 203,157.55485 203,101.5" id="Path"></path>
            <polygon id="Path" points="163 70 146.753408 70 124 132 140.246592 132"></polygon>
        </g>
    </g>
</svg>