<?xml version="1.0" encoding="UTF-8"?>
<svg id="indeed" viewBox="0 0 492 176" version="1.1" xmlns="http://www.w3.org/2000/svg" xmlns:xlink="http://www.w3.org/1999/xlink">
    <defs>
        <polygon id="path-1" points="0 0 492 0 492 176 0 176"></polygon>
    </defs>
    <g stroke="none" stroke-width="1" fill="none" fill-rule="evenodd">
        <g transform="translate(0, 0)">
            <path d="M478.743452,21.9494001 L480.94855,21.9494001 C482.005847,21.9494001 482.727081,21.7900805 483.111553,21.473547 C483.500234,21.1577153 483.691066,20.7450286 483.691066,20.2319775 C483.691066,19.9000033 483.59565,19.5996123 483.411833,19.3392266 C483.223807,19.0767354 482.971235,18.8795161 482.644294,18.7545871 C482.315248,18.6191304 481.705566,18.5573677 480.811038,18.5573677 L478.743452,18.5573677 L478.743452,21.9494001 Z M476.92072,28.2997226 L476.92072,17.0245313 L480.794902,17.0245313 C482.117399,17.0245313 483.077877,17.1248956 483.672123,17.33545 C484.268475,17.5446008 484.735033,17.9067545 485.094247,18.4275258 C485.445042,18.9482972 485.618335,19.4964406 485.618335,20.0733598 C485.618335,20.9022426 485.316651,21.6174259 484.735033,22.2287357 C484.145697,22.8400455 483.361319,23.1853548 482.391721,23.2576451 C482.790225,23.4218776 483.107343,23.6219043 483.351497,23.850005 C483.800514,24.2942749 484.352666,25.0438488 485.01637,26.0966211 L486.385173,28.2997226 L484.145697,28.2997226 L483.148737,26.5219411 C482.362254,25.1315798 481.735033,24.2591825 481.264967,23.9033455 C480.933817,23.6401524 480.449018,23.5046957 479.810571,23.5046957 L478.743452,23.5046957 L478.743452,28.2997226 L476.92072,28.2997226 Z M481.509822,13.7335651 C480.032273,13.7335651 478.594715,14.1188797 477.200655,14.8684536 C475.806595,15.6278533 474.707203,16.7101033 473.922825,18.1137997 C473.129326,19.5231109 472.740645,20.9850607 472.740645,22.5052639 C472.740645,24.0254671 473.129326,25.4712744 473.897568,26.8616356 C474.672825,28.2519969 475.757484,29.3314395 477.151543,30.1048762 C478.541394,30.8832258 479.995089,31.2692423 481.509822,31.2692423 C483.023854,31.2692423 484.471936,30.8832258 485.867399,30.1048762 C487.254443,29.3314395 488.3384,28.2519969 489.108746,26.8616356 C489.876988,25.4712744 490.268475,24.0254671 490.268475,22.5052639 C490.268475,20.9850607 489.871375,19.5231109 489.090505,18.1137997 C488.31174,16.7101033 487.215154,15.6278533 485.811974,14.8684536 C484.405285,14.1188797 482.976848,13.7335651 481.509822,13.7335651 M481.509822,12 C483.268007,12 484.990412,12.4519902 486.667212,13.3587781 C488.346118,14.2620567 489.656688,15.5590722 490.594715,17.2421042 C491.527128,18.9300491 492,20.6839678 492,22.5052639 C492,24.3181378 491.535547,26.0587213 490.61015,27.7284182 C489.686155,29.3974132 488.395229,30.6895157 486.733863,31.617359 C485.067587,32.542395 483.321328,33 481.509822,33 C479.689196,33 477.952058,32.542395 476.282273,31.617359 C474.619504,30.6895157 473.327877,29.3974132 472.395463,27.7284182 C471.468662,26.0587213 471,24.3181378 471,22.5052639 C471,20.6839678 471.478485,18.9300491 472.419317,17.2421042 C473.359448,15.5590722 474.672825,14.2620567 476.346819,13.3587781 C478.028531,12.4519902 479.745323,12 481.509822,12" id="Shape" fill="currentColor" fill-rule="nonzero"></path>
            <path d="M443.061672,101.151643 C441.359384,104.807825 439.099237,107.517047 436.336608,109.282054 C433.502195,111.048431 430.422352,111.929563 427.030764,111.929563 L426.968552,111.929563 C423.574914,111.929563 420.49302,110.986032 417.663392,109.158627 C414.833765,107.267451 412.575669,104.491029 410.939011,100.836904 C409.305088,97.1183223 408.486759,92.6413506 408.486759,87.3429036 C408.486759,82.3591954 409.240825,77.9501086 410.809118,74.2280987 C412.319301,70.4471181 414.522704,67.5438407 417.286018,65.5251235 C420.114961,63.4501784 423.255649,62.5025333 426.840026,62.5025333 L427.030764,62.5025333 C430.365609,62.5025333 433.44135,63.5125776 436.272345,65.4682099 C439.099237,67.4217851 441.359384,70.2571777 443.061672,73.9791876 C444.756441,77.6977689 445.572035,82.1726835 445.572035,87.3429036 C445.572035,92.8902617 444.756441,97.4954604 443.061672,101.151643 M462.606541,21.8353926 C460.973985,19.9428452 458.772632,19 455.821315,19 C452.865897,19 450.600964,20.0073015 449.031988,22.090475 C447.457542,24.105078 446.639896,27.1338396 446.639896,31.1068177 L446.639896,59.8529669 C442.996726,55.8182753 439.223661,52.9197978 435.386334,50.9641655 C433.001763,49.7641808 430.17487,48.8837348 427.030764,48.4421404 C425.208153,48.1898008 423.32128,48.0629452 421.245035,48.0629452 C411.627447,48.0629452 403.836572,51.4702163 397.863522,58.2772155 C391.95747,65.0869576 389,74.5428376 389,86.715483 C389,92.4514101 389.759535,97.8088278 391.265616,102.730137 C392.769646,107.646646 394.906736,111.929563 397.80131,115.585745 C400.695884,119.245356 404.146949,122.017663 408.109384,124.041866 C412.071136,125.992013 416.345315,127 420.998237,127 C423.133959,127 425.143207,126.810745 427.030764,126.433607 C428.286629,126.244352 429.483017,125.927556 430.67872,125.548361 C433.631405,124.540374 436.394034,123.090792 438.909866,121.268873 C441.487227,119.372211 444.068005,116.915328 446.639896,113.951709 L446.639896,115.842885 C446.639896,119.436667 447.522488,122.146576 449.220675,124.096723 C450.979023,125.992013 453.179692,127 455.821315,127 C458.521733,127 460.725137,126.056469 462.421272,124.225635 C464.116041,122.332402 465,119.560094 465,115.842885 L465,30.0967734 C465,26.5029904 464.178936,23.7265686 462.606541,21.8353926" id="Shape" fill="currentColor" fill-rule="nonzero"></path>
            <path d="M336.588305,66.4917779 C339.680922,63.158866 343.653814,61.521142 348.506295,61.521142 L348.569368,61.521142 C353.613124,61.521142 357.705991,63.158866 360.793124,66.4295252 C363.887112,69.6988163 365.718962,74.6660316 366.151558,81.3345918 L330.915193,81.3345918 C331.548662,74.790537 333.440842,69.8253739 336.588305,66.4917779 M381.977311,102.028472 C380.778245,100.96402 379.142469,100.393485 377.119345,100.393485 C375.288867,100.393485 373.905382,100.836094 372.895534,101.65222 C370.44187,103.917259 368.48936,105.738321 366.972188,107.060677 C365.463929,108.318728 363.758225,109.575411 361.929803,110.773261 C360.164454,111.908175 358.277073,112.783817 356.38695,113.291416 C354.428955,113.855794 352.348929,114.106857 350.020725,114.106857 C349.513401,114.106857 349.010191,114.106857 348.569368,114.045289 C345.670082,113.855794 342.960014,113.03488 340.504294,111.529871 C337.601581,109.827158 335.328222,107.313792 333.565616,104.043817 C331.865396,100.645232 330.979637,96.7479412 330.915193,92.3437362 L368.932925,92.3437362 C374.035641,92.3437362 378.00579,91.5891792 380.778245,90.2059386 C383.616515,88.6934041 385,85.5506707 385,80.7052242 C385,75.4274296 383.616515,70.2659312 380.908504,65.1701059 C378.190209,60.1406379 374.159729,55.9854435 368.675835,52.7804574 C363.255014,49.5727349 356.762644,48 349.13428,48 L348.569368,48 C342.960014,48.0622527 337.787371,49.0042518 333.186494,50.7664811 C328.398457,52.655268 324.363863,55.3553918 321.019641,58.81965 C317.804992,62.3379517 315.284142,66.5560828 313.582551,71.4630978 C311.879589,76.3653242 311,81.7128965 311,87.4360371 C311,99.6389276 314.467625,109.200526 321.398762,116.309644 C327.956948,123.041141 337.029813,126.560127 348.569368,126.937747 C349.200094,127 349.88978,127 350.58358,127 C356.007828,127 360.86031,126.309748 365.08275,124.859466 C369.306562,123.413973 372.775558,121.655164 375.549384,119.51463 C378.319097,117.315264 380.399124,115.050225 381.786037,112.723617 C383.17295,110.394273 383.866063,108.318728 383.866063,106.619435 C383.866063,104.66908 383.242878,103.099081 381.977311,102.028472" id="Shape" fill="currentColor" fill-rule="nonzero"></path>
            <path d="M258.591418,66.4917779 C261.684434,63.158866 265.656273,61.521142 270.502821,61.521142 L270.571372,61.521142 C275.607806,61.521142 279.707149,63.158866 282.793995,66.4295252 C285.953506,69.6988163 287.711836,74.6660316 288.217742,81.3345918 L252.918832,81.3345918 C253.609825,74.790537 255.504572,69.8253739 258.591418,66.4917779 M299.184513,100.393485 C297.297307,100.393485 295.905038,100.836094 294.898026,101.65222 C292.504914,103.917259 290.487462,105.738321 288.973858,107.060677 C287.465053,108.318728 285.82463,109.575411 283.996378,110.773261 C282.166069,111.908175 280.338502,112.783817 278.38823,113.291416 C276.494169,113.855794 274.351268,114.106857 272.021908,114.106857 C271.516688,114.106857 271.012154,114.106857 270.571372,114.045289 C267.671669,113.855794 264.957054,113.03488 262.504988,111.529871 C259.669038,109.827158 257.332824,107.313792 255.634818,104.043817 C253.867576,100.645232 252.981213,96.7479412 252.918832,92.3437362 L290.991311,92.3437362 C296.033229,92.3437362 300.007809,91.5891792 302.840332,90.2059386 C305.613215,88.6934041 307,85.5506707 307,80.7052242 C307,75.4274296 305.677653,70.2659312 302.969893,65.1701059 C300.257334,60.1406379 296.160048,55.9854435 290.739729,52.7804574 C285.318039,49.5727349 278.767316,48 271.20204,48 L270.571372,48 C264.957054,48.0622527 259.856182,49.0042518 255.191294,50.7664811 C250.400272,52.655268 246.366052,55.3553918 243.087263,58.81965 C239.810531,62.3379517 237.287173,66.5560828 235.586425,71.4630978 C233.882935,76.3653242 233,81.7128965 233,87.4360371 C233,99.6389276 236.533798,109.200526 243.463608,116.309644 C250.021186,123.041141 259.032886,126.560127 270.571372,126.937747 C271.264421,127 271.893718,127 272.585397,127 C278.071525,127 282.859804,126.309748 287.083224,124.859466 C291.304588,123.413973 294.776691,121.655164 297.548889,119.51463 C300.383468,117.315264 302.39955,115.050225 303.784963,112.723617 C305.17449,110.394273 305.864797,108.318728 305.864797,106.619435 C305.864797,104.66908 305.234129,103.099081 304.039973,102.028472 C302.777951,100.96402 301.143012,100.393485 299.184513,100.393485" id="Shape" fill="currentColor" fill-rule="nonzero"></path>
            <path d="M40,114.048822 L40,67.543598 C41.3134348,67.6707253 42.5622855,67.736694 43.8777598,67.736694 C50.1267724,67.736694 55.9998381,66.0263166 61,63 L61,114.048822 C61,118.408257 60.0033668,121.631105 58.0644869,123.777839 C56.1283263,125.925259 53.5640013,127 50.4381353,127 C47.3768534,127 44.9416963,125.925259 42.9348333,123.714619 C41.001392,121.568573 40,118.346411 40,114.048822" id="Path" fill="currentColor" fill-rule="nonzero"></path>
            <path d="M204.146602,101.151643 C202.447608,104.807825 200.180914,107.517047 197.345834,109.282054 C194.578549,111.048431 191.427776,111.929563 188.089367,111.929563 L188.029789,111.929563 C184.629063,111.929563 181.540606,110.986032 178.71032,109.158627 C175.814293,107.267451 173.61197,104.491029 171.972554,100.836904 C170.336562,97.1183223 169.517539,92.6413506 169.517539,87.3429036 C169.517539,82.3591954 170.270821,77.9501086 171.783549,74.2280987 C173.357908,70.4471181 175.497914,67.5438407 178.330255,65.5251235 C181.103018,63.4501784 184.313369,62.5025333 187.840784,62.5025333 L188.089367,62.5025333 C191.427776,62.5025333 194.514178,63.5125776 197.286941,65.4682099 C200.180914,67.4217851 202.447608,70.2571777 204.146602,73.9791876 C205.783963,77.6977689 206.667357,82.1726835 206.667357,87.3429036 C206.667357,92.8902617 205.783963,97.4954604 204.146602,101.151643 M223.666195,21.8353926 C222.032258,19.9428452 219.765563,19 216.929799,19 C213.971455,19 211.698597,20.0073015 210.129716,22.0877322 C208.4903,24.105078 207.741127,27.1338396 207.741127,31.1068177 L207.741127,59.8529669 C204.084285,55.8182753 200.309657,52.9197978 196.467233,50.9641655 C194.010849,49.7641808 191.24014,48.8837348 188.089367,48.4421404 C186.266424,48.1898008 184.378425,48.0629452 182.297312,48.0629452 C172.664889,48.0629452 164.793776,51.4702163 158.875033,58.2772155 C152.959714,65.0869576 150,74.5428376 150,86.715483 C150,92.4514101 150.754652,97.8088278 152.199584,102.730137 C153.713681,107.646646 155.916004,111.929563 158.812716,115.585745 C161.710113,119.245356 165.171786,122.017663 169.138159,124.041866 C173.105901,125.992013 177.385913,127 182.048729,127 C184.123679,127 186.139051,126.810745 188.089367,126.433607 C189.350087,126.244352 190.545751,125.927556 191.741415,125.548361 C194.703183,124.540374 197.473207,123.090792 199.991909,121.268873 C202.572242,119.372211 205.092998,116.915328 207.741127,113.951709 L207.741127,115.842885 C207.741127,119.436667 208.617673,122.146576 210.318721,124.096723 C212.0184,125.992013 214.284409,127 216.929799,127 C219.511502,127 221.777511,126.056469 223.47719,124.225635 C225.178238,122.332402 226,119.560094 226,115.842885 L226,30.0967734 C226,26.5029904 225.237131,23.7265686 223.666195,21.8353926" id="Shape" fill="currentColor" fill-rule="nonzero"></path>
            <g id="Clipped">
                <mask id="mask-2" fill="white">
                    <use xlink:href="#path-1"></use>
                </mask>
                <g id="Path"></g>
                <g id="Group" mask="url(#mask-2)" fill="currentColor" fill-rule="nonzero">
                    <g transform="translate(-0.0409, -0.0226)" id="Path">
                        <path d="M93.0423371,58.9574167 L93.0423371,61.3585419 C96.5166084,56.8065806 100.251519,53.5225675 104.293832,51.3744819 C108.401477,49.2848428 113.086792,48.2101124 118.397228,48.2101124 C123.515795,48.2101124 128.130964,49.3453523 132.178091,51.5615111 C136.228657,53.7749194 139.197467,56.933788 141.224813,61.04293 C142.552078,63.4523065 143.371131,66.0356477 143.750743,68.8197702 C144.128292,71.53857 144.321536,75.0797483 144.321536,79.3766072 L144.321536,115.607331 C144.321536,119.526006 143.371131,122.494407 141.605112,124.459589 C139.830153,126.47978 137.491966,127.490562 134.644879,127.490562 C131.737962,127.490562 129.399087,126.47978 127.566361,124.393579 C125.730196,122.367199 124.844435,119.398798 124.844435,115.607331 L124.844435,83.1735755 C124.844435,76.7210673 123.960738,71.7936724 122.189905,68.376951 C120.416321,64.9684809 116.812074,63.2549632 111.503701,63.2549632 C108.026679,63.2549632 104.863937,64.3303812 102.01685,66.3560727 C99.170451,68.4415861 97.0220695,71.2862181 95.6961797,74.9525409 C94.7478385,77.85837 94.3028952,83.2340849 94.3028952,91.2653398 L94.3028952,115.607331 C94.3028952,119.586515 93.3573047,122.494407 91.5238908,124.524224 C89.6870383,126.47978 87.3509141,127.490562 84.4391832,127.490562 C81.5941594,127.490562 79.3158022,126.47978 77.485139,124.393579 C75.6482866,122.367199 74.7632139,119.398798 74.7632139,115.607331 L74.7632139,59.2730285 C74.7632139,55.5427581 75.5891442,52.7641365 77.2293138,50.9935473 C78.8110288,49.1576355 81.0268051,48.2101124 83.873892,48.2101124 C85.5745795,48.2101124 87.0985274,48.5903593 88.4863104,49.4099874 C89.8775318,50.2330535 91.0129281,51.4336161 91.8381707,53.0797483 C92.6613501,54.7203796 93.0423371,56.6814361 93.0423371,58.9574167"></path>
                        <path d="M40.7467147,3.00336137 C53.8983306,-1.73631671 68.8847359,-1.48121435 80.1437956,8.25049373 C82.2275331,10.2115501 84.628989,12.6773104 85.5745795,15.5838271 C86.7182281,19.253588 81.5941594,15.209081 80.8995802,14.7016267 C77.2293138,12.2977511 73.5597352,10.2789357 69.4555287,8.885843 C47.3238981,2.06065157 26.3929953,14.3832645 13.3651658,33.5427581 C7.92681715,42.012019 4.38927728,50.9282246 1.48029718,60.7307563 C1.16257878,61.8041115 0.907441284,63.1944537 0.339399306,64.1426644 C-0.230705778,65.2180824 0.0897634246,61.2306469 0.0897634246,61.1089404 C0.529892802,57.0609954 1.35307228,53.1388825 2.36605755,49.2229582 C8.37244815,28.35476 21.6499136,10.972044 40.7467147,3.00336137"></path>
                    </g>
                </g>
            </g>
            <path d="M57.245672,54.2424402 C49.369688,58.2761293 39.726731,55.1273158 35.7596093,47.2463716 C31.7225763,39.368169 34.8720103,29.7236425 42.7527922,25.7543828 C50.6315178,21.7254917 60.2751603,24.8749906 64.2443382,32.7525078 C68.2758879,40.6265978 65.1243977,50.2704389 57.245672,54.2424402" id="Path" fill="currentColor" fill-rule="nonzero"></path>
        </g>
    </g>
</svg>