<?xml version="1.0" encoding="UTF-8"?>
<svg id="linkedin" viewBox="0 0 289 77" version="1.1" xmlns="http://www.w3.org/2000/svg" xmlns:xlink="http://www.w3.org/1999/xlink">
    <g stroke="none" stroke-width="1" fill="none" fill-rule="evenodd">
        <g transform="translate(0.2783, 0.4547)" fill="currentColor">
            <g id="g3019" transform="translate(143.9324, 38.124) scale(-1, 1) rotate(-180) translate(-143.9324, -38.124)">
                <path d="M282.265817,0 C285.358058,0 287.864882,2.4451848 287.864882,5.46193155 L287.864882,70.7860623 C287.864882,73.8017902 285.358058,76.2479939 282.265817,76.2479939 L217.696637,76.2479939 C214.604293,76.2479939 212.097571,73.8017902 212.097571,70.7860623 L212.097571,5.46193155 C212.097571,2.4451848 214.604293,0 217.696637,0 Z M229.342746,51.5516274 L229.268372,51.5516274 C225.427903,51.5516274 222.944513,54.1954834 222.944513,57.4995394 C222.944513,60.8779697 225.50401,63.4484703 229.418649,63.4484703 C233.333695,63.4484703 235.743221,60.8779697 235.817596,57.4995394 C235.817596,54.1954834 233.333695,51.5516274 229.34295,51.5516274 Z M252.841176,12.42052 L241.397303,12.42052 L241.39748,12.4574861 C241.397539,12.4697292 241.397611,12.484974 241.397698,12.5031612 L241.398376,12.6471205 C241.4045,13.954815 241.435388,20.7299904 241.452583,27.9324476 L241.454839,28.9167759 C241.4552,29.0811142 241.455553,29.245555 241.455897,29.4100389 L241.459595,31.3821326 C241.461483,32.5293122 241.462869,33.6670116 241.463599,34.7749359 L241.463665,37.9890889 C241.460505,42.3951439 241.442448,45.8815495 241.397303,46.8507596 L252.841482,46.8507596 L252.840571,41.974 L252.858787,42.0027287 C254.351208,44.2984869 256.994185,47.5211358 262.781191,47.6544164 L263.154863,47.6586894 C270.684097,47.6586894 276.329927,42.737755 276.329927,32.1623307 L276.329927,12.42052 L264.886971,12.42052 L264.886971,30.8398933 C264.886971,35.4684244 263.23046,38.6257692 259.089438,38.6257692 C255.928018,38.6257692 254.045022,36.4964208 253.217734,34.4404279 C252.91555,33.7048348 252.841176,32.6768384 252.841176,31.6478231 L252.841176,12.42052 Z M235.064988,12.42052 L223.621014,12.42052 L223.621014,46.8507596 L235.064988,46.8507596 L235.064988,12.42052 Z" id="Combined-Shape" fill-rule="nonzero"></path>
                <polygon id="path16" points="-1.14223726e-13 12.3797669 31.6199072 12.3797669 31.6199072 22.7605952 11.4428536 22.7605952 11.4428536 62.366476 -1.17843327e-13 62.366476"></polygon>
                <path d="M47.628634,12.3797669 L47.628634,46.8089877 L36.1847616,46.8089877 L36.1847616,12.3797669 L47.628634,12.3797669 L47.628634,12.3797669 Z M41.9066978,51.5098555 C45.8974432,51.5098555 48.3813434,54.1537115 48.3813434,57.4598051 C48.306969,60.8372167 45.8974432,63.4066983 41.9828042,63.4066983 C38.0676558,63.4066983 35.5081586,60.8372167 35.5081586,57.4598051 C35.5081586,54.1537115 37.9915494,51.5098555 41.8320178,51.5098555 L41.9063922,51.5098555 L41.9066978,51.5098555 Z" id="path18"></path>
                <path d="M52.9421225,12.3797669 L64.3860967,12.3797669 L64.3860967,31.60707 C64.3860967,32.6360853 64.4604711,33.6640817 64.7631646,34.3996748 C65.5899427,36.4546489 67.4728369,38.5839973 70.634359,38.5839973 C74.7757888,38.5839973 76.4324015,35.4256336 76.4324015,30.800159 L76.4324015,12.3797669 L87.8752551,12.3797669 L87.8752551,32.1215777 C87.8752551,42.6970019 82.2289159,47.6179363 74.6996825,47.6179363 C68.5265078,47.6179363 65.8158167,44.1671693 64.3098885,41.8167354 L64.3863005,41.8167354 L64.3863005,46.8089877 L52.9421225,46.8089877 C53.0926032,43.5782873 52.9421225,12.3797669 52.9421225,12.3797669 L52.9421225,12.3797669 Z" id="path20"></path>
                <path d="M104.019282,62.366476 L92.5749003,62.366476 L92.5749003,12.3797669 L104.019282,12.3797669 L104.019282,23.5420355 L106.879333,27.1425701 L115.838796,12.3797669 L129.916846,12.3797669 L114.860315,33.7517009 L128.035378,48.2923998 L114.25829,48.2923998 C114.25829,48.2923998 104.847588,35.2829978 104.019282,33.7404938 L104.019282,62.366476 L104.019282,62.366476 Z" id="path22"></path>
                <path d="M160.52088,26.7411523 C160.671157,27.6254941 160.897541,29.3218411 160.897541,31.2392735 C160.897541,40.1397461 156.379451,49.174704 144.484849,49.174704 C131.760922,49.174704 125.888811,39.1117497 125.888811,29.9850974 C125.888811,18.6964943 133.040977,11.6462114 145.53852,11.6462114 C150.507747,11.6462114 155.099498,12.3797669 158.86437,13.922271 L157.358034,21.4799296 C154.271701,20.4560085 151.10967,19.9445574 147.195133,19.9445574 C141.849755,19.9445574 137.182407,22.1380919 136.805339,26.8145078 L160.52088,26.7431899 L160.52088,26.7411523 Z M136.730761,34.4832186 C137.031722,37.4215157 138.989296,41.7556058 143.882926,41.7556058 C149.076499,41.7556058 150.281873,37.1270747 150.281873,34.4832186 L136.730761,34.4832186 L136.730761,34.4832186 Z" id="path24"></path>
                <path d="M189.144621,62.366476 L189.144621,45.0627182 L188.994344,45.0627182 C187.337732,47.48447 183.873822,49.1003296 179.282682,49.1003296 C170.473394,49.1003296 162.719305,42.0500468 162.793883,30.0064928 C162.793883,18.8421865 169.795874,11.5718371 178.528953,11.5718371 C183.271899,11.5718371 187.78897,13.6288488 190.047506,17.5951423 L190.273889,17.5951423 L190.725535,12.3797669 L200.889965,12.3797669 C200.739178,14.8035563 200.587475,18.9899165 200.587475,23.1019022 L200.587475,62.366476 L189.144621,62.366476 L189.144621,62.366476 Z M189.144621,28.3162588 C189.144621,27.4359923 189.069228,26.5536881 188.918238,25.8201327 C188.241635,22.661769 185.530434,20.459065 182.218737,20.459065 C177.475384,20.459065 174.388542,24.2776286 174.388542,30.299915 C174.388542,35.9544048 177.024146,40.5075427 182.293417,40.5075427 C185.831396,40.5075427 188.316315,38.0847721 188.994344,35.0741383 C189.144621,34.4119008 189.144621,33.6773265 189.144621,33.0171266 L189.144621,28.3162588 L189.144621,28.3162588 Z" id="path26"></path>
            </g>
        </g>
    </g>
</svg>