<?xml version="1.0" encoding="UTF-8"?>
<svg id="logitech" viewBox="0 0 567 172" version="1.1" xmlns="http://www.w3.org/2000/svg" xmlns:xlink="http://www.w3.org/1999/xlink">
    <g stroke="none" stroke-width="1" fill="none" fill-rule="evenodd">
        <g fill="currentColor" fill-rule="nonzero">
            <polygon id="path3008" points="0 122 0 3 21 3 21 122"></polygon>
            <path d="M74.5761193,35 C47.6400946,35 29,55.6877432 29,79.3669506 C29,105.794329 49.2782929,124 74.7854444,124 C98.9932053,124 120,106.129298 120,79.3098523 C120,56.7572566 102.592929,35 74.5761193,35 Z M74.3287345,55.2445485 C88.4251065,55.2445485 98.8009201,66.2053837 98.8009201,79.442987 C98.8009201,93.4784884 87.3612985,103.717405 74.7093251,103.717405 C59.7595918,103.717405 50.3513184,91.8813271 50.3513184,79.4809767 C50.3513184,65.8887267 60.973418,55.2445485 74.3287345,55.2445485 L74.3287345,55.2445485 Z" id="path3010"></path>
            <path d="M172.576116,35 C145.640093,35 127,55.6877432 127,79.3669506 C127,105.794329 147.278292,124 172.785447,124 C196.993201,124 218,106.129298 218,79.3098523 C218,63.5165293 211.153029,56.5090153 211.153029,56.5090153 L216.976102,54.5143835 L216.976102,37.4823563 L187.137544,37.4823563 C187.137544,37.4823563 180.668818,35 172.576116,35 L172.576116,35 Z M172.328732,55.2445485 C186.425109,55.2445485 196.800921,66.2053837 196.800921,79.442987 C196.800921,93.4784884 185.361295,103.717405 172.709328,103.717405 C157.759596,103.717405 148.351317,91.8813271 148.351317,79.4809767 C148.351317,65.8887267 158.973422,55.2445485 172.328732,55.2445485 L172.328732,55.2445485 Z" id="path3012"></path>
            <path d="M196.80092,127 C196.80092,141.150952 185.361298,151.550651 172.709325,151.550651 C157.759592,151.550651 148.313259,139.5023 148.313259,127 L127,127 C127,153.644651 147.278293,172 172.785444,172 C196.993205,172 218,154.039942 218,127 L196.80092,127 Z" id="path3014"></path>
            <polygon id="path3016" points="226 122 226 38 247 38 247 122"></polygon>
            <polygon id="path3018" points="267.305555 122 267.305555 56.6932028 256 56.6932028 256 37.8430023 267.305555 37.8430023 267.305555 12 288.388893 12 288.388893 37.8430023 300 37.8430023 300 56.6932028 288.388893 56.6932028 288.388893 122"></polygon>
            <path d="M250,14 C250,21.7319827 243.731988,28 236,28 C228.268012,28 222,21.7319827 222,14 C222,6.26801008 228.268012,0 236,0 C243.731988,0 250,6.26801008 250,14 Z" id="path3020"></path>
            <path d="M347.17039,35 C320.313565,35 303,55.6721206 303,80.1265398 C303,105.397488 320.371232,124 347.604729,124 C373.009066,124 385.505535,108.052913 385.505535,108.052913 L371.568918,94.0232725 C371.568918,94.0232725 361.046153,105.432987 347.869111,105.432987 C336.884595,105.432987 328.102107,99.2695421 325.037983,87.967119 L390,87.967119 L390,82.1958079 C390,59.1674184 376.741578,35 347.17039,35 L347.17039,35 Z M346.509444,53.4530758 C356.113524,53.4530758 365.935319,58.6184081 368.131974,70.9568851 L324.471455,70.9568851 C326.200777,62.2837026 333.748108,53.4530758 346.509444,53.4530758 Z" id="path3022"></path>
            <path d="M442.246133,124 C415.336105,124 397,103.384273 397,79.0769243 C397,53.9916755 417.7231,35 442.159725,35 C465.783099,35 477.874878,51.774375 477.874878,51.774375 L463.343774,66.3244655 C463.343774,66.3244655 454.926264,55.3850828 442.060807,55.3850828 C427.801878,55.3850828 418.052002,66.3568307 418.052002,79.3986458 C418.052002,93.1693594 428.42336,103.734555 441.900505,103.734555 C454.973021,103.734555 463.323407,92.8127176 463.323407,92.8127176 L478,107.355086 C478,107.355086 466.025716,124 442.246133,124 L442.246133,124 Z" id="path3024"></path>
            <path d="M486,122 L486,2 L506.932587,2 L506.932587,46.0885597 C506.932587,46.0885597 514.947685,35.0756742 532.383006,35.0756742 C554.301571,35.0756742 567,51.4337475 567,72.3553084 L567,122 L546.067396,122 L546.067396,75.5315427 C546.067396,61.4760284 537.351103,55.6447694 527.695007,55.6447694 C516.693264,55.6447694 506.932587,61.9304921 506.932587,76.6192941 L506.932587,122 L486,122 Z" id="path3026"></path>
        </g>
    </g>
</svg>