<?xml version="1.0" encoding="UTF-8"?>
<svg id="match-com" viewBox="0 0 710 103" version="1.1" xmlns="http://www.w3.org/2000/svg" xmlns:xlink="http://www.w3.org/1999/xlink">
    <g stroke="none" stroke-width="1" fill="none" fill-rule="evenodd">
        <g transform="translate(0, 0)" fill="currentColor" fill-rule="nonzero">
            <g transform="translate(333, 0)">
                <path d="M0.137981693,0.0457063712 C6.85060459,0.13898468 13.5632275,0.232262988 20.3690813,0.0457063712 C20.6487739,10.213042 20.3690813,20.4736559 20.4623121,30.6409916 C26.8020115,26.4434677 34.4469432,24.2047883 41.9986439,24.9510148 C49.4571138,25.6972412 56.8223528,29.3350953 61.110973,35.5847419 C64.4672844,40.3419357 65.8657475,46.2184691 65.8657475,52.0017242 C66.0522093,67.5792018 65.8657475,83.1566793 65.9589784,98.8274351 C59.1531246,99.1072701 52.3472709,98.8274351 45.5423494,98.9207134 L45.5423494,59.4639889 C45.5423494,54.8000735 44.8897333,49.3899316 41.0663352,46.2184691 C35.7531077,42.2075018 26.709713,43.0470066 22.8863148,48.7369834 C20.7420047,51.9084459 20.4623121,55.8261349 20.4623121,59.4639889 L20.4623121,98.9207134 L0.0447508193,98.9207134 C0.137981693,65.9934705 -0.0484800542,33.0662276 0.137981693,0.0457063712 L0.137981693,0.0457063712 Z" id="Path"></path>
                <path d="M58.7112103,99 C57.0414454,99 55.3446435,98.9850755 53.7037801,98.9720165 C52.0629167,98.9589575 50.3661148,98.9449658 48.6982145,98.9449658 C47.5514747,98.9449658 46.519409,98.9514953 45.5423494,98.9645542 L45.4975986,98.965487 L45.4975986,59.4639889 C45.4975986,50.9383515 42.9523958,47.8405789 41.0374336,46.2520493 C38.9210928,44.6551247 36.1353543,43.7745774 33.1948525,43.7745774 C28.8605492,43.7745774 25.0194372,45.6392108 22.9217426,48.7612358 C20.7979433,51.9019164 20.5051983,55.7608401 20.5051983,59.4639889 L20.5051983,98.9645542 L0,98.9645542 L0,98.9207134 C0.0400892756,84.8105037 0.0279692621,70.4605687 0.017713866,56.5835548 C0.00279692621,38.0650122 -0.0130523223,18.9159082 0.0941631823,0.0447735881 L0.0941631823,0 L0.137981693,0 C3.94832749,0.054101419 7.88826421,0.109135621 11.7815855,0.109135621 C14.9150751,0.109135621 17.7231891,0.0736898638 20.3662843,0 L20.4101028,0 L20.4110351,0.043840805 C20.5788507,6.14610775 20.5452876,12.3817627 20.5117245,18.4103398 C20.4902814,22.3979874 20.467906,26.5199559 20.5033337,30.5598394 C26.1755001,26.8221776 32.7762459,24.7644581 39.1000961,24.7644581 C40.0696971,24.7644581 41.0458244,24.8120301 42.0005085,24.9062412 C49.9568313,25.7028379 57.1132331,29.6848889 61.1445361,35.558624 C64.2603119,39.9744191 65.9067691,45.659732 65.9067691,51.9998587 C66.0130523,60.9051388 65.9981354,69.968992 65.9832184,78.7334219 C65.9710984,85.312341 65.9599107,92.1141953 66,98.8255696 L66,98.8675448 L65.9580461,98.8694104 C63.8342468,98.9589575 61.5305119,99 58.7112103,99 L58.7112103,99 Z M48.6982145,98.8563514 C50.3670471,98.8563514 52.0629167,98.8712759 53.7047124,98.8834021 C55.3455758,98.8973939 57.0423777,98.9113856 58.7112103,98.9113856 C61.5100011,98.9113856 63.8006837,98.8712759 65.9151599,98.7845271 C65.8750706,92.085279 65.8871906,85.299282 65.8983783,78.7343547 C65.9132953,69.9699248 65.9282122,60.9070044 65.821929,52.0007915 C65.821929,45.6783877 64.1801333,40.0098649 61.074613,35.6080615 C57.0572946,29.7548476 49.9242005,25.7858556 41.9930501,24.99299 C41.0319449,24.8983773 40.0667745,24.8510593 39.1010284,24.851207 C32.7697197,24.851207 26.1577862,26.9201198 20.4856198,30.6764373 L20.4184936,30.7212109 L20.4175613,30.6409916 C20.380269,26.5749901 20.4026444,22.4241054 20.4250198,18.4103398 C20.4585829,12.3957544 20.492146,6.17688959 20.3261951,0.0895471762 C17.6942875,0.162304257 14.8992259,0.196817231 11.7815855,0.196817231 C7.90224884,0.196817231 3.97722907,0.141783029 0.180867895,0.0895471762 C0.0745846988,18.9457573 0.0904339473,38.0799367 0.105350887,56.5835548 C0.116538592,70.446577 0.127726297,84.7806546 0.0876370211,98.8768726 L20.4175613,98.8768726 L20.4175613,59.4639889 C20.4175613,55.7477811 20.7121709,51.8730002 22.8480902,48.7127311 C24.9625664,45.5655209 28.829783,43.6878286 33.1939202,43.6878286 C36.1540005,43.6878286 38.9593174,44.5739725 41.0915075,46.1839561 C45.1190813,49.5261179 45.5843033,55.3634745 45.5843033,59.4649217 L45.5843033,98.8768726 C46.5492429,98.8628809 47.5682563,98.8563514 48.6982145,98.8563514 L48.6982145,98.8563514 Z" id="Shape"></path>
            </g>
            <g transform="translate(192, 6)">
                <path d="M15.5620601,0.0440582971 L34.5390422,0.0440582971 C34.5390422,6.8871555 34.6325249,13.7302527 34.4455596,20.5733499 C40.6154158,21.0420552 46.7852721,20.667091 52.9551283,20.760832 L52.9551283,36.4155886 L36.034765,36.4155886 C36.034765,47.6645156 35.9412823,58.818764 36.034765,69.9748873 C35.9412823,72.5058958 37.0630743,75.4118686 39.5871064,76.2555381 C43.980792,77.4741719 48.6549255,76.068056 52.6746803,74.1932349 L52.6746803,90.691661 C44.822136,95.2849728 34.9129729,96.1295797 26.3125672,93.4101517 C19.301367,90.8791431 15.8425082,83.1923764 15.6555428,76.1617971 C15.2816121,62.9443079 15.7490255,49.6330778 15.4685775,36.3218476 C10.3270306,36.5093297 5.18548373,36.4155886 0.0439368551,36.4155886 L0.0439368551,20.760832 C5.2789664,20.760832 10.4205133,20.8545731 15.5620601,20.760832 C15.4685775,13.8239938 15.5620601,6.98089656 15.5620601,0.0440582971 Z" id="Path"></path>
                <path d="M36.4395449,95 C32.9601199,95 29.5489373,94.4787997 26.2994797,93.4523351 C23.0313255,92.2721352 20.2960226,89.8667397 18.3871064,86.4948738 C16.6950701,83.5064089 15.7097628,79.8364465 15.6125408,76.1627345 C15.4152924,69.1687142 15.4536202,62.0237708 15.4900785,55.1150548 C15.5227974,48.9722033 15.557386,42.6203092 15.4265103,36.3677807 C13.2147103,36.4474606 10.8439898,36.4840196 7.74784373,36.4840196 C6.46369514,36.4832725 5.1795506,36.4792104 3.89542288,36.4718333 C2.63340683,36.4662088 1.32745392,36.4605844 0.0439368551,36.4605844 L0,36.4605844 L0,20.7167737 L0.0439368551,20.7167737 C1.79673693,20.7167737 3.5635594,20.7270852 5.27242261,20.7373968 C6.96071964,20.7477083 8.70697592,20.7580198 10.416774,20.7580198 C12.3228856,20.7580198 13.9915513,20.744896 15.5181233,20.7177111 C15.4564247,16.1103382 15.4779257,11.4617191 15.4975571,6.9668354 C15.5078402,4.70205145 15.5181233,2.35946242 15.5181233,0.0440582971 L15.5181233,0 L34.5829791,0 L34.5829791,0.0440582971 C34.5829791,1.75670742 34.5885881,3.49841627 34.5951318,5.18294307 C34.6119587,10.2140256 34.6297204,15.4157169 34.4913661,20.5330413 C36.6489461,20.6952133 39.0243408,20.7711435 41.9625011,20.7711435 C43.4227004,20.7711435 44.90814,20.7533327 46.3449687,20.7364594 C47.7817973,20.7186485 49.267237,20.7008377 50.7283711,20.7008377 C51.5285828,20.7008377 52.2577476,20.7064622 52.956998,20.7167737 L53,20.7167737 L53,36.4587095 L36.0796367,36.4587095 C36.0796367,40.2008526 36.0693536,43.9908035 36.0590705,47.6570163 C36.0375695,54.976318 36.0160684,62.5440336 36.0787018,69.9748873 C35.9898933,72.383095 37.0537261,75.3621858 39.6011288,76.2133546 C40.6864627,76.5142634 41.8484522,76.6670614 43.052509,76.6670614 C45.8869036,76.6670614 49.0288562,75.8449523 52.6559838,74.1519888 L52.7176823,74.1238665 L52.7176823,90.7160337 L52.6961813,90.72822 C47.9210865,93.5226409 42.2999735,95 36.4395449,95 L36.4395449,95 Z M15.5115795,36.2768519 L15.5125143,36.3209102 C15.6452597,42.5893747 15.6106711,48.9572047 15.5770174,55.1150548 C15.5396243,62.0228333 15.5012964,69.1668393 15.6994797,76.1599222 C15.7967016,79.8195731 16.7782697,83.474537 18.4628274,86.4508155 C20.3614604,89.8048706 23.0808713,92.196205 26.3275245,93.3689056 C29.5999211,94.3976888 33.0100974,94.9180424 36.4395449,94.9119374 C42.2747332,94.910946 47.8734104,93.4438984 52.6307435,90.6654135 L52.6307435,74.2616658 C49.0176382,75.9396308 45.8831643,76.755178 43.052509,76.755178 C41.8400388,76.755178 40.6705706,76.6014426 39.5749537,76.2977216 C38.3933327,75.9030717 37.4313961,75.0284677 36.7901049,73.7676505 C36.2254696,72.6577563 35.9412823,71.3106973 35.9908281,69.9730124 C35.9281947,62.544971 35.9496957,54.976318 35.9702619,47.6570163 C35.980545,43.9776798 35.9908281,40.1717928 35.9908281,36.4155886 L35.9908281,36.3715303 L52.9111915,36.3715303 L52.9111915,20.8039529 C52.2259635,20.7936414 51.5098862,20.7880169 50.7265015,20.7880169 C49.2663021,20.7880169 47.7808625,20.8058277 46.3440339,20.8236385 C44.9072052,20.8405119 43.4217656,20.8583227 41.9606314,20.8583227 C39.0009701,20.8583227 36.611553,20.7814551 34.4418203,20.6164708 L34.4006879,20.6136586 L34.4016227,20.5714751 C34.5418467,15.4419644 34.524085,10.226212 34.5063233,5.18200566 C34.5007143,3.51247743 34.4941706,1.78576715 34.4941706,0.0871791836 L15.6050622,0.0871791836 C15.6050622,2.38852215 15.5947791,4.71611261 15.584496,6.96589799 C15.5648646,11.4757803 15.5433636,16.1384605 15.6050622,20.7589572 L15.6050622,20.8020781 L15.5620601,20.8030155 C14.0233354,20.8311378 12.3406473,20.8442616 10.4158391,20.8442616 C8.70510627,20.8442616 6.95978481,20.8339501 5.27148779,20.8236385 C3.54332949,20.8115247 1.81513863,20.8046503 0.0869388835,20.8030155 L0.0869388835,36.3696555 C1.35643355,36.3696555 2.6464944,36.37528 3.89448805,36.3809045 C5.1565041,36.3865289 6.46245701,36.3930908 7.74597407,36.3930908 C10.8617515,36.3930908 13.2418203,36.3565318 15.465773,36.2759145 L15.5115795,36.2768519 L15.5115795,36.2768519 Z" id="Shape"></path>
            </g>
            <g transform="translate(0, 25)">
                <path d="M35.1560351,0.883577104 C43.2803878,-1.16690386 52.9922577,0.417558704 58.8754096,6.9418163 C60.0893933,8.24666782 60.7430769,10.0175377 62.1438274,11.1359819 C66.3460787,6.84861262 71.1086303,2.7476507 77.178549,1.16318814 C85.4896684,-0.980496497 95.4816884,-0.328070737 102.205291,5.63696478 C107.995059,10.6699635 109.862726,18.68548 109.95611,26.0485707 L109.95611,73.8620586 C103.139124,73.7688549 96.3221386,74.0484659 89.5051531,73.7688549 C89.5985364,60.347525 89.5051531,46.926195 89.5051531,33.5048651 C89.5051531,28.8446811 88.5713194,23.4388677 84.4624514,20.6427573 C79.3263664,17.4738321 71.4821638,18.2194616 67.8402126,23.2524603 C65.5990118,26.5145891 65.2254784,30.5223473 65.2254784,34.3436982 L65.2254784,73.8611265 C58.5018762,73.9552622 51.6848906,73.8611265 44.9612884,73.9552622 C44.6811383,60.1611176 44.9612884,46.3669729 44.7745216,32.666032 C44.6811383,28.005848 43.4671545,22.6932382 39.0781364,20.2699425 C34.3155848,17.7534432 27.685366,18.3126653 23.856648,22.3204235 C20.9617638,25.5825523 20.4948469,30.2427363 20.4948469,34.3436982 L20.4948469,73.8611265 L0.0438901812,73.8611265 L0.0438901812,1.34866347 L20.4948469,1.34866347 C20.4948469,4.70399595 20.4014636,8.15253211 20.5882303,11.5078646 C24.4169482,6.75540894 29.0861164,2.37483598 35.1560351,0.883577104 Z" id="Path"></path>
                <path d="M44.918332,74.0000031 L44.9173982,73.9561943 C44.7642495,66.4299971 44.7791908,58.7863633 44.7922645,51.3934474 C44.8034705,45.2475968 44.8146765,38.8920378 44.7306314,32.666032 C44.5756151,24.9552915 41.5593324,21.6894346 39.0566582,20.307224 C37.1824541,19.3174009 35.0103571,18.7926642 32.7747593,18.7926642 C29.2859568,18.7926642 26.0464879,20.0891274 23.8874646,22.3493166 C20.9188074,25.6943967 20.5378033,30.5167551 20.5378033,34.3427662 L20.5378033,73.9040002 L0,73.9040002 L0,1.30578977 L20.5387371,1.30578977 L20.5387371,1.3495955 C20.5387371,2.18563251 20.5331341,3.04310637 20.5275311,3.87261912 C20.5097883,6.34997294 20.4920454,8.91027803 20.6255836,11.3932241 C25.4329592,5.44776131 30.0498328,2.09336087 35.1457629,0.841635448 C37.3714551,0.281615608 39.6580808,-0.00107985739 41.9534102,3.09963548e-06 C45.1788716,3.09963548e-06 48.3660458,0.575072923 51.1712821,1.66369191 C54.2370579,2.85297086 56.8396523,4.6191806 58.9080938,6.91292316 C59.4254376,7.4684171 59.8465966,8.11711471 60.2546819,8.74530751 C60.7963054,9.57948045 61.3556718,10.4397504 62.140092,11.0772636 C66.0790023,7.06204905 70.9433418,2.74578663 77.167343,1.12031445 C80.0080196,0.382668097 82.9307633,0.00655849311 85.8660034,0.000938253908 C90.4520604,0.000938253908 97.0141094,0.973052636 102.234239,5.6043435 C108.5068,11.0576908 109.91969,19.7312253 110,26.0485707 L110,73.9067963 L109.95611,73.9058643 C108.902494,73.8918117 107.848792,73.8852873 106.795083,73.8862915 C105.123521,73.8862915 103.423943,73.9012041 101.779462,73.9133206 C100.135915,73.9273011 98.436338,73.9412817 96.763842,73.9412817 C93.9408629,73.9412817 91.6333599,73.9002721 89.5023516,73.8126606 L89.460329,73.8107965 L89.460329,73.7688549 C89.5228959,64.8203696 89.5014177,55.7246224 89.4808734,46.926195 C89.4706012,42.5269813 89.460329,37.9777097 89.460329,33.5048651 C89.460329,27.2630147 87.7700902,22.9476843 84.4372379,20.6791067 C82.4603121,19.4590705 79.9931236,18.787072 77.4923171,18.787072 C73.5048474,18.787072 69.9105218,20.4656703 67.8756983,23.2785573 C65.5784675,26.6217733 65.2684347,30.7488323 65.2684347,34.3446303 L65.2684347,73.9049322 L65.2254784,73.9058643 C61.8636773,73.9533982 58.4215665,73.9533982 55.0933834,73.9533982 C51.7652003,73.9533982 48.3230895,73.9533982 44.9612884,74.0000031 L44.918332,74.0000031 L44.918332,74.0000031 Z M32.7756932,18.7069168 C35.0243646,18.7069168 37.211403,19.2344497 39.0986807,20.231729 C41.6228331,21.6251241 44.6624616,24.9133499 44.8184118,32.6651 C44.9033907,38.8929698 44.8921847,45.2475968 44.8800448,51.3943794 C44.8660373,58.7723828 44.8520298,66.401104 45.0042447,73.9114565 C48.3520383,73.8648547 51.7792078,73.8648547 55.0933834,73.8648547 C58.407559,73.8648547 61.8337946,73.8648547 65.1815882,73.8191849 L65.1815882,34.3436982 C65.1815882,30.7348517 65.4925548,26.5919482 67.8047269,23.2272953 C69.8563594,20.3911073 73.4787001,18.6985285 77.4932509,18.6985285 C80.0099326,18.6985285 82.4929962,19.3761193 84.4857972,20.6045438 C87.8466645,22.8917621 89.5490432,27.2303934 89.5490432,33.5039331 C89.5490432,37.9777097 89.5593154,42.5269813 89.5695876,46.925263 C89.5891981,55.7087778 89.6106763,64.7914764 89.5490432,73.7259812 C91.6669779,73.8126606 93.9604734,73.8527382 96.7647758,73.8527382 C98.436338,73.8527382 100.135915,73.8378256 101.779462,73.8247771 C103.42301,73.8117286 105.123521,73.797748 106.795083,73.797748 C107.925955,73.797748 108.946636,73.8042723 109.91222,73.8173208 L109.91222,26.0485707 C109.832844,19.750798 108.425556,11.1014965 102.176342,5.66958607 C96.976756,1.05600391 90.437119,0.0885497131 85.8660034,0.0885497131 C82.9823251,0.0885497131 80.0631611,0.464160544 77.1888212,1.2051298 C70.9704229,2.82873791 66.108885,7.15152458 62.1746439,11.1667391 L62.1466289,11.1947002 L62.1158124,11.1704673 C61.3033771,10.5217697 60.7328047,9.64285895 60.180909,8.79284139 C59.7746914,8.16837673 59.3554001,7.52247523 58.8427254,6.97164148 C56.7826884,4.68815132 54.1913001,2.92939788 51.1385979,1.74571114 C48.3436338,0.660820308 45.1667318,0.0876176763 41.9524764,0.0876176763 C39.6552456,0.0876176763 37.3720223,0.370024827 35.1663073,0.926450796 C30.0638403,2.18004029 25.4422976,5.5512174 20.6218483,11.5367577 L20.5499431,11.6253012 L20.5434063,11.5115927 C20.4033312,8.99043319 20.4210741,6.38818645 20.4378831,3.87261912 C20.4434861,3.05801896 20.4500229,2.21638973 20.4500229,1.39433327 L0.0877803623,1.39433327 L0.0877803623,73.8191849 L20.4509568,73.8191849 L20.4509568,34.3436982 C20.4509568,30.5018425 20.8347624,25.6599114 23.8239639,22.2905983 C26.0007301,20.0127004 29.2635448,18.7069168 32.7756932,18.7069168 Z" id="Shape"></path>
            </g>
            <g transform="translate(256, 25)">
                <path d="M15.5221722,7.0423189 C25.2265191,-0.182015703 38.290063,-1.40170856 49.7673194,1.50678979 C56.2057803,3.19559528 61.897753,7.32378648 66.4699934,12.1087354 C62.4576192,16.8936843 58.1653119,21.303343 54.0596267,25.9006469 C50.5138076,22.4292134 46.5014334,18.8639573 41.4626379,18.2071996 C36.2372204,17.1751518 30.5452477,18.3948447 26.7194956,22.1477458 C16.6419046,31.2485309 18.228192,50.9512617 31.1984249,56.6744358 C37.3569527,59.3952891 44.915146,58.3632413 50.3271856,54.2350501 C52.0067841,53.2020641 53.3131385,51.3256135 55.179359,50.6688559 C59.1917332,54.5165177 62.9241743,58.6437707 66.9365485,62.6790776 C61.4311979,68.495136 54.7128039,73.7501358 46.6880555,75.1574737 C38.6633071,76.5648116 30.0786926,76.283344 22.5204993,72.9057331 C12.2562863,68.6837193 4.41815994,59.4891116 1.52551808,48.7933435 C-2.86010022,33.7817392 2.64525042,16.143104 15.5221722,7.0423189 Z" id="Path"></path>
                <path d="M37.8272403,76 C32.1921873,76 27.0367531,74.9717051 22.5027702,72.9460767 C17.491968,70.885734 12.9001324,67.5512814 9.22554409,63.3067503 C5.59014645,59.107254 2.91305307,54.0933781 1.48352812,48.8055405 C-0.661692406,41.4629895 -0.47507035,33.2525801 2.00886921,25.6876697 C3.24803966,21.9150659 5.01161808,18.4098563 7.25108274,15.2686781 C9.571728,12.0139746 12.3458649,9.23401314 15.4979114,7.00666634 C21.654573,2.42343588 29.4852344,0 38.1426316,0 C42.0290359,0 45.9434335,0.492568268 49.7785167,1.46550788 C55.5246098,2.97229766 61.3070942,6.64263493 66.5026522,12.0787122 L66.5297124,12.1077971 L66.5045184,12.1378204 C63.9580605,15.1757938 61.2567062,18.1058713 58.6449306,20.9402499 C57.1444893,22.5680707 55.5927269,24.2512469 54.0932186,25.9306701 L54.0633591,25.9653844 L54.0307003,25.9334848 C50.4288946,22.406696 46.4902361,18.9080539 41.4589055,18.2512962 C40.2792391,18.0181709 39.0798634,17.9006552 37.8776283,17.9004 C33.5162708,17.9004 29.5654819,19.4203249 26.7521544,22.1805837 C24.2131614,24.4736062 22.3002853,27.5641203 21.2197436,31.1218705 C20.1858574,34.5210607 19.9413825,38.2073478 20.5115129,41.7801096 C21.6172486,48.7060886 25.5195157,54.1205866 31.2180202,56.6350304 C33.483612,57.6361167 35.9432907,58.1436966 38.5280061,58.1436966 C42.7876545,58.1436966 46.9689217,56.7438645 50.3029247,54.201274 C50.9859614,53.7809491 51.616744,53.2133228 52.226065,52.664461 C53.122784,51.8566491 54.0512287,51.0206903 55.1672286,50.6285122 L55.1924226,50.6191299 L55.2120179,50.6378944 C57.6110444,52.9384228 59.9587498,55.3890672 62.2290072,57.7609007 C63.7944123,59.4048997 65.3748572,61.0343534 66.9701405,62.6490544 L67,62.6790776 L66.9710736,62.710039 C60.146305,69.9203002 53.5146903,74.0062713 46.6983197,75.2006321 C43.6750424,75.7307293 40.6909557,76 37.8272403,76 L37.8272403,76 Z M38.1416985,0.0872549504 C29.5038966,0.0872549504 21.6909643,2.50506148 15.5482993,7.07797146 C12.4037177,9.30062713 9.63704572,12.0730828 7.32199912,15.3202805 C5.08720001,18.4539529 3.32828714,21.9516567 2.09284913,25.7158165 C-0.385491764,33.2638388 -0.572113819,41.4545455 1.56844116,48.7811466 C2.99516677,54.0577255 5.66666149,59.0603427 9.29272803,63.2495185 C12.9589183,67.4846674 17.5386235,70.8097378 22.5382284,72.8663276 C27.061947,74.8872648 32.2052509,75.912745 37.8281734,75.912745 C40.6872233,75.912745 43.6657113,75.6444126 46.6815237,75.1152536 C53.4689679,73.9246457 60.0753886,69.8574391 66.8768294,62.680954 C65.2728129,61.0672066 63.6930572,59.4168683 62.1646225,57.8209471 C59.900897,55.4575577 57.5606564,53.014419 55.1690948,50.7204582 C54.0810882,51.1116982 53.1666401,51.9345218 52.2829847,52.7301368 C51.6699313,53.2818132 51.0372825,53.8522542 50.3505133,54.2744556 C47.0062461,56.8264283 42.8053836,58.232828 38.527073,58.232828 C35.9302271,58.232828 33.458418,57.7224335 31.1816289,56.716656 C28.2283349,55.4134611 25.7714555,53.3643771 23.8791079,50.6266357 C22.1397903,48.1093773 20.9444761,45.0554541 20.4238005,41.7951212 C19.8518039,38.2092242 20.0972119,34.5088638 21.1348306,31.0974767 C22.2209709,27.5247148 24.142245,24.4201274 26.6915023,22.1177226 C29.5197595,19.3424522 33.4929431,17.8140833 37.8766951,17.8140833 C39.0785412,17.8140833 40.2878521,17.9322996 41.471969,18.1659177 C46.5126308,18.8226754 50.4540886,22.3119352 54.0577605,25.8396622 C55.5522602,24.1753917 57.0595898,22.5228145 58.5796129,20.8820799 C61.1820574,18.0580218 63.8731475,15.1382648 66.4121405,12.1124883 C61.2352447,6.70268135 55.4760881,3.05110859 49.7570552,1.5518246 C45.9602355,0.583431917 42.0587648,0.0914990677 38.1416985,0.0872549504 L38.1416985,0.0872549504 Z" id="Shape"></path>
            </g>
            <g transform="translate(445, 25)">
                <path d="M14.0382077,8.19001086 C27.1228088,-2.59372224 47.7777863,-2.68749383 60.9549143,8.00246767 C62.9185391,9.50281315 64.5999103,11.2844734 66.3766122,12.9723621 C64.0400763,15.504195 61.6091443,18.036028 59.1800816,20.567861 C54.133164,15.6917382 48.3376203,10.6280723 41.1420243,9.87789952 C33.0108793,8.65886882 24.4124271,11.4720166 18.8972677,17.5671701 C8.61650971,28.3509032 8.61650971,47.1052216 18.7112795,57.9827263 C24.3189657,64.1725891 33.1034061,67.2661139 41.3280126,66.0480209 C48.8049275,65.2978482 54.9743169,60.6092686 60.114696,55.451831 C62.3568358,57.6085776 64.6008449,59.7653243 66.9373808,61.8282993 C60.9558489,68.4860823 53.1985496,74.299921 44.1327903,75.4251801 C35.721261,76.7370447 26.8424245,75.7064949 19.3655095,71.3930017 C8.0566757,65.3906821 0.579760766,52.9190603 0.112453582,40.0723522 C-0.635237912,28.0695884 4.69206398,15.7855098 14.0382077,8.19001086 Z" id="Path"></path>
                <path d="M37.3605746,76 C30.7565895,76 24.5264501,74.419011 19.3440134,71.4305103 C13.8232463,68.5001481 9.08288228,63.9672293 5.63695911,58.3221794 C2.22561667,52.7333926 0.30031107,46.4244398 0.0694613211,40.0742276 C-0.29877674,34.1703682 0.802198985,28.0789656 3.25088863,22.4611095 C5.70612057,16.8282499 9.42682037,11.8817984 14.0120385,8.15625308 C20.3935854,2.89660448 28.7817493,0 37.6297435,0 C46.3553032,0 54.6500058,2.83002665 60.9838873,7.9687099 C62.4577742,9.09490672 63.7952073,10.401145 65.0887136,11.6642483 C65.5195708,12.0843451 65.9653819,12.5194453 66.4083891,12.9414174 L66.4392314,12.9714243 L66.4102583,13.0033067 C64.0952185,15.5107591 61.6493327,18.0613464 59.2828892,20.5266015 L59.1828854,20.630688 L59.1520432,20.5997434 C54.2116716,15.8267693 48.3385549,10.6721449 41.1401551,9.92103445 C39.8966183,9.73560244 38.6411358,9.64251568 37.3839399,9.64253282 C33.9417552,9.64253282 30.4584475,10.3495706 27.3097317,11.6876912 C24.0423198,13.0755108 21.2235229,15.0644063 18.9327831,17.5962393 C16.4289512,20.2209061 14.4858879,23.3566282 13.1549971,26.9161978 C11.8764446,30.3369855 11.22128,33.9781364 11.20913,37.739315 C11.1979146,41.4939295 11.8269101,45.1416445 13.0792933,48.5802487 C14.3793419,52.1482578 16.2859552,55.3008588 18.7449256,57.9517817 C23.4609897,63.1579805 30.5640589,66.2646333 37.7475049,66.2646333 C38.9441721,66.264821 40.1392688,66.1776963 41.3233395,66.0039483 C49.5030844,65.1825091 55.9481851,59.5702793 60.0847883,55.4199487 L60.114696,55.3899418 L60.1455382,55.419011 C62.3456205,57.5344981 64.6195372,59.7221893 66.9672885,61.7945415 L67,61.8236107 L66.971027,61.8564308 C63.6830536,65.5153983 60.2324574,68.5038989 56.7155035,70.7375382 C52.6003964,73.3509525 48.3684626,74.9422564 44.138398,75.4683151 C41.8960054,75.8192361 39.6300784,75.9969863 37.3605746,76 L37.3605746,76 Z M37.6288089,0.0872075807 C28.8013762,0.0872075807 20.4337738,2.97724805 14.0662461,8.22376863 C9.49317799,11.9408745 5.78088972,16.8760734 3.33126546,22.495805 C0.888183507,28.1014707 -0.209988375,34.1778699 0.157315072,40.069539 C0.387230206,46.4056855 2.30879734,52.7005725 5.71172826,58.2762314 C9.1492399,63.9081532 13.877454,68.4298194 19.3860711,71.3536176 C24.5572924,74.336492 30.7724779,75.9118547 37.3605746,75.9118547 C39.5886952,75.9118547 41.8644812,75.7336887 44.126248,75.3811075 C48.3450972,74.8569243 52.5639465,73.2693712 56.6678382,70.6634587 C60.167969,68.4401342 63.6017422,65.4694502 66.8756963,61.8311124 C64.5503757,59.7756391 62.2960859,57.6095153 60.1165652,55.5127825 C55.9687466,59.6706149 49.5189729,65.2697167 41.3336202,66.0911559 C40.1459184,66.266219 38.9470201,66.353661 37.7465703,66.3527786 C30.5397589,66.3527786 23.4114551,63.2348732 18.6795026,58.0108578 C16.2121207,55.3514954 14.2989651,52.1885796 12.9961126,48.6102557 C11.7399909,45.1613365 11.1091262,41.5042444 11.1203416,37.739315 C11.1334262,33.9678215 11.7895255,30.3163557 13.0718164,26.8852532 C14.4073803,23.314431 16.3569859,20.168394 18.8664255,17.5362254 C21.1655768,14.9950153 23.9946545,12.9995558 27.2732817,11.60611 C30.4736726,10.2555529 33.9101193,9.55807721 37.3820707,9.55438752 C38.6447347,9.55438752 39.9120718,9.64815912 41.1485666,9.83382687 C48.3572472,10.585875 54.235037,15.7311223 59.179147,20.5050341 L59.2184008,20.4647123 C61.5745636,18.0088343 64.0101686,15.471375 66.3158623,12.9742375 C65.8812666,12.5616425 65.4466709,12.1368572 65.0260945,11.7261376 C63.7344574,10.4649097 62.3988935,9.16148455 60.9287451,8.03716316 C54.6088827,2.91067022 46.3338071,0.0872075807 37.6288089,0.0872075807 L37.6288089,0.0872075807 Z" id="Shape"></path>
            </g>
            <g transform="translate(516, 25)">
                <path d="M34.0414108,0.244584547 C43.1251791,-0.692518563 52.6781678,1.65023921 60.1707079,6.99172694 C69.7236965,13.5514487 75.6240719,24.796686 75.9050422,36.3230543 C76.4679192,46.8186091 72.3460856,57.314164 65.040859,64.8109889 C53.6147353,76.6184881 34.3214444,79.3360871 19.8983047,71.5571942 C10.6272229,66.7779683 3.69568667,57.7827155 1.16695437,47.6610648 C-1.26812117,37.6349987 0.230386857,26.5762448 5.7561352,17.7684127 C11.7511039,7.92883005 22.5216303,1.27539797 34.0414108,0.244584547 M30.2951407,10.6464291 C22.9889775,12.7080559 16.9012886,18.2369643 13.9052092,25.1715273 C8.37946081,37.1664471 11.3764769,52.9097794 22.1470033,60.8751558 C30.5761109,67.5285879 43.1251791,68.0908497 52.1171638,62.2808105 C68.1324683,52.6286484 69.0690359,26.8583129 54.3639893,15.5193652 C47.8089532,10.0841672 38.5369348,8.3036713 30.2951407,10.6464291 Z" id="Shape"></path>
                <path d="M37.7633301,76 C31.4040366,76 25.2189448,74.4772074 19.8777002,71.5965525 C10.6955923,66.8641818 3.68538442,57.9204697 1.12480884,47.6732472 C-0.0885449277,42.6246771 -0.322861241,37.3901047 0.434558576,32.2532155 C1.20909991,27.0401109 3.03634314,22.0228608 5.72054564,17.7459222 C8.66324077,12.9160928 12.8412685,8.73942424 17.8041397,5.66666314 C22.7613916,2.59858756 28.3742407,0.708450587 34.0386011,0.201477804 C35.3486178,0.0670086525 36.6646581,0 37.9815503,0 C46.0144899,0 53.9050712,2.47114154 60.1978683,6.95705413 C64.8647843,10.1619468 68.793685,14.5944445 71.5556226,19.7756876 C74.2922729,24.9082013 75.8113854,30.6301529 75.9499974,36.3230543 C76.2244117,41.4452599 75.3655793,46.7661314 73.4662203,51.7084132 C71.5874659,56.5944688 68.6859797,61.1366076 65.0736388,64.8437875 C58.2114086,71.9329725 48.2566325,76 37.7633301,76 Z M37.9806137,0.0871512247 C36.6656729,0.0871512247 35.3413665,0.154622649 34.0460936,0.288628394 C28.3957818,0.794664073 22.7941715,2.68011553 17.8500315,5.74163139 C12.8983991,8.80689567 8.72973707,12.9741932 5.79453447,17.7918403 C3.11782451,22.0594079 1.29339099,27.0644756 0.51978622,32.2653978 C-0.235300857,37.3911542 -0.000986060494,42.6142407 1.21003648,47.6516938 C3.7640561,57.8745516 10.7574057,66.7976475 19.9189092,71.5187729 C25.2479783,74.3928682 31.4180851,75.9119123 37.7633301,75.9119123 C48.2341549,75.9119123 58.1645803,71.8542558 65.0108888,64.7810016 C68.6148006,61.0822556 71.5087942,56.551362 73.3828658,51.6765517 C75.2775419,46.744578 76.1354378,41.436826 75.8610235,36.3258656 C75.7233481,30.6451466 74.2061087,24.9363144 71.4760144,19.815983 C68.7206327,14.6478594 64.8020343,10.2266069 60.1454206,7.02827396 C53.8676085,2.55173241 45.9957585,0.0871512247 37.9806137,0.0871512247 L37.9806137,0.0871512247 Z M38.1810392,66.3253475 C38.1801026,66.3253475 38.1801026,66.3253475 38.1810392,66.3253475 C32.2469474,66.3253475 26.5432512,64.4014748 22.1198428,60.9107657 C16.9883894,57.1154981 13.3488881,51.3026475 11.8728576,44.5442599 C10.4333534,37.9554879 11.1413984,31.0687172 13.8658733,25.1537223 C16.9218931,18.0823423 23.0592201,12.6433958 30.2839019,10.6051965 C32.6655332,9.93122515 35.1290628,9.59094004 37.6041136,9.59404099 C43.8472726,9.59404099 49.8085249,11.6866135 54.3930229,15.4865666 C57.9604085,18.2379014 60.7953984,22.0237979 62.5907983,26.4338052 C64.291605,30.6142222 65.0502246,35.293178 64.7833029,39.964637 C64.5229371,44.5067758 63.2950971,48.9120975 61.2309023,52.7054909 C59.0103007,56.7884491 55.9514712,60.0233291 52.140578,62.3201688 C48.0852407,64.939372 43.2562985,66.3253475 38.1810392,66.3253475 L38.1810392,66.3253475 Z M37.6041136,9.68121287 C35.1147171,9.68121287 32.6599737,10.0204442 30.3073161,10.6885987 C23.106985,12.7202383 16.9911991,18.1404426 13.9454816,25.1893322 C11.2284992,31.0874592 10.5223273,37.9554879 11.9580853,44.5255178 C13.4294329,51.2623521 17.0567589,57.0564606 22.1732272,60.8395459 C26.5825871,64.3208839 32.2666153,66.2372598 38.1801026,66.2372598 C43.2385038,66.2372598 48.0505877,64.8559698 52.0928131,62.2442634 C55.8915309,59.9549205 58.9400582,56.7303487 61.1531672,52.661447 C63.2098695,48.880236 64.4348998,44.4861595 64.694329,39.9571402 C64.9612507,35.2988006 64.2054407,30.6339013 62.5083804,26.4647296 C60.7195364,22.069716 57.8929757,18.2960018 54.3368288,15.553101 C49.7682525,11.7662673 43.8266682,9.68121287 37.6041136,9.68121287 L37.6041136,9.68121287 Z" id="Shape"></path>
            </g>
            <g transform="translate(600, 26)">
                <path d="M26.8691838,0.974015341 C34.8804796,-0.983336062 44.2870691,-0.0512639653 50.7149208,5.63437583 C53.6023777,8.05776328 55.743753,11.1336012 57.5144161,14.3026463 C61.7058858,8.33738491 67.3876559,2.93136675 74.6528701,1.16042976 C83.7809597,-1.16975048 94.678781,0.0421961462 101.757708,6.84606955 C107.346334,12.1588805 109.768072,20.1747005 109.861216,27.7244845 C109.95436,43.1036741 109.767141,58.3896565 109.95436,73.7688461 C106.322684,74.0484677 102.689145,73.9543285 99.0565383,73.7688461 C99.1506135,59.6936254 99.0565383,45.5261295 99.0565383,31.4527729 C99.1506135,24.7418538 97.287738,17.285277 91.6050365,13.1841598 C83.4083846,7.49852002 70.7417631,9.1762498 64.8737055,17.3784842 C61.2392355,22.1320519 60.1215103,28.376935 60.3077978,34.2489892 C60.2146541,47.484413 60.4009416,60.7198368 60.2146541,73.9552605 C56.6742593,73.8620533 53.134796,73.9552605 49.5962641,73.7697782 C49.6894079,59.6945575 49.6894079,45.5270616 49.6894079,31.3604978 C49.6894079,25.5816508 48.3863265,19.2435605 44.1948568,14.9550968 C39.630812,10.1083219 32.1793102,8.98983538 25.9377461,10.4811507 C15.4124999,13.277367 9.91701737,24.9282682 10.8484551,35.1810613 C10.9415989,48.1368635 10.8484551,60.9994584 10.9415989,73.8620533 C7.30899176,73.9552605 3.76952844,73.8620533 0.230065116,73.9552605 C-0.142509971,49.9078004 0.230065116,25.8603403 0.0437775727,1.71967302 C3.5832409,1.5332586 7.21584799,1.62646581 10.8493865,1.62646581 C10.9425303,5.63437583 10.8493865,9.54907863 10.9425303,13.5569887 C14.946781,7.96455607 20.0696885,2.74495233 26.8691838,0.974015341 Z" id="Path"></path>
                <path d="M60.2575002,73.9990679 L60.2137226,73.9981359 C58.7970059,73.960853 57.358866,73.9533964 55.9663666,73.9459398 C53.8780833,73.934755 51.7171478,73.9235701 49.5925383,73.8117214 L49.5515551,73.8098573 L49.5515551,73.7688461 C49.6446988,59.6936254 49.6446988,45.2893832 49.6446988,31.3595657 C49.6446988,26.4475458 48.6937009,19.6201176 44.1622565,14.9849231 C41.0782662,11.7114859 36.4676495,9.90885846 31.1780147,9.90885846 C29.4120088,9.90885846 27.6515915,10.1157785 25.9470605,10.523094 C19.7073592,12.1812502 16.0784779,16.6225738 14.1345673,20.0563274 C11.6057139,24.5209527 10.4246509,30.0332271 10.8922327,35.177333 C10.9388045,41.6589624 10.9388045,48.2151575 10.9388045,54.5569761 C10.9388045,60.8857456 10.9388045,67.4307559 10.9853764,73.8620533 L10.9853764,73.9049286 L10.9425303,73.9058607 C9.12622675,73.9524643 7.30899176,73.9524643 5.55043735,73.9524643 C3.80492307,73.9524643 1.99979678,73.9524643 0.230996554,73.9990679 L0.187218981,74 L0.186287543,73.9561926 C-0.0270116938,60.2165178 0.00465718858,46.2382326 0.0344631955,32.720391 C0.055886263,22.5673296 0.0801036436,12.0684695 0,1.72060509 L0,1.67866185 L0.0409832595,1.6767977 C1.57226687,1.5966395 3.22836313,1.56028869 5.41165313,1.56028869 C6.31328484,1.56028869 7.23261387,1.56588112 8.12213689,1.57147356 C9.01538566,1.57706599 9.93937187,1.58359049 10.8493865,1.58359049 L10.8922327,1.58359049 L10.8931641,1.62646581 C10.939736,3.63042082 10.939736,5.64462862 10.939736,7.5926593 C10.939736,9.49781467 10.939736,11.4663509 10.9835136,13.4264986 C15.9629796,6.50586324 21.1566763,2.41779502 26.858938,0.933004169 C29.3740178,0.316317487 31.95382,0.00308829629 34.5432992,0 C39.0440062,0 45.508184,0.972151197 50.7447268,5.60268538 C53.2484314,7.70450795 55.4028468,10.4447999 57.5190733,14.2224881 C62.5590828,7.06883478 68.3209565,2.66106584 74.6435557,1.11941859 C77.4617788,0.398864327 80.3589798,0.033766896 83.2677375,0.0326225234 C90.6605587,0.0326225234 97.2374404,2.44109682 101.788445,6.81624325 C106.842426,11.6192108 109.800672,19.2407643 109.905925,27.7254166 C109.945977,34.311438 109.933868,40.9888025 109.922691,47.446198 C109.907788,56.0650687 109.892885,64.9775421 110,73.7697782 L110,73.8107894 L109.959017,73.8145177 C108.322246,73.9364471 106.681388,73.9952112 105.040094,73.9906793 C103.309483,73.9906793 101.408419,73.9338229 99.0556068,73.8145177 L99.0136921,73.8126535 L99.0136921,73.7688461 C99.0760985,64.381948 99.0546754,54.8030431 99.0341838,45.5401106 C99.0221821,40.8443403 99.0153516,36.1485582 99.0136921,31.4527729 C99.0649212,27.8009144 98.5265502,24.3084403 97.4563283,21.3547038 C96.1905044,17.8566372 94.2130621,15.1200736 91.5798877,13.2195786 C88.4809944,11.0692882 84.5438072,9.88555666 80.4957789,9.88555666 C74.1051847,9.88555666 68.2781104,12.695754 64.9100316,17.4036502 C60.8694548,22.6903631 60.2025454,29.4814404 60.3534383,34.2471251 C60.3133865,39.92158 60.3254951,45.6883101 60.335741,51.2667616 C60.3515754,58.7037648 60.3664784,66.3933596 60.2602945,73.9561926 L60.2575002,73.9990679 L60.2575002,73.9990679 Z M0.0875551453,1.76161626 C0.167658789,12.0964317 0.144372846,22.5803786 0.122018341,32.720391 C0.0922123339,46.2233194 0.0614748893,60.1866915 0.272911251,73.9105211 C2.02960278,73.8648495 3.81982608,73.8648495 5.55043735,73.8648495 C7.29408876,73.8648495 9.09642074,73.8648495 10.8978213,73.819178 C10.8512494,67.4018616 10.8512494,60.8717645 10.8512494,54.5569761 C10.8512494,48.2151575 10.8512494,41.6589624 10.8046775,35.1810613 C10.3361643,30.0229743 11.5218846,24.4929906 14.0581895,20.0134521 C15.3920083,17.6581059 17.0481045,15.6504226 18.9799063,14.0444624 C21.0467666,12.3275856 23.3837439,11.1140277 25.9256374,10.4382754 C27.6463219,10.0279333 29.4091432,9.82084299 31.1780147,9.82124369 C36.4927983,9.82124369 41.1267009,11.6331918 44.2255942,14.9243384 C48.7775303,19.5800385 49.732254,26.4317005 49.732254,31.3595657 C49.732254,45.2763342 49.732254,59.6656632 49.6391102,73.7269029 C51.7488167,73.8368874 53.8920548,73.8480722 55.9663666,73.8592571 C57.343963,73.8667137 58.7690627,73.8741703 60.1718079,73.9105211 C60.2761289,66.3616692 60.2621574,58.6888517 60.2463229,51.2667616 C60.2351457,45.6892421 60.2239684,39.92158 60.2640203,34.2489892 C60.1121959,29.4702556 60.7828311,22.6577406 64.8373794,17.3523862 C68.2212927,12.6221203 74.0744473,9.79887396 80.493916,9.79887396 C84.5596417,9.79887396 88.5135948,10.988198 91.6283225,13.1487411 C94.2763999,15.0594889 96.264088,17.8100336 97.5364319,21.3248775 C98.6094482,24.2888668 99.149682,27.7915937 99.0993844,31.453705 C99.0993844,36.1401635 99.1105617,40.9188971 99.119876,45.5401106 C99.1394362,54.7899941 99.1617907,64.3539859 99.0993844,73.7269029 C101.430773,73.8462081 103.318797,73.9021324 105.038231,73.9021324 C106.788403,73.9021324 108.383024,73.844344 109.908719,73.728767 C109.803467,64.9477158 109.81837,56.0492235 109.833273,47.4443339 C109.845381,40.9869384 109.856559,34.3095739 109.816507,27.7244845 C109.712186,19.263134 106.763254,11.6648823 101.726039,6.87776 C97.1918,2.51845881 90.6354099,0.118373156 83.2658747,0.118373156 C80.374692,0.118373156 77.480715,0.482813346 74.6631159,1.20237301 C68.3442424,2.74215611 62.5860945,7.15831371 57.5488793,14.3278123 L57.5088275,14.3846687 L57.4752957,14.324084 C55.3534806,10.5249581 53.1962709,7.77441336 50.6860462,5.66793042 C45.469995,1.05417354 39.0281718,0.0857506329 34.5423677,0.0857506329 C31.9846397,0.0857506329 29.4064201,0.398926858 26.8784982,1.01595859 C21.168785,2.50354565 15.9667053,6.6139836 10.9769935,13.5821546 L10.9006156,13.6884108 L10.8978213,13.5579207 C10.8512494,11.5539657 10.8512494,9.53975791 10.8512494,7.59172723 C10.8512494,5.6586097 10.8512494,3.65931505 10.8056089,1.6702732 C9.90956587,1.6702732 9.00048265,1.66468077 8.12027401,1.65815626 C7.23075099,1.65256383 6.31142197,1.6469714 5.41072169,1.6469714 C3.24978619,1.6469714 1.60579862,1.68239014 0.0875551453,1.76161626 L0.0875551453,1.76161626 Z" id="Shape"></path>
            </g>
            <g transform="translate(120, 26)">
                <path d="M6.20146894,5.8645477 C17.9856192,0.721027951 31.0688095,-1.33637995 43.688057,1.00158357 C50.5544123,2.21732461 57.2351903,5.8645477 61.0395223,11.9432529 C65.0294314,18.2089951 65.8645287,25.7839969 65.8645287,33.0784431 C65.8645287,46.545113 65.7717401,60.0117829 65.9573173,73.4784528 C59.3693278,73.7590084 52.7813383,73.4784528 46.1933488,73.5719714 C46.1933488,71.0469708 46.1933488,68.4284516 46.2861374,65.8099325 C42.1106511,70.1117854 36.8217018,73.5719714 30.8832324,74.4136382 C22.1611054,75.9099349 12.0471498,74.5071568 5.73752602,67.7728866 C-0.200943377,61.6941815 -1.12882922,52.2488088 1.28367397,44.3932514 C3.41781141,37.6608516 9.44906939,32.8904709 16.0370589,31.0201 C25.9654374,28.1210253 36.7289132,28.9626921 46.4717145,32.1423225 C46.6572917,26.9052842 44.5231543,20.9200976 39.1414164,19.0497268 C29.9553465,16.0571335 20.026968,18.4886155 11.2120525,21.5747274 C9.63464656,16.3386243 7.77887488,11.101586 6.20146894,5.8645477 M24.5736086,43.5525197 C19.7486023,45.7034462 18.1711963,52.6238182 21.2332196,56.8321525 C23.9240885,60.2914034 28.6563063,60.9460332 32.7390041,60.5728942 C37.4712219,60.2914034 42.4818054,58.3284492 45.0798858,54.0265963 C46.8428689,51.1265863 46.6572917,47.573817 46.6572917,44.300668 C39.7909365,41.4951118 31.5327525,40.2793708 24.5736086,43.5525197 Z" id="Shape"></path>
                <path d="M24.5745365,75 C16.7561704,75.0009347 10.0559067,72.4450729 5.7059779,67.8037478 C2.90840208,64.94021 1.05170251,61.1209128 0.336302526,56.7573377 C-0.322496423,52.7369756 -0.0097988937,48.456632 1.24284699,44.381094 C2.25702622,41.1808895 4.23527884,38.2322499 6.96233533,35.8512679 C9.51587717,33.6217858 12.6502756,31.9365817 16.0259243,30.9789519 C20.067795,29.7978127 24.3908151,29.2002292 28.8734316,29.2002292 C34.6430258,29.2002292 40.5499471,30.1709517 46.4299597,32.084341 C46.5190367,29.3246089 45.9604494,26.5817101 44.8553374,24.3540984 C43.5729992,21.7683108 41.5919629,19.9493752 39.1274981,19.0927453 C36.356831,18.1902914 33.3263558,17.7320506 30.1205102,17.7320506 C23.2105443,17.7320506 16.393367,19.8090973 11.2259708,21.6177459 L11.183288,21.6327089 L11.1702976,21.5896904 C10.3815947,18.9693009 9.5075262,16.3049576 8.66315008,13.7285218 C7.81970185,11.1558268 6.94748916,8.49522426 6.15971408,5.87857549 L6.14857945,5.84116807 L6.184767,5.82526992 C14.9161728,2.01438937 24.2284351,0 33.1157257,0 C36.6992208,0 40.2585909,0.322638966 43.6954801,0.95950023 C51.215067,2.29026907 57.5497436,6.28538114 61.0757098,11.9208084 C65.3588309,18.6466619 65.9081393,26.7612657 65.9081393,33.0793783 C65.9081393,36.4497865 65.902572,39.8781762 65.8960768,43.1915381 C65.878447,53.1175961 65.8608171,63.3831263 66,73.4784528 L66,73.5214714 L65.9582451,73.5233417 C63.9001943,73.6112492 61.6695568,73.6523973 58.9415724,73.6523973 C57.3251953,73.6523973 55.6828373,73.6374343 54.0942967,73.6243417 C52.5057562,73.6112492 50.8633982,73.5972214 49.247949,73.5972214 C48.1381975,73.5972214 47.1388645,73.6037677 46.1933488,73.6168603 L46.1497382,73.6177955 L46.1497382,73.5719714 C46.1497382,71.0787671 46.1497382,68.5023313 46.2388152,65.9212195 C42.93183,69.3084611 37.6066932,73.504638 30.8897276,74.4575919 C28.8034408,74.8162502 26.6909539,74.9976903 24.5745365,75 L24.5745365,75 Z M28.8725038,29.2872015 C24.3982382,29.2872015 20.083569,29.884785 16.0491214,31.0621834 C12.6855352,32.0170077 9.56227147,33.6956655 7.01893637,35.9157957 C4.30301451,38.2864907 2.33496863,41.2220377 1.32542883,44.406344 C0.0774223756,48.4697246 -0.234347268,52.7351053 0.422595909,56.7414395 C1.13521224,61.086311 2.98356084,64.88971 5.76907414,67.7410903 C10.102301,72.3655822 16.7812233,74.9120921 24.5754644,74.9111571 C26.659496,74.9111571 28.7797152,74.7297309 30.8776651,74.3696845 C37.624323,73.4129898 42.9652339,69.1691185 46.256445,65.777201 L46.3353153,65.696775 L46.3316038,65.8099325 C46.2388152,68.4116183 46.2388152,71.0114337 46.2388152,73.5252121 C47.1713405,73.5121195 48.1567552,73.5055732 49.2507326,73.5055732 C50.8661819,73.5055732 52.5085398,73.5205362 54.0970804,73.5326936 C55.685621,73.5467214 57.3279789,73.5607491 58.944356,73.5607491 C61.6528548,73.5607491 63.870502,73.5205362 65.9155624,73.4335639 C65.7773074,63.35133 65.7949372,53.1007627 65.8116392,43.1877974 C65.8172065,39.8735003 65.8237017,36.4460458 65.8237017,33.0756376 C65.8237017,26.7696824 65.276249,18.6709767 61.0051905,11.9638269 C57.4912868,6.34990893 51.1779515,2.36882464 43.6824897,1.04179655 C40.196863,0.400916066 36.6607333,0.080079369 33.1175815,0.0832085004 C24.253488,0.0832085004 14.9662786,2.08920421 6.25621421,5.88605697 C7.04120563,8.48961315 7.90877889,11.137123 8.7475877,13.6967255 C9.58732438,16.2591335 10.4558255,18.909449 11.2417448,21.5167459 C16.410069,19.7080973 23.2179674,17.6404024 30.122366,17.6404024 C33.3365625,17.6404024 36.3763166,18.0995784 39.1562626,19.0057731 C41.6439245,19.8698844 43.6407348,21.7047182 44.9351356,24.3110799 C46.0541659,26.5667471 46.6164647,29.3479885 46.5171809,32.1413873 L46.5153252,32.1993688 L46.4605799,32.1816003 C40.5685048,30.2625999 34.6513768,29.2872015 28.8725038,29.2872015 L28.8725038,29.2872015 Z M30.7468332,60.7103664 C30.7459053,60.7103664 30.7459053,60.7103664 30.7468332,60.7103664 C27.757185,60.7103664 23.6744873,60.0417089 21.1988878,56.8602081 C19.6975685,54.7962539 19.2317698,51.9392625 19.9527371,49.2169377 C20.6495794,46.585326 22.327197,44.5064088 24.5559788,43.5123067 C27.3312854,42.2067879 30.4684674,41.5446766 33.8784479,41.5446766 C37.9017609,41.5446766 42.3268485,42.4836028 46.6730658,44.2595199 L46.6999745,44.2707421 L46.6999745,44.300668 L46.7027581,45.1563627 C46.7176043,48.2209653 46.7333783,51.3903086 45.1160733,54.0499759 C43.8894082,56.0811986 42.0763193,57.6953287 39.7278402,58.8474771 C37.6716452,59.855607 35.2554305,60.4672182 32.7408598,60.6177831 C32.0672147,60.6795053 31.3954254,60.7103664 30.7468332,60.7103664 L30.7468332,60.7103664 Z M33.8793758,41.6325841 C30.4814578,41.6325841 27.3572662,42.2918898 24.5930942,43.5927327 C22.3875096,44.5756126 20.7275218,46.6330205 20.0371748,49.2393822 C19.3227027,51.9364569 19.7838619,54.7644576 21.2684793,56.8069025 C23.7218094,59.9603477 27.7766706,60.622459 30.7459053,60.622459 L30.7468332,60.622459 C31.3926417,60.622459 32.0616474,60.5915979 32.7352925,60.5289405 C35.2405843,60.380246 37.6456644,59.7705051 39.6916527,58.7679863 C42.0243577,57.6233194 43.8253841,56.0204116 45.0436982,54.0032167 C46.6480129,51.3650586 46.6322388,48.2088079 46.6173926,45.1554275 L46.614609,44.3287236 C42.2860215,42.5658991 37.8832032,41.6325841 33.8793758,41.6325841 L33.8793758,41.6325841 Z" id="Shape"></path>
            </g>
            <g transform="translate(409, 78)">
                <path d="M9.03656871,0.591706968 C15.8549706,-1.65868308 23.7008029,3.31092827 24.7282333,10.3433972 C26.1292748,17.0008011 20.9921227,23.9395037 14.3605264,24.7824623 C8.10254106,25.9076573 1.56434747,21.4068772 0.350111518,15.1245383 C-1.14433273,8.93690339 2.96538895,2.18573325 9.03656871,0.591706968 L9.03656871,0.591706968 Z" id="Path"></path>
                <path d="M12.4112106,25 C6.69309333,25 1.37660791,20.6661238 0.307146246,15.133915 C-1.17982578,8.97628521 2.89440285,2.1594787 9.02536038,0.549512155 C10.1380491,0.183234382 11.3018772,-0.0022593457 12.4728565,2.07668909e-05 C15.3225748,2.07668909e-05 18.166689,1.0511616 20.4793415,2.95930483 C22.8349593,4.90307923 24.3592924,7.52290831 24.7702646,10.3368335 C25.425952,13.4508108 24.6628514,16.8460867 22.6761746,19.6506353 C20.6371922,22.5273839 17.6090745,24.4139609 14.3661305,24.8274701 C13.7272556,24.9418649 13.0687661,25 12.4112106,25 L12.4112106,25 Z M12.4728565,0.0881821953 C11.2978497,0.0881821953 10.1461936,0.271026386 9.0496451,0.633901781 C2.95978479,2.23261638 -1.08455496,8.99972678 0.392142762,15.1151617 C1.45413221,20.6089264 6.73232249,24.9118597 12.4102766,24.9118597 C13.0631619,24.9118597 13.7160473,24.8537246 14.3521201,24.7393298 C17.5726475,24.3286336 20.5802165,22.4561216 22.6042544,19.6000016 C24.5769208,16.8151439 25.3353513,13.4451848 24.684334,10.3527738 C24.2752299,7.55853948 22.7630391,4.95746366 20.4232999,3.02775419 C18.1265259,1.13180058 15.3029603,0.0881821953 12.4728565,0.0881821953 L12.4728565,0.0881821953 Z" id="Shape"></path>
            </g>
        </g>
    </g>
</svg>