<?xml version="1.0" encoding="UTF-8"?>
<svg id="microsoft" viewBox="0 0 694 147" version="1.1" xmlns="http://www.w3.org/2000/svg" xmlns:xlink="http://www.w3.org/1999/xlink">
    <g stroke="none" stroke-width="1" fill="none" fill-rule="evenodd">
        <g transform="translate(0, 0)" fill="currentColor" fill-rule="nonzero">
            <path d="M694,65.9463568 L694,53.7181094 L678.856719,53.7181094 L678.856719,34.707826 L678.346957,34.8652193 L664.12393,39.2291834 L663.843561,39.3146063 L663.843561,53.7187821 L641.394587,53.7187821 L641.394587,45.6944152 C641.394587,41.9580063 642.227646,39.098695 643.869616,37.1918148 C645.500183,35.3078038 647.832343,34.3499917 650.807072,34.3499917 C652.945389,34.3499917 655.159499,34.8551299 657.387695,35.8512814 L657.946421,36.1014964 L657.946421,23.2234974 L657.683491,23.1266399 C655.60487,22.3773403 652.777704,22 649.273091,22 C644.856273,22 640.84324,22.9638657 637.343322,24.874109 C633.841392,26.7870427 631.086666,29.5178834 629.156949,32.9899523 C627.233939,36.4579855 626.258014,40.4634427 626.258014,44.8960142 L626.258014,53.7181094 L615.713992,53.7181094 L615.713992,65.9463568 L626.258014,65.9463568 L626.258014,117.461716 L641.394587,117.461716 L641.394587,65.9463568 L663.843561,65.9463568 L663.843561,98.6834868 C663.843561,112.166172 670.185401,118.998655 682.692677,118.998655 C684.747822,118.998655 686.910956,118.757184 689.119701,118.284331 C691.368019,117.798699 692.899317,117.313739 693.80079,116.795821 L694,116.67744 L694,104.336193 L693.384261,104.744473 C692.562606,105.293332 691.539728,105.74197 690.340446,106.07559 C689.135799,106.415264 688.12969,106.585437 687.350291,106.585437 C684.420501,106.585437 682.252672,105.793762 680.90784,104.231264 C679.54758,102.65464 678.85739,99.8975675 678.85739,96.0407594 L678.85739,65.9463568 L694,65.9463568 Z M581.911414,106.587455 C576.417389,106.587455 572.085754,104.760616 569.03322,101.162095 C565.961904,97.5454123 564.405789,92.3891008 564.405789,85.8377736 C564.405789,79.0786065 565.961904,73.7884434 569.034561,70.107862 C572.089108,66.451495 576.379156,64.5957341 581.787998,64.5957341 C587.036533,64.5957341 591.214568,66.36809 594.207407,69.8663911 C597.215002,73.382853 598.741605,78.630641 598.741605,85.4685047 C598.741605,92.390446 597.306223,97.7075139 594.475703,101.264333 C591.664634,104.794247 587.437635,106.587455 581.911414,106.587455 M582.584166,52.182516 C572.102523,52.182516 563.777307,55.262447 557.841264,61.336886 C551.909245,67.4119976 548.90165,75.8190858 548.90165,86.3267689 C548.90165,96.3071173 551.837476,104.334847 557.628639,110.183286 C563.419802,116.033742 571.300989,118.99731 581.051526,118.99731 C591.211885,118.99731 599.371429,115.874331 605.304789,109.715814 C611.237478,103.564024 614.243061,95.2363049 614.243061,84.9741284 C614.243061,74.837732 611.422602,66.7501387 605.857478,60.9407123 C600.289671,55.1285954 592.458119,52.182516 582.584166,52.182516 M524.496801,52.182516 C517.366842,52.182516 511.469032,54.0113721 506.963676,57.6172926 C502.430819,61.2447369 500.131525,66.0021843 500.131525,71.7591463 C500.131525,74.7516365 500.627872,77.4098341 501.604469,79.6644593 C502.587102,81.9264832 504.107668,83.9181136 506.127934,85.5895765 C508.132774,87.2475869 511.227565,88.984294 515.328465,90.751269 C518.776065,92.1738621 521.347009,93.3771808 522.980259,94.3255762 C524.576619,95.2551383 525.709498,96.1894086 526.349383,97.0994647 C526.971158,97.9900147 527.286406,99.2088037 527.286406,100.712784 C527.286406,104.995361 524.088321,107.07914 517.507697,107.07914 C515.066877,107.07914 512.282638,106.567949 509.232787,105.560363 C506.204601,104.56801 503.34652,103.114771 500.758666,101.251553 L500.130184,100.799552 L500.130184,115.413586 L500.360918,115.521205 C502.502589,116.512648 505.202985,117.348716 508.385643,118.006539 C511.562264,118.665035 514.448455,119 516.955679,119 C524.692657,119 530.923154,117.1624 535.469425,113.534955 C540.044538,109.882624 542.363284,105.012849 542.363284,99.0567914 C542.363284,94.7600893 541.115038,91.0754722 538.654766,88.1038332 C536.211263,85.1564086 531.970178,82.4504549 526.054928,80.0586151 C521.342314,78.1618243 518.323316,76.5872188 517.077754,75.3785191 C515.87713,74.2108493 515.267428,72.5595651 515.267428,70.4683868 C515.267428,68.6146437 516.019998,67.1294969 517.56471,65.9268507 C519.121496,64.7181511 521.288655,64.1033756 524.006491,64.1033756 C526.52847,64.1033756 529.108804,64.5029124 531.675053,65.2858431 C534.239289,66.0687737 536.491632,67.1173897 538.371714,68.4000777 L538.990136,68.8238288 L538.990136,54.9611128 L538.752694,54.8588744 C537.018162,54.1129379 534.730941,53.4746207 531.952739,52.9567026 C529.187281,52.4421477 526.678716,52.182516 524.496801,52.182516 M460.671261,106.587455 C455.178577,106.587455 450.845601,104.760616 447.793738,101.162095 C444.721752,97.5454123 443.168319,92.390446 443.168319,85.8377736 C443.168319,79.0786065 444.723764,73.7884434 447.797091,70.107862 C450.848955,66.451495 455.138333,64.5957341 460.549858,64.5957341 C465.79638,64.5957341 469.974416,66.36809 472.967925,69.8663911 C475.976191,73.382853 477.502123,78.630641 477.502123,85.4685047 C477.502123,92.390446 476.06607,97.7075139 473.23555,101.264333 C470.424482,104.794247 466.199495,106.587455 460.671261,106.587455 M461.346025,52.182516 C450.861699,52.182516 442.535812,55.262447 436.603123,61.336886 C430.671105,67.4119976 427.661498,75.8190858 427.661498,86.3267689 C427.661498,96.311153 430.599336,104.334847 436.390499,110.183286 C442.181662,116.033742 450.062178,118.99731 459.812715,118.99731 C469.971733,118.99731 478.133288,115.874331 484.066648,109.715814 C489.997996,103.564024 493.00492,95.2363049 493.00492,84.9741284 C493.00492,74.837732 490.183791,66.7501387 484.617325,60.9407123 C479.048177,55.1285954 471.217966,52.182516 461.346025,52.182516 M404.684652,64.7571631 L404.684652,53.7181094 L389.732532,53.7181094 L389.732532,117.460371 L404.684652,117.460371 L404.684652,84.8537292 C404.684652,79.3093155 405.938264,74.754327 408.41195,71.3138712 C410.854112,67.9144454 414.108539,66.1918634 418.081999,66.1918634 C419.428843,66.1918634 420.94069,66.4145009 422.577964,66.8550675 C424.198471,67.2929437 425.372264,67.7684867 426.064467,68.2689166 L426.69295,68.7256262 L426.69295,53.6091449 L426.450813,53.5048886 C425.058358,52.911637 423.088397,52.6123208 420.59593,52.6123208 C416.838448,52.6123208 413.476032,53.8230383 410.595878,56.2068066 C408.067861,58.3020206 406.240767,61.1747843 404.843617,64.7571631 L404.684652,64.7571631 Z M362.955948,52.182516 C356.096297,52.182516 349.977813,53.6575736 344.773547,56.5653136 C339.558549,59.4797798 335.525394,63.6406124 332.781399,68.9314481 C330.049478,74.2095041 328.662389,80.3747469 328.662389,87.2502774 C328.662389,93.2729246 330.007221,98.7998502 332.665361,103.670971 C335.324843,108.550162 339.089032,112.367286 343.853964,115.014721 C348.612188,117.658794 354.11158,118.999327 360.200551,118.999327 C367.306363,118.999327 373.3732,117.574716 378.237402,114.765179 L378.433928,114.652179 L378.433928,100.915243 L377.805445,101.375316 C375.602067,102.984897 373.139783,104.269603 370.490363,105.195129 C367.84765,106.119983 365.438354,106.587455 363.325525,106.587455 C357.458569,106.587455 352.748637,104.746491 349.329879,101.117029 C345.903743,97.4828586 344.166528,92.3796841 344.166528,85.9581727 C344.166528,79.4963041 345.978195,74.2619685 349.54854,70.3997795 C353.108154,66.549025 357.826805,64.5957341 363.572358,64.5957341 C368.486864,64.5957341 373.275943,66.2645064 377.806787,69.5603487 L378.433928,70.0170582 L378.433928,55.5429299 L378.231365,55.4285843 C376.526346,54.4714448 374.200892,53.6811153 371.314031,53.0818101 C368.439242,52.4838502 365.627503,52.182516 362.955948,52.182516 M318.364529,53.7187821 L303.412408,53.7187821 L303.412408,117.460371 L318.364529,117.460371 L318.364529,53.7187821 Z M311.041397,26.5644052 C308.580455,26.5644052 306.434089,27.4045086 304.670715,29.0692453 C302.899963,30.7386903 302.001844,32.8406305 302.001844,35.3212562 C302.001844,37.7628699 302.889232,39.8264708 304.643215,41.4515228 C306.385796,43.0718664 308.538869,43.8931365 311.042068,43.8931365 C313.544596,43.8931365 315.705718,43.0718664 317.469092,41.4542132 C319.243868,39.8264708 320.144,37.7635426 320.144,35.3212562 C320.144,32.9273986 319.268015,30.8469822 317.542202,29.1365074 C315.817732,27.4293956 313.62978,26.5644052 311.041397,26.5644052 M273.734877,49.015817 L273.734877,117.460371 L288.994196,117.460371 L288.994196,28.5156783 L267.874628,28.5156783 L241.0303,94.5811722 L214.979456,28.5156783 L193,28.5156783 L193,117.460371 L207.339735,117.460371 L207.339735,49.0090908 L207.832058,49.0090908 L235.341089,117.460371 L246.162797,117.460371 L273.242555,49.015817 L273.734877,49.015817 L273.734877,49.015817 Z" id="Shape"></path>
            <polygon id="Path" points="70 70 0 70 0 0 70 0"></polygon>
            <polygon id="Path" points="148 70 78 70 78 0 148 0"></polygon>
            <polygon id="Path" points="70 147 0 147 0 77 70 77"></polygon>
            <polygon id="Path" points="148 147 78 147 78 77 148 77"></polygon>
        </g>
    </g>
</svg>