<?xml version="1.0" encoding="UTF-8"?>
<svg id="mozilla" viewBox="0 0 480 154" version="1.1" xmlns="http://www.w3.org/2000/svg" xmlns:xlink="http://www.w3.org/1999/xlink">
    <g stroke="none" stroke-width="1" fill="none" fill-rule="evenodd">
        <g transform="translate(0, 0)" fill="currentColor" fill-rule="nonzero">
            <path d="M418,96.6918823 C418,100.768519 419.943381,104 425.37993,104 C431.775869,104 438.590004,99.3599253 439,88.8286129 C436.015567,88.3449951 433.0019,88.0681545 429.980086,88 C423.559547,87.9917422 418,89.8146287 418,96.6918823 L418,96.6918823 Z" id="Path"></path>
            <path d="M0,0 L0,154 L480,154 L480,0 L0,0 Z M135.881773,116.143258 L109.332642,116.143258 L109.332642,80.4030398 C109.332642,69.4303115 105.67384,65.2055621 98.5055743,65.2055621 C89.7858439,65.2055621 86.268084,71.3974345 86.268084,80.2619381 L86.268084,102.373397 L94.6642468,102.373397 L94.6642468,116.159858 L68.1151154,116.159858 L68.1151154,80.4030398 C68.1151154,69.4303115 64.4646098,65.2055621 57.2880477,65.2055621 C48.5683173,65.2055621 45.0505574,71.3974345 45.0505574,80.2619381 L45.0505574,102.373397 L57.113819,102.373397 L57.113819,116.159858 L18.4350532,116.159858 L18.4350532,102.373397 L26.872699,102.373397 L26.872699,66.475477 L17.7464351,66.475477 L17.7464351,52.6890158 L45.017371,52.6890158 L45.017371,62.2507276 C48.8172155,55.5027487 55.4296085,51.419101 64.2820845,51.419101 C73.4083485,51.419101 81.8625875,55.784952 84.9572206,65.0727606 C88.4749806,56.6315619 95.643246,51.419101 105.632357,51.419101 C117.023593,51.419101 127.435831,58.3164816 127.435831,73.3728576 L127.435831,102.373397 L135.873477,102.373397 L135.881773,116.143258 Z M176.24475,117.545974 C156.697952,117.545974 143.191081,105.585534 143.191081,85.3249973 C143.191081,66.7493802 154.441276,51.4108009 177.207156,51.4108009 C199.973036,51.4108009 211.107092,66.7493802 211.107092,84.4783874 C211.123671,104.747224 196.496759,117.554274 176.24475,117.554274 L176.24475,117.545974 Z M277.231009,116.143258 L221.809697,116.143258 L219.984444,106.573246 L254.830179,66.4671769 L235.001296,66.4671769 L232.188748,76.319392 L219.105004,74.9166756 L221.353383,52.6807157 L277.10656,52.6807157 L278.508686,62.2507276 L243.331086,102.373397 L263.831994,102.373397 L266.785585,92.5211814 L281.130412,93.9238978 L277.231009,116.143258 Z M311.545761,116.143258 L292.554835,116.143258 L292.554835,93.3511911 L311.545761,93.3511911 L311.545761,116.143258 Z M311.545761,75.4727821 L292.554835,75.4727821 L292.554835,52.6890158 L311.545761,52.6890158 L311.545761,75.4727821 Z M321.501685,116.143258 L348.955146,19.3724264 L366.817734,19.3724264 L339.389163,116.143258 L321.501685,116.143258 Z M358.355198,116.143258 L385.792066,19.3724264 L403.654654,19.3724264 L376.242676,116.143258 L358.355198,116.143258 Z M452.870106,117.545974 C444.43246,117.545974 439.794659,112.615716 438.948405,104.880026 C435.289603,111.354102 428.818253,117.545974 418.555354,117.545974 C409.42909,117.545974 399.008556,112.615716 399.008556,99.3936617 C399.008556,83.7728792 414.058595,80.1208365 428.544465,80.1208365 C432.023595,80.0908725 435.501176,80.2793785 438.956702,80.6852431 L438.956702,78.5770184 C438.956702,72.1029428 438.81566,64.3672523 428.544465,64.3672523 C424.74462,64.3672523 421.791029,64.6494556 418.837438,66.1932737 L416.4895,75.1988789 L402.00363,73.6467608 L404.816178,57.1876684 C415.925331,52.6807157 421.550428,51.3776005 431.962665,51.3776005 C445.610578,51.3776005 457.142857,58.4160828 457.142857,72.9080522 L457.142857,100.489275 C457.142857,104.149617 458.544983,105.419532 461.506871,105.419532 C462.412948,105.406065 463.312487,105.263531 464.178377,104.996227 L464.319419,114.566239 C460.811252,116.477935 456.889515,117.503657 452.894996,117.554274 L452.870106,117.545974 Z" id="Shape"></path>
            <path d="M177.272678,65 C167.851439,65 162,71.8401648 162,83.7239211 C162,94.6187378 167.135796,103 177.154807,103 C186.719174,103 193,95.4593364 193,83.4437215 C192.974742,70.7276079 185.986692,65 177.272678,65 L177.272678,65 Z" id="Path"></path>
        </g>
    </g>
</svg>