<?xml version="1.0" encoding="UTF-8"?>
<svg id="navy" viewBox="0 0 389 122" version="1.1" xmlns="http://www.w3.org/2000/svg" xmlns:xlink="http://www.w3.org/1999/xlink">
    <g stroke="none" stroke-width="1" fill="none" fill-rule="evenodd">
        <g transform="translate(1, 1)" fill="currentColor">
            <path d="M1.3164331,0.45738561 C1.38294122,0.660695701 1.49680169,1.53018482 1.56935277,2.38980697 C1.90087241,6.27833277 3.79123125,8.47426212 9.80087953,11.957158 C10.3097463,12.251263 11.3133696,12.883892 12.0328316,13.3625516 C12.7522995,13.8412171 13.4082807,14.2330309 13.4909054,14.2330309 C13.5725269,14.2330309 13.7418127,14.3258004 13.8667618,14.4392999 C14.2698234,14.8054502 15.0850169,15.3334623 15.7964177,15.6887613 L16.4917019,16.0351777 L16.9038338,15.3403763 C17.1305575,14.957445 17.3713853,14.4689126 17.4388966,14.253761 C17.5799682,13.8066768 18.8435692,11.9334749 19.1760921,11.676875 C19.5458996,11.3926369 19.0813696,10.6702033 18.213784,10.1777216 C17.7895602,9.93690649 17.0922637,9.45627231 16.6640092,9.10887158 C16.2347457,8.76048062 15.8347115,8.47624848 15.7732431,8.47624848 C15.7117748,8.47624848 15.0940814,8.06568504 14.4018246,7.56432082 C13.7095678,7.06197225 12.7492721,6.39677756 12.2696288,6.08391709 C11.7889764,5.77204684 10.8296898,5.10981107 10.137433,4.61239598 C9.44416707,4.11498089 8.46170593,3.43103662 7.95384833,3.09251262 C7.44599073,2.75497885 6.95425559,2.41942554 6.86256055,2.34737433 C6.76985639,2.275329 6.35369382,2.00194816 5.93854039,1.73843428 C5.52338695,1.4749204 4.88957113,0.995270563 4.53185545,0.67353336 C3.68643524,-0.0883799449 1.08366061,-0.263067597 1.3164331,0.457397398 M129.207881,0.323173718 C129.207881,0.452463918 129.057739,0.605437182 128.87334,0.662682061 C128.688941,0.71992694 128.443073,0.854144725 128.327188,0.961726431 C127.901955,1.35452462 126.333043,2.44903821 123.921725,4.03504318 C123.368522,4.39823459 121.090215,5.98029042 120.894733,6.13622848 C120.803038,6.21024838 120.198445,6.63265923 119.551528,7.07578835 C118.904612,7.51892336 118.048109,8.10713335 117.647059,8.38446334 C117.247019,8.66080309 116.764355,8.97366356 116.574916,9.07828046 C116.385477,9.18289737 116.184955,9.33389606 116.127517,9.41284943 C116.071089,9.4918028 115.599507,9.82933658 115.079557,10.1629212 C113.749454,11.0176099 113.72527,11.2663174 114.838729,12.6707267 C115.125912,13.0329338 115.571292,13.7731327 115.829252,14.3159452 C116.521509,15.77266 116.535619,15.7923998 116.885273,15.843721 C117.061611,15.8693786 117.583579,15.654227 118.043069,15.3640711 C118.503568,15.0739094 119.295581,14.5794591 119.803439,14.2646241 C120.311297,13.949789 121.268571,13.3507218 121.930595,12.9342347 C122.592625,12.5177475 124.135342,11.5475907 125.358637,10.7787693 C128.228435,8.97563813 130.712304,6.62969443 130.720365,5.7157922 C130.721374,5.65065493 130.836244,5.3831978 130.975303,5.12165849 C131.398518,4.32618927 131.895293,2.1490095 131.895293,1.08805183 L131.895293,0.0872979396 L130.552088,0.0872979396 C129.497076,0.0872979396 129.207875,0.137628873 129.207875,0.323173718 M152.761785,0.996260796 C152.554205,1.49565045 152.383916,2.0552439 152.383916,2.23979851 C152.383916,2.42534336 152.295243,2.73820383 152.186416,2.93559021 C152.07658,3.13297659 151.894193,3.66493783 151.779324,4.11694957 C151.665457,4.56995154 151.492141,5.16211657 151.395406,5.43352284 C150.847242,6.96228883 150.368608,8.51572221 150.367599,8.7654141 C150.367599,8.92332084 150.253733,9.26578809 150.11468,9.52634306 C149.97562,9.78689214 149.814396,10.3050373 149.755955,10.6771113 C149.698517,11.0501756 149.557445,11.5396924 149.444588,11.7657012 C149.330722,11.9926943 149.18562,12.4624772 149.12113,12.8108682 C149.05664,13.1592592 148.904486,13.6773984 148.781549,13.9616364 C148.372438,14.9189615 148.19207,15.9443887 148.408714,16.0825616 C148.783561,16.3223865 151.580809,16.1496734 151.714828,15.8782671 C151.782339,15.7420689 151.99798,15.2782097 152.194471,14.8459319 L152.552187,14.0603296 L155.010863,14.1057271 C157.642855,14.1540893 157.633785,14.1511245 157.826251,15.0591089 C158.01569,15.9611696 158.482232,16.2079026 159.989683,16.2049699 C161.794389,16.2009946 161.850818,16.1605306 161.53643,15.0877314 C161.39838,14.6179485 161.172665,13.845178 161.035624,13.3694773 C160.897574,12.8947609 160.713175,12.3578662 160.625511,12.1772607 C160.536837,11.9966494 160.392744,11.515025 160.303061,11.1084107 C160.214388,10.7008062 160.060215,10.1461462 159.961468,9.87473992 C159.862715,9.60333365 159.584603,8.71508906 159.344784,7.90087025 C159.103956,7.08664554 158.827856,6.23492167 158.73213,6.00891286 C158.635396,5.78290404 158.46107,5.22725973 158.343173,4.7752421 C158.12552,3.94128347 158.022736,3.61855604 157.504805,2.14308579 C157.345593,1.69106815 157.179334,1.04363871 157.133988,0.704136265 L157.051358,0.0873038339 L155.0955,0.0873038339 L153.139642,0.0873038339 L152.761773,0.996272584 M183.124403,3.33629847 C182.806993,8.103196 182.642741,15.9325531 182.858382,16.0815831 C183.092158,16.2424547 185.832977,16.2365309 186.092954,16.0746751 C186.229995,15.989798 186.312626,15.3009202 186.344871,13.9803978 C186.390217,12.1239709 186.412382,12.009487 186.744911,11.9630994 C187.045195,11.9216451 187.137899,12.0578434 187.361595,12.868119 C188.272514,16.1526382 188.314839,16.2088928 189.895843,16.2049496 C191.301519,16.2010005 191.173548,16.3460813 191.938356,13.9044033 C193.042745,10.379069 193.103204,10.3820279 193.264429,13.9744741 C193.324888,15.3058478 193.421623,15.9779505 193.567734,16.0687513 C193.845847,16.2414644 196.571552,16.2424547 196.849665,16.0697357 C197.050186,15.945379 196.869818,9.53523747 196.453655,1.93780702 L196.351881,0.0873038339 L194.372848,0.0873038339 C192.460318,0.0873038339 192.390794,0.100135599 192.300103,0.457403293 C191.5625,3.36491501 191.203775,4.6874061 190.368428,7.57123476 C190.185033,8.2048481 189.986529,9.00031732 189.927073,9.33982567 C189.808167,10.0257445 189.545174,10.1570093 189.434329,9.58655864 C189.394023,9.38324855 189.279147,8.86510931 189.178382,8.43480606 C189.077616,8.00548715 188.91337,7.30180306 188.812605,6.87249005 C188.567746,5.82436414 188.060892,3.79522416 187.817043,2.8832965 C187.708216,2.47667631 187.5349,1.68120709 187.433125,1.11569582 L187.246708,0.0873038339 L185.293871,0.0873038339 L183.341035,0.0873038339 L183.124391,3.33629847 M217.586157,8.10615491 L217.629484,16.125006 L222.312051,16.1684289 C227.780587,16.21975 227.454107,16.3204178 227.454107,14.5755158 C227.454107,12.8700935 227.540769,12.9174656 224.407971,12.9174656 C221.396092,12.9174656 221.561347,13.0013524 221.446477,11.4163377 C221.32858,9.80861832 221.352764,9.7918433 223.83059,9.7918433 C226.280195,9.7918433 226.279192,9.79282764 226.279192,8.20485399 C226.279192,6.19940297 226.248959,6.17373944 223.926321,6.17373944 C221.583524,6.17373944 221.408195,6.07208734 221.408195,4.71011662 C221.408195,3.18924892 221.36184,3.21293788 224.427127,3.21293788 C227.519618,3.21293788 227.323127,3.32841197 227.423893,1.45027068 L227.496444,0.0873156223 L222.519642,0.0873156223 L217.542841,0.0873156223 L217.586168,8.1061667 M247.984064,8.1061667 L248.027392,16.1250178 L249.495545,16.1723898 C251.745638,16.2454254 251.63782,16.4072812 251.63782,12.9293189 C251.63782,9.75829328 251.627741,9.7918492 252.560832,9.7918492 C252.929636,9.7918492 253.821405,10.985056 253.821405,11.4785219 C253.821405,11.5683325 254.018905,12.0963446 254.259733,12.6500143 C254.50157,13.2046743 254.75852,13.805716 254.83309,13.9863274 C255.755092,16.2493686 255.690602,16.2019966 257.799623,16.2050535 C259.777646,16.2079144 259.857255,16.1506754 259.36048,15.0926766 C259.15895,14.6653323 258.899981,14.0938973 258.784102,13.8224911 C258.667215,13.5510848 258.421347,12.9954405 258.236948,12.5888203 C258.051539,12.1812158 257.72506,11.4577919 257.509419,10.9801166 L257.118449,10.1126021 L257.821794,9.41187688 L258.524131,8.71016737 L258.524131,4.91836019 C258.524131,1.33381225 258.504987,1.10878777 258.187571,0.82751454 C258.003172,0.663684082 257.852021,0.42977698 257.852021,0.308385065 C257.852021,0.1277737 256.936062,0.0873097281 252.896376,0.0873097281 L247.939727,0.0873097281 L247.984064,8.10616081 M280.355953,8.06174769 L280.355953,16.0361857 L280.733827,16.1289551 C280.94241,16.1802763 281.791867,16.2000161 282.623177,16.1733682 L284.134658,16.125006 L284.178995,8.10615491 L284.222322,0.0873038339 L282.289639,0.0873038339 L280.355953,0.0873038339 L280.355953,8.0617418 M305.883861,0.351802052 C305.883861,0.496882926 305.697444,0.831451893 305.47072,1.09694034 C304.871168,1.79371638 304.852018,2.04933198 304.908446,8.61936067 L304.959835,14.6021637 L305.883855,15.4025664 L306.806866,16.2039594 L310.547278,16.2049437 L314.28769,16.2069183 L315.040406,15.5279075 L315.792118,14.849881 L315.792118,13.4030332 C315.792118,11.3689598 315.847538,11.4370559 314.16778,11.4370559 C312.520267,11.4370559 312.185726,11.5683207 311.854207,12.3479993 L311.610351,12.9174597 L310.451546,12.9174597 C309.452963,12.9174597 309.229261,12.861205 308.847361,12.5138043 L308.402984,12.1111332 L308.402984,8.16832738 C308.402984,3.23266591 308.411046,3.21292609 310.557352,3.21292609 C311.616394,3.21292609 311.858231,3.35405782 311.954966,4.02813513 C312.042631,4.63904974 315.04947,5.02592421 315.590582,4.49594344 C315.96442,4.12979312 315.856602,1.18181154 315.456562,0.827502751 C315.271154,0.663672293 315.120003,0.429765192 315.120003,0.308373276 C315.120003,0.128752144 314.25846,0.0872979396 310.501926,0.0872979396 C306.373566,0.0872979396 305.88385,0.114930146 305.88385,0.351796158 M341.319012,0.411009713 C341.319012,0.588656275 341.214216,0.977511212 341.087249,1.27458101 C340.959278,1.57165081 340.775882,2.11051421 340.679147,2.47272128 C340.582413,2.83393811 340.341585,3.64816282 340.143075,4.28177615 C339.943557,4.91538949 339.665444,5.84014892 339.525382,6.337564 C339.38431,6.83497909 339.209985,7.3166035 339.137434,7.4074043 C339.065892,7.49721487 338.955047,7.8307995 338.891566,8.14760322 C338.828085,8.4634226 338.629576,9.20362152 338.449208,9.79183741 C337.606809,12.5424267 337.395199,13.2046625 337.184603,13.7395768 C336.312981,15.9532714 336.445991,16.2009946 338.506645,16.2049437 L339.975808,16.2069183 L340.491727,15.1380682 L341.007645,14.0692181 L343.446168,14.0692181 C345.764781,14.0692181 345.88973,14.0859932 345.975382,14.4067519 C346.024759,14.5922968 346.225281,15.0551657 346.421772,15.4341537 L346.777475,16.125006 L348.37259,16.125006 C350.212569,16.125006 350.337518,15.9858488 349.796406,14.5478836 C349.646264,14.1491617 349.453804,13.4889005 349.369161,13.0822862 C349.284518,12.6746817 349.138407,12.1940417 349.04369,12.0124459 C348.949977,11.8318346 348.766587,11.3136953 348.635589,10.8616777 C348.5056,10.4086757 348.241598,9.53918662 348.050141,8.928272 C347.139221,6.02766833 346.990089,5.53222782 346.753291,4.61240187 C346.614232,4.07057367 346.438903,3.55243443 346.364334,3.46163363 C346.289765,3.36984849 346.14769,2.96224397 346.048937,2.55463945 C345.950184,2.14703493 345.73354,1.42656994 345.567275,0.952843809 L345.265988,0.0912470818 L343.292999,0.0891558103 C341.441937,0.0872979396 341.319006,0.107037756 341.319006,0.411015608 M359.793337,2.02959216 C359.793337,4.60056034 359.801398,4.6104273 361.786479,4.6104273 C363.764503,4.6104273 363.727224,4.65681499 363.795744,2.1351934 L363.851164,0.0873038339 L361.821746,0.0873038339 L359.793337,0.0873038339 L359.793337,2.02959216 M376.923454,0.61630027 C376.11431,1.59928891 376.09516,1.69107405 376.089117,4.62720821 C376.084077,7.21890055 376.24228,8.47625437 376.5738,8.47625437 C376.641311,8.47625437 376.992984,8.7713496 377.355739,9.1315821 L378.014748,9.78690982 L380.387772,9.78986873 C383.258579,9.79282764 383.197111,9.75137933 383.015733,11.5416787 L382.884735,12.8355533 L381.627183,12.8839155 C379.977652,12.9490528 379.609857,12.8523342 379.609857,12.3519602 C379.609857,11.4992461 379.50103,11.4370736 378.022803,11.4370736 C376.275528,11.4370736 376.083068,11.5989295 376.083068,13.0645328 C376.083068,14.167929 376.235222,14.5765179 376.882139,15.2199982 C377.872661,16.2039711 377.880723,16.2059457 381.793448,16.1950885 C385.851269,16.183247 385.772675,16.1970052 386.482063,15.3206659 L387,14.6811289 L387,11.3650283 C387,6.51720282 386.79242,6.27243852 382.549191,6.08788391 C379.513128,5.95661914 379.218893,5.72962598 379.715668,3.91267872 C379.971615,2.9770621 382.734599,2.93956293 383.052009,3.86629103 C383.285785,4.54925096 383.581029,4.65386787 385.328298,4.67656659 C386.959688,4.69729075 387,4.6518933 387,2.79053291 C387,1.53218886 386.944575,1.21439491 386.663435,0.865019602 C386.479036,0.635061642 386.327884,0.365629944 386.327884,0.266936755 C386.327884,0.141595697 384.976619,0.0902745319 381.83576,0.0961982451 L377.342633,0.105080868 L376.923448,0.616312058 M254.569064,3.4034162 C255.105136,3.64225679 255.243186,6.21026016 254.731298,6.40271306 C254.247624,6.58430877 252.04892,6.51028887 251.839328,6.30500421 C251.498738,5.97043524 251.573307,3.59487887 251.932032,3.39058444 C252.334084,3.16062648 254.045084,3.1695091 254.569064,3.4034162 M155.829048,8.61542332 C155.98423,9.21745531 156.123283,9.96851142 156.137393,10.285321 L156.162586,10.8616895 L155.026962,10.9100518 C153.473156,10.9761793 153.480214,11.0038115 154.305481,8.1476209 C154.723656,6.70077309 154.694439,6.73630359 155.145868,7.1518005 C155.394757,7.38076822 155.653725,7.93641253 155.82906,8.61542332 M343.652744,7.30773267 C343.828079,7.47847118 344.023561,7.92555533 344.088051,8.29960394 C344.152541,8.67463687 344.316787,9.19969006 344.453828,9.46714719 C344.99393,10.5271146 344.746051,10.8616895 343.418969,10.8616895 C342.000192,10.8616895 341.9095,10.6820684 342.471774,8.9697321 C342.664234,8.38151622 342.863753,7.69658761 342.914133,7.44788006 C343.020947,6.91690906 343.21542,6.87940399 343.652744,7.30773267 M132.33057,10.5330383 C131.99401,10.7570726 131.512354,11.0541424 131.260438,11.1932996 C131.009531,11.3334469 130.577246,11.5930058 130.300142,11.7716426 C130.023039,11.9492891 129.550448,12.2078695 129.250164,12.3440678 C128.94988,12.4812504 128.704013,12.6470554 128.704013,12.7141673 C128.704013,12.7802948 128.306994,13.0526854 127.822317,13.3181738 C127.337634,13.5836623 126.59701,14.0277816 126.176816,14.3051116 C125.199389,14.9495821 124.920273,15.1272287 124.021446,15.6759649 C123.386621,16.0628453 121.964823,16.9540488 120.879578,17.6449011 C120.70324,17.7574104 120.29413,17.9952608 119.97168,18.1748878 C118.169995,19.1736671 117.54021,19.7490512 117.427353,20.499123 C117.367902,20.8978449 117.187528,21.9874191 117.026303,22.9210612 C116.692771,24.8594004 116.751212,25.0123795 117.706468,24.6827381 C119.620002,24.0224769 128.402714,19.5072459 129.528265,18.6051911 C131.005488,17.4208669 132.141113,15.7934136 132.633857,14.151154 C133.130632,12.4980372 133.23845,11.9581836 133.23845,11.1400156 C133.23845,10.106696 133.105439,10.0178698 132.330552,10.5330501 M0.369191162,10.4057345 C-0.358337955,10.569565 0.0406930167,13.2214611 1.11687336,15.3848248 C2.41070106,17.9834251 3.48586637,18.8312058 8.79318425,21.4436223 C11.2407772,22.6476862 13.3568506,23.6987711 13.4959039,23.779699 C13.6339539,23.8596426 14.2012616,24.1182171 14.7554743,24.3531086 C15.3096869,24.5889843 15.9041998,24.8564474 16.0765071,24.9492168 C16.5883954,25.2225977 16.7133445,24.8969113 16.4362411,24.0106413 C16.2961787,23.5635571 16.1339449,22.5322121 16.075498,21.7179874 C15.9394662,19.8240555 16.0049593,19.9197898 14.0027523,18.669344 C13.0656312,18.0840929 11.755681,17.2639504 11.0916385,16.8474632 C7.78149376,14.7679923 6.66501316,14.0712163 5.18879862,13.1642221 C4.30407549,12.6214096 2.95885891,11.7815272 2.19909077,11.2979282 C0.549559747,10.2498023 0.712802641,10.3287557 0.369191162,10.4057404 M21.834239,13.9054113 C21.5893805,14.1896493 21.388853,14.4857289 21.388853,14.5636979 C21.388853,14.6406767 21.2911091,14.8015482 21.1701906,14.9209656 C19.3261809,16.7546938 19.0490775,21.8433285 20.6270666,24.8909876 C21.4029631,26.3881664 24.8209253,29.495039 27.3602133,31.0109732 C27.5879461,31.1471715 27.8156729,31.3879808 27.8670618,31.5458934 C27.9194598,31.7038001 28.0696017,31.8340806 28.2026121,31.8340806 C28.3346133,31.8340806 28.4424367,31.9081005 28.4424367,31.997911 C28.4424367,32.2229296 28.2519886,32.2051703 27.5385696,31.9130339 C27.2030193,31.7758514 26.7455474,31.7087395 26.5228544,31.7630196 C25.4597809,32.0245589 25.931363,37.1763622 27.2322428,39.5015818 C27.3904459,39.7838452 27.6836717,40.3019845 27.8841934,40.6533344 C28.2721417,41.3323451 29.8984922,42.9400645 30.6683399,43.4058982 C30.9222687,43.5588715 31.1298483,43.7888295 31.1298483,43.9161451 C31.1298483,44.0434607 31.2618495,44.179659 31.4240833,44.2191327 C31.5853079,44.2586123 31.3857895,44.2576221 30.9807155,44.2171581 C29.9136115,44.1105667 29.6465817,44.886302 30.1907148,46.5088218 C30.3207037,46.8966865 30.4809192,47.4720706 30.545409,47.7888743 C30.9212654,49.6206279 32.5012669,51.9803877 34.3634114,53.4884296 L35.7035941,54.5740605 L35.1796141,54.8987625 C34.5367279,55.2974844 34.5296758,55.1780671 35.2823977,56.6673534 C36.8049614,59.6765173 41.0713712,62.4350049 44.3009037,62.4981676 C45.2390281,62.5159328 45.2924352,62.1902465 45.1896574,57.0828504 C45.0677298,51.0467516 44.7886082,50.219701 42.8539126,50.1516048 C39.3583595,50.0272481 37.5496221,47.8925069 38.2358359,44.6997728 C38.3859778,44.0020065 38.544181,43.2450326 38.5875086,43.0190238 C38.6822311,42.5235833 39.2827928,40.8339457 39.6193463,40.1154612 C39.7533657,39.8302388 39.8632015,39.4581648 39.8632015,39.2884106 C39.8632015,39.1186564 39.9740464,38.8245514 40.1090691,38.6350575 C40.2451009,38.4455635 40.4012917,37.9669039 40.455702,37.5701565 C40.5111215,37.1743935 40.6713429,36.4045879 40.8124145,35.8597948 C41.2074149,34.3290602 40.8275278,30.615222 40.1372834,29.2710166 C40.0022548,29.0075027 39.8087852,28.6058219 39.709029,28.3798131 C38.249946,25.0913447 34.5639449,21.3686239 29.2828348,17.8521722 C29.0782825,17.7159739 28.3336218,17.1968444 27.6272608,16.6974548 C26.921903,16.1980651 25.9273501,15.5141208 25.4194925,15.1775714 C24.9116349,14.8410279 24.1941852,14.3465717 23.8243777,14.0781243 C22.7844788,13.3241034 22.3642856,13.2875886 21.8342626,13.9054113 M109.205923,14.2409705 C108.522731,14.6969372 107.283319,15.5466865 106.452003,16.1279885 C105.620687,16.7092963 104.52436,17.4554189 104.016502,17.787029 C103.508644,18.1186391 103.055197,18.4354428 103.008848,18.4907131 C102.962493,18.5469677 102.54734,18.848971 102.085837,19.1628158 C100.982457,19.9128876 101.049969,19.8625508 99.9858862,20.7478365 C97.7488944,22.6111714 95.2227074,25.3430052 94.4437894,26.7405065 C93.4784539,28.4745512 92.8849502,29.8493537 92.5665315,31.0938817 C92.3327558,32.0038347 92.4748365,37.0687864 92.7469001,37.5622583 C92.8627788,37.7734607 93.0582667,38.2916059 93.1801943,38.7140108 C93.3021219,39.1364217 93.6034089,40.0009773 93.8492765,40.6336004 C94.0951441,41.2672138 94.3702351,42.0814326 94.4589086,42.4436396 C94.5485913,42.8048565 94.7329905,43.3802406 94.8690223,43.7217235 C96.1830031,47.0180902 94.0326666,50.1368044 90.4685989,50.105223 C88.4301164,50.0874578 88.0139538,51.5264073 88.0955753,58.316527 L88.1459609,62.5110052 L88.7596237,62.5613362 C89.0971863,62.5889684 89.6544204,62.4961989 89.9980319,62.3550672 C90.3416434,62.2149198 90.7668704,62.0994516 90.9432142,62.0994516 C93.8895945,62.0994516 99.6856201,56.2261989 98.0381073,54.9096256 L97.5514119,54.5197863 L98.0290429,54.1565949 C100.101789,52.5824315 102.337771,49.7854604 102.337771,48.7679256 C102.337771,48.6721913 102.481864,48.2833423 102.658208,47.90337 C103.242647,46.6460161 103.313186,44.5527232 102.778118,44.3148729 C102.238015,44.0730734 102.209801,43.6338875 102.71564,43.3032618 C103.913742,42.5176595 105.406079,40.784605 106.003613,39.4828322 C106.211193,39.0298302 106.490309,38.4524715 106.624328,38.1978403 C106.969952,37.5415282 107.254113,34.2945081 107.08684,32.9029306 L106.94879,31.7511781 L106.280717,31.7926323 C105.912922,31.815331 105.587451,31.9071161 105.556215,31.9979169 C105.525982,32.0887177 105.299265,32.160763 105.052388,32.1577982 C104.631186,32.1528648 104.625143,32.1410232 104.94054,31.9623864 C105.124939,31.8587598 105.541102,31.5074099 105.86456,31.1817176 C106.187009,30.8570156 107.207764,30.0418066 108.131785,29.3687195 C110.0161,27.9968818 111.89134,26.2440816 112.269215,25.5009179 C112.407265,25.2295116 112.602747,24.8594122 112.704521,24.6788008 C114.068888,22.2460054 113.95603,17.2146097 112.500972,15.5496454 C112.383075,15.4134472 112.237973,15.1499392 112.180535,14.9634041 C112.036442,14.4965861 110.996543,13.4109551 110.69525,13.4109551 C110.559219,13.4109551 109.889127,13.7840193 109.205935,14.2409705 M64.802652,16.8593107 C60.3619224,17.168222 57.3127586,18.6575083 56.0320319,21.1416249 C55.6773377,21.8295183 55.4647242,22.058486 55.1452964,22.0969813 C53.6146715,22.2815359 52.2281396,23.0217407 51.484488,24.0501268 C50.5403148,25.3578175 51.1559899,30.1395213 52.1747325,29.4121483 C53.2106007,28.6719494 57.171687,28.0689272 57.3863188,28.6186536 C57.4427474,28.7617599 57.3853097,29.1180433 57.2603606,29.4101737 C57.1344024,29.7032944 56.9530246,30.2382145 56.8562899,30.6004157 C56.6638294,31.321865 56.1086077,33.1121644 55.836544,33.8898743 C55.7418216,34.1612806 55.5060335,34.9389846 55.3135731,35.617011 C55.1211127,36.2960218 54.8822972,37.0727414 54.7825409,37.3441477 C54.6837879,37.615554 54.494349,38.2442338 54.3623478,38.7426333 C54.2293374,39.2400484 54.0489688,39.7947083 53.9602953,39.976304 C53.7809299,40.34147 53.3798866,41.6777831 53.0715415,42.9371115 C52.9606967,43.3891291 52.7803281,43.916151 52.6694891,44.1086039 C52.5596533,44.3010568 52.4185818,44.781691 52.3561102,45.1774539 C52.2946418,45.5742013 52.1344263,46.1101058 52.001416,46.3686862 C51.8301119,46.7002962 51.8109679,46.8917648 51.935917,47.014141 C52.1666712,47.2401499 60.8738107,47.1789617 61.6950472,46.9460449 C62.0739251,46.838469 64.4620679,46.8147801 68.4130747,46.8779487 C71.7846878,46.933219 76.1679797,46.9934228 78.1540642,47.0131567 L81.7644869,47.0486872 L81.7352634,46.5552212 C81.7010002,45.9689799 81.2394977,44.1579564 80.9190608,43.3476808 C80.7931025,43.0308771 80.6419574,42.512732 80.5825014,42.1969126 C80.5230513,41.8801088 80.3719002,41.2879438 80.2479603,40.8803393 C80.1230112,40.4737191 79.8630335,39.5854804 79.6695639,38.9064696 C79.4760944,38.2284432 79.172789,37.1921647 78.9954419,36.6039488 C78.4039505,34.6379715 77.9847665,33.0697318 77.9837574,32.8210242 C77.9837574,32.684826 77.869891,32.360124 77.7308377,32.0995749 C77.5927876,31.8390258 77.431563,31.3208807 77.373122,30.9488067 C77.3156843,30.5757424 77.1917443,30.1257052 77.098031,29.9480528 C76.9368064,29.6430906 76.5962164,28.4814652 76.0591412,26.4059434 C75.775989,25.31242 74.5174277,21.8245907 74.3148937,21.5699594 C74.2342814,21.470276 74.1173935,21.1741965 74.0529037,20.9116728 C73.9279546,20.4034005 72.79233,18.8785837 71.9993019,18.1551598 C70.7820559,17.0458457 68.367717,16.6106031 64.8026343,16.8593107 M68.858443,18.7552113 C70.0928206,19.1144536 72.1081285,21.2847253 72.1081285,22.2558724 C72.1081285,22.3733152 72.2139337,22.6338701 72.3429134,22.8342154 C72.4729022,23.0345607 72.628078,23.4569716 72.6885372,23.7737753 C72.7489965,24.090579 72.9364231,24.7567639 73.1036907,25.254179 C73.5097737,26.4542939 74.0005056,28.0195747 74.4448766,29.5305695 C74.6443951,30.2095803 74.8882444,30.9862999 74.9859883,31.2577062 C75.1744181,31.7768357 75.4505182,32.7381099 75.8858247,34.3833285 C76.0289146,34.926141 76.2687333,35.7462835 76.4198843,36.2061995 C77.1433828,38.419894 76.6042835,38.1800691 73.7123196,35.0001668 C73.1188099,34.3478039 72.1081344,33.9954638 72.1081344,34.4405733 C72.1081344,34.5165678 71.9751241,34.7327038 71.8138995,34.9192389 C71.6526748,35.105768 71.2677481,35.5607446 70.9583998,35.9308499 C70.2036655,36.8358695 69.9870214,36.7904721 68.7778366,35.4719242 C67.3328579,33.8948019 67.3016221,33.8948019 65.7236389,35.4956132 C64.3219937,36.9167975 63.7697993,37.0697766 63.4624634,36.1203439 C63.4020041,35.9338147 63.296199,35.7818258 63.2266694,35.7818258 C63.1581489,35.7818258 62.8467824,35.4482412 62.5354158,35.0416269 C61.6869682,33.9323129 61.4904772,34.0033679 59.591048,36.1075181 C57.5928716,38.3212126 57.2855357,38.3143046 57.987872,36.0729778 C58.1662282,35.505492 58.472555,34.4859885 58.6690461,33.807962 C58.8645339,33.1289512 59.1295454,32.2407066 59.2555036,31.8340924 C59.382471,31.4264878 59.532607,30.8195224 59.5890356,30.4839632 C59.6464734,30.148404 59.8439736,29.5374894 60.030391,29.1269259 L60.3679536,28.3798131 L61.5348199,28.3798131 C63.4282002,28.3798131 63.6922085,27.8596992 63.0392487,25.4190056 C62.8568619,24.7399948 62.7077291,24.1764522 62.7057167,24.165595 C62.7047076,24.1557281 63.2700029,23.9445197 63.9632689,23.6968024 C65.1553221,23.2714326 66.0763207,22.5272846 65.777046,22.2341639 C65.7185991,22.1759347 64.179913,22.1285627 62.3600929,22.1285627 C58.8615183,22.1285627 58.5279863,22.0584919 58.7788877,21.3686239 C59.4540188,19.5062792 65.7911502,17.8630294 68.8584489,18.7552172 M0.462928061,21.7031929 C0.0689368346,22.7078959 1.46756054,26.5825997 2.67271469,27.8271277 C2.77247096,27.92977 3.03849161,28.2268339 3.26320287,28.4873889 C4.92381661,30.408953 6.50180568,31.068224 13.6642101,32.8289166 C15.2351412,33.215797 16.9652845,33.6697833 17.694826,33.8878997 C18.1099794,34.0112662 18.7528656,34.1612806 19.121664,34.2204941 C19.4914715,34.2797077 20.1504802,34.4386047 20.5857867,34.5728284 C22.0972676,35.0396464 22.2917463,34.9162799 22.4469221,33.3964025 C22.6262875,31.6268272 23.2389411,32.0699622 15.679518,28.5031737 C14.3393353,27.8705505 12.4499856,26.9832903 11.4806254,26.5302883 C9.32122444,25.5226264 4.92785313,23.4530224 3.33575986,22.6950583 C2.68884306,22.3861469 1.85753296,22.0081492 1.48771953,21.852217 C1.11891522,21.6972692 0.759187181,21.5423213 0.690666711,21.5067909 C0.621137111,21.4722506 0.518359357,21.5600866 0.462933963,21.7031929 M131.223171,22.0624352 C130.622609,22.3644384 128.998271,23.1401678 127.612748,23.7866129 C126.227226,24.4320678 124.111152,25.4239391 122.910029,25.9904406 C121.709914,26.5579264 119.782271,27.4659108 118.627496,28.0097077 C110.076542,32.0354161 110.902818,31.4777972 110.902818,33.2226992 C110.902818,34.9192389 111.025755,35.0623452 112.178511,34.6991537 C112.630949,34.5570377 113.455207,34.3389213 114.00942,34.2135802 C117.031373,33.5325948 117.422342,33.4319271 120.138977,32.640407 C120.739539,32.4657193 121.344132,32.3236033 121.483191,32.3255719 C122.043446,32.3314957 126.469063,31.04058 126.857011,30.7573322 C126.995061,30.6566645 127.448502,30.3803247 127.864665,30.144443 C130.18529,28.8258952 132.734658,25.0656753 132.734658,22.9615252 C132.734658,22.6960367 132.808218,22.2894224 132.898904,22.0574899 C132.990599,21.8196395 132.996648,21.635079 132.913014,21.635079 C132.830384,21.635079 132.662107,21.6084312 132.539176,21.5748752 C132.416239,21.5413193 131.823739,21.7604201 131.223177,22.0624234 M147.961316,23.3898538 C147.899847,23.4500576 147.849467,45.2119824 147.849467,71.7496933 L147.849467,120 L158.514477,120 L169.178478,120 L169.178478,96.6481034 C169.178478,73.7571248 169.184526,73.2932597 169.501936,73.1264703 C170.033977,72.848156 170.332243,73.101797 170.624465,74.0828111 C170.77662,74.5940423 171.04264,75.3589204 171.214954,75.7832999 C171.38827,76.2066951 171.529342,76.7041102 171.529342,76.8886648 C171.529342,77.0732194 171.672431,77.5410278 171.846751,77.9279081 C172.022086,78.3147885 172.239739,78.9266874 172.332443,79.2888945 C172.425148,79.6511016 172.58436,80.1870061 172.687138,80.4811111 C173.124462,81.735506 173.251424,82.1332435 173.491248,82.9899009 C173.630308,83.487316 173.808658,83.9718993 173.88927,84.0676336 C173.968873,84.1623776 174.085761,84.5689978 174.148239,84.9716688 C174.210716,85.3743399 174.337678,85.7977351 174.430382,85.9122189 C174.522077,86.0267028 174.695393,86.5073429 174.81329,86.981069 C174.932197,87.4547951 175.107525,88.0647254 175.20426,88.3361317 C175.391687,88.8651281 175.769555,90.0188553 176.148433,91.2140366 C176.277413,91.6216411 176.492045,92.2878202 176.626064,92.6944403 C176.761093,93.1020449 177.148032,94.3228839 177.486604,95.4085148 C177.826185,96.4941458 178.237307,97.752484 178.402563,98.2054918 C178.566809,98.6575095 178.780431,99.3236885 178.876163,99.6858956 C178.971889,100.047112 179.128079,100.565258 179.222796,100.836664 C179.318522,101.10807 179.713522,102.329899 180.100461,103.550738 C180.488409,104.772562 180.909606,106.01314 181.036573,106.308236 C181.16354,106.603331 181.315695,107.158975 181.375145,107.541906 C181.434595,107.925822 181.579697,108.424227 181.696585,108.650236 C181.813473,108.876245 182.113757,109.727969 182.363655,110.542194 C182.612544,111.356418 182.922901,112.265381 183.051881,112.562451 C183.179852,112.859521 183.284648,113.193105 183.282635,113.30265 C183.279614,113.508919 184.004116,115.857827 184.385012,116.874372 C184.804196,117.994543 185.161911,119.100898 185.249582,119.547982 L185.339264,120 L195.06111,120 L204.781946,120 L204.781946,71.8108991 C204.781946,24.2159378 204.777916,23.6188392 204.455466,23.4490851 C204.235795,23.3346012 200.634443,23.2921627 193.497231,23.3197949 L182.865475,23.3622334 L182.736496,45.8100829 C182.616586,66.7094267 182.545038,69.5833825 182.18128,68.0862037 C182.11679,67.8246644 181.964636,67.4960192 181.841699,67.3568561 C181.718762,67.217699 181.532351,66.7123856 181.427555,66.233726 C181.322759,65.7550605 181.131301,65.1658603 181.002322,64.9240608 C180.874351,64.6822613 180.768546,64.3733499 180.767537,64.2381419 C180.766528,64.0121331 180.51663,63.2255465 179.7488,61.0306015 C179.590597,60.5785839 179.290319,59.6528401 179.080727,58.9748136 C178.456991,56.9506071 178.03881,55.6508148 177.730471,54.7803354 C177.571258,54.3273335 177.275011,53.402574 177.07449,52.7235632 C176.872959,52.0455368 176.60492,51.231318 176.478967,50.9145084 C176.353009,50.5977046 176.198837,50.0805497 176.135356,49.7657147 C176.071875,49.4498953 175.922742,49.0432751 175.802827,48.8606951 C175.682918,48.6781091 175.531767,48.2330055 175.466268,47.8717886 C175.400769,47.5095815 175.254658,47.0289474 175.140797,46.8019483 C175.026931,46.5759395 174.880819,46.1061566 174.81633,45.7577716 C174.75184,45.4093806 174.598676,44.8912413 174.47574,44.606019 C174.353812,44.3217809 173.938659,43.0891004 173.553738,41.8672712 C173.16982,40.6464322 172.775829,39.424603 172.678085,39.1531967 C172.580341,38.8817904 172.425165,38.3636512 172.332461,38.0024285 C172.239757,37.6402214 172.022104,37.0273381 171.846769,36.6404577 C171.672443,36.2535774 171.529359,35.8114326 171.529359,35.6564848 C171.529359,35.5025213 171.387279,35.0051062 171.212953,34.5511199 C171.038627,34.0971277 170.735322,33.2069144 170.53984,32.5742854 C169.146256,28.0758352 167.680115,23.7431842 167.463471,23.485594 C167.276045,23.2635343 148.187048,23.1697746 147.961333,23.3898597 M223.534378,23.4875686 C223.34796,23.620802 223.191775,24.0728197 223.095041,24.7626876 C222.608345,28.2179513 222.200244,30.9270864 221.992664,32.0808135 C221.862675,32.8042374 221.678276,34.0990963 221.582551,34.9587185 C221.486825,35.8183406 221.334665,36.8546191 221.243979,37.2622236 C221.154296,37.6688438 221.001133,38.7426274 220.903389,39.6466626 C220.805645,40.5516823 220.657521,41.5504616 220.572878,41.8672653 C220.489245,42.184069 220.338094,43.1838386 220.237328,44.0878679 C220.136563,44.9928875 219.985412,45.9916669 219.901778,46.3084706 C219.817135,46.6252743 219.665984,47.6250439 219.565218,48.5290732 C219.465462,49.4340928 219.314311,50.4328722 219.230677,50.7496759 C219.147044,51.0664796 218.996902,52.1511262 218.897145,53.1597725 C218.797389,54.169409 218.647247,55.2056875 218.564617,55.4632777 C218.480983,55.7208678 218.327819,56.7245806 218.225036,57.6947375 C218.121249,58.6639101 217.969089,59.6636737 217.887473,59.9153402 C217.804843,60.1670066 217.654707,61.2072401 217.551923,62.2277279 C217.450148,63.2472314 217.302025,64.2489696 217.222422,64.45327 C217.142818,64.6565801 217.022903,65.4875798 216.954383,66.299824 C216.885862,67.1110839 216.768974,67.9341912 216.694405,68.129603 C216.619836,68.3240305 216.474733,69.2497743 216.372965,70.1853909 C216.27119,71.1210075 216.081751,72.4425143 215.951763,73.1205348 C215.821774,73.7995456 215.635356,74.9463647 215.538621,75.6697886 C215.441887,76.3941969 215.282674,77.5045011 215.18594,78.1371301 C215.089205,78.7707435 214.864499,80.3251671 214.686143,81.5914035 C214.507787,82.8586302 214.285094,84.4130538 214.191387,85.0456769 C214.096664,85.6792903 213.940479,86.7530738 213.843745,87.4311003 C213.74701,88.1101111 213.555553,89.2944352 213.418512,90.0632566 C213.281471,90.8320779 213.099084,92.0766059 213.012429,92.8296366 C212.815937,94.5409826 212.409848,97.2787402 212.081356,99.1095094 C211.943306,99.8783308 211.756889,101.210695 211.668215,102.070317 C211.578532,102.929939 211.43343,103.877397 211.344757,104.176436 C211.255074,104.47449 211.136174,105.251209 211.079745,105.903572 C211.023317,106.554951 210.872166,107.606036 210.744195,108.238659 C210.616224,108.872272 210.464064,109.946056 210.406632,110.624082 C210.348186,111.303093 210.231298,112.079813 210.145651,112.351219 C210.059999,112.622625 209.88064,113.732929 209.74763,114.81856 C209.61361,115.904191 209.43022,117.16253 209.340537,117.614547 C209.249846,118.067549 209.141019,118.788998 209.0987,119.218317 L209.022119,119.999971 L220.489221,119.999971 L231.955314,119.999971 L232.066159,118.067549 C232.126618,117.004617 232.279782,115.616004 232.40574,114.983375 C232.531698,114.349762 232.683852,113.091418 232.742299,112.186398 C232.801749,111.282363 232.955922,109.83848 233.085911,108.978858 C233.215899,108.119236 233.40332,106.418747 233.502073,105.198892 C233.656246,103.307925 233.735849,102.925978 234.041167,102.608184 L234.398882,102.23512 L240.638276,102.23512 L246.877669,102.23512 L247.228333,102.605219 C247.514506,102.907223 247.614263,103.3395 247.770453,104.949188 C247.876259,106.034819 248.070737,107.774782 248.203748,108.81699 C248.336758,109.858208 248.489921,111.412632 248.545341,112.271264 C248.599757,113.128911 248.750902,114.406989 248.879882,115.110679 C249.007852,115.814363 249.164043,117.201997 249.225506,118.194853 L249.337354,119.999971 L260.816548,119.999971 L272.294733,119.999971 L272.294733,119.436416 C272.294733,119.12652 272.143582,118.121817 271.959183,117.203966 C271.774783,116.286115 271.62162,115.299183 271.620611,115.01198 C271.618593,114.724783 271.508763,113.988527 271.376756,113.375638 C271.243745,112.763739 271.052288,111.517237 270.94951,110.607284 C270.847736,109.69634 270.694572,108.791321 270.60892,108.594925 C270.524277,108.399513 270.385218,107.572462 270.300575,106.758237 C270.215932,105.944013 270.029515,104.649154 269.886431,103.880333 C269.743341,103.111511 269.540807,101.889682 269.437014,101.166258 C269.332218,100.44185 269.145801,99.1835057 269.020852,98.369281 C268.895903,97.5550563 268.705455,96.2967182 268.597637,95.5732943 C268.48982,94.8498704 268.261078,93.5175064 268.090789,92.6124868 C267.920494,91.7074672 267.732064,90.4866282 267.672614,89.8984123 C267.613164,89.3101964 267.498288,88.6075026 267.417676,88.3360963 C267.337063,88.06469 267.187931,87.0649205 267.087165,86.1154937 C266.985391,85.1650766 266.834246,84.1287922 266.750606,83.8119885 C266.666972,83.4951848 266.514812,82.5329203 266.412034,81.6742884 C266.31026,80.8146662 266.147023,79.8149026 266.050288,79.4536857 C265.953553,79.0914787 265.764114,77.9811803 265.630095,76.9863442 C265.496075,75.9905238 265.287492,74.4361002 265.166574,73.5320708 C265.044646,72.6270512 264.825984,71.2946873 264.679878,70.5712633 C264.533767,69.8468551 264.336267,68.700036 264.239532,68.0210193 C263.847553,65.246741 263.716561,64.3999507 263.401164,62.5928762 C263.220795,61.5526486 262.989032,60.1097441 262.886254,59.3853358 C262.633335,57.5891127 262.409633,56.1195662 262.212132,54.9441246 C262.121441,54.4013121 261.964247,53.3650277 261.863481,52.6416038 C261.762716,51.9181799 261.537001,50.6085147 261.361667,49.7311332 C261.186332,48.854736 261.039217,47.8184516 261.035187,47.4286123 C261.031156,47.0387731 260.950544,46.3873945 260.855821,45.97979 C260.761099,45.5721854 260.582749,44.5368913 260.460821,43.6772691 C260.338893,42.817647 260.123258,41.4477839 259.981178,40.6335592 C259.500525,37.8681635 259.260707,36.310781 258.6279,31.8340452 C258.480779,30.7938176 258.251034,29.4239486 258.117021,28.7903352 C257.983001,28.1577121 257.795581,27.0474079 257.699849,26.3229937 C257.447933,24.4053787 257.247411,23.5872107 256.989452,23.4273235 C256.596464,23.1835495 223.876933,23.2427689 223.534331,23.4875273 M267.468044,23.4016659 C266.674012,23.446079 266.38179,23.5319404 266.259868,23.7549903 C266.097634,24.0500856 266.435203,27.6810212 266.656887,28.0323711 C266.75564,28.1873189 267.138548,30.7405218 267.662528,34.73169 C267.783447,35.6475668 267.926537,36.466725 267.979938,36.5525864 C268.034354,36.6384478 268.196582,37.6441352 268.340681,38.7860208 C268.483771,39.9279064 268.667161,41.0332713 268.747773,41.2415149 C268.828385,41.4497584 268.951322,42.2501612 269.019843,43.0189884 C269.089372,43.7878098 269.204242,44.5684785 269.27579,44.7530332 C269.347332,44.938578 269.496464,45.9314336 269.607309,46.9608099 C269.718154,47.9901863 269.914645,49.1715456 270.042616,49.5850739 C270.170586,49.9995864 270.277401,50.6578731 270.27841,51.0477123 C270.279419,51.4365673 270.423512,52.4728458 270.598847,53.3502332 C270.774181,54.2266303 270.995865,55.5362955 271.093603,56.2607038 C271.392878,58.5040111 271.619602,59.9853991 271.896705,61.5210673 C272.042816,62.3343017 272.267522,63.7031805 272.395492,64.5647772 C272.523463,65.4253837 272.70585,66.6481973 272.799563,67.2808263 C272.894285,67.9144396 273.084728,69.0642176 273.224796,69.8369881 C273.363855,70.6097586 273.553294,71.9046175 273.645998,72.7158774 C273.738702,73.526153 273.885823,74.4114328 273.974496,74.682839 C274.062161,74.9542453 274.202229,75.8059692 274.285863,76.5747964 C274.369497,77.3436178 274.554905,78.6019618 274.697995,79.3707832 C275.007343,81.0308081 275.25422,82.5901652 275.492026,84.3883629 C275.587752,85.1117868 275.776188,86.3336101 275.910201,87.1024373 C276.044221,87.8712587 276.198393,88.9440579 276.252803,89.4868763 C276.30722,90.0296889 276.452322,90.8439136 276.576262,91.2969156 C276.699199,91.7489332 276.849335,92.674677 276.910803,93.3527034 C276.971262,94.0317142 277.094199,94.8183008 277.183876,95.1025388 C277.273558,95.3857866 277.453927,96.4960909 277.583916,97.5698803 C277.850946,99.7618664 278.217732,102.168014 278.584518,104.127077 C278.719546,104.850501 278.908985,105.998305 279.004711,106.676331 C279.100437,107.355342 279.256627,108.390636 279.351344,108.978852 C279.446066,109.567068 279.672784,111.010951 279.855171,112.186392 C280.038567,113.362818 280.264281,114.805717 280.356985,115.393933 C280.44969,115.982149 280.605875,117.018427 280.703618,117.697438 C280.801362,118.375464 280.917241,119.170934 280.962587,119.465039 L281.043199,119.999959 L298.052398,119.999959 L315.060588,119.999959 L315.268168,118.807742 C315.382034,118.15143 315.581547,116.763802 315.712545,115.723568 C315.843543,114.68235 316.023911,113.535531 316.112585,113.173324 C316.202267,112.812107 316.364501,111.701803 316.472319,110.705983 C316.580136,109.711153 316.701055,108.843638 316.741361,108.77751 C316.833056,108.627496 317.422535,104.578099 317.717779,102.069309 C317.839707,101.029081 318.019066,99.881272 318.115801,99.5200552 C318.212536,99.1588383 318.340506,98.3080988 318.399962,97.629088 C318.459412,96.9510616 318.611573,95.9512979 318.737525,95.4084854 C318.863483,94.8656728 319.048891,93.6290432 319.148648,92.6598706 C319.249413,91.6916883 319.398546,90.6919188 319.481176,90.439268 C319.563807,90.1876015 319.713943,89.1463837 319.816727,88.12589 C319.918501,87.1063865 320.064613,86.1066228 320.140185,85.9052873 C320.216767,85.7039518 320.331642,84.9519054 320.397135,84.2324307 C320.461625,83.5139403 320.615798,82.4776618 320.740747,81.9299099 C320.864687,81.3821579 321.01785,80.3123235 321.080328,79.5523848 C321.142805,78.7924461 321.259693,78.0009201 321.339296,77.7946511 C321.419909,77.5873919 321.570051,76.6182252 321.673837,75.6391857 C321.777624,74.6611306 321.928775,73.6011631 322.008379,73.2853437 C322.088991,72.96854 322.237114,71.9717353 322.336877,71.0706589 C322.437642,70.1685982 322.627081,68.8362343 322.759082,68.1098514 C322.891083,67.3824784 323.074479,66.2327004 323.165165,65.5536896 C323.25686,64.8756631 323.408011,63.8393847 323.501725,63.2511688 C323.596447,62.6629529 323.829214,61.0720144 324.021674,59.7149772 C324.213131,58.3579399 324.446907,56.7660113 324.541624,56.1778013 C324.636346,55.5895854 324.7885,54.5167862 324.880195,53.7933623 C324.970887,53.068954 325.154277,51.9221349 325.287287,51.2431182 C325.420298,50.5650918 325.605706,49.2810901 325.699419,48.3898866 C325.793133,47.4986831 325.906999,46.7101219 325.953348,46.6370864 C325.998694,46.5640508 326.151858,45.4794101 326.29192,44.2269897 C326.432992,42.9745694 326.617391,41.7280669 326.702034,41.4566606 C326.787686,41.1852543 326.901552,40.4450495 326.956972,39.8114421 C327.178655,37.2661374 327.976717,36.3660513 328.293124,38.3043905 C328.353583,38.671531 328.47652,39.060386 328.567206,39.1669715 C328.657897,39.2745474 328.836248,39.7226158 328.962206,40.162792 C329.089173,40.6029681 329.394491,41.4813398 329.642371,42.1139629 C329.889248,42.7475762 330.155268,43.5242959 330.233862,43.8410996 C330.427332,44.6188036 330.889844,45.9146527 331.267718,46.7377541 C331.439022,47.1098282 331.579085,47.5332234 331.579085,47.6792886 C331.579085,47.8253538 331.722175,48.2615807 331.897503,48.6484611 C332.072838,49.0353415 332.428536,50.0183301 332.686495,50.8325489 C332.944454,51.6467736 333.210475,52.4234874 333.277986,52.5596856 C333.345498,52.6948936 333.50975,53.1390189 333.64276,53.5466234 C334.409586,55.8915828 335.009139,57.6364847 335.199587,58.0697469 C335.318493,58.3411531 335.469638,58.7852725 335.535137,59.0566847 C335.600636,59.3280909 335.751781,59.7356955 335.870687,59.9617043 C336.140739,60.4759003 336.583097,61.7855596 336.814861,62.757691 C336.912605,63.1652956 337.060728,63.5817827 337.144362,63.684425 C337.229005,63.7870674 337.401312,64.2311867 337.529289,64.6713628 C337.816472,65.666193 338.744522,68.3388133 339.160679,69.3681896 C339.331983,69.7915848 339.472046,70.2544596 339.472046,70.3965757 C339.472046,70.5386918 339.623197,70.9305056 339.807596,71.2680394 C339.993004,71.6055732 340.146168,71.9944222 340.149189,72.1316107 C340.152211,72.2678089 340.301343,72.6763978 340.4797,73.0386049 C340.658056,73.3998217 340.807189,73.8074262 340.81021,73.9446088 C340.813232,74.0808071 341.049026,74.821006 341.335199,75.588843 C341.621373,76.3576643 341.971028,77.3564437 342.112099,77.8084613 C342.253171,78.2604789 342.453692,78.7351953 342.557485,78.8615207 C342.695535,79.0293003 342.759016,84.6864111 342.791261,99.546703 L342.835598,119.999959 L354.673516,119.999959 L366.510426,119.999959 L366.516475,99.7263242 C366.521515,80.0330131 366.531588,79.4349302 366.846986,78.7953991 C367.025342,78.433192 367.176487,78.0265777 367.182536,77.8903795 C367.188585,77.7551715 367.33973,77.3475669 367.518086,76.9863442 C367.696442,76.6241371 367.845575,76.22838 367.848597,76.1059979 C367.851618,75.984606 367.963472,75.6510214 368.096482,75.365799 C368.229493,75.0805766 368.42095,74.5357836 368.520706,74.1558172 C368.621472,73.7748605 368.776653,73.4185772 368.86633,73.3642971 C368.956013,73.310017 369.029573,73.1086815 369.029573,72.9162286 C369.029573,72.7237757 369.171654,72.2658403 369.345979,71.8977095 C369.686569,71.1762601 370.115827,69.9771355 370.410062,68.9260448 C370.510827,68.5638378 370.695226,68.121693 370.820175,67.9440464 C370.944115,67.7654096 371.044881,67.4683457 371.044881,67.2828009 C371.044881,67.0982463 371.196032,66.6709019 371.38144,66.3333681 C371.565839,65.9958344 371.71699,65.6010616 371.71699,65.4559807 C371.71699,65.3108999 371.826826,64.95955 371.959837,64.6743276 C372.196634,64.1700045 372.337705,63.7841143 373.403806,60.7246137 C373.682928,59.9222364 374.022509,59.0566906 374.157531,58.8000906 C374.293563,58.5425005 374.40642,58.2000332 374.409448,58.0371871 C374.412469,57.874341 374.561602,57.445028 374.739958,57.0828209 C374.918314,56.7206138 375.067447,56.288336 375.070469,56.1215466 C375.07349,55.9547573 375.188366,55.6211726 375.325407,55.3813477 C375.585384,54.9263712 375.9431,53.9868054 376.336082,52.7235279 C376.688764,51.5885503 377.123061,50.4081753 377.458612,49.6699509 C377.625885,49.301826 377.762926,48.8823741 377.762926,48.7372991 C377.762926,48.5922182 377.868731,48.2645573 377.99872,48.0079515 C378.357445,47.3013085 378.938863,45.7547773 378.938863,45.5080443 C378.938863,45.3876367 379.047689,45.0560267 379.181709,44.7708043 C379.449748,44.1983791 379.871953,43.0377439 380.625678,40.7983916 C380.89976,39.9841669 381.23632,39.1215859 381.374364,38.881761 C381.512414,38.6409458 381.625271,38.3231577 381.625271,38.1741277 C381.625271,38.0250977 381.751229,37.6668457 381.904393,37.3766839 C382.057556,37.0875124 382.241955,36.6285867 382.314506,36.3571805 C382.387057,36.0857742 382.682302,35.2340503 382.969484,34.4652231 C383.256667,33.6964017 383.558963,32.8456622 383.641588,32.5742559 C383.921719,31.6583791 384.510189,30.1079046 384.64219,29.9420996 C384.713732,29.8512988 384.825586,29.4890976 384.891079,29.1367575 C384.955569,28.7844233 385.109741,28.3402981 385.231669,28.1498197 C385.354606,27.9593414 385.508772,27.5448288 385.575281,27.2280192 C385.64078,26.9112155 385.789912,26.4670903 385.9068,26.2410814 C386.36629,25.3498779 386.856013,23.9346115 386.800588,23.6562972 C386.724006,23.2644833 364.294638,23.1085452 363.753526,23.4964158 C363.454251,23.7115675 363.095527,24.9659624 362.558446,27.6820114 C362.428457,28.3393078 362.25111,29.0054927 362.165458,29.1624152 C362.079806,29.3203219 361.956875,29.8187272 361.893388,30.2707449 C361.829907,30.7237468 361.675735,31.4639516 361.549777,31.9159634 C361.283756,32.8772376 360.858523,34.6300379 360.552196,36.0285234 C360.261992,37.3500302 359.826685,39.1334215 359.547564,40.1400991 C359.422615,40.5931011 359.267433,41.3333059 359.203952,41.7853176 C359.140472,42.2373353 359.015522,42.7416584 358.92584,42.9045045 C358.837166,43.0673507 358.689043,43.6595098 358.597342,44.2200876 C358.505647,44.7806654 358.326281,45.5721913 358.198311,45.9797959 C358.069331,46.3874004 357.806332,47.4601996 357.611853,48.3652192 C357.418384,49.2692545 357.1181,50.5650977 356.945792,51.2431241 C356.61226,52.5527894 356.426852,53.3235853 355.933099,55.4376024 C355.322457,58.0598917 354.981873,58.7290296 354.727945,57.8121685 C354.398443,56.62686 353.864384,54.4378387 353.326299,52.0662315 C352.577614,48.7649313 352.298492,47.6042961 351.802727,45.7330688 C351.659637,45.1902562 351.437953,44.2279918 351.310991,43.5943784 C351.184024,42.9617553 351.000634,42.1475306 350.903899,41.7853235 C350.808174,41.4231165 350.536104,40.3128181 350.301319,39.317982 C350.066534,38.3231519 349.79044,37.2128476 349.687656,36.8506405 C349.584873,36.4884334 349.402492,35.7117197 349.282577,35.1235038 C348.85634,33.0440329 348.664883,32.2337573 348.352513,31.1895806 C348.179197,30.6082727 348.037116,29.9963738 348.037116,29.8285942 C348.037116,29.6608146 347.892014,28.9887118 347.713658,28.3343743 C347.536311,27.6810212 347.214871,26.4108356 347.000239,25.5127241 C346.492381,23.3898244 346.707013,23.5161557 343.406942,23.38884 C339.52848,23.2388257 307.021563,23.2565909 306.777714,23.4085798 C306.663847,23.4796408 306.439142,24.7093624 306.243654,26.3249742 C305.699521,30.8520468 305.230961,35.110672 305.122134,36.5219894 C305.065705,37.2454133 304.943778,38.3389366 304.851074,38.9518258 C304.75736,39.564715 304.616289,40.8970731 304.536686,41.9126333 C304.37647,43.97138 304.003635,47.3378174 303.599564,50.3706702 C303.453453,51.4730762 303.266032,53.2495595 303.184411,54.3184096 C303.102789,55.3862753 302.967767,56.6307974 302.883124,57.082815 C302.79949,57.5348326 302.679575,58.756656 302.616094,59.7968895 C302.553617,60.8371171 302.400453,62.2435009 302.275504,62.9225117 C302.151564,63.6005382 301.996382,65.0809419 301.930883,66.2119703 C301.865385,67.3429988 301.749506,68.385201 301.673933,68.5273229 C301.598361,68.6704292 301.418995,70.2130113 301.274902,71.9559387 C301.130809,73.6988661 300.976637,75.1842033 300.931291,75.2552643 C300.886954,75.3263252 300.770066,76.4849859 300.672322,77.8301816 C300.574578,79.1753773 300.38917,80.9419877 300.261199,81.7562124 C300.13222,82.5704371 299.979056,83.9768151 299.919606,84.8818347 C299.861159,85.78587 299.712027,87.0817132 299.588087,87.7597396 C299.464147,88.4387504 299.312996,89.8382262 299.253545,90.8705614 C299.193086,91.903881 299.077207,93.12472 298.994577,93.5846359 C298.911946,94.0455362 298.76181,95.4183641 298.661045,96.6372285 C298.430291,99.4075577 298.342626,99.5634898 297.923442,97.9419544 C297.598975,96.6836103 297.51635,96.1486902 297.319859,94.01099 C297.225137,92.9697722 297.07097,91.7489332 296.979269,91.2969156 C296.886565,90.8439136 296.738441,89.5855695 296.647749,88.4999386 C296.558067,87.4143076 296.374677,85.859884 296.240657,85.0456652 C296.106638,84.2314404 295.991768,83.1586471 295.985719,82.6612262 C295.97967,82.1628208 295.864801,81.1946385 295.730781,80.5087197 C295.596762,79.8228008 295.440577,78.5644568 295.38213,77.7117427 C295.324692,76.8600188 295.171529,75.5710777 295.042549,74.8476538 C294.91256,74.1242299 294.72514,72.4642051 294.625377,71.1594733 C294.525621,69.8547475 294.382531,68.6704233 294.307968,68.527317 C294.232395,68.385201 294.11752,67.4535335 294.05303,66.4586974 C293.987531,65.4638672 293.833358,64.1680181 293.710428,63.5798081 C293.586488,62.9915922 293.436346,61.7707533 293.375887,60.8657336 C293.316436,59.9616984 293.160246,58.5918353 293.030263,57.8230139 C292.777343,56.3238606 292.325914,52.4748085 292.10423,49.9275293 C292.029661,49.0679072 291.852314,47.5509886 291.710239,46.5551682 C291.568158,45.560338 291.368646,43.9328788 291.266871,42.9380487 C291.165097,41.9432185 291.013952,40.8329142 290.931321,40.4707072 C290.84869,40.1085001 290.703588,38.9597064 290.607863,37.9194788 C290.306575,34.6142295 289.908548,31.1875942 289.178003,25.6074563 C289.043984,24.5800546 288.846483,23.6365455 288.738666,23.5102201 C288.55527,23.2940842 271.016048,23.2042677 267.468097,23.40166 M59.229343,24.3747758 C60.2108009,24.7379672 60.9191802,25.4890233 60.6843953,25.9173579 C60.5191401,26.2213357 60.3004777,26.2430442 57.1545849,26.2706823 C55.3105752,26.286473 53.6318267,26.3052226 53.424247,26.3111463 C52.9677783,26.3259526 52.9748304,25.5403504 53.4363388,25.035037 C54.3492763,24.0332988 57.377272,23.6888569 59.229343,24.3747758 M127.948322,34.2184724 C127.39411,34.3220991 126.789517,34.4869198 126.605118,34.5846227 C126.420719,34.6823316 125.891699,34.8165553 125.429187,34.8826769 C124.967679,34.9497887 124.40138,35.0761141 124.169617,35.1649403 C123.938863,35.2537666 123.14584,35.4669436 122.40622,35.6396567 C119.287532,36.3660395 117.268193,36.8654292 116.193022,37.1763151 C115.099716,37.4911501 113.365542,37.9175042 112.414317,38.1050236 C110.743624,38.4336748 109.726905,39.100844 109.726905,39.8676908 C109.726905,40.1055412 109.451814,40.6878334 108.975192,41.4566547 C107.808326,43.3387392 107.861733,43.4315146 110.025171,43.2913672 C110.922989,43.233138 112.187599,43.0752313 112.833501,42.9410076 C113.480418,42.8057996 114.311728,42.6923 114.681541,42.6873666 C115.050346,42.6824331 115.957234,42.5679492 116.696849,42.4337255 C117.435461,42.2985175 118.754482,42.1119824 119.627107,42.0182286 C123.115608,41.6461546 125.867509,40.0897564 127.652063,37.4822734 C128.519655,36.2130721 128.704054,35.9100845 128.704054,35.7521778 C128.704054,35.6544689 128.854196,35.3366809 129.036583,35.0465191 C129.560563,34.2155194 129.244162,33.9747101 127.948316,34.2184783 M4.21344269,34.2362436 C3.26523883,35.1649521 6.92100743,39.6663612 9.63361192,40.90694 C11.5219584,41.7705113 11.8514598,41.8642651 13.5906676,42.0251367 C14.5690981,42.1159375 15.6472908,42.2639773 15.9878749,42.3537878 C16.3284649,42.4435984 17.4378875,42.5926284 18.4525995,42.6844135 C19.4673055,42.777183 20.5999086,42.926213 20.969722,43.0160236 C22.0469056,43.2785472 25.0164604,43.4226438 25.1454401,43.2183435 C25.2069085,43.1216248 25.0386258,42.7229029 24.7716019,42.3320734 C24.2143678,41.5158801 23.4908752,40.0186954 23.3377118,39.3663325 C23.2117536,38.8254945 22.1758853,38.3270892 20.6956402,38.093188 C20.1525161,38.0083109 19.6204748,37.8849444 19.5136606,37.8207915 C19.4078554,37.7566386 18.8979855,37.6066242 18.3820666,37.4881971 C16.3546669,37.0233477 15.2281068,36.7420745 14.503605,36.5200148 C14.0874425,36.3926992 13.3699928,36.2160369 12.9084903,36.1272166 C11.7648045,35.9061413 9.64268228,35.3672779 9.12978494,35.1679169 C8.8990307,35.0771161 8.34784546,34.951781 7.90548684,34.8886124 C7.46312822,34.8244594 6.85853584,34.6744451 6.56228262,34.5550277 C5.88312089,34.2816469 4.37667969,34.0763622 4.21344269,34.2362494 M240.712863,46.6242664 C240.811616,47.5658008 240.96377,48.6020852 241.051434,48.9267872 C241.138096,49.2514892 241.289241,50.4170579 241.384966,51.5174952 C241.480692,52.6189169 241.631843,53.7055322 241.720517,53.9335156 C241.808181,54.1605087 241.928096,55.1099414 241.986537,56.0435835 C242.044984,56.9772255 242.158845,57.9473824 242.240466,58.2000391 C242.322088,58.4526958 242.468199,59.4514751 242.565937,60.4206417 C242.662672,61.3888241 242.85312,62.8109986 242.987139,63.5798199 C243.251147,65.0908207 243.614906,67.8601596 243.985723,71.1792249 C244.113693,72.329003 244.260814,73.3356806 244.312203,73.4166085 C244.363592,73.4985267 244.485519,74.4084798 244.584272,75.4398248 C244.682016,76.4711698 244.866415,77.9071663 244.994386,78.6305843 C245.465968,81.3071537 245.659438,83.8337088 245.4045,83.9926058 C244.987328,84.2511803 235.923482,84.1771604 235.699786,83.9136524 C235.553674,83.7419236 235.569797,83.3362937 235.763266,82.2477038 C235.904338,81.4561837 236.025256,80.3922671 236.032309,79.8839949 C236.039361,79.3757226 236.152218,78.1825158 236.283216,77.233089 C236.414214,76.2826719 236.600625,74.6177077 236.696357,73.5320826 C236.793092,72.4464516 236.947264,71.1506084 237.039968,70.6531933 C237.132673,70.1557782 237.275762,68.9813269 237.357378,68.0427514 C237.544805,65.897153 238.034521,61.5457524 239.043184,53.0531751 C239.220532,51.5599397 239.406949,49.8574762 239.456326,49.2692663 C239.550039,48.1727781 240.005498,45.2583583 240.148582,44.8418712 C240.328951,44.3187926 240.543583,44.996819 240.712869,46.6242782 M10.8387779,45.3333684 L10.4488173,45.4843671 L10.8307166,46.0202716 C13.5534006,49.8347775 16.5844238,51.0309432 23.0676664,50.8503319 C27.9507605,50.7141336 27.9114576,50.742756 26.8896994,48.0721103 C26.5350052,47.1453763 25.5767278,46.8384396 22.1446554,46.5532172 C21.4987477,46.4999215 20.289563,46.3499071 19.458247,46.2206228 C18.626931,46.0923228 17.0680918,45.9107271 15.9949388,45.8179518 C14.9217859,45.7251823 13.8264675,45.5810858 13.5604468,45.4991735 C12.7916083,45.2613231 11.2650081,45.1675634 10.838772,45.3333684 M120.642828,45.3175778 C120.042266,45.3797561 119.386285,45.4833828 119.184754,45.5485201 C118.983223,45.612673 117.774039,45.77157 116.497343,45.8998699 C114.250271,46.1268631 113.264789,46.2512198 109.895194,46.7338286 C106.591098,47.2065704 106.368405,47.2736822 106.368405,47.7987295 C106.368405,47.9734171 106.211211,48.5596585 106.019754,49.1014867 C105.459498,50.6874916 105.450428,50.6815679 108.41293,50.806909 C115.016088,51.0862135 117.461663,50.6016243 120.089625,48.493531 C121.264552,47.5500219 122.849587,45.575162 122.615812,45.3461943 C122.41025,45.1448588 122.322586,45.1428842 120.642822,45.3175719 M57.2110018,49.4942848 C47.1868601,49.6995695 47.4841165,49.6620644 47.9758517,50.671701 C48.2156762,51.1641826 48.260013,51.8155611 48.260013,54.879005 C48.260013,59.2254663 48.1995538,59.0636104 49.8712502,59.2175739 C56.1811824,59.7969072 75.7891195,59.7949326 82.8809852,59.2155993 C84.7693317,59.0606515 84.7038327,59.2185582 84.7038327,54.8464335 C84.7038327,52.0376149 84.7522001,51.2984003 84.9658227,50.894745 C85.5855284,49.7202937 85.5180171,49.6926556 81.7645046,49.5771874 C74.2171734,49.3462451 65.8193881,49.3176226 57.2110018,49.4942848 M27.6031066,54.0450464 C27.1869441,54.1190663 25.6311263,54.1851938 24.1438291,54.1921019 C20.8689507,54.2069082 18.8697653,54.3569225 18.8697653,54.5888492 C18.8697653,54.8642046 20.2583154,56.0179317 20.7178056,56.1245232 C20.9485598,56.1788033 21.250856,56.3159859 21.3889061,56.4304756 C23.338715,58.0441128 31.1127698,57.6710545 31.1269369,55.9636576 C31.1389659,54.6668241 29.4037828,53.7223249 27.6031066,54.0450523 M103.764621,53.9878074 C102.477845,54.3125094 101.722108,56.5331121 102.817426,56.7699781 C103.061282,56.8232738 103.696101,57.0078284 104.227133,57.1805415 C107.218859,58.1516886 112.0032,57.0917153 114.124313,54.9865867 C114.770221,54.3470497 114.722862,54.338173 109.5808,54.196051 C107.028411,54.1259802 104.752122,54.0312303 104.520359,53.9858329 C104.289604,53.9404354 103.950023,53.9414197 103.764615,53.9878074 M48.4655685,60.1670125 C48.350693,60.3041951 48.324497,63.175192 48.3859653,68.8105943 L48.4786695,77.2488914 L49.2364253,77.981198 C49.653597,78.383869 50.0445667,78.7135045 50.105026,78.7135045 C50.1654852,78.7135045 50.6209448,79.0105743 51.1187288,79.3737657 C51.8442397,79.9037524 52.0629021,79.9925727 52.2301697,79.8257833 C52.4971994,79.5583262 52.7450794,60.8341818 52.4851076,60.4680315 C52.1757593,60.0318045 48.790042,59.7771791 48.4655744,60.1670184 M81.1830927,60.1127383 C79.7633067,60.237095 79.8691119,59.4278038 79.8499679,70.2692895 C79.8298148,81.3486256 79.7068781,80.7722571 81.7645105,79.2721136 C82.3187231,78.867468 83.0019095,78.3937419 83.2840527,78.2170796 C83.5651866,78.0414076 83.9803401,77.6555116 84.2070637,77.359432 L84.6191956,76.821553 L84.6715936,68.6260397 C84.7108907,62.4971714 84.6736119,60.3713128 84.5254823,60.1956349 C84.3168994,59.9498863 83.3263712,59.925213 81.1830927,60.1127324 M56.3544988,60.8164165 C56.2023446,60.9664309 56.152968,63.6242507 56.152968,71.7714018 L56.152968,82.5290006 L56.6991194,83.0293746 C57.2654239,83.5485041 58.2821424,84.2354073 59.0086623,84.5887317 C59.2394166,84.701241 59.549774,84.8798778 59.6989068,84.9864693 C60.5413055,85.5885013 60.5201433,85.905305 60.5201433,72.9567103 L60.5201433,60.939783 L60.0888674,60.7799017 C59.4631128,60.5469848 56.6013755,60.574617 56.3544988,60.8164165 M72.317756,60.7285805 C72.0436741,60.8371407 72.0073986,85.0476574 72.2804713,85.2134624 C72.376197,85.2707073 72.8840546,85.0348256 73.411062,84.6884151 C73.9370603,84.3419987 74.4449179,84.0202615 74.5396345,83.9728895 C75.3467668,83.5702185 76.0239102,83.0392475 76.1518808,82.7086276 C76.3735647,82.1371927 76.3554299,61.3444345 76.1327369,60.9378202 C75.9624419,60.6269343 72.9878473,60.4631039 72.317756,60.7285923 M64.2202487,61.1016566 C64.0328221,61.4460984 63.9622893,87.3551294 64.1487067,87.8288555 C64.6001357,88.9825827 66.6426488,89.3822948 67.6150364,88.5078663 L68.2448216,87.9413648 L68.2458307,80.4070971 C68.2458307,76.26394 68.2952072,70.281137 68.3556665,67.1130762 C68.4886768,60.1976213 68.6932291,60.7838567 66.1398369,60.7838567 C64.5860315,60.7838567 64.3754362,60.818397 64.2202546,61.1016507 M25.5293636,73.5153253 C24.478382,73.8350938 24.2254564,75.2681255 25.0648337,76.1435324 C25.6704352,76.7741869 24.8884957,78.0552237 23.8969642,78.0552237 C23.6017201,78.0552237 19.5801746,82.10758 18.9393067,83.051089 C18.5775604,83.58206 18.1523274,84.2117242 17.9921119,84.4495746 C17.3986023,85.3348543 16.0392756,88.2098004 15.6876088,89.3230636 C14.9278347,91.7292111 14.7797111,92.1437236 14.3685883,93.0240699 C14.1358217,93.521485 13.542312,94.4403207 13.0485586,95.067026 C11.9542434,96.4576192 11.9542434,96.3579358 13.0425097,97.7356972 C14.3937752,99.4460589 14.7948185,100.202048 15.4276252,102.235138 C16.0705114,104.303757 17.1597809,106.871761 17.9044416,108.074834 C18.8848904,109.660839 19.7645738,110.857995 20.5455041,111.673198 C22.2081361,113.406259 22.4791906,113.6599 23.2883412,114.243176 C23.7286875,114.558996 24.360485,115.021871 24.6930138,115.270578 C25.0255425,115.519286 25.3631051,115.72358 25.4427083,115.72358 C25.7339218,115.72358 25.5767278,116.51609 25.1676173,117.105291 C24.2677809,118.406073 24.7141701,119.249899 26.4473408,119.521311 C27.0368199,119.61408 27.5446775,119.759161 27.5749041,119.845029 C27.6545073,120.066104 28.2339128,120.037481 28.3125068,119.808514 C28.3538221,119.685147 29.1800984,119.566714 30.6351507,119.476904 C31.8775895,119.399925 33.3840307,119.22918 33.9845925,119.096931 C34.5851543,118.964682 35.4164703,118.810719 35.8326328,118.755454 C37.4791424,118.536354 40.0899723,117.534615 40.3811858,117.008578 C41.0442251,115.814387 40.4567584,114.962663 38.183491,113.823736 C36.2175596,112.838773 33.8828239,111.185656 32.1798857,109.572019 C29.5851782,107.112576 29.1397922,107.014867 28.3387088,108.728187 C28.1069454,109.224618 27.8600746,109.665779 27.7895359,109.708217 C27.5829654,109.833558 25.6704411,107.838959 24.8804404,106.676349 C22.155744,102.663466 22.0388562,100.291865 24.5338074,99.6128541 C25.5535532,99.3355241 49.341239,99.3759881 49.5780421,99.6552927 C49.7795729,99.8941332 49.3251224,100.855407 48.3628085,102.224286 C48.0726041,102.637815 47.6211752,103.419468 47.3601943,103.96228 C47.0982042,104.505093 46.7787764,105.145614 46.6487876,105.385439 C46.5187988,105.626254 46.4119904,105.922334 46.4119904,106.043726 C46.4109813,106.165118 46.3102159,106.453305 46.187285,106.683263 C45.7066326,107.586308 44.5962009,111.778811 44.6989786,112.301884 C44.8672554,113.150649 50.2551856,108.878208 50.5222095,107.684011 C50.5856902,107.402732 50.7066087,107.131325 50.7922607,107.080004 C50.8769037,107.027699 50.9474424,106.874719 50.9474424,106.738527 C50.9474424,106.403958 52.4760549,103.2053 53.5310672,101.334067 C54.3815271,99.8230664 55.3398046,99.3414419 57.2452826,99.4657987 C58.1652722,99.5260025 58.5461624,100.243503 57.9254476,100.747826 C57.7823578,100.864284 57.6644667,101.025156 57.6644667,101.106084 C57.6644667,101.187012 57.4196083,101.665677 57.1193244,102.17 C56.8190406,102.674323 56.4119484,103.358268 56.2144482,103.688893 C53.9099451,107.551762 53.1149046,111.230069 53.5471896,116.023615 C53.7346162,118.096177 53.9190154,118.079402 55.7338017,115.822279 C56.0109051,115.477837 56.3726573,115.036677 56.5369034,114.842249 C59.0106924,111.930789 59.4742132,110.862923 59.5769969,107.828101 C59.6243551,106.425667 59.7442704,105.019283 59.8430175,104.702479 C59.9417706,104.385675 60.0989646,103.613889 60.1906596,102.987184 C60.3408015,101.972614 60.6219355,100.926463 61.0441411,99.8092503 C61.1741299,99.466783 61.2879963,99.4391508 62.5354689,99.4391508 C64.4147451,99.4391508 64.5014004,99.6839092 63.7184577,102.810522 C62.9798458,105.761456 62.9848856,110.540201 63.7295404,113.338163 C63.825266,113.70037 64.008662,114.403064 64.1366326,114.900479 C64.3956011,115.910115 64.9518261,117.520793 65.3014806,118.27284 C65.4274388,118.544246 65.5826145,119.043636 65.6471044,119.383144 C65.7619799,119.992084 65.7730626,119.999976 66.553993,119.999976 L67.3439937,119.999976 L67.6966755,119.136405 C67.8911542,118.661689 68.0997371,118.088279 68.1591872,117.861286 C68.2196465,117.635277 68.3687792,117.228663 68.4927192,116.957251 C68.7002989,116.501284 68.916943,115.768983 69.6867906,112.926609 C70.0414848,111.618918 70.2047277,106.936898 69.9518022,105.36076 C69.4782018,102.413768 69.2625668,101.287679 69.0892504,100.843554 C68.6801399,99.8003617 69.1345963,99.4391449 70.8556692,99.4391449 C72.1313621,99.4391449 72.4800074,99.7983872 72.692621,101.333077 C72.7550985,101.784104 72.9112833,102.48582 73.0392539,102.893424 C73.3032622,103.732322 73.6105922,106.210515 73.7224463,108.403485 C73.8282514,110.461248 74.4761714,112.103507 75.7669776,113.582921 C75.886887,113.720104 76.6325509,114.645853 77.425579,115.640683 C78.217598,116.636504 78.8886926,117.474412 78.9158978,117.505003 C79.578937,118.240268 80.0081947,115.165967 79.6807057,112.016656 C79.2665614,108.025488 78.5521332,105.865089 76.718203,103.053306 C75.4243753,101.071538 74.9487626,99.689827 75.5100274,99.5417872 C77.4215484,99.040423 78.884662,99.5378381 79.6343565,100.944222 C79.9406833,101.518616 80.2621235,102.098939 80.3487847,102.235132 C80.4344367,102.37133 80.580548,102.667409 80.6722431,102.893418 C80.7649472,103.119427 80.9100494,103.415507 80.9967106,103.550715 C81.3735761,104.145839 82.44572,106.713842 82.5948527,107.380027 C82.7218201,107.946528 83.591424,108.902869 85.123058,110.162198 C85.7699748,110.693169 86.411846,111.223155 86.5509052,111.340598 C88.5248978,113.008521 89.0146206,112.659146 88.2457821,110.130616 C88.0674259,109.5424 87.7510255,108.469601 87.5434458,107.745193 C87.3368753,107.021769 87.0779067,106.28157 86.9700892,106.100959 C86.8612626,105.919363 86.7181728,105.558146 86.6526797,105.296607 C86.5861716,105.035068 86.1931895,104.257364 85.7790452,103.56947 C84.6988401,101.774237 84.6555125,101.707125 84.2715949,101.230435 C83.8191567,100.668867 83.4493492,99.7895104 83.6035217,99.6394961 C83.7728076,99.4727067 99.2564215,99.4914563 99.4267106,99.6582457 C99.7269944,99.9523507 99.6876915,112.90292 99.3833829,113.682599 C98.2679114,116.544713 100.621791,118.771239 104.130439,118.173156 C105.739664,117.898791 105.659052,118.180064 105.7709,112.433137 C106.014755,99.8378668 106.004676,100.044136 106.390606,99.7263418 C106.701972,99.4707263 107.168515,99.4391449 110.570354,99.4391449 L114.399439,99.4391449 L115.654979,100.014529 C119.812562,101.921287 123.430037,98.962454 122.302474,94.5765131 C121.760353,92.4684197 119.00039,91.549584 116.152763,92.5305981 C115.098754,92.8928052 106.910561,93.0339369 106.36844,92.6983777 C106.107459,92.5375062 106.043973,91.1824435 105.772918,80.0695515 L105.679205,76.2441884 L105.022215,75.9155373 C101.910579,74.3611136 98.0442093,77.1274936 99.4045451,79.9363122 C99.6907188,80.5264967 99.7108719,92.3618283 99.4267165,92.6401426 C99.2644827,92.7990396 86.9076235,92.9243806 86.0763075,92.7753506 C85.6289092,92.695407 85.4686937,92.5542753 85.2711935,92.0677174 C85.1351617,91.7341327 84.9568055,91.3127121 84.8741749,91.1321008 C84.7925534,90.9514894 84.6736532,90.6179048 84.6101666,90.3919018 C84.5476891,90.165893 84.4005746,89.8698135 84.2836867,89.7336152 C84.1667988,89.5984072 84.0186752,89.3181183 83.9541853,89.1118434 C83.8252056,88.6953563 83.3657154,88.2157064 82.5041727,87.5959092 C81.9348468,87.1853457 81.9197334,87.1843555 78.1541291,87.1843555 L74.3754237,87.1843555 L73.70332,87.6166333 C72.6019528,88.3262411 72.2855524,88.7861512 71.6648375,90.5774408 C70.8063163,93.0576082 71.2577453,92.8592375 66.478444,92.8592375 L62.4125617,92.8592375 L61.9702031,92.2335224 C61.7263479,91.8890806 61.5278445,91.5170066 61.5278445,91.4054816 C61.5278445,91.0669635 60.1886709,88.6943719 59.7322022,88.224589 C59.011731,87.4824155 57.9446211,87.1537644 55.9010988,87.0461886 C50.450697,86.7589916 49.252595,87.4004974 47.9648161,91.2969214 L47.4761025,92.7773252 L36.2377363,92.8256874 C24.0078386,92.8779929 24.0924815,92.8839167 23.2521011,91.9463255 C22.5437218,91.1557897 22.7684272,89.5668258 23.7720505,88.2729513 C23.939324,88.0568153 24.076365,87.8150158 24.076365,87.7360566 C24.076365,87.4518185 26.6821611,84.1643345 27.2958179,83.6738275 L27.7784827,83.2879373 L28.2772699,84.3666603 C29.2456269,86.4579786 29.7534845,86.3750761 32.4590369,83.6817258 C34.3655182,81.7828603 35.7117439,80.7021687 36.982397,80.0458566 C37.2272554,79.9195312 37.8056518,79.5859466 38.2671543,79.3036832 C38.729666,79.022404 39.2586858,78.6996766 39.443085,78.586183 C39.6274842,78.4736737 39.9348202,78.3029352 40.1242591,78.2062106 C42.0730649,77.2182885 39.3715431,75.0815727 35.0587841,74.2012264 C34.495507,74.0857523 33.9604383,73.9475854 33.8697524,73.8933053 C33.1361803,73.4481957 26.7083571,73.1580399 25.529399,73.5153076 M57.2624378,89.4128623 C57.9174159,89.7237482 58.6358687,90.4491467 58.8827454,91.0501885 C58.9381649,91.1853965 59.2545712,91.9226365 59.5840726,92.6884989 C60.5977754,95.0413507 60.3478773,96.4783316 58.9240607,96.4783316 C58.1542131,96.4783316 56.9933957,95.1864316 56.9933957,94.3297742 C56.9933957,94.2567387 56.9117743,93.9882972 56.8130271,93.733666 C56.5520462,93.0664967 56.1530153,93.6329982 56.1530153,94.6692826 C56.1530153,96.6846064 53.4847475,97.0418741 52.9829329,95.0926778 C52.7632614,94.2360204 52.5496388,94.2221984 52.3904324,95.0551727 C52.0548821,96.8079729 49.5982247,96.7951412 49.6072641,95.0413566 C49.6153504,93.5185143 50.7540023,90.2754434 51.5198193,89.594458 C52.2523823,88.9430795 56.0210082,88.8246465 57.2624378,89.4128623 M81.1992564,89.6003818 C81.8088886,89.9112677 82.2986054,90.642584 82.6089629,91.7074908 C82.675471,91.9344839 82.8054539,92.2128041 82.8991672,92.327288 C83.0734928,92.5404651 83.4977166,94.0208688 83.643822,94.9298375 C83.7667587,95.685833 83.1077501,96.3796443 82.2673637,96.3796443 C81.4572099,96.3796443 80.9765575,95.821041 80.515055,94.3426119 C79.8530248,92.2187279 79.4126786,92.0904279 79.1516977,93.9458646 C78.8806373,95.8772957 78.8342881,95.9967189 78.2750358,96.2276612 C77.340942,96.6115768 76.3060769,95.8664444 76.3060769,94.8074613 C76.3060769,94.1254916 75.6480774,94.4689432 75.4455375,95.2575043 C75.1815292,96.2839159 74.0559842,96.67672 73.1531262,96.0579071 C72.7027063,95.7489957 72.6341859,94.5340804 73.0261588,93.7978248 C73.1611874,93.5451681 73.3203938,93.0645339 73.3798439,92.7289747 C73.4403032,92.3934155 73.5874236,91.9641025 73.7083421,91.7755928 C73.8292605,91.5860989 74.0106382,91.1291477 74.1124128,90.7590483 C74.2474414,90.2705158 74.4912907,89.9448236 75.0082186,89.5678161 L75.7186162,89.0496768 L78.1430346,89.1631764 C80.063626,89.2539772 80.698445,89.3447721 81.1992505,89.6003877" id="svg_10"></path>
        </g>
    </g>
</svg>