<?xml version="1.0" encoding="UTF-8"?>
<svg id="netflix" viewBox="0 0 548 148" version="1.1" xmlns="http://www.w3.org/2000/svg" xmlns:xlink="http://www.w3.org/1999/xlink">
    <g stroke="none" stroke-width="1" fill="none" fill-rule="evenodd">
        <g transform="translate(0, 0)" fill="currentColor" fill-rule="nonzero">
            <path d="M75.3516055,138.460342 C67.1080586,139.90696 58.7194844,140.340678 50.0419258,141.495834 L23.574168,64.0276937 L23.574168,144.820649 C15.3306211,145.68755 7.81007031,146.843775 0,148 L0,0 L21.9842187,0 L52.0664219,83.9739107 L52.0664219,0 L75.3516055,0 L75.3516055,138.460342 Z M120.909992,54.199247 C129.877605,54.199247 143.617207,53.7655289 151.860754,53.7655289 L151.860754,76.8900275 C141.591641,76.8900275 129.588086,76.8900275 120.909992,77.3237456 L120.909992,111.722774 C134.505637,110.855873 148.100746,109.698578 161.839812,109.26486 L161.839812,131.521388 L97.7687656,136.581076 L97.7687656,0 L161.839812,0 L161.839812,23.1250334 L120.909992,23.1250334 L120.909992,54.199247 Z M247.894008,23.1255682 L223.885828,23.1255682 L223.885828,129.500401 C216.075758,129.500401 208.265687,129.500401 200.746207,129.788655 L200.746207,23.1255682 L176.738027,23.1255682 L176.738027,0 L247.895078,0 L247.894008,23.1255682 L247.894008,23.1255682 Z M285.497297,52.6098388 L317.17159,52.6098388 L317.17159,75.7343374 L285.497297,75.7343374 L285.497297,128.199782 L262.789012,128.199782 L262.789012,0 L327.440168,0 L327.440168,23.1250334 L285.497297,23.1250334 L285.497297,52.6098388 Z M365.043457,107.964776 C378.20509,108.25303 391.510145,109.266465 404.382793,109.987902 L404.382793,132.824147 C383.701145,131.522458 363.018961,130.223443 341.903301,129.788655 L341.903301,0 L365.043457,0 L365.043457,107.964776 Z M423.907434,134.41409 C431.283492,134.848342 439.093563,135.282061 446.614113,136.147892 L446.614113,0 L423.907434,0 L423.907434,134.41409 Z M548,0 L518.639723,70.3869308 L548,148 C539.321371,146.843775 530.643812,145.253832 521.965719,143.808284 L505.334133,101.027961 L488.414098,140.340678 C480.023918,138.89406 471.924863,138.460342 463.537895,137.304117 L493.331113,69.5189599 L466.429344,0 L491.304477,0 L506.490605,38.8789992 L522.689785,0 L548,0 Z" id="Shape"></path>
        </g>
    </g>
</svg>