<?xml version="1.0" encoding="UTF-8"?>
<svg id="new-york-times" viewBox="0 0 887 125" version="1.1" xmlns="http://www.w3.org/2000/svg" xmlns:xlink="http://www.w3.org/1999/xlink">
    <g stroke="none" stroke-width="1" fill="none" fill-rule="evenodd">
        <g transform="translate(0, 0)" fill="currentColor" fill-rule="nonzero">
            <path d="M52.0163111,0.00740894762 C51.1770665,0.0477375258 50.3616942,0.261054479 49.5754992,0.763569789 C52.812055,1.4109496 56.6045705,1.84607373 58.6475104,4.79642761 C59.6713675,5.88423794 59.3525395,7.55575138 58.3286823,8.51090191 C56.3929026,10.8191824 53.068815,11.5435049 50.2258872,10.8059164 C40.5862454,8.52947429 31.4696726,4.10394347 21.5653133,2.95245643 C16.2603538,2.25201271 11.074756,4.80438719 7.41433393,8.49763593 C4.03507475,11.8884203 2.80644614,17.0356204 3.47540153,21.6840197 C4.22287032,25.3613493 6.9474975,29.1819514 10.8890824,29.7232034 C8.55490021,27.1867481 8.1119361,22.7824428 10.5309976,20.1451661 C11.8996771,18.4471207 14.3320011,18.2136394 16.3531906,18.5267166 C24.0294669,19.954136 31.5094598,22.2650696 39.1645163,23.8198424 C43.4509235,24.9872487 47.6869336,26.3801765 52.0688301,27.1761353 C52.1484045,32.4135441 52.1484045,37.6456465 52.0688301,42.8830552 C49.2412868,44.9949992 46.5410624,47.2687881 43.7665686,49.4497152 C46.466793,51.4714505 49.2518967,53.3658324 52.0428358,55.2602143 C52.2232045,62.6679373 52.0163111,70.0735378 52.148935,77.4807302 C47.5813649,81.0094808 41.4615637,81.5825711 35.9024967,80.9298849 C29.9975463,80.6014193 24.7562464,77.0827508 20.8889309,72.8111054 C27.3721219,69.3513379 33.9794489,66.0879069 40.6106482,62.9152152 C40.8435359,51.235316 40.6525574,39.5506411 40.7162169,27.8659662 C32.4298702,31.3416529 24.2284029,35.0030633 15.9685811,38.5318139 C18.3558128,32.4241569 23.2119727,27.4759464 29.0055189,24.5362054 C27.493075,24.626414 25.9068921,24.5149798 24.4963034,25.1729724 C13.6529662,29.4552306 4.71676204,38.6591673 1.35394825,49.8874925 C-0.895354564,57.0192832 -0.171227598,64.8164954 2.26905375,71.7896249 C5.29288064,79.5475698 10.8869604,86.4145715 18.3032937,90.3354645 C22.4682174,92.4898596 26.9509081,94.5084111 31.7253716,94.567312 C41.6085111,95.3898027 52.0057011,91.6599399 58.6745657,84.2198479 C61.5864579,81.0943831 63.0538097,77.0196047 64.4967587,73.0764249 C65.8341389,69.1926767 66.4383738,65.0584668 66.3004449,60.9513195 C63.1015543,67.2977642 58.8469768,73.2589648 53.0380462,77.4674642 C53.0746505,70.0862731 53.0247838,62.7077352 53.0507781,55.3265442 C55.5764693,53.4003239 58.1117095,51.4767569 60.5572958,49.4497152 C58.04805,47.226337 55.554719,45.005612 53.0507781,42.7769274 C53.0619186,37.5872761 53.0401682,32.3870121 53.0507781,27.2026673 C58.70056,26.9055093 65.2017878,23.9233171 66.7243111,17.9960774 C67.785303,14.1277177 68.3396713,9.54564833 65.9683544,6.0434297 C63.7880161,3.5600383 60.9604727,1.40299001 57.6395681,0.803367728 C55.8008691,0.642584054 53.8619064,-0.0806771574 52.0163111,0.00740894762 L52.0163111,0.00740894762 Z M25.5838201,35.6000324 C25.5626002,46.8495831 25.6501321,58.0991339 25.5440329,69.3492153 C23.6660772,70.0868038 21.8194208,70.8933753 19.9738254,71.710029 C16.5680415,66.7809216 14.4513626,60.9778515 13.4752501,55.0877565 C13.2100021,50.1156673 14.1330651,45.0799015 15.8624819,40.415583 C19.1303369,38.8608102 22.326575,37.1813372 25.5838201,35.6000324 L25.5838201,35.6000324 Z M673.558623,0.00740894762 C672.648292,-0.0201842901 671.758651,0.158641116 670.919406,0.763569789 C672.829191,1.20400031 674.847198,1.39237722 676.634969,2.28915745 C678.226457,3.05327788 679.279492,4.63458266 679.830677,6.26895135 C680.128285,8.03597984 678.833875,9.66504214 677.284827,10.3283411 C674.505028,11.612488 671.350699,11.0181721 668.518381,10.2487452 C661.727503,8.16863964 655.114871,5.47829896 648.187124,3.85454305 C644.627496,3.09572901 640.895457,2.37936611 637.299225,3.32390386 C633.39955,4.42232698 629.44205,6.29017692 627.140228,9.77116998 C624.16892,13.6076913 623.795451,18.884898 625.243705,23.3953311 C626.437321,26.4040553 628.856382,29.3623688 632.272776,29.7497354 C631.158204,28.3170096 629.240992,26.8710178 629.792708,24.8280569 C630.100395,22.8010152 630.940701,20.7447884 632.564549,19.4288032 C634.188397,18.2030267 636.410645,18.2189458 638.293905,18.7655042 C645.201493,20.049651 651.943566,21.9891373 658.771579,23.6075868 C663.397504,24.5892693 667.840408,26.3164998 672.498162,27.1761353 C672.577736,32.3923185 672.516729,37.6085017 672.537419,42.8299913 C670.034008,45.0427567 667.530067,47.2528689 665.057426,49.5027791 C667.550757,51.4289993 669.998996,53.4029771 672.524156,55.2867462 C672.56076,62.7109191 672.511424,70.1446434 672.563943,77.5735921 C668.182047,80.857718 662.415556,81.6674734 657.099987,80.9293543 C651.227927,80.5791324 646.092196,77.0456061 642.193051,72.8641693 C643.789843,71.7492963 645.614749,71.0334641 647.338861,70.1313775 C652.187594,67.7435011 656.97532,65.2441906 661.861188,62.9412165 C662.015032,51.2512352 661.879755,39.5559475 661.9275,27.8659662 C653.693672,31.3734913 645.524565,35.0455144 637.259438,38.47875 C639.148004,33.9948489 642.166526,29.8930079 646.224289,27.1496033 C647.439655,26.0405674 648.669876,24.8784676 650.335633,24.4964074 C648.669876,24.613148 646.945764,24.5574309 645.428545,25.3321641 C633.78469,30.0442401 623.853275,40.3227212 621.662327,52.9519338 C620.829979,59.3620552 621.426787,66.0189238 623.664949,72.0947425 C626.534402,79.2265331 631.587906,85.562365 638.160751,89.6058356 C641.306592,91.5214431 644.685851,93.0629499 648.213119,94.129004 C656.658614,95.5351979 665.717363,94.3200341 673.107171,89.8308266 C677.981899,86.4294294 682.510212,82.0198178 684.552091,76.2995274 C686.74357,71.4441788 687.624193,66.1404401 687.735066,60.8446611 C686.716514,62.1765654 686.119706,63.7605234 685.254998,65.1826364 C682.448674,69.8947124 678.81743,74.1637046 674.393093,77.4271356 C674.446143,70.024719 674.326781,62.6223023 674.459405,55.2198857 C676.963346,53.4104061 679.312913,51.3939771 681.832769,49.5951103 C679.509727,47.1860084 676.872631,45.1059028 674.405825,42.8559926 C674.358081,37.6663414 674.46418,32.4713837 674.352776,27.2817325 C679.206814,26.9686554 684.116554,24.7903815 686.726594,20.5293489 C689.442733,16.1515756 689.426818,10.1871911 686.805638,5.77757946 C684.742008,3.05009404 681.498556,1.29367834 678.145822,0.789571109 C676.641866,0.667524096 675.075311,0.054105196 673.558623,0.00740894762 L673.558623,0.00740894762 Z M646.914464,35.5867664 C646.977593,46.8150916 646.914464,58.0407636 646.940459,69.2690888 C645.025899,70.070354 643.13415,70.9167235 641.224365,71.723295 C638.455176,67.8284034 636.29871,63.4479769 635.189974,58.7889648 C633.964528,52.6866142 634.288661,46.0721967 637.126284,40.442115 C640.415359,38.871423 643.656689,37.2264415 646.914464,35.5867664 Z M252.378794,3.74841521 C255.54055,9.28828832 253.5618,16.7968328 248.803252,20.7872395 C245.880219,22.6922342 242.516875,23.7428998 239.222495,24.8094845 C239.296764,47.4677778 239.233635,70.1313775 239.243715,92.7896707 C239.477133,93.8244171 238.527545,94.6357645 237.551963,94.2223965 C235.625732,94.1321879 235.116456,92.0998398 234.299492,90.7307907 C222.448213,68.9321329 210.724783,47.0591856 198.777484,25.3082854 C198.549371,41.3070568 198.772179,57.3217475 198.66608,73.3252947 C204.310557,74.3924101 209.806495,77.1145892 213.498746,81.6037967 C215.212248,80.2771987 216.320985,77.9423863 218.517238,77.4064407 C217.960217,78.4199616 217.148559,79.2525344 216.374034,80.1020878 C212.103542,84.8300829 207.84366,89.5793037 203.578472,94.3179116 C201.600253,91.8239074 198.963688,89.4572566 195.663473,89.1176476 C193.493744,89.0327453 190.985029,89.1441795 189.403621,90.8581441 C187.584019,92.4819 186.364409,95.2199982 187.663594,97.5388915 C189.186117,100.865999 193.016298,101.768086 196.241713,102.564045 C192.209944,103.360003 187.695954,102.893041 184.444014,100.192087 C181.855194,97.979322 179.504566,95.17171 178.831367,91.7443115 C177.924219,87.0216228 179.335338,81.7730706 182.863136,78.4247373 C186.720372,74.6094416 192.374928,73.1873285 197.669278,73.4897929 C197.812512,66.5166633 197.748852,59.544595 197.701108,52.5719961 C195.128202,52.163404 191.621624,52.529545 190.422703,55.2198857 C189.727754,57.4008127 191.362212,59.2368243 192.979694,60.4307625 C190.974419,60.0805406 188.746336,59.6984804 187.298082,58.1437076 C185.589885,56.03707 184.263645,53.5483722 183.770284,50.863338 C183.276923,47.4088769 184.184071,43.4715341 187.059359,41.2481559 C190.067271,38.9186499 194.072515,38.6002664 197.743547,38.6851686 L197.743547,23.944012 C196.412002,21.9435023 195.133507,19.651141 192.8476,18.6163946 C191.351602,17.9955467 189.399377,17.7726783 188.110271,18.9400845 C186.327805,20.4524062 185.897573,22.8562017 185.192544,24.9628393 C184.508204,19.8209455 185.022785,13.9892209 188.624852,9.95636306 C192.974919,4.3209749 202.179024,4.11402561 206.937573,9.32490243 C208.995897,11.4421528 210.407016,14.0528976 211.808056,16.6264976 C220.614289,32.312192 229.245458,48.0987078 238.141875,63.7313382 C238.194924,50.7678229 238.221449,37.7942254 238.131265,24.8301795 C236.602906,24.2358636 234.900544,24.2517827 233.345661,23.7105308 C230.449153,22.9464103 228.035396,21.0785604 225.892193,19.0568251 C224.555343,20.6275171 223.207353,22.1929027 221.961218,23.8325778 C221.669445,23.673386 221.091204,23.3603089 220.799962,23.2011172 C225.362227,17.4489884 230.252869,11.9568728 235.001339,6.35332298 C237.489365,8.97468056 240.73653,11.1184629 244.438861,11.3572505 C248.304585,10.9120442 252.108241,7.81841777 252.378794,3.74841521 L252.378794,3.74841521 Z M548.512771,16.298032 C554.878723,12.1484335 561.233534,7.96169036 567.621235,3.84393027 C567.674285,28.3276223 567.573491,52.8166208 567.674285,77.3003129 C569.054105,79.1787756 570.936835,80.7229356 572.608428,82.3737541 C573.658279,81.2487991 574.751101,80.1716015 575.833843,79.0837912 C576.087951,79.3379674 576.597227,79.8479116 576.8577,80.097312 C571.759634,84.5170058 566.820717,89.1070348 561.690821,93.4800323 C558.460101,90.1635374 555.117446,86.9637831 551.913781,83.6308384 C550.475606,84.9096788 549.160507,86.3110969 547.807742,87.6748396 C547.531354,87.4625839 546.979638,87.0322356 546.704311,86.8205105 C549.149367,84.4803917 551.770547,82.3366094 554.242658,80.0177161 C554.221438,61.4612638 554.258573,42.9048114 554.221438,24.3536655 C554.162023,20.8827546 552.395471,16.7278497 548.512771,16.298032 Z M73.1719589,17.0197013 C78.651982,12.9337795 84.0259059,8.69927882 89.511234,4.62927626 C89.5377588,18.1181244 89.505929,31.6122789 89.5271489,45.1064334 C94.1689884,41.2752185 98.8474321,37.4917611 103.441527,33.6074822 C107.128474,37.4333908 110.571393,41.498087 114.369744,45.2019485 C115.972372,44.0504614 117.616379,42.9573447 119.298051,41.9279047 C118.996199,44.0663806 116.438678,44.7986627 115.112438,46.2897588 C115.128353,53.6656435 115.112438,61.0362218 115.117743,68.4121065 C115.223842,73.9259783 114.428098,79.4016441 114.264175,84.9096788 C114.014311,90.8846761 111.696574,96.9928637 107.03882,100.913757 C103.250548,104.299765 98.0734386,105.519705 93.1345213,105.928297 C93.0496419,106.045038 92.8692733,106.283825 92.779089,106.405342 L92.911713,105.970748 C91.208821,105.970748 89.511234,105.907071 87.813647,105.779718 C89.9467712,104.675989 92.3599972,103.970238 94.0416694,102.14484 C95.9726746,99.9899139 98.2219774,97.9368708 99.1715652,95.1191768 C100.725918,90.8209993 100.773663,86.1885192 100.927507,81.6780862 C100.885067,71.5694097 100.975251,61.4554268 100.879762,51.3520566 C98.6304593,48.4176219 95.9355399,45.8281027 93.5483081,42.9944895 C92.2432881,44.3900705 90.6788556,45.5627831 89.5589786,47.1122495 C89.4687943,57.544616 89.5483687,67.9822888 89.5218439,78.4141245 C90.8751391,79.7624787 92.2220683,81.120915 93.5854429,82.4581258 C94.678795,81.3597027 95.7710861,80.2559731 96.8639078,79.1522436 C97.1084664,79.3910313 97.5906872,79.8686065 97.8347154,80.1073942 C92.5297559,84.2569926 87.2783766,88.4707984 81.9734171,92.6145598 C78.6153778,89.6323676 75.3369128,86.5652731 72.0319231,83.5247105 C70.9231866,84.3525077 69.81445,85.1909176 68.7004085,86.0128777 C68.4622159,85.7634773 67.9948489,85.2646764 67.7566563,85.015276 C70.3030368,83.3756009 72.8016727,81.662167 75.3215284,79.9901229 C75.3162235,61.4389769 75.3162235,42.8931374 75.3215284,24.3419914 C75.2679483,22.9251848 75.3374433,21.3969439 74.589444,20.1340227 C74.0955523,19.1682593 72.9820413,18.8604886 72.1486322,18.2767855 C71.9624281,17.6617747 72.8430514,17.4017615 73.1719589,17.0197013 L73.1719589,17.0197013 Z M438.548919,7.17103797 C433.562258,11.2092022 428.687,15.3720666 423.748083,19.4686011 C423.695033,15.6055478 423.814395,11.7504541 423.681771,7.88740087 C422.918387,7.85025613 422.581522,8.1951716 422.687091,8.92214728 C422.660566,36.2288398 422.695579,63.5328792 422.674359,90.8395717 C419.979439,90.3243211 417.279215,89.7862529 414.61082,89.1813243 C414.568381,66.1515836 414.608168,43.1266186 414.597558,20.0921022 C414.539734,17.178893 413.594921,14.2497647 411.67983,12.0263865 C409.292599,9.19807966 405.56056,7.88474767 401.959023,7.63534726 C397.688,7.51330024 393.77294,9.757904 390.791552,12.6498876 C388.048888,15.255326 386.577293,19.2828774 387.356591,23.0238837 C387.690804,20.7049904 388.44676,18.0915924 390.579354,16.8021392 C392.918841,15.8045375 396.035505,16.6084559 397.436014,18.8053021 C398.634935,20.577637 398.754297,22.7930556 398.802041,24.8678548 C398.812651,31.0922525 398.796206,37.3166502 398.802041,43.5463542 C394.696003,43.6100309 389.84727,44.2733299 387.475422,48.0833193 C385.08819,51.0655115 384.350801,55.2947058 385.990034,58.8022308 C387.06694,62.2726111 390.674313,64.0613958 394.026517,64.6127299 C392.149092,63.3980968 390.238776,61.2596209 391.347512,58.8818267 C392.838736,56.4939504 396.228075,56.1437285 398.747931,56.8388658 C398.848725,67.8862431 398.80098,78.9293752 398.774455,89.977283 C395.007934,91.2927376 391.342207,93.5776699 389.331628,97.1276461 C387.867459,99.658795 387.830324,102.686092 387.952338,105.525011 C388.40326,110.502407 391.68703,115.046801 396.095451,117.318467 C399.426965,118.878546 403.177572,118.926304 406.784944,118.804257 C417.023516,118.194552 426.750159,114.129326 437.009951,113.790247 C440.065607,113.561542 441.856031,116.939591 441.054982,119.58748 C440.444912,121.980663 438.439637,123.599113 436.545767,125 C440.147834,124.23588 443.733987,122.88275 446.545615,120.435972 C449.717981,117.746162 451.176845,113.407656 450.975787,109.332347 C450.737064,105.29949 447.485124,102.298725 444.105864,100.563535 C439.655003,97.95279 434.28108,98.5343706 429.384602,99.0650098 C420.185802,100.126288 411.220421,103.047457 401.931437,103.296857 C398.780821,103.509113 395.839221,101.277775 395.207401,98.1894551 C394.496536,95.2130999 396.912945,92.6092534 399.358531,91.3309436 C404.65235,88.831633 410.745627,89.7570678 416.26809,90.9196982 C422.671176,91.5888343 428.679042,94.2017016 435.087433,94.8596942 C438.726636,95.2735928 442.591829,94.5736797 445.577991,92.3662207 C448.654867,90.4665324 450.042114,86.7647934 450.126463,83.2790246 C450.164128,61.5440435 450.087206,39.811185 450.166781,18.0767345 C452.150835,16.3521572 454.338601,14.8053439 456.068548,12.8101406 C453.648956,13.4097629 452.132268,15.6782454 450.153518,17.0685201 C446.243233,13.8146406 442.416235,10.4769201 438.548919,7.17103797 L438.548919,7.17103797 Z M427.699747,18.1552691 C429.92783,20.0655702 432.121431,22.013016 434.344209,23.9392363 C434.349514,30.7844818 434.328294,37.6297273 434.344209,44.4749728 C433.288522,45.5150256 432.134693,46.6134487 430.59095,46.8097852 C428.076399,47.3404244 425.62816,46.0960755 423.73429,44.5413027 C423.7449,36.5498765 423.739595,28.5611036 423.73429,20.5696774 C425.06106,19.7737186 426.384647,18.9777599 427.699747,18.1552691 L427.699747,18.1552691 Z M423.73429,46.4383378 C426.992065,48.093932 431.182983,48.5953861 434.344209,46.4516038 C434.333599,49.555843 434.333599,52.6733482 434.344209,55.7775875 C433.060408,54.525279 431.411096,53.5303305 429.569745,53.5356369 C427.405852,53.4878794 425.416492,54.5093598 423.73429,55.7775875 C423.7449,52.6680418 423.728985,49.5531898 423.73429,46.4383378 Z M429.54322,54.5173194 C431.643984,54.5703833 433.256692,56.1384221 434.344209,57.7940164 C434.328824,66.4593543 434.350044,75.1299986 434.344209,83.7953365 C434.513967,86.4538388 432.684287,88.7276278 430.684317,90.2558686 C428.753312,91.7894159 426.132662,91.8424798 423.78787,91.7151264 C423.655246,80.3965925 423.782034,69.0600169 423.73429,57.7409525 C425.251508,56.0906646 427.171903,54.485481 429.54322,54.5173194 Z M690.711679,21.2966531 C694.148762,18.2826225 697.384788,15.0457235 700.897201,12.1165952 C703.867979,15.2526728 706.997905,18.234865 710.015896,21.3231851 C706.392609,24.7139695 702.748102,28.0782219 699.07707,31.4159424 C696.303637,28.025158 693.449038,24.7139695 690.711679,21.2966531 L690.711679,21.2966531 Z M293.953762,24.5229394 C296.10227,23.0477624 298.818409,23.1379711 301.301661,22.8195876 C299.42901,24.3000709 297.349466,26.0193419 297.094298,28.5717164 C296.675206,30.8534649 298.118685,32.9070385 299.800357,34.2760876 C302.861319,36.7276407 306.792294,38.0966898 309.285625,41.2380737 C310.484546,42.7557018 311.211325,44.6766157 311.158276,46.6240615 C311.142361,56.9184617 311.168885,67.2075555 311.142361,77.4966494 C313.879189,79.7094148 316.627689,81.8956482 319.359212,84.1084136 C320.154956,83.5936936 320.9507,83.0795043 321.75228,82.5642536 C321.715145,71.330622 321.810104,60.0916841 321.704004,48.8633589 C320.298721,47.2024582 318.351801,46.0138264 316.743867,44.5333431 C320.690757,40.8984647 324.558073,37.1680712 328.584537,33.6234014 C332.08581,37.0619434 335.767452,40.3147616 339.358909,43.6577884 C337.995514,45.1005268 336.592706,46.5054831 335.152077,47.8710636 C335.125552,57.7462588 335.152077,67.6214541 335.136162,77.4966494 C338.722314,80.2771987 342.308997,83.0630544 345.931754,85.8011526 C346.441561,85.5034641 346.956142,85.2121431 347.481333,84.9202916 C347.427753,72.8593935 347.486638,60.8027406 347.448973,48.7413118 C345.78852,47.3245052 344.069713,45.9713753 342.430481,44.5280367 C346.303101,40.8666263 350.223466,37.2688926 354.117307,33.6340142 C357.995232,36.6692704 361.878462,39.7045265 365.734637,42.7663146 C367.072018,41.2911377 368.440697,39.8265735 369.967995,38.5371203 C370.164279,38.8183591 370.567455,39.386143 370.763739,39.6673818 C367.464054,42.6071229 364.185589,45.5840087 360.986699,48.635184 C360.71031,58.2503661 360.981394,67.8973865 360.854075,77.5178749 C352.456324,83.0365225 343.687226,88.072819 335.167461,93.4423569 C330.67363,90.2213771 326.308179,86.8252863 321.872702,83.5300169 C317.893983,86.7297712 313.909958,89.9348319 309.904714,93.1027479 C309.331778,93.7395149 308.742927,92.8108963 308.270786,92.5455767 C304.524954,89.5368525 300.801403,86.5010657 297.008357,83.5618553 C295.416869,84.9515993 293.746338,86.2516653 292.149545,87.64194 C291.894907,87.397846 291.396241,86.9149643 291.141602,86.6761767 C293.088523,85.3288838 294.993003,83.9115465 296.939923,82.563723 C296.951064,73.2403925 296.951064,63.9223683 296.939923,54.5990378 C296.934618,52.1050337 296.0593,49.5791911 294.356408,47.7325668 C292.483757,45.7002187 289.963901,44.2727993 288.473208,41.8902293 C286.823365,39.1202928 286.674827,35.6870572 287.306117,32.5929001 C288.22971,29.0970492 291.004735,26.4332404 293.953762,24.5229394 Z M884.36445,31.1824612 C884.746407,32.1588373 884.86789,33.2493008 884.390444,34.2203705 C883.218578,36.9000984 880.024993,37.9295384 877.308323,37.8817809 C874.465395,37.6270741 872.247392,35.58146 870.332301,33.6499334 C867.117496,35.8043285 863.887306,37.9428044 860.677806,40.0971995 C856.974944,42.5912037 852.886942,44.4325217 848.780904,46.1464862 C848.765519,51.4210397 848.785678,56.6849805 848.768172,61.959534 C851.765474,64.4588446 854.847655,66.8467209 857.786603,69.4150146 C855.531995,71.8028909 853.309217,74.2247281 851.181928,76.7240387 C848.996815,79.3560091 846.932656,82.3965716 846.805337,85.9311592 C846.678018,89.9475672 848.396825,94.296686 851.951147,96.4240185 C853.521415,97.3473307 855.431201,98.1698214 857.256107,97.4587649 C854.985584,96.646887 852.192523,95.0019055 852.388807,92.2319689 C853.019566,89.6106114 856.131455,87.8568489 858.714971,88.6103565 C861.393975,89.3744769 863.606143,91.2900844 865.319645,93.4391731 C872.205483,88.4776967 879.457362,84.0442063 886.990405,80.1333955 C886.932581,73.442566 887.083772,66.734756 886.924093,60.0487023 C883.597883,57.7138899 880.425517,55.169475 877.136973,52.7922114 C880.617026,48.3825998 884.117769,43.7182813 885.571328,38.1996338 C886.111903,35.8706584 886.294924,32.9335705 884.36445,31.1824612 L884.36445,31.1824612 Z M862.189189,41.2115418 C864.423107,44.4219089 867.380091,47.5447205 871.433611,48.2027131 C875.470155,49.1525572 879.382562,46.9636706 882.030268,44.0504614 C878.40698,50.7524344 872.786376,56.1331157 866.977445,60.9513195 C865.407177,59.2851125 863.717547,57.7329929 862.163725,56.056173 C862.226323,51.1106158 862.173274,46.157099 862.189189,41.2115418 L862.189189,41.2115418 Z M867.878758,61.2166391 C869.618784,62.6812033 871.338122,64.1717688 873.077618,65.6474763 C873.873362,66.1250516 873.483978,67.1226533 873.594852,67.8761609 C873.547107,73.6229833 873.666999,79.3883781 873.52854,85.1352005 C872.229355,82.1949287 870.282435,79.4600144 867.534466,77.7189872 C863.549911,75.1140794 858.07254,74.9628473 854.019551,77.4934655 C852.162815,78.5223749 850.677427,80.059106 849.271612,81.6191852 C851.282192,77.6924552 854.53148,74.5935224 857.587667,71.4834461 C861.07833,68.1202549 864.568463,64.7613089 867.878758,61.2166391 Z M151.523558,33.6366674 C146.940073,36.2898633 142.510962,39.1845001 138.022966,41.9809686 C134.21878,43.9655592 130.354647,45.8387155 126.523936,47.7649357 C126.539851,58.5103793 126.508552,69.2558228 126.550991,80.0012663 C124.917064,81.2700246 123.0094,82.1821934 121.524012,83.6366674 C121.81048,83.8059493 122.37811,84.1513954 122.664578,84.3265063 C123.948378,83.2174704 125.218386,82.087209 126.630035,81.1426712 C131.377974,85.0900961 135.858543,89.3649254 140.595341,93.3341065 C140.828229,93.2125902 141.298248,92.9658429 141.536971,92.8432653 C149.55754,86.624174 157.661396,80.4979446 165.687269,74.2841597 L164.692589,73.4086051 C160.225813,76.8895981 155.881051,80.5541924 151.456715,84.0877187 C147.801598,80.7977558 144.265843,77.3777862 140.621335,74.0719041 C139.379975,73.1645111 140.074925,71.4425869 139.98474,70.1584401 C147.470038,64.6769373 154.958519,59.1927813 162.331882,53.5626995 C158.650771,46.9610174 155.08849,40.3014956 151.523558,33.6366674 L151.523558,33.6366674 Z M139.958746,41.5564573 C143.746487,47.7808549 147.552795,53.984027 151.298097,60.2349566 C147.489136,62.9146845 143.712005,65.6262508 139.946014,68.3537362 C139.908349,59.4230787 139.889781,50.4871148 139.958746,41.5564573 L139.958746,41.5564573 Z M275.580034,33.6234014 C272.349314,35.7512646 269.097374,37.8525957 265.792384,39.8584119 C260.960097,42.8830552 255.721449,45.1594973 250.659987,47.7649357 C250.675902,58.5050729 250.63081,69.2478632 250.67325,79.9880004 C249.114122,81.1501002 247.39001,82.0707592 245.872261,83.2912293 C246.03141,83.5724681 246.36297,84.1375988 246.522119,84.4188376 C248.203791,83.2885761 249.864243,82.1291295 251.588355,81.0625447 C255.933117,85.2174495 260.341538,89.3092083 264.71813,93.4269684 C272.904213,87.3453127 280.935391,81.0471562 289.0419,74.8545969 C290.081672,74.6423412 289.227573,72.9549086 288.564453,73.6070641 C284.171947,77.0137677 279.909942,80.5955822 275.580565,84.0871881 C272.185391,80.7176292 268.814089,77.3326819 265.43483,73.9519796 C264.341478,72.9915227 264.989213,71.3889923 264.930859,70.1313775 C272.134994,64.7825345 279.11632,59.1285739 286.33637,53.8009565 C283.00963,46.955711 279.118442,40.3678255 275.580034,33.6234014 Z M264.837492,41.7687129 C268.550963,47.8179997 271.954095,54.0689293 275.381098,60.2880205 C271.84269,62.8828462 268.423644,65.6368636 264.916535,68.2741403 C264.752612,59.4443042 264.917066,50.6038554 264.837492,41.7687129 Z M484.834691,33.6499334 C481.290978,35.7141198 477.794479,37.841983 474.357396,40.0706675 C470.320322,42.5328334 465.908717,44.2812895 461.612231,46.2128161 C461.713025,57.4835924 461.641408,68.757022 461.652018,80.0283289 C460.214374,81.4605241 458.763467,82.8884741 457.368263,84.3525077 C457.660566,84.3365885 458.243581,84.2941374 458.535354,84.2734424 C459.553906,83.1851015 460.614898,82.1238231 461.66528,81.0625447 C466.487488,85.0105003 471.23808,89.0438887 476.028458,93.028989 C476.818366,93.7925788 477.712783,92.6548884 478.482002,92.3784254 C486.184803,88.1651502 493.462677,83.2010206 501.398896,79.4175632 C501.52091,68.9162137 501.436031,58.4175174 501.452476,47.9108615 C502.884815,46.4781357 504.335722,45.0507163 505.736231,43.5861522 C505.455068,43.5914585 504.894864,43.6153373 504.608927,43.6259501 C503.271547,44.7243732 501.919313,45.7936112 500.576627,46.8761151 C495.325248,42.4718099 490.09668,38.0330131 484.834691,33.6499334 L484.834691,33.6499334 Z M475.855516,41.4370634 C479.643788,44.9976524 483.499963,48.5051774 487.288234,52.0763791 C487.2511,63.2569468 487.26171,74.4322081 487.26171,85.6127757 C483.378479,82.2060722 479.691002,78.5929499 475.856047,75.1326518 L475.855516,41.4370634 L475.855516,41.4370634 Z" id="Shape"></path>
            <path d="M569.172175,58.1321578 C574.640825,49.7184063 580.226281,41.3791599 585.832974,33.050557 C588.261641,35.1180649 591.258905,36.3984546 594.428842,36.7225928 C597.529513,36.7279146 600.173048,34.8812531 602.509701,33.0345916 C601.920361,37.5740793 600.4125,42.2891861 596.934864,45.4450082 C593.903214,48.2336266 589.305301,48.9041723 585.487865,47.5417938 C583.236693,46.7754559 581.15542,45.5727311 579.291301,44.098595 C578.96212,44.8755765 578.691342,45.679167 578.494896,46.4987228 C586.257193,58.2173065 593.881446,70.042326 601.50623,81.8567019 C603.257791,80.7178386 604.792199,79.2804229 606.337756,77.8813241 C606.64039,78.0723764 607.239817,78.4560775 607.542982,78.6471298 C602.058405,83.5484993 596.398618,88.2529625 590.775996,93 C583.549946,81.3937061 576.483176,69.685766 569.172175,58.1321578 L569.172175,58.1321578 Z M831.771423,33 C828.394134,35.0595331 825.004102,37.1164053 821.670349,39.2397999 C817.056508,42.4541616 811.765722,44.455155 806.870484,47.1692684 C806.923578,57.9405733 806.870484,68.7198609 806.8965,79.485844 C805.208121,80.6034201 803.54151,81.7417512 801.8526,82.8385723 C802.070284,83.1046619 802.510962,83.6501455 802.728646,83.916235 C804.183413,82.8359114 805.497482,81.5533598 807.069586,80.6167246 C811.449815,84.6985383 816.031269,88.5594976 820.475741,92.5774498 C820.89996,93.258639 821.519032,92.5614844 821.94856,92.2847513 C829.955088,86.1008302 837.982853,79.9541616 846,73.7915277 C845.060242,72.1417725 843.99359,73.7409707 843.0533,74.4168381 C839.288958,77.4880437 835.53258,80.555524 831.75815,83.610232 C827.897708,80.0818846 824.170531,76.4231533 820.236289,72.9794224 C820.176297,71.8716346 820.172044,70.76152 820.223546,69.6533031 C827.736303,64.1984673 835.161986,58.6159086 842.615808,53.0764564 C839.026144,46.365678 835.423738,39.6682041 831.771423,33 L831.771423,33 Z M820.183195,41.1290357 C824.244862,47.1479813 827.813289,53.5075215 831.625415,59.7020861 C827.760195,62.358192 824.001162,65.1675655 820.157179,67.8444263 C820.220361,58.94107 820.162489,50.032392 820.183195,41.1290357 L820.183195,41.1290357 Z M521.929414,33.8860782 C524.966903,36.6587313 527.520179,39.9263109 530.339984,42.9224792 C533.408799,39.9742071 536.408593,36.9407862 539.37122,33.8807564 C541.526824,35.2644221 543.772687,37.2068758 546.538868,36.6480877 C548.487406,36.5150429 549.501496,34.5991982 551.158041,33.8168949 C551.163328,37.888065 550.228879,42.1667849 547.541808,45.3279288 C544.462374,49.0212517 538.637997,50.1015753 534.518457,47.5684028 C532.936266,46.7967431 531.88448,45.3172852 530.409006,44.4072589 C530.445641,55.5404456 530.429713,66.6683105 530.419625,77.8014972 C532.607085,79.4885049 534.799854,81.1701909 537.051026,82.7773717 C538.686312,81.70237 539.944101,79.7226637 542.009977,79.5364011 C537.156683,84.1663592 532.070839,88.5728021 527.01101,92.9845668 C523.209502,89.3923579 519.323045,85.8906195 515.563481,82.2563684 C514.098095,83.5756404 512.744206,85.0130561 511.348373,86.4020436 C511.125379,86.1412758 510.679392,85.6245299 510.456399,85.3642943 C512.29875,83.310083 514.353476,81.4580998 516.238301,79.441141 C516.16928,69.9151352 516.275467,60.3891294 516.190517,50.8684453 C515.181737,48.4629958 513.429645,46.3768538 512.160706,44.0778401 C510.424012,45.1049457 509.160913,47.2443057 507,47.3188108 C511.911166,42.7681473 517.045325,38.4628184 521.929414,33.8860782 L521.929414,33.8860782 Z M718.944155,45.7962464 C723.462427,41.8315121 727.885131,37.7656638 732.429951,33.8328603 C735.689903,37.4357128 739.061352,40.9374512 742.262901,44.5935216 C747.062571,41.1183921 751.671634,37.3824949 756.422988,33.8328603 C759.752493,37.4091038 763.017223,41.043887 766.378054,44.5935216 C771.087464,41.0172781 775.739001,37.3665295 780.480268,33.8381821 C783.718982,37.4569999 787.058575,40.9853473 790.334987,44.5722344 C792.341397,43.2896828 794.184279,41.7516852 796.228386,40.5223515 C796.382358,41.7144327 795.299246,42.2572554 794.545316,42.9171575 C793.451055,43.8005748 792.389181,44.7265664 791.295982,45.6046619 C791.205192,55.5138367 791.31722,65.4230114 791.237579,75.331654 C793.122125,77.2918335 795.044479,79.2151367 797.003554,81.1004754 C798.038881,80.020684 799.100754,78.9611154 800.109534,77.8541829 C800.412168,78.0457674 801.022746,78.4236146 801.32538,78.615199 C796.371739,83.5059249 791.264657,88.2481729 786.178282,93 C782.594458,88.7585326 778.835425,84.6554318 775.33602,80.3394593 C776.18605,79.557156 777.013781,78.742922 777.831424,77.9238984 C777.842042,69.3765699 777.831424,60.8297736 777.831424,52.2882992 C775.123646,49.2607323 772.426486,46.2214575 769.634289,43.2737174 C768.826734,44.098595 768.01971,44.9181509 767.223305,45.7478181 C767.212686,56.4339743 767.26578,67.1201306 767.196758,77.8062868 C768.540029,79.3176754 770.053199,80.6694103 771.417706,82.1754772 C767.748933,85.437735 764.212893,88.8543248 760.565888,92.1485134 C757.158535,88.556596 753.804417,84.914318 750.504634,81.2228766 C751.444393,80.0627262 753.328688,79.2218832 753.031894,77.4550486 C752.989419,69.121124 753.074369,60.7818775 752.989419,52.4538069 C750.717009,49.2820194 748.168512,46.2113461 745.535065,43.3162918 C744.765738,44.1358476 743.98473,44.939438 743.198943,45.7430285 C743.220712,56.0939119 743.141071,66.4501171 743.236109,76.8010005 C744.351076,78.7056695 746.012909,80.2654864 747.398654,81.9838927 C743.836067,85.7362875 740.156675,89.3811821 736.445426,92.9840346 C732.898768,88.7484212 729.224685,84.6240332 725.65148,80.4144966 C726.766978,79.5465125 727.892033,78.6902363 729.01231,77.8227844 C728.980454,69.0785496 728.948598,60.3300575 729.028238,51.5863549 C726.936878,48.9893209 724.6427,46.5625843 722.444621,44.0560207 C720.884198,45.2161711 719.509071,46.6743419 717.724593,47.4938977 C717.63805,46.6796637 718.439765,46.2911729 718.944155,45.7962464 L718.944155,45.7962464 Z" id="Shape"></path>
            <path d="M687,46.62174 C691.651795,42.3437239 696.46746,38.2302468 701.16683,34 C704.512951,37.8215529 707.763393,41.7280292 711.094184,45.5655053 C712.822748,44.2067309 714.371056,42.5931863 716.284635,41.473259 C716.14191,42.0836459 715.978569,42.7152637 715.412953,43.060265 C713.979882,44.2545003 712.558442,45.4540433 711.1148,46.6164323 C711.136473,56.5153159 711.072511,66.4088918 711.147045,76.3077753 C713.029436,78.4414757 714.974204,80.5327144 716.729728,82.7826537 C718.193986,81.8861811 719.415082,80.6595687 720.810621,79.6622496 C721.106644,79.8209502 721.703448,80.134636 722,80.2885596 C717.353491,84.6621146 712.53254,88.8552074 707.690444,93 C704.471191,89.1152853 701.167359,85.2932016 697.874628,81.4668718 C696.441558,82.772569 695.246893,84.3542673 693.67744,85.4901178 C693.455423,85.283117 693.011388,84.8585 692.788842,84.6461915 C694.184909,83.3192634 695.501155,81.9074119 696.917838,80.5910992 C697.028847,71.5998345 696.923125,62.5979543 696.9707,53.6061587 C696.886122,52.3535386 697.288396,50.8726869 696.315748,49.8748369 C694.591941,47.7252134 693.006102,45.464128 691.172343,43.4100433 C689.806935,44.5198859 688.511305,45.7247366 687,46.62174 L687,46.62174 Z" id="Path"></path>
        </g>
    </g>
</svg>