<?xml version="1.0" encoding="UTF-8"?>
<svg id="pixar" viewBox="0 0 649 117" version="1.1" xmlns="http://www.w3.org/2000/svg" xmlns:xlink="http://www.w3.org/1999/xlink">
    <g stroke="none" stroke-width="1" fill="none" fill-rule="evenodd">
        <g fill="currentColor" fill-rule="nonzero">
            <path d="M24.1818667,33.5394556 C24.1818667,42.1185081 24.1818667,66.2984836 24.9626471,69.4207591 C27.3047055,69.4207591 34.3232512,70.2014693 37.4421338,70.9818969 L38.2229141,73.3237448 C35.1000753,72.5430347 23.4013689,72.5430347 18.7212082,72.5430347 C13.2602671,72.5430347 2.34205847,72.5430347 0,73.3237448 L0,70.9818969 C1.56127812,70.2014693 8.57982374,70.2014693 10.9182086,69.4207591 C11.6987064,64.7410191 11.6987064,42.9028915 11.6987064,33.5394556 L11.6987064,28.8597156 C11.6987064,25.73744 11.6987064,7.02158798 10.9182086,3.11860228 C9.3569305,3.11860228 2.33838487,2.34184794 0,2.34184794 L0,0 L23.4013689,0 C35.1000753,0 44.464353,0.780710165 49.1411228,3.11860228 C58.5014443,6.24087782 59.2822246,13.2590751 59.2822246,15.5969672 C59.2822246,22.6185552 56.9438397,28.0790054 52.2600054,31.9783178 C46.0182839,38.9999058 33.5387972,41.3380805 29.6391342,42.1185081 L30.4199146,39.7769427 C33.5424708,38.2158049 46.0219575,35.0969201 46.0219575,19.4962796 C46.0219575,13.2554018 42.9030749,7.79862488 38.2229141,5.45677695 C34.3232512,3.11492901 28.8623101,3.11492901 24.9626471,3.11492901 C24.1818667,6.23748711 24.1818667,20.2769898 24.1818667,29.6327966 L24.1818667,33.5394556 Z M167.708963,36.6583404 C167.708963,49.9208062 167.708963,67.0791938 168.489743,69.4170859 C170.831802,70.197796 177.069567,70.197796 179.411626,70.9782236 L179.411626,73.3200716 C177.069567,72.539644 165.370861,72.539644 159.129139,72.539644 C156.006583,72.539644 145.869155,72.539644 142.746316,73.3200716 L143.527096,70.9782236 C145.088374,70.9782236 152.10692,69.4170859 154.445305,69.4170859 C155.225803,64.7373458 155.225803,46.0178205 155.225803,35.8776303 L155.225803,29.6364699 C155.225803,26.5178676 155.225803,7.01791472 154.445305,3.11860228 C152.10692,3.11860228 145.865481,2.34184794 143.527096,2.34184794 L142.746316,0 L179.407952,0 L179.407952,2.34184794 C177.065894,2.34184794 171.608626,3.11860228 168.48607,3.11860228 C167.705289,5.46045021 167.705289,17.158105 167.705289,30.4171801 L167.705289,36.6583404 L167.708963,36.6583404 Z M332.299326,77.2120375 C317.481454,66.2948103 301.098631,43.6799284 296.41847,38.9962325 C293.299305,42.1185081 281.600599,60.8343601 277.697262,69.4170859 C280.039321,70.197796 283.938984,70.197796 286.277086,70.9782236 L286.277086,73.3200716 C284.715808,73.3200716 276.135984,72.539644 269.897936,72.539644 C264.436995,72.539644 261.318112,72.539644 258.976054,73.3200716 L259.756834,70.9782236 C261.314439,70.197796 263.652824,70.197796 265.994882,69.4170859 C269.894263,67.0755205 290.176749,39.7769427 294.076412,35.8776303 C286.277086,26.5178676 273.017101,8.57905249 268.336658,3.11860228 C266.77538,3.11860228 263.656497,2.34184794 262.095219,2.34184794 L261.318112,0 L294.860583,0 L294.080085,2.34184794 C290.180422,2.34184794 287.06154,3.11860228 285.500262,3.11860228 C286.280759,6.24087782 298.760246,24.179693 301.098631,27.2985778 C304.221187,23.3992653 314.358898,8.57905249 317.481454,3.11860228 C315.139396,3.11860228 311.239733,2.34184794 309.682128,2.34184794 L309.682128,0 L334.641102,0 L334.641102,2.34184794 C332.299326,2.34184794 329.180161,3.11860228 327.618883,3.11860228 C326.061278,3.89931244 306.559572,26.5178676 303.44069,30.4171801 C309.682128,38.2158049 329.960941,66.2984836 336.98316,76.4386739 L332.299326,77.2120375 Z M456.331781,70.9782236 C460.224097,70.197796 464.127433,70.197796 467.24999,69.4170859 C464.908214,63.9566357 457.893342,42.1185081 456.331781,38.9962325 C452.432401,38.9962325 436.045904,39.7769427 432.142567,40.5573703 C431.369134,42.1185081 425.908193,61.6150703 425.127695,69.4170859 C427.469471,70.197796 431.369134,70.197796 433.703845,70.9782236 L434.484625,73.3200716 C431.369134,72.539644 421.228032,72.539644 418.105476,72.539644 C414.982637,72.539644 407.960418,72.539644 405.629663,73.3200716 L406.402813,70.9782236 C409.525652,70.197796 412.644535,70.197796 414.986593,69.4170859 C418.885974,63.1762081 439.16846,7.01791472 440.726064,3.11860228 C438.384006,3.11860228 435.265123,2.34184794 432.923347,2.34184794 L432.142567,0 L465.685038,0 L464.90454,2.34184794 C462.562482,2.34184794 459.450946,3.11860228 457.108888,3.11860228 C458.662819,7.79862488 464.12376,24.179693 468.027096,35.1005934 C471.149653,42.8992183 477.391374,60.0573232 482.071535,69.4207591 C485.186744,70.2014693 488.313256,70.2014693 491.428465,70.9818969 L491.428465,73.3237448 C490.647685,72.5430347 478.952652,72.5430347 473.488037,72.5430347 C470.365481,72.5430347 458.662819,72.5430347 456.328107,73.3237448 L456.328107,70.9782236 L456.331781,70.9782236 Z M444.625727,5.46045021 C441.503171,14.0395027 434.480952,31.9783178 433.703845,35.8813035 L455.551283,35.8813035 C453.209225,28.8597156 446.967786,10.9209004 444.625727,5.46045021 Z M578.795893,28.8597156 L578.795893,3.11860228 C577.234615,3.11860228 570.212396,2.34184794 567.877685,2.34184794 L567.08984,0 L590.498273,0 C600.635984,0 613.899642,0 620.914797,3.11860228 C626.375738,4.67974005 629.498294,8.57905249 629.498294,14.8202129 C629.498294,21.0610907 621.695294,29.6364699 613.899642,34.3201658 C615.461203,36.6583404 632.617177,63.9566357 643.542732,74.8812094 L638.081791,75.6619195 C630.278792,72.539644 602.978042,40.5610436 601.416482,38.9999058 L591.271706,38.9999058 L591.271706,42.1221814 C591.271706,48.3633417 592.052487,64.7410191 592.052487,69.4207591 C593.613765,70.2014693 600.635984,70.2014693 602.974369,70.9818969 L603.754867,73.3237448 C600.63231,72.5430347 590.498273,72.5430347 585.814439,72.5430347 C581.130604,72.5430347 569.427942,72.5430347 567.08984,73.3237448 L567.877685,70.9818969 C569.431615,70.9818969 575.673337,70.2014693 578.795893,69.4207591 L578.795893,28.8597156 Z M591.271706,35.8776303 C595.171369,35.8776303 599.855204,35.8776303 604.535647,34.3164925 C608.43531,32.7553547 616.238027,28.0753321 616.238027,17.1544317 C616.238027,10.9172272 609.996588,3.11492901 592.048813,3.11492901 C592.048813,7.01424145 591.268033,25.7337668 591.268033,32.7553547 L591.268033,35.8776303 L591.271706,35.8776303 Z M298.756573,113.093341 C298.756573,113.873769 297.976075,114.654479 297.976075,115.435189 C297.976075,116.215617 299.533679,116.215617 300.317851,116.215617 L300.317851,116.996327 L294.857192,116.996327 L294.857192,116.215617 C295.63769,116.215617 296.414797,116.215617 296.414797,115.435189 C297.976075,113.873769 302.656236,102.179787 302.656236,101.399077 C303.437016,100.618649 303.437016,99.8379392 303.437016,99.8379392 L304.217514,99.8379392 C304.217514,99.8379392 304.217514,100.618649 304.998294,101.399077 C305.778792,102.960497 308.117177,109.974739 308.897957,111.535877 C310.455562,116.215617 310.455562,116.215617 312.01684,116.215617 L312.01684,116.996327 L305.775118,116.996327 L305.775118,116.215617 C306.555899,116.215617 307.336679,116.215617 307.336679,115.435189 C307.336679,114.654479 305.775118,111.535877 305.775118,110.755166 L303.433342,110.755166 C302.652562,110.755166 301.091284,110.755166 299.533679,111.535877 L298.756573,113.093341 Z M300.317851,109.974739 L304.998294,109.974739 C304.217514,107.632891 303.437016,106.075426 302.656236,103.740925 L300.317851,109.974739 Z M335.418209,113.093341 L335.418209,109.194029 C335.418209,104.521635 335.418209,104.521635 333.85693,104.521635 L333.85693,103.740925 L335.418209,103.740925 L336.198706,104.521635 L337.760267,103.740925 L337.760267,104.521635 C337.760267,104.521635 336.979487,104.521635 336.979487,105.302063 L336.979487,110.755166 C336.198706,110.755166 336.198706,113.877442 336.198706,114.654479 C336.198706,114.654479 336.198706,116.215617 336.979487,116.215617 L336.979487,116.996327 L336.198706,116.996327 L333.07615,113.873769 L326.842058,107.632891 L326.057605,106.859527 L326.057605,113.873769 C326.057605,115.435189 326.057605,116.215617 328.395989,116.215617 L328.395989,116.996327 L322.935048,116.996327 L322.935048,116.215617 C324.496326,116.215617 324.496326,115.435189 324.496326,113.873769 L324.496326,107.632891 C324.496326,106.071753 324.496326,104.517962 322.935048,104.517962 L322.935048,103.737252 L326.057605,103.737252 C327.615209,105.298389 327.615209,105.298389 330.734092,109.190355 C331.514872,109.971065 333.07615,110.751493 333.85693,111.532203 L335.418209,113.093341 Z M346.343764,116.215617 C347.124262,116.215617 347.905043,116.215617 348.68554,115.435189 L348.68554,110.755166 L348.68554,105.302063 C348.68554,105.302063 347.905043,104.521635 346.343764,104.521635 L346.343764,103.740925 L352.588877,103.740925 L352.588877,104.521635 C351.808379,104.521635 351.808379,104.521635 351.027599,105.302063 L351.027599,115.435189 C351.027599,116.215617 351.027599,116.215617 352.588877,116.215617 L352.588877,116.996327 L346.343764,116.996327 L346.343764,116.215617 Z M363.503412,108.413601 L363.503412,106.859527 C363.503412,105.298389 363.503412,104.517962 361.161636,104.517962 L361.942134,103.737252 L362.722914,103.737252 C364.284192,104.517962 365.06469,104.517962 365.84547,104.517962 C367.406748,107.632891 367.406748,108.409928 368.968027,110.751493 C368.968027,111.532203 370.529305,113.873769 370.529305,113.873769 L372.090583,110.751493 L372.871363,109.190355 L375.213422,104.517962 L379.112802,104.517962 C377.551524,105.298389 376.771026,105.298389 376.771026,106.859527 C376.771026,107.632891 376.771026,114.654479 377.551524,115.435189 C377.551524,116.215617 377.551524,116.215617 379.112802,116.215617 L379.112802,116.996327 L373.64847,116.996327 L373.64847,116.215617 C374.428968,116.215617 375.209748,116.215617 375.209748,113.873769 L375.209748,106.859527 C372.086909,111.532203 371.310085,113.873769 369.748807,116.996327 C368.968027,115.435189 368.968027,114.654479 366.625968,110.755166 L365.06469,107.632891 L365.06469,109.194029 C364.284192,110.755166 364.284192,113.093341 364.284192,114.654479 C364.284192,116.215617 364.284192,116.215617 366.625968,116.215617 L366.625968,116.996327 L361.161636,116.996327 L361.161636,116.215617 C363.503412,116.215617 363.503412,115.435189 363.503412,113.093341 L363.503412,108.413601 Z M390.804444,113.873769 C390.023663,114.654479 390.023663,115.435189 390.023663,115.435189 C390.023663,116.215617 390.804444,116.215617 391.585224,116.215617 L391.585224,116.996327 L387.681888,116.996327 L387.681888,116.215617 C387.681888,116.215617 388.462385,116.215617 388.462385,115.435189 C389.243166,114.654479 393.142829,106.071753 393.142829,105.298389 C393.142829,104.517962 393.923326,104.517962 393.923326,103.737252 C394.704107,104.517962 394.704107,104.517962 394.704107,105.298389 C395.484605,106.859527 397.045883,112.312631 397.826663,113.093341 C398.607443,116.215617 399.387941,116.215617 400.168722,116.215617 L400.168722,116.996327 L395.484605,116.996327 L395.484605,116.215617 C396.265385,116.215617 396.265385,116.215617 396.265385,115.435189 C396.265385,115.435189 395.484605,113.093341 395.484605,112.312631 L390.80077,112.312631 L390.80077,113.873769 L390.804444,113.873769 Z M391.585224,111.535877 L394.70778,111.535877 C394.70778,109.974739 393.927,108.413601 393.146502,107.636564 L391.585224,111.535877 Z M421.228032,105.298389 L416.544198,105.298389 L416.544198,113.873769 C416.544198,116.215617 416.544198,116.215617 417.324695,116.215617 L418.885974,116.215617 L418.885974,116.996327 L411.863754,116.996327 C412.644535,116.996327 414.205813,116.215617 414.205813,116.215617 L414.205813,110.755166 L414.205813,105.302063 L412.644535,105.302063 C409.521978,105.302063 409.521978,105.302063 409.521978,106.075426 L408.741198,106.075426 C409.521978,104.521635 409.521978,104.521635 409.521978,103.740925 L410.302476,103.740925 C411.083257,104.521635 414.202139,104.521635 415.763417,104.521635 C417.324695,104.521635 420.443578,103.740925 421.224358,103.740925 L422.005139,103.740925 L422.005139,106.075426 L421.224358,106.075426 L421.224358,105.298389 L421.228032,105.298389 Z M430.588636,116.215617 C431.369134,116.215617 432.142567,116.215617 432.923347,115.435189 L432.923347,110.755166 L432.923347,105.302063 C432.923347,105.302063 432.923347,104.521635 431.369134,104.521635 L431.369134,103.740925 L437.607182,103.740925 L437.607182,104.521635 C436.045904,104.521635 436.045904,104.521635 436.045904,105.302063 C435.265123,105.302063 435.265123,109.194029 435.265123,109.974739 L435.265123,115.435189 C435.265123,116.215617 436.045904,116.215617 437.607182,116.215617 L436.826401,116.996327 L430.588636,116.996327 L430.588636,116.215617 Z M453.209225,103.740925 C457.108888,103.740925 460.224097,106.8632 460.224097,110.755166 C460.224097,113.877442 457.108888,116.996327 453.209225,116.996327 C448.529064,116.996327 446.187005,113.873769 446.187005,110.755166 C446.187005,106.071753 450.090342,103.740925 453.209225,103.740925 Z M453.990005,116.215617 C454.770503,116.215617 457.889668,115.435189 457.889668,112.316304 C457.889668,109.197702 456.328107,104.521635 452.428727,104.521635 C451.647947,104.521635 448.529064,105.302063 448.529064,109.194029 C448.529064,113.093341 450.090342,116.215617 453.990005,116.215617 Z M482.071535,113.093341 L482.071535,109.194029 C482.071535,104.521635 481.291037,104.521635 479.729476,104.521635 L479.729476,103.740925 L481.291037,103.740925 C482.071535,103.740925 482.071535,104.521635 482.852315,104.521635 L484.413593,103.740925 L484.413593,104.521635 C483.632813,104.521635 483.632813,104.521635 482.852315,105.302063 L482.852315,116.996327 L482.071535,116.996327 C481.291037,116.215617 480.510257,114.654479 478.948979,113.873769 L472.707257,107.632891 C472.707257,107.632891 472.707257,106.859527 471.926759,106.859527 L471.926759,113.873769 C471.926759,115.435189 471.926759,116.215617 474.268535,116.215617 L474.268535,116.996327 L473.488037,116.996327 L469.584701,116.996327 L469.584701,116.215617 C470.365481,116.215617 471.145979,115.435189 471.145979,113.873769 L471.145979,107.632891 C471.145979,106.071753 471.145979,104.517962 469.584701,104.517962 L469.584701,103.737252 L471.926759,103.737252 L477.3877,109.190355 L479.729476,111.532203 L482.071535,113.093341 Z M509.372567,112.312631 C510.153064,113.873769 510.153064,114.654479 512.495123,115.435189 C513.268556,116.215617 514.837181,116.215617 516.387439,116.215617 C517.168219,116.215617 518.729497,116.215617 518.729497,113.093341 C518.729497,111.532203 517.168219,110.751493 514.837181,109.194029 C511.714625,108.413601 510.156738,107.632891 510.156738,104.521635 C510.156738,101.399077 512.498797,99.8416125 515.610332,99.8416125 L521.071273,99.8416125 L520.290775,101.40275 L521.071273,102.963888 L521.071273,103.744598 L520.290775,103.744598 C519.509995,100.622323 515.610332,100.622323 515.610332,100.622323 C513.268556,100.622323 512.495123,102.18346 512.495123,103.744598 C512.495123,104.525308 512.495123,106.0791 516.387439,106.866874 C518.729497,107.640237 521.067599,109.201375 521.067599,112.319977 C521.067599,113.881115 520.287102,117 514.833508,117 L510.153064,117 C510.153064,115.435189 509.372567,114.654479 509.372567,112.312631 Z M545.249749,105.298389 L541.353759,105.298389 L541.353759,113.873769 C541.353759,116.215617 541.353759,116.215617 542.127193,116.215617 L542.90769,116.215617 L542.90769,116.996327 L536.673599,116.996327 L538.234877,116.215617 C539.015375,115.435189 539.015375,111.535877 539.015375,110.755166 L539.015375,105.302063 L536.673599,105.302063 C534.33154,105.302063 534.33154,105.302063 533.55076,106.075426 L532.770262,106.075426 C533.55076,104.521635 533.55076,104.521635 534.33154,103.740925 L535.112038,103.740925 C535.892818,104.521635 539.011701,104.521635 539.792481,104.521635 C541.353759,104.521635 544.465295,103.740925 546.026573,103.740925 L546.807353,103.740925 C546.807353,104.521635 546.026573,105.302063 546.026573,106.075426 L545.246075,106.075426 L545.246075,105.298389 L545.249749,105.298389 Z M556.955802,106.859527 C556.955802,104.517962 556.955802,104.517962 555.394524,104.517962 L561.636246,104.517962 L560.855465,104.517962 C559.294187,105.298389 559.294187,105.298389 559.294187,109.971065 C559.294187,113.870378 559.294187,114.650806 560.074968,115.431516 C560.855465,116.211943 562.416743,116.211943 563.197524,116.211943 C563.197524,116.211943 565.5393,116.211943 566.32008,113.870378 C567.093513,113.089668 567.093513,110.74782 567.093513,108.409928 C567.093513,104.517962 567.093513,104.517962 565.5393,104.517962 L566.32008,103.737252 C567.093513,103.737252 567.093513,104.517962 567.881358,104.517962 L569.435289,104.517962 C569.435289,104.517962 568.654791,104.517962 568.654791,105.298389 C567.881358,105.298389 567.881358,107.632891 567.881358,108.413601 C567.881358,109.974739 567.881358,113.873769 567.093513,114.654479 C566.32008,116.996327 563.978022,116.996327 562.420417,116.996327 C560.078641,116.996327 556.959476,116.996327 556.959476,113.097014 L556.959476,106.859527 L556.955802,106.859527 Z M579.576674,111.535877 L579.576674,106.8632 C579.576674,105.302063 579.576674,104.521635 578.795893,104.521635 L581.918449,104.521635 C582.69923,104.521635 584.260508,103.740925 585.041288,103.740925 C588.940951,103.740925 592.05616,106.8632 592.05616,110.755166 C592.05616,113.097014 590.502229,116.996327 584.260508,116.996327 L581.137952,116.996327 L578.015395,116.996327 L578.015395,116.215617 C579.576674,116.215617 579.576674,116.215617 579.576674,113.093341 L579.576674,111.535877 Z M584.256834,104.517962 C584.256834,104.517962 583.476337,104.517962 581.914776,105.298389 L581.914776,115.431516 C582.695556,116.211943 583.476337,116.211943 585.037615,116.211943 C587.379391,116.211943 589.717775,113.870378 589.717775,110.751493 C589.717775,106.071753 586.598893,104.517962 584.256834,104.517962 Z M601.416482,116.215617 C602.197262,116.215617 602.978042,116.215617 602.978042,115.435189 C603.75854,115.435189 603.75854,111.535877 603.75854,110.755166 C603.75854,109.974739 603.75854,106.075426 602.978042,105.302063 C602.978042,105.302063 602.978042,104.521635 601.416482,104.521635 L601.416482,103.740925 L607.661877,103.740925 L607.661877,104.521635 C606.881096,104.521635 606.100599,104.521635 606.100599,105.302063 L606.100599,115.435189 C606.100599,116.215617 606.100599,116.215617 607.661877,116.215617 L607.661877,116.996327 L601.416482,116.996327 L601.416482,116.215617 Z M624.033679,103.740925 C627.933342,103.740925 630.275118,106.8632 630.275118,110.755166 C630.275118,113.877442 627.933342,116.996327 624.033679,116.996327 C619.360583,116.996327 617.018807,113.873769 617.018807,110.755166 C617.018807,106.071753 620.134016,103.740925 624.033679,103.740925 Z M624.033679,116.215617 C625.594957,116.215617 627.933342,115.435189 627.933342,112.316304 C627.933342,109.197702 627.152562,104.521635 623.252899,104.521635 C622.472401,104.521635 619.360583,105.302063 619.360583,109.194029 C619.360583,113.093341 620.914797,116.215617 624.033679,116.215617 Z M640.420176,113.093341 C640.420176,114.654479 641.200674,115.435189 641.981454,115.435189 C643.542732,116.215617 644.323513,116.215617 645.104011,116.215617 C645.884791,116.215617 647.438722,116.215617 647.438722,114.654479 C647.438722,112.312631 645.884791,112.312631 643.546406,111.532203 C641.985128,110.751493 640.42385,109.971065 640.42385,107.632891 C640.42385,105.298389 641.985128,103.740925 645.104011,103.740925 L647.438722,104.521635 C648.21922,104.521635 648.21922,104.521635 648.21922,103.740925 L648.21922,106.8632 C647.438722,104.521635 645.104011,104.521635 644.327186,104.521635 C642.765626,104.521635 641.985128,106.075426 641.985128,106.8632 C641.985128,107.636564 642.765626,108.417274 645.107684,109.197702 C646.661615,109.978412 649,110.75884 649,113.877442 C649,114.658152 648.21922,117 644.327186,117 L640.42385,117 C640.42385,116.21929 640.42385,115.438862 639.64307,113.877442 L640.420176,113.093341 Z" id="Shape"></path>
        </g>
    </g>
</svg>