<?xml version="1.0" encoding="UTF-8"?>
<svg id="salesforce" viewBox="0 0 251 176" version="1.1" xmlns="http://www.w3.org/2000/svg" xmlns:xlink="http://www.w3.org/1999/xlink">
    <g stroke="none" stroke-width="1" fill="none" fill-rule="evenodd">
        <g transform="translate(0, 0)" fill="currentColor" fill-rule="nonzero">
            <path d="M65.6891371,0 C81.4963584,0 95.5445696,7.5291466 104.451175,19.1955106 C112.546239,10.7458916 123.816114,5.50521494 136.280186,5.50521494 C152.849201,5.50521494 167.304691,14.760782 175.003029,28.5009146 C181.692845,25.5066737 189.097722,23.8409132 196.888521,23.8409132 C226.772344,23.8409132 251,48.3234135 251,78.5223063 C251,108.724723 226.772344,133.207223 196.888521,133.207223 C193.309145,133.209315 189.738527,132.852895 186.22994,132.143281 C179.45093,144.25717 166.532596,152.441999 151.705003,152.441999 C145.497841,152.441999 139.626853,151.005791 134.399571,148.451776 C127.527346,164.645494 111.51636,176 92.8556787,176 C73.4229019,176 56.8611732,163.681981 50.504014,146.406449 C47.7259289,146.997444 44.8475946,147.305527 41.8941361,147.305527 C18.7571622,147.305779 0,128.321697 0,104.899615 C0,89.2037624 8.42746947,75.4991198 20.9488268,68.1670554 C18.370989,62.2248867 16.9370981,55.666301 16.9370981,48.7709388 C16.9370981,21.8351041 38.7655556,0 65.6891371,0 Z M146.289543,61 C143.656922,61 141.582491,61.7467073 140.127072,63.2184272 C138.678439,64.6833358 137.694756,66.9126104 137.201155,69.8457071 L137.022212,70.8328239 L133.709868,70.8327946 C133.653217,70.8335702 133.310027,70.8549603 133.231237,71.2566308 L132.691392,74.2971928 C132.651934,74.5845238 132.777345,74.7674166 133.163379,74.7674166 L136.378822,74.7674166 L133.116884,93.0473673 C132.862795,94.5193394 132.5695,95.7292071 132.244035,96.6479599 C131.925607,97.552838 131.614719,98.2311813 131.228433,98.7266317 C130.856473,99.2006395 130.505876,99.5522983 129.897671,99.756886 C129.397033,99.9256519 128.817731,100.004611 128.184645,100.004611 C127.834048,100.004611 127.36583,99.9468423 127.018752,99.8751987 C126.675443,99.8068346 126.492981,99.7316594 126.231855,99.6201578 C126.231855,99.6201578 125.856377,99.4768707 125.706085,99.8537561 C125.587963,100.166061 124.72969,102.53156 124.625893,102.822675 C124.525866,103.113285 124.66887,103.339568 124.85108,103.407679 C125.280342,103.558535 125.598518,103.658936 126.18159,103.798944 C126.990101,103.989405 127.672949,104 128.313072,104 C129.65062,104 130.873815,103.809791 131.886149,103.443753 C132.902002,103.073932 133.788674,102.431158 134.57557,101.562606 C135.423287,100.621906 135.956094,99.638321 136.464272,98.2922296 C136.968429,96.9637969 137.40146,95.3124637 137.744518,93.388431 L141.0243,74.7674166 L145.824797,74.7674441 C145.881885,74.7666476 146.227571,74.745007 146.303366,74.3403303 L146.846729,71.3033 C146.882669,71.0126896 146.761028,70.8330762 146.370973,70.8330762 L141.717955,70.8330762 C141.743087,70.7291426 141.953948,69.0846206 142.487007,67.5377255 C142.715964,66.8808249 143.144974,66.3457687 143.506378,65.9794785 C143.864264,65.6205039 144.275431,65.3657153 144.726306,65.218392 C145.187487,65.0675369 145.713508,64.9958933 146.289292,64.9958933 C146.725591,64.9958933 147.15812,65.0460943 147.483585,65.1142061 C147.93421,65.2113285 148.109383,65.2615294 148.227756,65.2976035 C148.703513,65.4411428 148.767601,65.3011352 148.860842,65.0715731 L149.973203,62.0057845 C150.087556,61.6748115 149.805068,61.5348039 149.70504,61.4954504 C149.240091,61.3519111 148.818117,61.2547887 148.267214,61.1508551 C147.709023,61.0504532 147.044019,61 146.289543,61 Z M45.1834534,71 L44.6687492,71.0035655 C39.9572842,71.0035655 36.6686033,73.8885776 36.6686033,78.0238126 L36.6686033,78.110913 C36.6686033,82.4707755 40.2969036,83.8842481 43.6966139,84.8701133 L44.2434714,85.0404941 C46.7207836,85.8124284 48.8549597,86.4756144 48.8549597,88.2443652 L48.8549597,88.3314657 C48.8549597,89.947918 47.4680969,91.1510251 45.2301762,91.1510251 C44.3615343,91.1510251 41.5910744,91.1329428 38.599058,89.2154591 C38.2378356,89.0015281 38.0270807,88.8459188 37.7482512,88.675538 C37.6018029,88.5813065 37.233547,88.4180568 37.0727805,88.9111168 L36.0566856,91.7673501 C35.9423221,92.0705579 36.0245987,92.1993206 36.0972124,92.2748252 L36.156161,92.3337061 L36.163947,92.3436903 C36.6356964,92.6915828 37.1149817,92.941933 37.5975326,93.2208073 C40.1569864,94.5978607 42.57376,95 45.1010605,95 C50.2486048,95 53.4443425,92.2239908 53.4443425,87.7551254 L53.4443425,87.6682796 C53.4443425,83.5363555 49.8376453,82.0360372 46.4522532,80.9523749 L46.0126571,80.8074621 L45.7668048,80.7264062 L45.2831553,80.5655919 C43.0546656,79.817103 41.2582374,79.0770858 41.2582374,77.538393 L41.2582374,77.4479817 C41.2582374,75.9909589 42.5451234,74.9179931 44.5398847,74.9179931 C46.7562025,74.9179931 49.3872477,75.6647141 51.0815765,76.6141602 C51.0815765,76.6141602 51.5784457,76.9404049 51.7608152,76.4511652 C51.8052493,76.3351444 51.9994345,75.8082152 52.2093324,75.2362778 L52.3676077,74.804603 C52.5769846,74.2330304 52.7685648,73.7079248 52.8083098,73.5951866 C52.9047698,73.3196231 52.7332017,73.1166433 52.5581169,73.0078951 C50.6241454,71.8154845 47.9501454,71 45.1834534,71 Z M120.541773,71 L120.026818,71.0035655 C115.315353,71.0035655 112.026672,73.8885776 112.026672,78.0238126 L112.026672,78.110913 C112.026672,82.4707755 115.654972,83.8842481 119.054682,84.8701133 L119.60154,85.0404941 C122.078852,85.8124284 124.216796,86.4756144 124.216796,88.2443652 L124.216796,88.3314657 C124.216796,89.947918 122.826165,91.1510251 120.588245,91.1510251 C119.719854,91.1510251 116.949394,91.1329428 113.957378,89.2154591 C113.596155,89.0015281 113.381884,88.8530498 113.110339,88.675538 C113.017145,88.6139055 112.581065,88.4435248 112.430849,88.9111168 L111.415508,91.7673501 C111.301144,92.0705579 111.383421,92.1993206 111.456035,92.2748252 L111.50546,92.3233613 C111.512321,92.3304175 111.518225,92.3371149 111.522769,92.3436903 C111.994519,92.6915828 112.473804,92.941933 112.956104,93.2208073 C115.515557,94.5978607 117.932582,95 120.459631,95 C125.607176,95 128.803165,92.2239908 128.803165,87.7551254 L128.803165,87.6682796 C128.803165,83.5363555 125.196216,82.0360372 121.810824,80.9523749 L121.371228,80.8074621 C118.818808,79.9665096 116.616557,79.2419458 116.616557,77.538393 L116.616557,77.4479817 C116.616557,75.9909589 117.903443,74.9179931 119.898204,74.9179931 C122.114522,74.9179931 124.745567,75.6647141 126.440147,76.6141602 C126.440147,76.6141602 126.937017,76.9404049 127.119135,76.4511652 C127.163569,76.3351444 127.357754,75.8082152 127.567652,75.2362778 L127.725927,74.804603 C127.935304,74.2330304 128.126885,73.7079248 128.16663,73.5951866 C128.263341,73.3196231 128.091521,73.1166433 127.916437,73.0078951 C125.982465,71.8154845 123.308465,71 120.541773,71 Z M215.637956,71.0692729 C213.822047,71.0692729 212.173939,71.3774354 210.837065,72.0151534 C209.496673,72.6531262 208.370805,73.5231122 207.487594,74.6067745 C206.604383,75.6866166 205.939713,76.9732586 205.517701,78.4338469 C205.092423,79.8873042 204.8779,81.4711575 204.8779,83.1416019 C204.8779,84.8415892 205.099708,86.4254425 205.539304,87.8496116 C205.982668,89.2849866 206.690292,90.5497262 207.64836,91.5969693 C208.602661,92.6518528 209.832525,93.4782886 211.305297,94.0541194 C212.767519,94.6268942 214.544241,94.9241054 216.585223,94.9203216 C220.785751,94.9057685 222.998301,93.9563224 223.909898,93.4451802 C224.070916,93.3547689 224.224649,93.1953394 224.031226,92.7386986 L223.080443,90.0383293 C222.937763,89.63619 222.533585,89.7846683 222.533585,89.7846683 C221.493124,90.176111 220.01357,90.8792818 216.56362,90.8721508 C214.308115,90.8685853 212.634887,90.194448 211.587392,89.1395645 C210.511512,88.0597224 209.986007,86.4720489 209.893063,84.2323953 L224.438669,84.246912 C224.438669,84.246912 224.820992,84.239781 224.860681,83.8626003 C224.875,83.7036801 225.361318,80.8331848 224.428119,77.5096142 C224.063631,76.1142239 223.159068,74.7043168 222.565739,74.059213 C221.629022,73.0371832 220.71416,72.3233159 219.80608,71.9244875 C218.619171,71.4097797 217.196387,71.0692729 215.637956,71.0692729 Z M99.1487681,71.0692729 C97.3363763,71.0692729 95.6847511,71.3774354 94.3478767,72.0151534 C93.0074855,72.6531262 91.881366,73.5231122 90.9984059,74.6067745 C90.1154458,75.6866166 89.4505254,76.9732586 89.0287644,78.4338469 C88.6070034,79.8873042 88.3889637,81.4711575 88.3889637,83.1416019 C88.3889637,84.8415892 88.6105201,86.4254425 89.0503674,87.8496116 C89.4937314,89.2849866 90.2016067,90.5497262 91.1594237,91.5969693 C92.1139751,92.6518528 93.3435881,93.4782886 94.8163605,94.0541194 C96.2785826,94.6268942 98.0550531,94.9241054 100.096286,94.9203216 C104.296564,94.9057685 106.509365,93.9563224 107.420961,93.4451802 C107.581979,93.3547689 107.735461,93.1953394 107.542541,92.7386986 L106.595274,90.0383293 C106.448575,89.63619 106.0449,89.7846683 106.0449,89.7846683 C105.00469,90.176111 103.52815,90.8792818 100.071417,90.8721508 C97.8194296,90.8685853 96.1464526,90.194448 95.098958,89.1395645 C94.0228268,88.0597224 93.4975723,86.4720489 93.404378,84.2323953 L107.949984,84.246912 C107.949984,84.246912 108.332307,84.239781 108.371745,83.8626003 C108.38556,83.7036801 108.871628,80.8331848 107.935163,77.5096142 C107.570675,76.1142239 106.66988,74.7043168 106.076551,74.059213 C105.139834,73.0371832 104.224721,72.3233159 103.316892,71.9244875 C102.129983,71.4097797 100.70745,71.0692729 99.1487681,71.0692729 Z M65.8530089,71.044569 C64.7625595,71.044569 63.0074408,71.1971221 61.9564294,71.4107984 C61.9564294,71.4107984 58.7785267,72.0342544 57.4700377,73.070801 C57.4700377,73.070801 57.1841746,73.2521329 57.3414244,73.6580924 L58.371084,76.4633898 C58.4996972,76.8257991 58.8466013,76.7025341 58.8466013,76.7025341 C58.8466013,76.7025341 58.9573795,76.6589838 59.086244,76.5828346 C61.8853405,75.038966 65.4242144,75.0860818 65.4242144,75.0860818 C66.9972147,75.0860818 68.2054758,75.4049408 69.0203613,76.0390933 C69.813895,76.6551636 70.217821,77.5865274 70.217821,79.5508723 L70.217821,80.1743283 C68.966605,79.993251 67.8191337,79.8883229 67.8191337,79.8883229 C67.2293214,79.8447727 66.464173,79.8193047 65.5490596,79.8193047 C64.3016116,79.8193047 63.0968672,79.9787342 61.9672309,80.2868967 C60.8305611,80.5948045 59.8081863,81.077168 58.928743,81.7146314 C58.0506343,82.3500731 57.3289107,83.1822871 56.8196867,84.1465682 C56.3049825,85.1179167 56.043988,86.2632115 56.043988,87.546288 C56.043988,88.8510124 56.2655444,89.9853559 56.7089085,90.9134089 C57.1522725,91.8447727 57.7920732,92.6202725 58.6069587,93.2185152 C59.4148106,93.8165032 60.4123169,94.2548071 61.5703385,94.5194193 C62.7107763,94.7840316 64.0046959,94.9179931 65.4204464,94.9179931 C66.9110538,94.9179931 68.3981445,94.7949828 69.8387636,94.5446326 C71.2650644,94.2981026 73.0166663,93.9392589 73.5027339,93.8271998 C73.8435813,93.7439293 74.1832354,93.6557162 74.521592,93.5625875 C74.8171376,93.4886147 74.8517032,93.2129544 74.8545024,93.1151596 L74.8541778,93.0804788 L74.8468931,79.5946772 C74.8468931,76.6370814 74.0676777,74.4442888 72.5341154,73.0853177 C71.0075867,71.7299121 68.7591157,71.044569 65.8530089,71.044569 Z M157.299037,71.0685089 C155.554469,71.0685089 154.003072,71.3838024 152.691066,72.0034382 C151.375543,72.6268942 150.26751,73.4823634 149.388067,74.5476888 C148.515908,75.6132688 147.858021,76.8889596 147.432743,78.3314657 C147.014499,79.7701515 146.803493,81.3430536 146.803493,83.0140074 C146.803493,84.6849612 147.014499,86.2614288 147.432743,87.6965491 C147.858021,89.1390551 148.512391,90.4150006 149.391835,91.480326 C150.26751,92.545906 151.379311,93.3975551 152.691317,94.0026741 C154.006588,94.6080479 155.554469,94.9159557 157.299288,94.9159557 C159.040089,94.9159557 160.587969,94.6080479 161.903241,94.0026741 C163.215247,93.3975551 164.326797,92.5456513 165.202974,91.480326 C166.07865,90.4183115 166.736285,89.1426207 167.158298,87.6965491 C167.58031,86.2578632 167.791065,84.681141 167.791065,83.0140074 C167.791065,81.3468738 167.579808,79.7701515 167.158047,78.3314657 C166.736034,76.8851394 166.078399,75.6094486 165.202723,74.5476888 C164.326797,73.4821087 163.218763,72.6268942 161.90299,72.0034382 C160.590984,71.3838024 159.039838,71.0685089 157.299037,71.0685089 Z M196.937791,71.046097 C195.132181,71.046097 193.523762,71.357825 192.147701,71.981281 C190.774905,72.6009168 189.609599,73.4561314 188.687452,74.5219661 C187.765054,75.5875462 187.064463,76.8629823 186.596231,78.3054883 C186.131515,79.7441742 185.89564,81.324462 185.89564,82.9954158 C185.89564,86.6088119 186.857225,89.5297339 188.755527,91.6682796 C190.657093,93.8139564 193.513463,94.9047498 197.238474,94.9047498 C199.440474,94.9047498 201.699747,94.4519292 203.322735,93.8030052 C203.322735,93.8030052 203.633718,93.6507067 203.49782,93.2849866 L202.443041,90.3309563 C202.300109,89.9069146 201.896183,90.0663441 201.896183,90.0663441 C201.270701,90.3093085 200.605529,90.5339361 199.897905,90.6462498 C199.179228,90.7583089 198.389211,90.8166306 197.541921,90.8166306 C195.461753,90.8166306 193.810128,90.1896091 192.626986,88.9500828 C191.440077,87.7105565 190.775156,85.7064816 190.78219,82.9954158 C190.789475,80.5273144 191.375519,78.6714631 192.430298,77.2582453 C193.477793,75.8521584 195.072145,75.1306507 197.199036,75.1306507 C198.972241,75.1306507 200.323434,75.337196 201.738682,75.7902712 C201.738682,75.7902712 202.078302,75.9387495 202.239068,75.4894945 C202.614358,74.4310455 202.893187,73.6736279 203.293596,72.5102509 C203.408142,72.1804406 203.129313,72.0390933 203.029085,71.9991086 C202.471426,71.7780466 201.155903,71.4194575 200.162165,71.267159 C199.232733,71.1222463 198.146052,71.046097 196.937791,71.046097 Z M182.479602,71.3364319 C180.653143,71.2241182 179.638053,71.5358462 178.729722,71.9489367 C177.828927,72.3620273 176.828155,73.0287788 176.270245,73.786451 L176.270245,71.9924869 C176.270245,71.7423914 176.09516,71.5429772 175.852001,71.5429772 L172.123472,71.5429772 C171.880564,71.5429772 171.705479,71.7421368 171.705479,71.9924869 L171.705479,93.9881574 C171.705479,94.2346874 171.905684,94.4376671 172.148592,94.4376671 L175.970064,94.4376671 C176.213742,94.4362644 176.410356,94.2352169 176.40966,93.9881574 L176.40966,82.9994906 C176.40966,81.5243856 176.570677,80.0531007 176.892462,79.1288679 C177.206961,78.2153317 177.636007,77.4833821 178.165029,76.9577232 C178.697569,76.4358844 179.301699,76.0699096 179.963103,75.8633643 C180.638574,75.6529989 181.385636,75.5842353 181.914909,75.5842353 C182.67629,75.5842353 183.512778,75.7833949 183.512778,75.7833949 C183.791357,75.8159939 183.948858,75.6420476 184.04155,75.3848211 L184.132312,75.1371129 C184.23537,74.8531165 184.371948,74.4699469 184.511726,74.0748269 L184.67119,73.6228806 C184.881197,73.0262073 185.071815,72.4789402 185.135767,72.2896982 C185.246294,71.9560677 185.014187,71.7966382 184.917476,71.7604737 C184.671051,71.6626767 183.434153,71.3980644 182.479602,71.3364319 Z M84.2740207,61.4704761 L80.4149364,61.4704761 C80.1716545,61.4704761 80,61.6680004 80,61.9119416 L80,93.0869731 C80,93.3311666 80.1716545,93.5286909 80.4149364,93.5286909 L84.2740207,93.5286909 C84.5173026,93.5286909 84.6924756,93.3311666 84.6924756,93.0869731 L84.6924756,61.9119416 C84.6924756,61.6680004 84.5173026,61.4704761 84.2740207,61.4704761 Z M66.2750211,83.5378836 C68.3589577,83.5669171 70.2213378,83.8786451 70.2213378,83.8786451 L70.2248545,90.5835986 C70.2248545,90.5835986 68.3767927,90.9857379 66.2963729,91.1125684 C63.5338341,91.2818116 62.2036985,90.3808294 62.047407,90.2628452 L62.0317888,90.2502228 C61.4633283,89.7897619 61.3847034,89.6738826 61.1917835,89.3766713 C60.9056693,88.9235961 60.759221,88.2784923 60.759221,87.4594423 C60.759221,86.161849 61.180982,85.2304852 62.0569085,84.6034636 C62.0463582,84.6072838 63.3081245,83.4981536 66.2750211,83.5378836 Z M157.299037,75.0659621 C159.207889,75.0659621 160.576917,75.7365338 161.484997,77.1135872 C162.396593,78.5051573 162.861058,80.4914046 162.861058,83.0140074 C162.861058,85.5401757 162.396342,87.5297339 161.481229,88.9360754 C160.576665,90.3279002 159.207638,91.005603 157.299037,91.005603 C155.386669,91.005603 154.024675,90.3314657 153.13443,88.9360754 C152.233383,87.5335541 151.776204,85.5401757 151.776204,83.0140074 C151.776204,80.4916592 152.233383,78.5054119 153.13443,77.1135872 C154.024675,75.7365338 155.386669,75.0659621 157.299037,75.0659621 Z M98.8053808,74.9765695 C100.714232,74.9765695 101.97625,75.7375525 102.884079,77.1148606 C103.480924,78.0243219 103.741919,79.2424551 103.845664,80.5940405 L93.4719502,80.5940405 C93.6791883,79.1915192 94.0582457,78.0243219 94.648058,77.1148606 C95.5380516,75.733987 96.8965291,74.9765695 98.8053808,74.9765695 Z M215.29482,74.9765695 C217.203923,74.9765695 218.465689,75.7375525 219.370001,77.1148606 C219.970615,78.0243219 220.231609,79.2424551 220.335354,80.5940405 L209.961138,80.5940405 C210.164859,79.1915192 210.547434,78.0243219 211.137246,77.1148606 C212.027491,75.733987 213.385717,74.9765695 215.29482,74.9765695 Z" id="Combined-Shape"></path>
        </g>
    </g>
</svg>