<?xml version="1.0" encoding="UTF-8"?>
<svg id="shopify" viewBox="0 0 725 207" version="1.1" xmlns="http://www.w3.org/2000/svg" xmlns:xlink="http://www.w3.org/1999/xlink">
    <g stroke="none" stroke-width="1" fill="none" fill-rule="evenodd">
        <g transform="translate(0, 0)" fill="currentColor" fill-rule="nonzero">
            <path d="M82.0979592,6.55109332 C83.5510204,6.55109332 84.277551,7.27766918 85.7306122,8.00424505 C77.0122449,11.6371244 68.2938776,21.0826105 63.9346939,41.4267347 L47.9510204,45.7861898 C53.0367347,31.2546726 63.2081633,6.55109332 82.0979592,6.55109332 Z M90.0897959,13.8168519 C91.5428571,18.1763071 92.9959184,23.2623381 92.9959184,31.2546726 C92.9959184,31.9812485 92.9959184,31.9812485 92.9959184,32.7078243 L71.9265306,38.5204312 C76.2857143,23.2623381 83.5510204,16.7231554 90.0897959,13.8168519 Z M108.979592,26.8952174 L99.5346939,29.8015209 C99.5346939,29.074945 99.5346939,28.3483692 99.5346939,27.6217933 C99.5346939,21.0826105 98.8081633,15.9965795 97.355102,11.6371244 C102.440816,13.0902761 106.8,19.6294588 108.979592,26.8952174 Z M156.204082,38.5204312 C156.204082,37.7938554 155.477551,37.0672795 154.75102,37.0672795 C153.297959,37.0672795 138.040816,35.6141278 138.040816,35.6141278 C138.040816,35.6141278 127.142857,24.7154899 125.689796,23.988914 C124.236735,22.5357623 122.057143,23.2623381 121.330612,23.2623381 C121.330612,23.2623381 119.15102,23.988914 115.518367,25.4420657 C111.885714,15.2700037 105.346939,5.82451746 94.4489796,5.82451746 C94.4489796,5.82451746 93.722449,5.82451746 93.722449,5.82451746 C90.8163265,1.46506229 86.4571429,0.011910572 82.8244898,0.011910572 C56.6693878,-0.714665289 44.3183673,31.9812485 39.9591837,48.6924933 C34.1469388,50.145645 28.3346939,52.3253726 21.7959184,54.5051002 C15.9836735,55.9582519 15.9836735,56.6848277 15.2571429,61.7708588 C14.5306122,65.4037381 0,180.202724 0,180.202724 L115.518367,202 L178,188.195059 C178,188.195059 156.204082,39.9735829 156.204082,38.5204312 Z" id="Shape"></path>
            <path d="M154.209302,36.8252033 C153.488372,36.8252033 138.348837,35.3699187 138.348837,35.3699187 C138.348837,35.3699187 127.534884,24.4552846 126.093023,23.7276423 C125.372093,23 125.372093,23 124.651163,23 L116,202 L178,188.174797 C178,188.174797 156.372093,39.7357724 156.372093,38.2804878 C156.372093,37.5528455 154.930233,36.8252033 154.209302,36.8252033" id="Path"></path>
            <path d="M95,71.9945342 L86.9569892,95.1842075 C86.9569892,95.1842075 80.3763441,91.560821 71.6021505,91.560821 C59.172043,91.560821 58.4408602,98.8075939 58.4408602,100.981626 C58.4408602,111.127108 86.2258065,115.475172 86.2258065,140.114199 C86.2258065,159.680486 73.7956989,172 56.9784946,172 C37.2365591,172 27,159.680486 27,159.680486 L32.1182796,142.288231 C32.1182796,142.288231 42.3548387,150.984359 51.1290323,150.984359 C56.9784946,150.984359 59.172043,146.636295 59.172043,143.012908 C59.172043,129.24404 36.5053763,128.519363 36.5053763,106.054367 C36.5053763,87.2127573 50.3978495,69.0958251 77.4516129,69.0958251 C89.8817204,68.3711478 95,71.9945342 95,71.9945342" id="Path"></path>
            <path d="M251.316971,114.636364 C244.778401,111 241.87237,108.090909 241.87237,104.454545 C241.87237,99.3636364 246.231417,96.4545455 253.496494,96.4545455 C261.488079,96.4545455 268.753156,100.090909 268.753156,100.090909 L274.565217,82.6363636 C274.565217,82.6363636 269.479663,78.2727273 254.223001,78.2727273 C232.42777,78.2727273 217.897616,90.6363636 217.897616,108.090909 C217.897616,118.272727 225.162693,125.545455 233.880785,130.636364 C241.145863,135 244.051893,137.909091 244.051893,142.272727 C244.051893,146.636364 240.419355,151 233.154278,151 C222.98317,151 212.812062,145.909091 212.812062,145.909091 L207,163.363636 C207,163.363636 215.718093,169.181818 230.974755,169.181818 C252.769986,169.181818 268.753156,158.272727 268.753156,138.636364 C268.753156,127.727273 260.761571,119.727273 251.316971,114.636364 M339.224404,77.5454545 C328.326788,77.5454545 319.608696,82.6363636 313.070126,90.6363636 L313.070126,90.6363636 L322.514727,41.1818182 L297.813464,41.1818182 L273.83871,167 L298.539972,167 L306.531557,124.090909 C309.437588,108.090909 318.15568,97.9090909 326.147265,97.9090909 C331.959327,97.9090909 334.13885,101.545455 334.13885,107.363636 C334.13885,111 334.13885,114.636364 333.412342,118.272727 L323.967742,167.727273 L348.669004,167.727273 L358.113604,116.818182 C358.840112,111.727273 359.56662,105.181818 359.56662,100.818182 C359.56662,86.2727273 352.301543,77.5454545 339.224404,77.5454545 M402.430575,149.545455 C393.712482,149.545455 390.806452,142.272727 390.806452,133.545455 C390.806452,119.727273 398.071529,96.4545455 411.148668,96.4545455 C419.86676,96.4545455 422.772791,103.727273 422.772791,111 C422.772791,127 415.507714,149.545455 402.430575,149.545455 Z M414.781206,77.5454545 C384.99439,77.5454545 365.378682,104.454545 365.378682,134.272727 C365.378682,153.181818 377.002805,168.454545 399.524544,168.454545 C428.584853,168.454545 448.200561,142.272727 448.200561,111.727273 C448.200561,94.2727273 438.029453,77.5454545 414.781206,77.5454545 Z M487.431978,150.272727 C480.893408,150.272727 477.26087,146.636364 477.26087,146.636364 L481.619916,123.363636 C484.525947,108.090909 492.517532,97.9090909 501.235624,97.9090909 C508.500701,97.9090909 511.406732,105.181818 511.406732,111.727273 C510.680224,127.727273 501.235624,150.272727 487.431978,150.272727 Z M511.406732,77.5454545 C494.697055,77.5454545 485.252454,92.0909091 485.252454,92.0909091 L485.252454,92.0909091 L486.70547,79 L464.910238,79 C464.183731,87.7272727 462.004208,101.545455 459.824684,111.727273 L442.388499,201.909091 L467.089762,201.909091 L473.628331,165.545455 L474.354839,165.545455 C474.354839,165.545455 479.440393,168.454545 488.884993,168.454545 C517.945302,168.454545 536.834502,138.636364 536.834502,108.818182 C536.834502,92.8181818 529.569425,77.5454545 511.406732,77.5454545 Z M571.706872,42.6363636 C563.715288,42.6363636 557.903226,49.1818182 557.903226,57.1818182 C557.903226,64.4545455 562.262272,69.5454545 569.527349,69.5454545 L569.527349,69.5454545 C577.518934,69.5454545 584.057504,64.4545455 584.057504,55 C584.057504,47.7272727 578.97195,42.6363636 571.706872,42.6363636 M537.56101,167 L562.262272,167 L578.97195,79.7272727 L554.270687,79.7272727 L537.56101,167 Z M641.451613,79.7272727 L624.015428,79.7272727 L624.741935,75.3636364 C626.194951,66.6363636 631.280505,59.3636364 639.27209,59.3636364 C643.631136,59.3636364 647.263675,60.8181818 647.263675,60.8181818 L652.349229,41.1818182 C652.349229,41.1818182 647.990182,39 639.27209,39 C630.553997,39 621.835905,41.1818182 615.297335,47 C606.579243,54.2727273 602.946704,64.4545455 600.767181,74.6363636 L600.040673,79 L588.41655,79 L584.784011,97.9090909 L596.408135,97.9090909 L583.330996,167 L608.032258,167 L621.109397,97.9090909 L637.819074,97.9090909 L641.451613,79.7272727 Z M700.298738,79.7272727 C700.298738,79.7272727 685.042076,118.272727 677.776999,139.363636 L677.776999,139.363636 C677.050491,132.818182 671.964937,79.7272727 671.964937,79.7272727 L645.810659,79.7272727 L660.340813,159.727273 C660.340813,161.181818 660.340813,162.636364 659.614306,164.090909 C656.708275,169.909091 651.622721,175 646.537167,178.636364 C642.178121,182.272727 636.366059,184.454545 632.73352,185.909091 L639.27209,207 C644.357644,206.272727 654.528752,201.909091 663.246844,193.909091 C674.14446,183.727273 685.042076,167 695.213184,145.181818 L725,80.4545455 L700.298738,79.7272727 Z" id="Shape"></path>
        </g>
    </g>
</svg>