<?xml version="1.0" encoding="UTF-8"?>
<svg id="slack" viewBox="0 0 446 113" version="1.1" xmlns="http://www.w3.org/2000/svg" xmlns:xlink="http://www.w3.org/1999/xlink">
    <g stroke="none" stroke-width="1" fill="none" fill-rule="evenodd">
        <g  transform="translate(0, 0)" fill="currentColor" fill-rule="nonzero">
            <path d="M142,88.8241347 L147.578638,75.9382601 C153.604282,80.4172123 161.632514,82.7455566 169.553464,82.7455566 C175.400306,82.7455566 179.101517,80.5060804 179.101517,77.111319 C179.012116,67.6202058 144.074109,75.049579 143.805905,51.2507016 C143.716504,39.1646399 154.516175,29.8512629 169.821668,29.8512629 C178.922715,29.8512629 188.005882,32.090739 194.496412,37.191768 L189.275379,50.344247 C183.339137,46.5762395 175.954594,43.8924228 168.927656,43.8924228 C164.153629,43.8924228 161.006705,46.131899 161.006705,48.9934518 C161.096106,58.3068288 196.302317,53.2057998 196.659922,75.9382601 C196.659922,88.2909261 186.128455,96.9822264 171.001764,96.9822264 C159.91601,96.9644528 149.742148,94.3695042 142,88.8241347 M356.223268,71.2815716 C353.433949,76.1159963 348.212916,79.4218896 342.169392,79.4218896 C333.247147,79.4218896 326.059287,72.2591207 326.059287,63.4078578 C326.059287,54.5565949 333.265028,47.393826 342.169392,47.393826 C348.195036,47.393826 353.433949,50.6997194 356.223268,55.5341441 L371.618163,47.0383536 C365.860722,36.8362956 354.774968,29.8512629 342.169392,29.8512629 C323.520292,29.8512629 308.393601,44.8877456 308.393601,63.4256314 C308.393601,81.9635173 323.520292,97 342.169392,97 C354.864369,97 365.860722,90.1038354 371.618163,79.8129093 L356.223268,71.2815716 Z M204.40207,2 L223.676979,2 L223.676979,95.7202993 L204.40207,95.7202993 L204.40207,2 Z M379.181508,2 L379.181508,95.7202993 L398.456417,95.7202993 L398.456417,67.6024322 L421.325256,95.7202993 L446,95.7202993 L416.908834,62.323667 L443.83649,31.1665108 L420.234561,31.1665108 L398.438537,57.0271282 L398.438537,2 L379.181508,2 Z" id="Shape"></path>
            <path d="M281.644809,71.5336157 C278.843872,76.0913182 273.062451,79.4785601 266.544887,79.4785601 C257.58548,79.4785601 250.367681,72.331657 250.367681,63.5 C250.367681,54.668343 257.603435,47.5214399 266.544887,47.5214399 C273.062451,47.5214399 278.843872,51.0860244 281.644809,55.7323981 L281.644809,71.5336157 Z M281.644809,31.3478031 L281.644809,38.9380625 C278.484778,33.6709899 270.620609,30 262.379391,30 C245.376269,30 232,44.8258338 232,63.4113287 C232,81.9968237 245.376269,97 262.379391,97 C270.602654,97 278.466823,93.3467443 281.644809,88.0619375 L281.644809,95.6521969 L301,95.6521969 L301,31.3478031 L281.644809,31.3478031 Z" id="Shape"></path>
            <g id="Group">
                <path d="M23.8279893,71.4332912 C23.8279893,78.0067973 18.526931,83.3120455 11.9586163,83.3120455 C5.39030169,83.3120455 0.0892434055,77.9889346 0.0892434055,71.4332912 C0.0892434055,64.8776478 5.39030169,59.5545368 11.9586163,59.5545368 L23.8279893,59.5545368 L23.8279893,71.4332912 Z M29.7537514,71.4332912 C29.7537514,64.859785 35.0548097,59.5545368 41.6231243,59.5545368 C48.191439,59.5545368 53.4924972,64.859785 53.4924972,71.4332912 L53.4924972,101.121246 C53.4924972,107.694752 48.191439,113 41.6231243,113 C35.0548097,113 29.7537514,107.694752 29.7537514,101.121246 L29.7537514,71.4332912 Z" id="Shape"></path>
                <path d="M41.6231243,23.7575087 C35.0548097,23.7575087 29.7537514,18.4522605 29.7537514,11.8787543 C29.7537514,5.30524818 35.0548097,0 41.6231243,0 C48.191439,0 53.4924972,5.30524818 53.4924972,11.8787543 L53.4924972,23.7575087 L41.6231243,23.7575087 Z M41.6231243,29.7772684 C48.191439,29.7772684 53.4924972,35.0825166 53.4924972,41.6560228 C53.4924972,48.2295289 48.191439,53.5347771 41.6231243,53.5347771 L11.8693729,53.5347771 C5.30105828,53.5347771 0,48.2116661 0,41.6560228 C0,35.1003794 5.30105828,29.7772684 11.8693729,29.7772684 L41.6231243,29.7772684 Z" id="Shape"></path>
                <path d="M89.1720107,41.6560228 C89.1720107,35.0825166 94.473069,29.7772684 101.041384,29.7772684 C107.609698,29.7772684 112.910757,35.0825166 112.910757,41.6560228 C112.910757,48.2295289 107.609698,53.5347771 101.041384,53.5347771 L89.1720107,53.5347771 L89.1720107,41.6560228 Z M83.2462486,41.6560228 C83.2462486,48.2295289 77.9451903,53.5347771 71.3768757,53.5347771 C64.808561,53.5347771 59.5075028,48.2295289 59.5075028,41.6560228 L59.5075028,11.8787543 C59.5075028,5.30524818 64.808561,0 71.3768757,0 C77.9451903,0 83.2462486,5.30524818 83.2462486,11.8787543 L83.2462486,41.6560228 Z" id="Shape"></path>
                <path d="M71.3768757,89.2424913 C77.9451903,89.2424913 83.2462486,94.5477395 83.2462486,101.121246 C83.2462486,107.694752 77.9451903,113 71.3768757,113 C64.808561,113 59.5075028,107.694752 59.5075028,101.121246 L59.5075028,89.2424913 L71.3768757,89.2424913 Z M71.3768757,83.3120455 C64.808561,83.3120455 59.5075028,78.0067973 59.5075028,71.4332912 C59.5075028,64.859785 64.808561,59.5545368 71.3768757,59.5545368 L101.130627,59.5545368 C107.698942,59.5545368 113,64.859785 113,71.4332912 C113,78.0067973 107.698942,83.3120455 101.130627,83.3120455 L71.3768757,83.3120455 Z" id="Shape"></path>
            </g>
        </g>
    </g>
</svg>