<?xml version="1.0" encoding="UTF-8"?>
<svg id="the-washington-post" viewBox="0 0 463 72" version="1.1" xmlns="http://www.w3.org/2000/svg" xmlns:xlink="http://www.w3.org/1999/xlink">
    <g stroke="none" stroke-width="1" fill="none" fill-rule="evenodd">
        <g transform="translate(0.3126, 0.6112)" fill="currentColor" fill-rule="nonzero">
            <path d="M25.716,21.792 L25.716,46.831 C29.099,45.004 31.468,41.823 32.618,38.236 L32.889,38.372 C32.144,47.305 26.054,56.237 16.58,56.237 C7.038,56.237 0,49.132 0,37.762 C0,29.236 5.549,23.889 12.655,19.084 C11.617,18.812 10.547,18.675 9.474,18.678 C4.601,18.678 1.759,21.994 1.759,25.378 L1.353,25.378 C1.285,24.904 1.285,24.431 1.285,23.957 C1.285,17.934 4.466,10.625 12.181,10.625 C17.121,10.625 20.911,15.159 26.663,15.159 C28.964,15.159 31.806,14.076 32.956,11.572 L33.159,11.572 C33.092,15.972 31.739,20.506 25.716,21.792 Z M29.37,47.44 C25.986,51.026 22.332,54.072 17.595,54.072 C8.798,54.072 2.031,47.169 2.031,37.153 C2.031,31.266 4.467,28.086 7.174,24.363 L6.903,24.363 C5.211,26.055 0.745,30.318 0.745,37.559 C0.745,48.658 7.715,55.493 16.851,55.493 C23.212,55.493 27.543,51.095 29.506,47.508 L29.37,47.44 Z M32.076,14.619 C30.926,16.784 28.49,19.558 23.55,19.558 C18.61,19.558 14.076,16.174 10.083,16.174 C6.428,16.174 3.925,18.611 2.977,20.438 L3.045,20.574 C4.331,19.288 6.293,18.002 9.474,18.002 C14.752,18.002 18.136,21.251 23.482,21.251 C29.167,21.251 31.738,17.528 32.212,14.687 L32.076,14.619 Z M13.263,19.288 C9.812,22.875 6.631,26.8 6.631,34.447 C6.631,38.642 8.052,42.973 11.233,45.68 L13.195,44.664 L13.195,26.529 L11.368,27.476 L11.03,26.799 L20.504,21.655 C17.933,21.115 15.632,19.965 13.263,19.288 Z M24.971,21.927 C24.497,21.994 24.024,21.994 23.482,21.994 C22.535,21.994 21.655,21.927 20.775,21.723 L20.775,41.483 L11.91,46.29 C13.737,47.643 15.97,48.455 18.812,48.455 C21.113,48.455 23.143,47.981 24.97,47.169 L24.97,21.927 L24.971,21.927 Z M15.226,25.379 L13.94,26.123 L13.94,44.26 L15.226,43.583 L15.226,25.379 Z M54.138,27.95 L54.138,51.365 C54.138,57.861 48.386,62.261 41.957,63.546 L41.822,63.275 C45.003,61.718 46.83,58.538 46.83,55.154 L46.83,30.927 L43.176,27.612 L41.755,29.168 L41.755,48.049 L43.785,49.876 L43.785,50.012 L38.304,55.967 L32.011,50.215 L32.011,49.944 L34.447,47.372 L34.447,17.461 L41.62,9.815 L41.755,9.882 L41.755,28.018 L47.643,21.657 L53.801,27.207 L54.951,25.988 L55.493,26.463 L54.138,27.95 Z M35.19,50.079 L35.19,49.944 L36.611,48.522 L36.611,16.31 L35.19,17.8 L35.19,47.846 L33.024,50.012 L33.024,50.147 L38.302,54.884 L39.249,53.801 L35.19,50.079 Z M48.995,29.844 L44.596,26.055 L43.649,27.07 L47.574,30.59 L47.574,54.952 C47.574,56.576 47.236,58.267 46.627,59.215 L46.695,59.283 C48.387,58.064 48.996,56.237 48.996,53.869 L48.996,29.844 L48.995,29.844 Z M64.898,41.552 L64.898,45.003 L71.462,50.146 L75.252,46.086 L75.794,46.627 L66.997,56.033 L58.064,48.86 L56.711,50.281 L56.169,49.74 L57.726,48.116 L57.726,30.995 L70.516,21.656 L77.216,32.484 L64.898,41.552 Z M59.89,47.508 L59.89,30.318 L58.469,31.334 L58.469,48.185 L66.861,55.02 L67.944,53.87 L59.89,47.508 Z M65.034,26.664 L64.898,26.732 L64.898,40.605 L70.921,36.206 L65.034,26.664 Z M66.793,25.311 L65.575,26.19 L71.531,35.732 L72.749,34.852 L66.793,25.311 Z M121.327,55.966 L111.92,47.845 L104.747,55.966 L95.002,47.574 L95.002,34.311 L93.107,34.311 C91.415,34.311 90.536,35.394 90.129,36.679 L89.926,36.679 C89.71,35.839 89.597,34.976 89.588,34.108 C89.588,32.348 90.062,27.747 95.002,27.747 L95.002,16.107 C95.002,13.874 92.363,12.994 92.363,10.016 C92.363,6.16 96.017,2.37 102.717,0 L102.988,0.203 C100.552,1.625 99.266,2.978 99.266,5.888 C99.266,10.355 103.597,9.204 103.597,16.242 L103.597,18.949 L111.515,10.625 L119.839,18.813 L127.689,10.625 L135.268,18.069 L135.268,43.108 L121.327,55.966 Z M97.168,46.492 L97.168,32.214 L93.378,32.214 C91.415,32.214 90.536,33.499 90.4,34.65 L90.467,34.718 C91.144,33.974 91.821,33.568 93.377,33.568 L95.745,33.568 L95.745,47.238 L104.678,54.953 L105.693,53.734 L97.168,46.492 Z M97.168,15.43 C97.168,12.656 94.732,11.708 94.732,9.949 C94.732,7.512 95.679,5.483 97.168,3.588 L97.033,3.521 C95.003,5.078 93.108,7.582 93.108,10.017 C93.108,12.454 95.747,13.604 95.747,15.77 L95.747,27.748 L97.168,27.748 L97.168,15.43 Z M111.447,22.198 L106.304,17.19 L103.597,19.964 L103.597,43.92 L109.755,49.131 L111.447,47.236 L111.447,22.198 Z M113.612,46.357 L113.612,21.251 L107.86,15.566 L106.777,16.649 L112.191,21.859 L112.191,47.101 L121.327,55.019 L122.41,54.003 L113.612,46.357 Z M126.741,21.318 L122.478,17.257 L120.042,19.761 L120.042,43.853 L126.674,49.672 L126.741,49.605 L126.741,21.318 Z M128.906,20.371 L123.966,15.566 L122.951,16.649 L127.485,20.98 L127.485,49.267 L128.906,47.913 L128.906,20.371 Z M157.661,55.966 L151.232,50.146 L145.48,55.966 L138.442,49.74 L137.494,50.755 L136.953,50.214 L138.171,48.928 L138.171,30.793 L150.894,21.589 L158.203,27.274 L159.489,25.92 L160.031,26.462 L158.542,28.018 L158.542,46.764 L162.128,50.079 L163.279,48.861 L163.82,49.335 L157.661,55.966 Z M140.337,48.455 L140.337,30.183 L138.916,31.198 L138.916,49.132 L145.413,54.952 L146.496,53.869 L140.337,48.455 Z M151.232,30.657 L145.683,26.326 L145.48,26.462 L145.48,46.154 L150.082,50.146 L151.232,48.996 L151.232,30.657 Z M153.398,49.064 L153.398,29.642 L147.646,24.972 L146.293,25.919 L151.977,30.386 L151.977,49.74 L157.662,54.883 L158.677,53.8 L153.398,49.064 Z M177.354,33.905 L184.324,33.905 L184.324,48.387 L173.564,55.966 C172.143,54.342 170.112,53.192 167.609,53.192 C165.579,53.192 163.954,53.869 161.789,55.696 L161.451,55.56 L170.655,42.161 L164.97,42.161 L164.97,29.574 L176.272,21.724 C177.625,22.807 178.64,23.415 180.4,23.415 C181.754,23.415 183.716,23.144 185.205,21.927 L185.476,22.062 L177.354,33.905 Z M169.775,51.229 C167.812,51.229 166.256,51.906 164.902,52.853 L164.902,52.989 C165.985,52.515 167.068,52.38 168.083,52.38 C169.639,52.38 172.076,53.125 173.7,55.02 L175.257,53.87 C173.97,52.38 172.414,51.229 169.775,51.229 Z M177.015,39.86 L173.225,39.86 L165.307,51.298 L165.375,51.433 C167.337,50.012 169.232,49.065 171.533,49.065 C173.563,49.065 175.661,50.012 176.947,51.636 L177.015,51.569 L177.015,39.86 Z M167.135,39.86 L167.135,28.966 L165.714,29.981 L165.714,41.35 L171.195,41.35 L172.278,39.861 L167.135,39.861 L167.135,39.86 Z M181.279,26.596 C179.858,27.612 179.046,28.153 176.677,28.153 C175.323,28.153 173.699,27.544 172.414,26.19 L172.279,26.258 L172.279,36.138 L174.85,36.138 L181.347,26.663 L181.279,26.596 Z M178.031,25.987 C176.813,25.987 175.257,25.379 174.241,24.025 L172.549,25.175 C173.835,26.732 175.053,27.408 176.947,27.408 C178.165,27.408 179.925,27.069 181.752,25.512 L181.819,25.31 C180.67,25.785 179.249,25.987 178.031,25.987 Z M179.181,37.628 L174.782,37.628 L173.767,39.049 L177.76,39.049 L177.76,52.177 L179.181,51.162 L179.181,37.628 Z M207.671,27.95 L207.671,51.365 C207.671,57.861 201.919,62.261 195.49,63.546 L195.355,63.275 C198.536,61.718 200.363,58.538 200.363,55.154 L200.363,30.927 L196.709,27.612 L195.288,29.168 L195.288,48.049 L197.318,49.876 L197.318,50.012 L191.837,55.967 L185.544,50.215 L185.544,49.944 L187.98,47.372 L187.98,17.461 L195.153,9.815 L195.288,9.882 L195.288,28.018 L201.176,21.657 L207.334,27.207 L208.484,25.988 L209.026,26.463 L207.671,27.95 Z M188.723,50.079 L188.723,49.944 L190.144,48.522 L190.144,16.31 L188.723,17.799 L188.723,47.845 L186.557,50.011 L186.557,50.146 L191.835,54.883 L192.782,53.8 L188.723,50.079 Z M202.528,29.844 L198.129,26.055 L197.182,27.07 L201.107,30.59 L201.107,54.952 C201.107,56.576 200.769,58.267 200.16,59.215 L200.228,59.283 C201.92,58.064 202.529,56.237 202.529,53.869 L202.529,29.844 L202.528,29.844 Z M219.988,55.966 L214.168,50.62 L212.814,52.041 L212.272,51.499 L213.829,49.808 L213.829,30.251 L210.987,27.544 L209.904,28.763 L209.362,28.221 L215.452,21.589 L220.866,26.462 L222.22,24.973 L222.829,25.447 L221.137,27.274 L221.137,47.035 L224.386,50.08 L225.875,48.523 L226.416,49.065 L219.988,55.966 Z M215.995,49.335 L215.995,29.168 L212.476,25.92 L211.529,27.003 L214.574,29.913 L214.574,50.012 L219.988,54.884 L221.003,53.801 L215.995,49.335 Z M218.025,21.048 L212.476,15.973 L217.552,10.559 L223.101,15.634 L218.025,21.048 Z M214.574,14.889 L213.559,15.904 L217.957,20.032 L218.972,18.882 L214.574,14.889 Z M248.603,55.966 L242.715,50.62 L242.715,30.86 L239.128,27.612 L237.233,29.642 L237.233,47.913 L239.331,49.875 L239.331,50.146 L233.782,55.966 L227.488,50.214 L227.488,50.011 L229.925,47.44 L229.925,30.386 L226.744,27.476 L225.458,28.897 L224.917,28.356 L231.075,21.656 L237.233,27.138 L237.233,28.491 L243.662,21.656 L249.684,27.07 L251.038,25.649 L251.647,26.19 L250.023,27.882 L250.023,47.236 L253.068,50.078 L254.557,48.454 L255.098,48.995 L248.603,55.966 Z M230.737,50.079 L230.737,49.944 C230.737,50.079 232.091,48.59 232.091,48.59 L232.091,29.37 L228.233,25.851 L227.285,26.866 L230.669,29.979 L230.669,47.844 L228.571,50.01 L228.571,50.145 L233.782,54.882 L234.864,53.732 L230.737,50.079 Z M244.88,49.538 L244.88,29.71 L240.685,25.92 L239.602,27.07 L243.459,30.521 L243.459,50.214 L248.534,54.951 L249.617,53.8 L244.88,49.538 Z M267.686,68.147 C265.454,65.711 263.897,64.696 261.799,64.696 C259.566,64.696 256.994,65.576 254.355,66.997 L254.152,66.795 L263.491,55.967 L256.859,50.689 L255.573,52.043 L255.032,51.569 L256.52,49.945 L256.52,30.793 L269.378,21.589 L276.551,27.274 L277.77,25.92 L278.311,26.462 L276.89,28.018 L276.89,51.163 C276.89,54.682 278.852,54.547 278.852,57.185 C278.852,60.23 274.453,63.072 267.686,68.147 Z M258.686,49.402 L258.686,30.251 L257.265,31.267 L257.265,50.012 L263.964,55.426 L264.98,54.207 L258.686,49.402 Z M263.423,62.937 C261.19,62.937 259.159,63.614 257.265,64.899 L257.265,65.035 C258.483,64.561 259.836,63.952 262.137,63.952 C264.235,63.952 265.994,65.102 267.754,67.133 L269.108,66.05 C267.415,64.088 265.385,62.937 263.423,62.937 Z M271.679,56.44 C269.988,55.357 269.581,54.207 269.581,51.297 L269.581,50.078 L258.347,63.071 L258.415,63.138 C260.58,61.853 262.543,60.906 265.724,60.906 C268.431,60.906 270.258,61.988 272.356,63.748 C273.642,62.665 274.521,61.583 274.521,59.891 C274.521,58.538 273.37,57.523 271.679,56.44 Z M269.581,30.657 L263.964,26.259 L263.828,26.394 L263.828,47.169 L268.16,50.553 L269.581,48.929 L269.581,30.657 Z M273.709,55.493 C271.949,54.139 271.746,52.989 271.746,50.079 L271.746,29.507 L266.061,24.905 L264.776,25.785 L270.325,30.183 L270.325,51.026 C270.325,53.936 270.461,54.749 272.288,55.966 C273.912,57.049 275.197,58.199 275.197,59.756 C275.197,60.161 275.13,60.838 275.13,60.838 L275.197,60.906 C275.536,60.567 275.942001,60.026 275.942001,59.146 C275.943,57.658 275.198,56.643 273.709,55.493 Z M289.951,55.966 L283.725,51.094 L282.439,52.515 L281.898,51.973 L283.386,50.349 L283.386,26.664 L279.461,26.664 L279.325,26.529 L281.694,23.009 L283.385,23.009 L283.385,18.476 L290.559,10.829 L290.694,10.965 L290.694,23.01 L296.108,23.01 L296.244,23.146 L293.875,26.665 L290.694,26.665 L290.694,47.17 L294.417,50.013 L295.838,48.456 L296.379,48.997 L289.951,55.966 Z M285.552,17.325 L284.131,18.882 L284.131,23.01 L285.552,23.01 L285.552,17.325 Z M285.552,49.673 L285.552,26.664 L284.131,26.664 L284.131,50.485 L289.883,54.952 L290.898,53.869 L285.552,49.673 Z M318.508,28.627 L318.508,47.575 L307.071,56.034 L298.476,49.538 L297.461,50.688 L296.92,50.146 L298.138,48.793 L298.138,30.251 L310.117,21.656 L318.102,27.883 L319.387,26.529 L319.929,27.07 L318.508,28.627 Z M300.305,48.117 L300.305,29.642 L298.883,30.657 L298.883,48.861 L307.004,55.087 L308.29,54.14 L300.305,48.117 Z M311.2,30.86 L305.515,26.393 L305.448,26.461 L305.448,46.627 L311.2,50.958 L311.2,30.86 Z M313.366,29.642 L307.072,24.769 L305.787,25.716 L311.945,30.453 L311.945,51.5 L313.366,50.418 L313.366,29.642 Z M344.36,55.966 L338.472,50.62 L338.472,30.86 L334.885,27.612 L332.99,29.642 L332.99,47.913 L335.088,49.875 L335.088,50.146 L329.539,55.966 L323.245,50.214 L323.245,50.011 L325.682,47.44 L325.682,30.386 L322.501,27.476 L321.215,28.897 L320.674,28.356 L326.832,21.656 L332.99,27.138 L332.99,28.491 L339.419,21.656 L345.442,27.07 L346.795,25.649 L347.404,26.19 L345.78,27.882 L345.78,47.236 L348.825,50.078 L350.314,48.454 L350.855,48.995 L344.36,55.966 Z M326.493,50.079 L326.493,49.944 C326.493,50.079 327.847,48.59 327.847,48.59 L327.847,29.37 L323.99,25.851 L323.043,26.866 L326.427,29.979 L326.427,47.844 L324.329,50.01 L324.329,50.145 L329.54,54.882 L330.623,53.732 L326.493,50.079 Z M340.637,49.538 L340.637,29.71 L336.442,25.92 L335.359,27.07 L339.216,30.521 L339.216,50.214 L344.291,54.951 L345.374,53.8 L340.637,49.538 Z M386.166,55.966 C384.271,53.936 383.595,53.259 381.361,52.65 L381.361,65.914 L381.225,65.981 L378.518,63.544 L370.668,70.785 L370.532,70.718 L370.532,52.515 C368.164,53.056 365.66,54.275 363.223,56.71 L363.088,56.643 C363.562,51.432 366.133,47.575 370.531,46.086 L370.531,32.89 L369.11,32.89 C367.148,32.89 366.065,33.905 365.118,35.732 L364.915,35.732 C364.712,35.124 364.576,34.175 364.576,32.62 C364.576,29.777 366.674,26.8 370.126,26.8 L370.531,26.8 L370.531,19.491 L367.757,16.987 L366.403,18.341 L365.929,17.867 L372.764,10.626 L379.125,16.446 L379.125,22.604 L380.614,20.98 L380.614,13.197 L381.358,13.197 L381.358,20.303 L390.358,10.625 L398.005,17.596 L398.005,47.034 L386.166,55.966 Z M370.534,50.011 C367.76,50.552 365.798,52.244 364.512,54.477 L364.579,54.613 C366.475,52.989 368.233,52.245 370.534,51.703 L370.534,50.011 Z M372.7,30.59 L368.978,30.59 C366.406,30.59 365.391,32.214 365.324,34.109 L365.391,34.176 C366.203,32.822 367.015,32.349 368.639,32.147 L371.279,32.147 L371.279,69.028 L372.7,67.674 L372.7,30.59 Z M372.7,18.408 L369.316,15.296 L368.233,16.446 L371.279,19.152 L371.279,26.799 L372.7,26.799 L372.7,18.408 Z M380.618,22.265 L379.129,23.822 L379.129,63.005 L380.618,64.359 L380.618,22.265 Z M389.483,20.709 L385.49,17.055 L381.362,21.522 L381.362,45.342 C384.881,45.681 387.317,46.696 389.415,48.996 L389.483,48.929 L389.483,20.709 Z M381.362,50.011 L381.362,51.771 C383.663,52.312 384.61,52.989 386.234,54.883 L387.791,53.665 C386.166,51.635 384.542,50.418 381.362,50.011 Z M391.648,19.627 L387.046,15.363 L385.963,16.513 L390.227,20.438 L390.227,51.906 L391.648,50.823 L391.648,19.627 Z M421.627,28.627 L421.627,47.575 L410.189,56.034 L401.595,49.538 L400.579,50.688 L400.038,50.146 L401.256,48.793 L401.256,30.251 L413.235,21.656 L421.22,27.883 L422.505,26.529 L423.047,27.07 L421.627,28.627 Z M403.423,48.117 L403.423,29.642 L402.001,30.657 L402.001,48.861 L410.122,55.087 L411.408,54.14 L403.423,48.117 Z M414.318,30.86 L408.634,26.393 L408.566,26.461 L408.566,46.627 L414.318,50.958 L414.318,30.86 Z M416.484,29.642 L410.19,24.769 L408.905,25.716 L415.063,30.453 L415.063,51.5 L416.484,50.418 L416.484,29.642 Z M437.326,33.905 L444.297,33.905 L444.297,48.387 L433.537,55.966 C432.116,54.342 430.086,53.192 427.582,53.192 C425.552,53.192 423.928,53.869 421.762,55.696 L421.424,55.56 L430.627,42.161 L424.942,42.161 L424.942,29.574 L436.244,21.724 C437.598,22.807 438.612,23.415 440.372,23.415 C441.726,23.415 443.687,23.144 445.177,21.927 L445.448,22.062 L437.326,33.905 Z M429.747,51.229 C427.785,51.229 426.228,51.906 424.875,52.853 L424.875,52.989 C425.958,52.515 427.04,52.38 428.056,52.38 C429.613,52.38 432.048,53.125 433.672,55.02 L435.229,53.87 C433.944,52.38 432.387,51.229 429.747,51.229 Z M436.989,39.86 L433.199,39.86 L425.282,51.298 L425.349,51.433 C427.311,50.012 429.206,49.065 431.507,49.065 C433.537,49.065 435.635,50.012 436.921,51.636 L436.988,51.569 L436.988,39.86 L436.989,39.86 Z M427.109,39.86 L427.109,28.966 L425.687,29.981 L425.687,41.35 L431.168,41.35 L432.251,39.861 L427.109,39.861 L427.109,39.86 Z M441.252,26.596 C439.83,27.612 439.019,28.153 436.649,28.153 C435.295,28.153 433.671,27.544 432.386,26.19 L432.25,26.258 L432.25,36.138 L434.821,36.138 L441.318,26.663 L441.252,26.596 Z M438.003,25.987 C436.785,25.987 435.229,25.379 434.214,24.025 L432.522,25.175 C433.808,26.732 435.026,27.408 436.921,27.408 C438.139,27.408 439.899,27.069 441.726,25.512 L441.793,25.31 C440.643,25.785 439.222,25.987 438.003,25.987 Z M439.154,37.628 L434.756,37.628 L433.741,39.049 L437.733,39.049 L437.733,52.177 L439.154,51.162 L439.154,37.628 Z M455.531,55.966 L449.305,51.094 L448.019,52.515 L447.478,51.973 L448.966,50.349 L448.966,26.664 L445.041,26.664 L444.906,26.529 L447.274,23.009 L448.965,23.009 L448.965,18.476 L456.139,10.829 L456.275,10.965 L456.275,23.01 L461.688,23.01 L461.824,23.146 L459.455,26.665 L456.275,26.665 L456.275,47.17 L459.997,50.013 L461.418,48.456 L461.959,48.997 L455.531,55.966 Z M451.132,17.325 L449.711,18.882 L449.711,23.01 L451.132,23.01 L451.132,17.325 Z M451.132,49.673 L451.132,26.664 L449.711,26.664 L449.711,50.485 L455.463,54.952 L456.478,53.869 L451.132,49.673 Z" id="Shape"></path>
        </g>
    </g>
</svg>