<?xml version="1.0" encoding="UTF-8"?>
<svg id="twitch" viewBox="0 0 230 142" version="1.1" xmlns="http://www.w3.org/2000/svg" xmlns:xlink="http://www.w3.org/1999/xlink">
    <g stroke="none" stroke-width="1" fill="none" fill-rule="evenodd">
        <g transform="translate(0, 0)" fill="currentColor">
            <g id="g3363" transform="translate(115, 71) scale(-1, 1) rotate(-180) translate(-115, -71)translate(0, 0)">
                <g id="g3365" transform="translate(140.6286, 77.573)">
                    <path d="M51.2615842,30.2430685 L42.0588339,21.0375715 L27.6028582,21.0375715 L19.7166162,13.1497466 L19.7166162,21.0375715 L7.8875902,21.0375715 L7.8875902,59.1677906 L51.2615842,59.1677906 L51.2615842,30.2430685 Z M2.62829794,64.4270149 L0,53.9078919 L0,6.57554764 L11.8303742,6.57554764 L11.8303742,0 L18.4001079,0 L24.9738861,6.57554764 L35.4870779,6.57554764 L56.5161578,27.6097474 L56.5161578,64.4270149 L2.62829794,64.4270149 Z" id="path3367"></path>
                </g>
                <path d="M162.973549,110.443508 L168.230819,110.443508 L168.230819,126.223878 L162.973549,126.223878 L162.973549,110.443508 Z M177.430199,110.443508 L182.687469,110.443508 L182.687469,126.223878 L177.430199,126.223878 L177.430199,110.443508 Z" id="path3369"></path>
                <g id="g3371" transform="translate(-0, 0)">
                    <path d="M224.746775,49.9622936 L215.548069,59.1637445 L198.459751,59.1637445 L198.459751,70.9985164 L183.99973,70.9985164 L183.99973,17.0912988 L198.459751,17.0912988 L198.459751,44.7037437 L210.286754,44.7037437 L210.286754,17.0912988 L224.746775,17.0912988 L224.746775,49.9622936 Z M178.745831,59.1637445 L156.402265,59.1637445 L147.201537,49.9622936 L147.201537,26.2967958 L156.402265,17.0912988 L178.745831,17.0912988 L178.745831,31.5526484 L161.657513,31.5526484 L161.657513,44.7037437 L178.745831,44.7037437 L178.745831,59.1637445 L178.745831,59.1637445 Z M141.944267,59.1637445 L130.117263,59.1637445 L130.117263,70.9985164 L115.657243,70.9985164 L115.657243,26.2967958 L124.857971,17.0912988 L141.944267,17.0912988 L141.944267,31.5526484 L130.117263,31.5526484 L130.117263,44.7037437 L141.944267,44.7037437 L141.944267,59.1637445 L141.944267,59.1637445 Z M110.399973,70.9985164 L95.9439973,70.9985164 L95.9439973,64.4222944 L110.399973,64.4222944 L110.399973,70.9985164 Z M110.399973,59.1637445 L95.9439973,59.1637445 L95.9439973,17.0919732 L110.399973,17.0919732 L110.399973,59.1637445 L110.399973,59.1637445 Z M90.6867274,59.1637445 L76.2294035,59.1637445 L76.2294035,31.5526484 L70.9734817,31.5526484 L70.9734817,59.1637445 L56.5154837,59.1637445 L56.5154837,31.5526484 L51.260236,31.5526484 L51.260236,59.1637445 L36.8002157,59.1637445 L36.8002157,17.0912988 L81.4880216,17.0912988 L90.6867274,26.2967958 L90.6867274,59.1637445 L90.6867274,59.1637445 Z M31.5429457,59.1637445 L19.715268,59.1637445 L19.715268,70.9985164 L5.25794407,70.9985164 L5.25794407,26.2967958 L14.457998,17.0912988 L31.5429457,17.0912988 L31.5429457,31.5526484 L19.715268,31.5526484 L19.715268,44.7037437 L31.5429457,44.7037437 L31.5429457,59.1637445 Z M230,52.5922429 L230,13.1490723 L210.286754,0 L197.144591,0 L197.144591,6.57622199 L187.944537,0 L176.117533,0 L176.117533,6.57622199 L169.547799,0 L148.518045,0 L141.944267,6.57622199 L140.628433,0 L122.231021,0 L114.707443,6.57622199 L114.286133,0 L93.432992,0 L92.6955316,6.57622199 L87.0506568,0 L55.1996495,0 L48.6272194,2.62994932 L48.6272194,0 L31.5429457,0 L11.8276778,11.8361206 L0,23.6634748 L0,76.256392 L24.973212,76.256392 L36.8002157,64.4222944 L90.6867274,64.4222944 L90.6867274,76.256392 L135.372511,76.256392 L135.372511,64.4222944 L147.201537,64.4222944 L147.201537,57.8501185 L153.775315,64.4222944 L166.915457,64.4222944 L178.745831,76.256392 L203.717021,76.256392 L203.717021,64.4222944 L218.175019,64.4222944 L230,52.5922429 Z" id="path3373"></path>
                </g>
            </g>
        </g>
    </g>
</svg>