<?xml version="1.0" encoding="UTF-8"?>
<svg id="under-armor" viewBox="0 0 205 155" version="1.1" xmlns="http://www.w3.org/2000/svg" xmlns:xlink="http://www.w3.org/1999/xlink">
    <g stroke="none" stroke-width="1" fill="none" fill-rule="evenodd">
        <g transform="translate(0, 0)" fill="currentColor" fill-rule="nonzero">
            <path d="M204,19.2487177 C204,19.2487177 198.114817,14.6633533 179.056813,7.61788532 C162.33424,1.42286604 149.560777,0 149.560777,0 L149.624058,36.7371443 C149.624058,52.2647187 132.191706,68.7529213 102.420309,68.7529213 L101.568574,68.7529213 C71.8005978,68.7529213 54.3742313,52.2647187 54.3742313,36.7371443 L54.4323819,0 C54.4323819,0 41.6708907,1.42200526 24.9414763,7.61788532 C5.88432759,14.6633533 0,19.2487177 0,19.2487177 C1.41271751,48.7122879 46.8847761,72.9870883 101.988455,73 L102.001283,73 C157.108383,72.9870883 202.591558,48.7122879 204,19.2487177" id="Path"></path>
            <path d="M203.788671,102.261836 C203.788671,102.261836 197.910562,106.792363 178.8727,113.779199 C162.155841,119.918268 149.406982,121.321264 149.406982,121.321264 L149.471051,84.9269415 C149.471051,69.5451546 132.056268,53.2141064 102.31719,53.2141064 L101.898607,53.2013131 L101.885793,53.2013131 L101.473189,53.2141064 C71.7306939,53.2141064 54.3227448,69.5451546 54.3227448,84.9269415 L54.3876679,121.321264 C54.3876679,121.321264 41.6328299,119.918268 24.9219505,113.779199 C5.89006817,106.792363 0,102.261836 0,102.261836 C1.41122446,73.0709826 46.8471847,49.0187635 101.899461,49 C156.947466,49.0187635 202.38428,73.0709826 203.788671,102.261836 M9.89821899,154.921535 C5.25792163,154.921535 5.17411728,151.394854 5.17411728,150.031943 L5.17411728,143.611422 C5.17411728,143.211419 5.14857736,142.697129 5.97378488,142.697129 L8.36483648,142.697129 C9.15074841,142.697129 9.1063273,143.238711 9.1063273,143.611422 L9.1063273,150.031943 C9.1063273,150.49506 9.18406424,151.71895 10.8720664,151.71895 L14.8938852,151.71895 C16.55028,151.71895 16.6468105,150.49506 16.6468105,150.031943 L16.6468105,143.611422 C16.6468105,143.237858 16.5938469,142.697129 17.3754875,142.697129 L19.7981465,142.697129 C20.6694836,142.697129 20.5908924,143.238711 20.5908924,143.611422 L20.5908924,150.031943 C20.5908924,151.397412 20.5003417,154.921535 15.8540646,154.921535 M32.1267127,154.13688 C30.4899657,151.936436 28.1501692,149.169676 25.7659516,146.234045 L25.7659516,154.058415 C25.7659516,154.405539 25.8496683,154.921535 25.0312948,154.921535 L22.7948628,154.921535 C21.9893031,154.921535 22.0798538,154.406392 22.0798538,154.058415 L22.0798538,143.595217 C22.0798538,143.2353 22.0473922,142.693718 22.7948628,142.693718 L27.1575283,142.693718 C28.3885055,142.693718 30.1482648,145.164526 31.2955254,146.811448 C32.1916358,148.047279 33.8283828,149.925332 34.930368,151.341975 L34.930368,143.594365 C34.930368,143.234447 34.8850927,142.692865 35.6974864,142.692865 L38.1269794,142.692865 C38.9000775,142.692865 38.8565107,143.234447 38.8565107,143.594365 L38.8565107,154.918123 L34.3776669,154.918123 C33.4157791,154.921535 33.0031753,154.986354 32.1267127,154.13688 M40.3377838,154.921535 L40.3377838,142.70895 L51.1457812,142.70895 C51.8035554,142.70895 56.2439577,142.620369 56.2439577,147.277123 C56.2439577,152.025989 56.753092,154.921535 51.236332,154.921535 L45.4103327,154.921535 L44.1537279,152.373966 L44.1537279,154.921535 M50.5717238,151.704451 C52.5373579,151.704451 52.388718,149.826398 52.388718,148.963278 C52.388718,146.080525 51.5763243,145.962827 50.2812781,145.962827 L44.113578,145.962827 L44.113578,151.702745 L50.5717238,151.704451 L50.5717238,151.704451 Z M60.4716513,142.786682 L70.4356477,142.786682 C71.273669,142.786682 71.1643248,143.337646 71.1643248,144.355991 C71.1643248,145.307811 71.2933168,145.84854 70.4356477,145.84854 L62.5602977,145.84854 C62.3535687,145.84854 61.6325799,145.747047 61.6325799,146.479676 C61.6325799,147.22595 61.4967538,147.522754 62.28352,147.522754 L69.2439661,147.522754 L70.3655991,149.747932 C70.5261985,150.056677 70.5074049,150.327894 69.8949062,150.327894 L62.6884355,150.327894 L61.5736365,148.152184 L61.5736365,151.357327 C61.5736365,152.103601 62.2373904,151.962022 62.4304514,151.962022 L70.6090609,151.962022 C71.4214546,151.962022 71.3505517,152.528338 71.3505517,153.454572 C71.3505517,154.445625 71.4214546,155 70.6090609,155 L60.2580883,155 C59.3944394,155 57.7124171,154.731341 57.7124171,152.038782 L57.7124171,145.308664 C57.7124171,144.600769 58.0797455,142.786682 60.4716513,142.786682 M73.8509476,142.708216 L84.7494958,142.708216 C86.2119754,142.708216 88.3390631,142.69457 88.3390631,146.634901 C88.3390631,149.208909 87.7914875,149.336841 86.6177451,150.135142 C88.5833792,150.470326 88.3194153,152.978662 88.3194153,154.277606 C88.3194153,154.935181 88.0810789,154.920708 87.8871637,154.920708 L84.6905524,154.920708 C84.0199645,154.920708 84.1814181,153.866515 84.1814181,153.312993 C84.1814181,151.820444 83.3433968,151.883557 83.0145098,151.883557 L78.3101435,151.883557 C77.8590984,151.09805 76.9826358,149.347929 76.9826358,149.347929 L76.9826358,154.418332 L76.3829508,154.919829 L73.1666917,154.919829 L72.8446386,154.519826 L72.8446386,143.762383 C72.8454929,143.005021 73.3802547,142.708216 73.8509476,142.708216 M82.5318574,145.938946 L77.6788512,145.938946 C76.8664575,145.938946 76.9057531,146.207605 76.9057531,146.454089 L76.9057531,148.640034 L81.9005651,148.640034 C84.3240782,148.640034 84.3240782,148.035338 84.3240782,147.405056 C84.323224,146.144492 84.2207137,145.938946 82.5318574,145.938946 M107.106127,142.786682 C107.905707,142.786682 108.684785,143.1466 109.525369,144.780728 C110.092593,145.95174 114.050343,153.094654 114.88751,154.587204 L114.88751,154.998294 L110.76318,154.998294 L109.57577,152.849023 L104.559602,152.849023 L103.474702,150.390155 C103.166317,150.891651 101.509922,154.031975 100.942698,154.996588 L96.8055556,154.996588 L96.8055556,154.72793 C97.6495566,153.144122 103.411487,142.784123 103.411487,142.784123 M105.817915,146.171784 L103.794192,149.838338 L103.981273,150.020003 L107.732294,150.020003 L107.919375,149.838338 L106.005851,146.158991 L105.817915,146.171784 M117.504084,142.708216 L128.409466,142.708216 C129.865966,142.708216 131.993053,142.69457 131.993053,146.634901 C131.993053,149.208909 131.450603,149.336841 130.277715,150.135142 C132.251892,150.470326 131.979385,152.978662 131.979385,154.277606 C131.979385,154.935181 131.734215,154.920708 131.5403,154.920708 L128.343689,154.920708 C127.674809,154.920708 127.841388,153.866515 127.841388,153.312993 C127.841388,151.820444 127.004221,151.883557 126.682168,151.883557 L121.965842,151.883557 C121.513943,151.09805 120.635772,149.347929 120.635772,149.347929 L120.635772,154.418332 L120.045484,154.919829 L116.822391,154.919829 L116.500337,154.519826 L116.500337,143.762383 C116.499483,143.005021 117.040225,142.708216 117.504084,142.708216 M126.192682,145.938946 L121.333696,145.938946 C120.521302,145.938946 120.561452,146.207605 120.561452,146.454089 L120.561452,148.640034 L125.562244,148.640034 C127.972089,148.640034 127.972089,148.035338 127.972089,147.405056 C127.971235,146.144492 127.882392,145.938946 126.192682,145.938946 M141.518819,154.921535 C140.708133,153.403399 138.452054,149.208056 136.930631,146.454089 L136.930631,154.072914 C136.930631,154.394451 136.98274,154.921535 136.196828,154.921535 L133.992858,154.921535 C133.16765,154.921535 133.231719,154.394451 133.231719,154.072914 L133.231719,143.608864 C133.231719,143.2353 133.17961,142.707364 133.992858,142.707364 L137.808802,142.707364 C138.376025,142.707364 139.18671,142.579431 140.089655,144.393518 C140.773911,145.847688 142.215888,148.872872 143.223051,150.46862 C144.227652,148.872872 145.710634,145.847688 146.393181,144.393518 C147.282457,142.579431 148.068369,142.707364 148.714184,142.707364 L152.51646,142.707364 C153.288704,142.707364 153.199007,143.2353 153.199007,143.608864 L153.199007,154.072914 C153.199007,154.394451 153.31604,154.921535 152.51646,154.921535 L150.286008,154.921535 C149.474468,154.921535 149.538537,154.394451 149.538537,154.072914 L149.538537,146.454089 C147.991487,149.208056 145.761034,153.401693 144.911908,154.921535 M158.094726,154.947121 C154.485511,154.947121 154.640985,151.087815 154.640985,148.565833 C154.640985,146.273277 154.382147,142.684336 158.906266,142.645956 L166.949903,142.645956 C171.48769,142.645956 171.190411,146.288629 171.190411,148.565833 C171.190411,151.087815 171.372366,154.947121 167.697374,154.947121 M165.364411,151.806797 C167.195928,151.806797 167.130151,149.915098 167.130151,148.655386 C167.130151,147.509108 167.400948,145.732548 165.015022,145.732548 L160.969284,145.732548 C158.598735,145.732548 158.880638,147.509108 158.880638,148.655386 C158.880638,149.916803 158.76446,151.806797 160.595976,151.806797 L165.364411,151.806797 L165.364411,151.806797 Z M177.235953,154.921535 C172.608469,154.921535 172.518693,151.394854 172.518693,150.031943 L172.518693,143.611422 C172.518693,143.211419 172.493999,142.697129 173.319207,142.697129 L175.717947,142.697129 C176.503859,142.697129 176.450895,143.238711 176.450895,143.611422 L176.450895,150.031943 C176.450895,150.49506 176.528632,151.71895 178.216634,151.71895 L182.237599,151.71895 C183.900828,151.71895 183.991378,150.49506 183.991378,150.031943 L183.991378,143.611422 C183.991378,143.237858 183.952937,142.697129 184.725181,142.697129 L187.135026,142.697129 C188.011489,142.697129 187.93546,143.238711 187.93546,143.611422 L187.93546,150.031943 C187.93546,151.397412 187.856869,154.921535 183.191798,154.921535 M190.511885,142.708216 L201.418121,142.708216 C202.874621,142.708216 205,142.69457 205,146.634901 C205,149.208909 204.446445,149.336841 203.273557,150.135142 C205.246879,150.470326 204.988895,152.978662 204.988895,154.277606 C204.988895,154.935181 204.743724,154.920708 204.549809,154.920708 L201.353198,154.920708 C200.695424,154.920708 200.850898,153.866515 200.850898,153.312993 C200.850898,151.820444 200.000063,151.883557 199.678009,151.883557 L194.972789,151.883557 C194.522598,151.09805 193.644427,149.347929 193.644427,149.347929 L193.644427,154.418332 L193.038762,154.919829 L189.828483,154.919829 L189.50643,154.519826 L189.50643,143.762383 C189.50643,143.005021 190.048026,142.708216 190.511885,142.708216 M199.186815,145.938946 L194.339788,145.938946 C193.527394,145.938946 193.565836,146.207605 193.565836,146.454089 L193.565836,148.640034 L198.567482,148.640034 C200.977347,148.640034 200.977347,148.035338 200.977347,147.405056 C200.979035,146.144492 200.875671,145.938946 199.186815,145.938946" id="Shape"></path>
        </g>
    </g>
</svg>