<?xml version="1.0" encoding="UTF-8"?>
<svg id="usaa" viewBox="0 0 203 204" version="1.1" xmlns="http://www.w3.org/2000/svg" xmlns:xlink="http://www.w3.org/1999/xlink">
    <g stroke="none" stroke-width="1" fill="none" fill-rule="evenodd">
        <g fill="currentColor" fill-rule="nonzero">
            <path d="M191.788113,148 C185.586848,148 180.563824,152.607284 180.563824,158.30803 C180.563824,163.984204 185.586848,168.591487 191.788113,168.591487 C197.976976,168.591487 203,163.984204 203,158.30803 C203,152.607284 197.976976,148 191.788113,148 L191.788113,148 Z M191.788113,166.748574 C186.703076,166.748574 182.585436,162.964458 182.585436,158.30803 C182.585436,153.639315 186.703076,149.8552 191.788113,149.8552 C196.87315,149.8552 200.978388,153.639315 200.978388,158.30803 C200.978388,162.964458 196.87315,166.748574 191.788113,166.748574 M1,149.339184 L1,182.437911 C1,200.928477 12.6087677,204 22.332351,204 C36.7192853,204 43.3794437,194.748574 43.3794437,182.25362 L43.3794437,149.326898 L33.8667035,149.326898 L33.8667035,183.371654 C33.8667035,187.671786 32.4156075,195.694603 22.332351,195.534884 C13.154479,195.375165 11.4801375,187.180342 11.4801375,181.909609 L11.4801375,149.339184 L1,149.339184 Z M83.1543562,151.501536 C83.1543562,151.501536 77.0771167,148.577446 70.1689077,148.577446 C61.5739547,148.577446 50.7589489,152.865292 50.7589489,164.598508 C50.7589489,172.7319 56.9230061,176.577446 61.1150611,178.555507 C63.3475164,179.612111 66.0512679,180.791575 68.2837232,181.958754 C69.4371585,182.573058 74.0136919,184.071961 74.0136919,188.875823 C74.0136919,194.035981 68.209308,195.780606 65.6047768,195.780606 C56.3276847,195.780606 50.0023945,191.677051 50.0023945,191.677051 L50.9821944,201.997367 C50.9821944,201.997367 54.7773685,203.877139 66.1256831,203.901711 C76.9530914,203.864853 84.7542826,197.095217 84.7542826,187.782361 C84.7542826,180.61957 79.7312581,176.368583 75.4275803,174.341378 C72.0540922,172.744186 70.0944925,171.859588 67.155093,170.508118 C64.2156935,169.156648 61.1770737,166.834577 61.1770737,163.234752 C61.1770737,159.37692 64.8234174,156.600263 70.1689077,156.600263 C78.0569166,156.600263 81.2195616,160.064941 83.1543562,161.146117 L83.1543562,151.501536 Z M160.608154,149.253181 L149.197826,149.253181 L151.008596,153.737604 L133.272978,199.749013 L114.979247,149.253181 L103.56892,149.253181 L105.379689,153.737604 L86.4782342,202.795963 L96.7971388,202.795963 L100.096212,193.458534 L119.642598,193.458534 L122.929269,202.795963 L142.438448,202.795963 L145.749923,193.458534 L165.283907,193.458534 L168.58298,202.795963 L180.018113,202.795963 L160.608154,149.253181 Z M102.663535,186.197455 L110.253883,165.237385 L117.025665,186.197455 L102.663535,186.197455 Z M148.304844,186.197455 L155.870387,165.237385 L162.654571,186.197455 L148.304844,186.197455 Z" id="Shape"></path>
            <path d="M193.548751,158.446701 C193.548751,158.446701 195.780575,157.691942 195.780575,155.675127 C195.780575,153.645939 193.734736,152.507614 191.230133,152.507614 C188.725531,152.507614 187.200451,153.076777 187.200451,153.076777 L187.200451,163 L190.176216,163 L190.176216,159.374683 L191.068946,159.374683 L194.218298,162.962881 L198,162.962881 L193.548751,158.446701 Z M191.564907,157.691942 L190.176216,157.691942 L190.176216,154.388325 C190.176216,154.388325 192.643622,154.177982 192.643622,155.798858 C192.643622,157.456853 191.552508,157.691942 191.552508,157.691942 M0,88.4520939 L0.495960924,105.304251 C0.495960924,105.304251 4.71162878,102.248096 9.43565658,102.248096 C14.1720834,102.248096 19.5036633,105.588832 19.5036633,105.588832 L61.8215292,129.802982 L65.4048469,114.584074 L19.5036633,88.3036168 C19.5036633,88.3036168 14.1720834,85 9.43565658,85 C4.68683073,85 0.0123990231,88.464467 0.0123990231,88.464467" id="Shape"></path>
            <path d="M0,65.5063919 L0.496277916,82.5624837 C0.496277916,82.5624837 4.7146402,79.4693452 9.44168734,79.4693452 C14.1811414,79.4693452 19.516129,82.8379859 19.516129,82.8379859 L66.426799,110 L70,94.5969215 L19.5037221,65.3561179 C19.5037221,65.3561179 14.1935484,62 9.44168734,62 C4.6898263,62 0.0124069479,65.5063919 0.0124069479,65.5063919" id="Path"></path>
            <path d="M1,43.4504081 L1.49243054,60.2943359 C1.49243054,60.2943359 5.67809017,57.2273065 10.3684911,57.2273065 C15.0712028,57.2273065 20.3648311,60.5664111 20.3648311,60.5664111 L71.4545001,90 L75,74.7885234 L20.3648311,43.3020035 C20.3648311,43.3020035 15.0712028,40 10.3684911,40 C5.65346864,40 1.01231076,43.4504081 1.01231076,43.4504081" id="Path"></path>
            <path d="M88.2703878,17.1959686 L92.9867471,36.9910414 L157.501578,73.6987682 C157.501578,73.6987682 162.565458,77 167.55487,77 C172.544282,77 177,73.5509518 177,73.5509518 L176.503541,56.7737962 C176.503541,56.7737962 172.469813,59.8163494 167.55487,59.8163494 C162.627516,59.8163494 157.501578,56.5027996 157.501578,56.5027996 L107.595049,28.0974244 L104.14466,15.3729003 C104.14466,14.8309071 104.641119,14.5845465 104.827291,14.5475924 L113.267092,11.9608063 C114.408947,11.9608063 115.066755,12.9216125 115.066755,13.7222844 L115.513568,14.6338186 C115.823855,14.793953 117.089825,14.1903695 117.176706,14.1410974 L117.176706,9.11534155 C117.176865,7.43415205 116.498059,5.82304368 115.292125,4.6423933 C114.08619,3.46174292 112.453758,2.81007154 110.759975,2.8331467 L102.320174,2.8331467 C102.320174,2.8331467 101.079027,0 97.4921114,0 L81.4564897,0 C77.2365893,0 76.2064371,3.8924972 76.2064371,3.8924972 L65.0733469,47.7693169 L19.5108337,21.8275476 C19.5108337,21.8275476 14.5710679,18.5016797 9.4327186,18.5016797 C4.29436926,18.5016797 0,21.9507279 0,21.9507279 L0.484047402,38.7402016 C0.484047402,38.7402016 4.28195779,35.6976484 9.42030713,35.6976484 C14.5586565,35.6976484 19.5108337,39.0235162 19.5108337,39.0235162 L75.5734521,70.9148936 L88.2703878,17.1959686 Z" id="Path"></path>
            <path d="M95,43 L99.6737663,63.0518745 L157.677666,96.6455972 C157.677666,96.6455972 162.868007,100 167.640168,100 C172.412329,100 177,96.5089364 177,96.5089364 L176.520324,79.5878378 C176.520324,79.5878378 172.80591,82.6564952 167.640168,82.6564952 C162.474426,82.6564952 157.677666,79.3269398 157.677666,79.3269398 L95,43 Z" id="Path"></path>
            <path d="M100,68 L104.731565,87.8596288 L157.438713,117.692111 C157.438713,117.692111 162.693241,121 167.524418,121 C172.355595,121 177,117.556845 177,117.556845 L176.50194,100.808353 C176.50194,100.808353 172.766494,103.845708 167.524418,103.845708 C162.294793,103.845708 157.438713,100.550116 157.438713,100.550116 L100,68 Z" id="Path"></path>
            <path d="M106,93 L110.64292,112.990079 L156.703632,139.651786 C156.703632,139.651786 161.886998,143 166.652746,143 C171.406212,143 176,139.515377 176,139.515377 L175.508686,122.637897 C175.508686,122.637897 171.823829,125.688492 166.652746,125.688492 C161.481663,125.688492 156.703632,122.352679 156.703632,122.352679 L106,93 Z" id="Path"></path>
        </g>
    </g>
</svg>