<?xml version="1.0" encoding="UTF-8"?>
<svg id="usaf" viewBox="0 0 260 203" version="1.1" xmlns="http://www.w3.org/2000/svg" xmlns:xlink="http://www.w3.org/1999/xlink">
    <g stroke="none" stroke-width="1" fill="none" fill-rule="evenodd">
        <g transform="translate(0, 0)" fill="currentColor" fill-rule="nonzero">
            <path d="M116.311531,120.442752 L106.402159,113.249019 L89.8722923,125.241709 L109.99964,139.848394 L116.311531,120.442752 Z M129.502535,130.011003 L112.973393,142.008757 L129.502535,154 L146.02226,142.008757 L129.502535,130.011003 Z M94.9678784,104.949059 L121.323084,104.949059 L60.724439,60.9727279 L74.8702321,90.3727608 L94.9678784,104.949059 Z M122.624146,101.041451 L127.665401,85.5600573 L43,24.1213972 L57.1443443,53.5272181 L122.624146,101.041451 Z M75.6967979,43.003951 L55.0029521,0 L45.0204136,20.7455592 L75.6967979,43.003951 Z M152.59277,113.249019 L142.68702,120.442752 L149.003982,139.848394 L169.124086,125.241709 L152.59277,113.249019 Z M137.676916,104.949059 L164.031397,104.949059 L184.129043,90.3727608 L198.269041,60.9727279 L137.676916,104.949059 Z M216,24.1213972 L131.337497,85.5600573 L136.371507,101.041451 L201.852034,53.5272181 L216,24.1213972 Z M213.978138,20.7455592 L203.996323,0 L183.296682,43.003951 L213.978138,20.7455592 Z" id="Shape"></path>
            <path d="M120.894864,116.16452 C120.894864,111.10659 124.994478,107 130.05374,107 C135.107897,107.005928 139.203623,111.105553 139.209546,116.16452 C139.209546,121.228598 135.102254,125.331346 130.05374,125.331346 C124.995732,125.331346 120.895288,121.227342 120.894864,116.16452 L120.894864,116.16452 Z M0,183.76419 L6.62463902,183.76419 L6.62463902,194.31576 C6.62463902,195.474581 6.7298164,196.316801 7.15052589,197.026848 C7.99194487,198.473068 9.67401511,198.868819 11.0152185,198.868819 C12.7502613,198.868819 13.7490625,198.26405 14.1958744,197.842172 C15.3251876,196.790165 15.3528255,195.105726 15.3528255,194.211251 L15.3528255,183.764959 L21.9774645,183.764959 L21.9774645,193.500436 C21.9774645,195.684368 21.9260274,197.973577 20.9003561,199.553507 C18.8758836,202.710295 13.9862874,203 11.0420887,203 C6.91483645,203 4.57559956,202.42059 3.1821913,201.580675 C0.290197422,200.158276 0.00153543609,197.211275 0.00153543609,195.711263 L0.00153543609,183.763422 L0,183.76419 Z M23.7478223,197.500212 L29.7943697,197.500212 L29.7943697,202.341439 L23.7478223,202.341439 L23.7478223,197.500212 Z M39.9221061,188.553163 C39.9221061,188.816741 40.0004134,189.053423 40.1324609,189.211724 C40.5792728,189.791134 42.4455954,190.210707 43.4712667,190.42203 L47.2822191,191.236586 C48.0975356,191.394887 48.8859821,191.580083 49.6751962,191.895147 C52.1457129,192.816517 52.9356948,194.658489 52.9356948,196.34216 C52.9305005,197.475921 52.5922266,198.583105 51.962996,199.525843 C50.4114378,201.868075 47.2829868,202.894723 42.2882132,202.894723 C40.4218906,202.894723 36.7153479,202.737191 34.5342609,200.789941 C32.9304979,199.368311 32.693273,197.658513 32.5888634,196.817061 L39.1344274,196.631865 C39.3708846,197.84294 40.6061429,198.763542 43.2355772,198.763542 C43.919614,198.763542 44.8915451,198.684392 45.5487117,198.317073 C45.9955236,198.053495 46.4692056,197.526339 46.4692056,196.895443 C46.4692056,196.026327 45.7598342,195.657472 45.2339473,195.473813 C44.4186307,195.211003 40.2391737,194.473292 39.317912,194.262737 C38.5982269,194.109781 37.8877283,193.916338 37.1897976,193.683327 C36.4804261,193.420518 33.5085896,192.366974 33.5085896,188.972736 C33.5085896,187.577233 34.087449,186.288545 35.0071752,185.341816 C37.0838525,183.18478 40.8172654,182.974225 42.8670726,182.974225 C45.1280022,182.974225 47.3635972,183.289289 48.5190128,183.683503 C51.9890984,184.789301 52.436678,187.395111 52.6209304,188.394863 L46.1014687,188.763718 C45.9433188,188.157412 45.6277867,187.052383 42.8409702,187.052383 C41.972681,187.052383 39.9221061,187.184556 39.9221061,188.553163 L39.9221061,188.553163 Z M55.0960533,197.500212 L61.1426007,197.500212 L61.1426007,202.341439 L55.0960533,202.341439 L55.0960533,197.500212 Z M85.2796561,195.211003 L80.9689192,195.211003 L83.0978014,188.922018 L85.2796561,195.211003 Z M71.2941364,202.341439 L78.5767098,202.341439 L79.575511,199.31452 L86.673832,199.31452 L87.6726332,202.341439 L94.9030018,202.341439 L86.8573166,183.76419 L79.286849,183.76419 L71.2941364,202.341439 Z M104.018118,183.76419 L104.018118,202.341439 L97.366609,202.341439 L97.366609,183.76419 L104.018118,183.76419 Z M115.609125,187.974521 L121.130553,187.974521 C121.62957,187.974521 122.312839,188.026007 122.838726,188.501677 C123.181128,188.817509 123.312408,189.263978 123.312408,189.685857 C123.312408,191.343401 121.62957,191.369528 120.603899,191.369528 L115.609125,191.369528 L115.609125,187.974521 Z M108.958384,202.341439 L115.609125,202.341439 L115.609125,195.57909 L119.158286,195.57909 L122.969238,202.341439 L130.330886,202.341439 L125.677747,194.92053 C126.466194,194.709975 127.728322,194.446397 128.779328,193.183835 C129.54244,192.263234 129.96315,190.97224 129.96315,189.657424 C129.96315,187.788557 129.121731,185.974249 127.780527,184.946833 C126.229737,183.814908 124.231367,183.788012 122.602269,183.762653 L108.957616,183.762653 L108.958384,202.341439 Z M140.251339,183.76419 L158.442418,183.76419 L158.442418,187.947625 L146.902081,187.947625 L146.902081,191.500164 L157.495822,191.500164 L157.495822,195.657472 L146.902081,195.657472 L146.902081,202.341439 L140.250571,202.341439 L140.250571,183.76419 L140.251339,183.76419 Z M173.338451,187.210683 C177.885645,187.263706 178.780805,190.999904 178.780805,193.026303 C178.780805,194.893634 178.071433,197.315784 176.020091,198.341664 C175.205542,198.762773 174.258945,198.868819 173.338451,198.868819 C169.317144,198.868819 167.764818,195.895691 167.764818,193.027072 C167.764818,190.474285 169.158994,187.158429 173.338451,187.210683 L173.338451,187.210683 Z M172.943844,183.079502 C169.657243,183.132525 165.241329,183.738063 162.638765,187.422775 C161.454176,189.104909 160.928289,191.158973 160.928289,193.237627 C160.928289,195.368535 161.428074,197.158252 162.689434,198.841924 C164.05674,200.710791 166.712277,202.999232 173.178766,202.999232 C176.542907,202.999232 179.540078,202.527404 182.064335,200.526363 C182.957191,199.841676 183.693432,199.000993 184.27306,198.025831 C185.192786,196.499692 185.614263,194.711512 185.614263,192.974817 C185.614263,189.791134 184.115677,185.895099 179.85561,184.159941 C177.728263,183.289289 175.255443,183.054144 172.943077,183.079502 L172.943844,183.079502 Z M195.97385,187.974521 L201.495279,187.974521 C201.994295,187.974521 202.678332,188.026007 203.203451,188.501677 C203.546621,188.817509 203.677133,189.263978 203.677133,189.685857 C203.677133,191.343401 201.994295,191.369528 200.969392,191.369528 L195.97385,191.369528 L195.97385,187.974521 Z M189.322341,202.341439 L195.97385,202.341439 L195.97385,195.57909 L199.523011,195.57909 L203.334731,202.341439 L210.695612,202.341439 L206.041705,194.92053 C206.830919,194.709975 208.093047,194.446397 209.144053,193.183835 C209.907165,192.263234 210.327107,190.97224 210.327107,189.657424 C210.327107,187.788557 209.486456,185.974249 208.145252,184.946833 C206.594462,183.814908 204.596859,183.788012 202.967762,183.762653 L189.322341,183.762653 L189.322341,202.341439 Z M220.370394,193.053199 C220.370394,195.868795 222.025595,198.790438 225.838082,198.790438 C227.282928,198.790438 228.623363,198.342432 229.597598,197.553235 C230.464351,196.841652 230.727679,196.238419 230.938033,195.683599 L237.272475,196.341391 C237.06212,197.026079 236.826431,197.709999 236.220701,198.656728 C234.038847,202.025607 229.779547,202.973104 225.705267,202.973104 C223.891149,202.973104 222.103134,202.814035 220.394961,202.288416 C216.582474,201.103468 213.428688,198.183363 213.428688,193.079326 C213.428688,189.473765 215.320345,182.974225 225.888752,182.974225 C234.904832,182.974225 236.326646,187.079278 236.930073,188.8421 L230.779116,189.947129 C230.517324,189.419973 230.200256,188.709158 229.227558,188.078262 C228.227989,187.446597 226.99273,187.235273 226.046902,187.235273 C223.052034,187.235273 220.371162,189.103372 220.371162,193.051662 L220.370394,193.053199 Z M259.738976,183.76419 L259.738976,187.947625 L246.830565,187.947625 L246.830565,190.973777 L258.766277,190.973777 L258.766277,195.184108 L246.803694,195.184108 L246.803694,198.131109 L260,198.131109 L260,202.341439 L240.179055,202.341439 L240.179055,183.76419 L259.738976,183.76419 Z" id="Shape"></path>
        </g>
    </g>
</svg>