<?xml version="1.0" encoding="UTF-8"?>
<svg id="virginia-tech" viewBox="0 0 448 85" version="1.1" xmlns="http://www.w3.org/2000/svg" xmlns:xlink="http://www.w3.org/1999/xlink">
    <g stroke="none" stroke-width="1" fill="none" fill-rule="evenodd">
        <g fill="currentColor" fill-rule="nonzero">
            <path d="M99.9915683,1.04947839 C88.6492411,1.04947839 78.2272344,7.2342772 72.8545531,17.1299553 L66.2133221,29.3263785 L65.4422428,30.7365127 L64.6960371,32.1219076 L64.6960371,32.1219076 L44.6479764,68.9833085 L11.9144182,8.12488823 L26.46543,8.12488823 L38.18086,29.7964232 L44.3246206,41.1764531 L50.6673693,29.89538 L62.9548904,8.10014903 L73.5758853,8.10014903 C76.1378583,5.25514158 79.1475548,2.88017884 82.43086,1 L58.7761383,1 L44.4489882,26.4071535 L30.6939292,1 L0,1 L44.5982293,84 L69.4220067,38.3561848 L73.5510118,30.7859911 L74.3220911,29.3758569 L79.0978078,20.5934426 C79.346543,20.1233979 79.6450253,19.6533532 79.9186341,19.1833085 C83.1024452,14.1859911 88.027403,10.5740686 93.6736931,9.01549925 C95.2158516,8.59493294 96.8077572,8.32280179 98.4245363,8.19910581 C98.9717538,8.17436662 99.5189713,8.14962742 100.066189,8.14962742 L165.085582,8.14962742 L158.518971,20.3213115 L128.422007,20.3213115 L126.407251,24.0816692 L98.5737774,76.0834575 L83.8237774,76.0834575 L108.224705,30.9839046 L113.895868,20.519225 L84.5948567,20.519225 C82.9283305,23.1415797 80.5155987,27.6193741 80.5155987,27.6193741 L101.956577,27.6193741 L71.8596121,83.1836066 L102.852024,83.1836066 L132.700253,27.3967213 L162.772344,27.3967213 L177,1.04947839 L99.9915683,1.04947839 Z" id="Path"></path>
            <g id="Group" transform="translate(197, 0)">
                <path d="M19.814481,26.2922976 C19.814481,26.2922976 23.1458994,18.5872284 24.8116086,14.7346939 C26.4773177,10.9071758 28.1430269,7.05464121 29.8335975,3.17709019 C30.2065174,2.30151415 30.8031894,1.60105332 31.598752,1.0757077 C32.3943146,0.575378539 33.2893225,0.300197498 34.2589144,0.300197498 L38.4604794,0.300197498 L22.3006141,37.5747202 L16.1598653,37.5747202 L0,0.300197498 L4.17670365,0.300197498 C4.64906894,0.300197498 5.0965729,0.375246873 5.56893819,0.500329164 C6.01644216,0.650427913 6.46394612,0.850559579 6.83686609,1.10072416 C7.23464739,1.35088874 7.58270602,1.6761027 7.90590333,2.00131666 C8.2042393,2.35154707 8.45285261,2.72679394 8.62688193,3.15207373 L18.6211371,26.2172482 L19.217809,27.5681369 L19.814481,26.2922976 Z" id="Path"></path>
                <polygon id="Path" points="50.965729 37.5997367 44.1785856 37.5997367 44.1785856 0.325213957 50.965729 0.325213957"></polygon>
                <path d="M127.091125,17.6616195 L127.091125,33.2969059 C126.171256,34.2225148 125.151941,34.998025 124.058043,35.6234365 C122.964144,36.2238315 121.845384,36.6991442 120.65204,37.074391 C119.458697,37.4246215 118.21563,37.674786 116.947702,37.7998683 C115.654913,37.9249506 114.362124,38 113.069334,38 C110.458895,38 107.997623,37.4996708 105.71038,36.4990125 C103.423138,35.4983542 101.40937,34.1474654 99.6939382,32.4213298 C97.9785063,30.6951942 96.6111331,28.6938776 95.6166799,26.3923634 C94.6222266,24.0908492 94.125,21.6142199 94.125,18.9874918 C94.125,17.2363397 94.348752,15.560237 94.7962559,13.9341672 C95.2437599,12.3080974 95.8901545,10.8071099 96.7105784,9.40618828 C97.5310024,8.00526662 98.5254556,6.72942725 99.6939382,5.55365372 C100.837559,4.40289664 102.130349,3.40223831 103.522583,2.57669519 C104.914818,1.75115207 106.431359,1.12574062 108.047345,0.675444371 C109.663332,0.225148124 111.329041,0 113.069334,0 C114.436708,0 115.804081,0.150098749 117.121731,0.475312706 C118.439382,0.775510204 119.732171,1.25082291 120.950376,1.82620145 C122.168582,2.42659645 123.337064,3.12705727 124.455824,3.95260039 C125.574584,4.77814352 126.61876,5.72876893 127.588352,6.75444371 L126.046949,8.33048058 C125.574584,8.83080974 125.052496,9.20605662 124.480685,9.4562212 C123.908875,9.70638578 123.287342,9.83146807 122.566363,9.83146807 C121.596771,9.83146807 120.726624,9.55628703 119.931062,9.00592495 C118.936609,8.33048058 117.892433,7.80513496 116.748811,7.42988808 C115.60519,7.05464121 114.386985,6.85450955 113.094196,6.85450955 C111.428487,6.85450955 109.862223,7.1797235 108.395404,7.80513496 C106.903724,8.45556287 105.610935,9.30612245 104.517036,10.4068466 C103.423138,11.5075708 102.52813,12.8084266 101.906597,14.2593812 C101.260202,15.7353522 100.937005,17.3113891 100.937005,18.9874918 C100.937005,20.7136274 101.285063,22.3146807 101.956319,23.7906517 C102.627575,25.2666228 103.522583,26.5674786 104.666204,27.6682028 C105.809826,28.7689269 107.127476,29.6194865 108.644017,30.244898 C110.160559,30.8703094 111.726823,31.1705069 113.392532,31.1705069 C114.212956,31.1454905 115.03338,31.0954575 115.853803,30.9703752 C116.549921,30.8703094 117.320622,30.6951942 118.116185,30.4700461 C118.936609,30.244898 119.657587,29.919684 120.328843,29.5194207 L120.328843,24.2659645 C119.607865,24.240948 118.886886,24.240948 118.190769,24.2159315 C117.494651,24.2159315 116.873118,24.0658328 116.326169,23.8156682 C115.779219,23.5655036 115.356577,23.1152074 115.008518,22.5148124 C114.685321,21.8894009 114.511292,20.9888084 114.511292,19.763002 L114.511292,17.6616195 L127.091125,17.6616195 Z" id="Path"></path>
                <polygon id="Path" points="144.817254 37.5997367 138.030111 37.5997367 138.030111 0.325213957 144.817254 0.325213957"></polygon>
                <path d="M162.767135,9.70638578 L162.767135,37.5997367 L156.004853,37.5997367 L156.004853,0.325213957 L161.971573,0.325213957 C162.791997,0.325213957 163.537837,0.450296248 164.15937,0.700460829 C164.780903,0.950625411 165.27813,1.32587228 165.65105,1.82620145 C168.236628,5.52863726 182.109251,25.2666228 182.109251,25.2666228 L182.109251,0.350230415 L188.871533,0.350230415 L188.871533,37.6247531 L182.581616,37.6247531 L162.767135,9.70638578 Z" id="Path"></path>
                <polygon id="Path" points="206.871137 37.5997367 200.083994 37.5997367 200.083994 0.325213957 206.871137 0.325213957"></polygon>
                <path d="M234.864996,0.325213957 L228.749109,0.325213957 L212.564382,37.5997367 L216.765947,37.5997367 C217.238312,37.5997367 217.685816,37.5246873 218.158181,37.399605 C218.605685,37.2495063 219.053189,37.074391 219.450971,36.8242265 C219.848752,36.5740619 220.196811,36.2738644 220.520008,35.923634 C220.843205,35.5734036 221.066957,35.1981567 221.240987,34.7728769 L223.403922,29.7195523 L223.403922,29.7195523 L227.307151,20.638578 L227.332013,20.638578 L231.782191,10.2317314 L237.201961,22.8650428 L234.119156,22.8650428 C231.807052,22.8650428 229.743562,24.240948 228.823693,26.3673469 L227.381735,29.7195523 L240.185321,29.7195523 L242.373118,34.7728769 C242.770899,35.6484529 243.367571,36.3489138 244.163134,36.8492429 C244.958697,37.3495721 245.828843,37.5997367 246.798435,37.5997367 L251,37.5997367 L234.864996,0.325213957 Z" id="Path"></path>
                <path d="M68.9156101,37.5997367 L62.1533281,37.5997367 L62.1533281,0.325213957 L76.0508122,0.325213957 C77.8408281,0.325213957 79.4568146,0.675444371 80.9236331,1.35088874 C82.3904517,2.02633311 83.6335182,2.92692561 84.6528328,4.05266623 C85.6970087,5.17840685 86.4925713,6.42922976 87.0643819,7.85516787 C87.6361926,9.28110599 87.9096672,10.7320606 87.9096672,12.2580645 C87.9096672,13.3587887 87.7604992,14.4094799 87.4621632,15.4601712 C87.1638273,16.5108624 86.7411846,17.4865043 86.169374,18.3870968 C85.5975634,19.3127057 84.9014461,20.1632653 84.0810222,20.9137591 C83.2605983,21.6892693 82.3158677,22.3396972 81.2468304,22.8900592 C83.0617076,25.3666886 84.8517235,27.8183015 86.6417393,30.2699144 C88.4317552,32.6965109 90.2466323,35.1481238 92.0615095,37.6247531 L86.766046,37.6247531 C86.393126,37.6247531 85.9704834,37.5497038 85.4981181,37.399605 C85.0257528,37.2495063 84.5036648,36.9993417 83.9815769,36.6491113 C83.4594889,36.2988808 82.9125396,35.8736011 82.340729,35.3482554 C81.7689184,34.8229098 81.2219691,34.1474654 80.6998811,33.3719552 L73.9624604,24.2159315 L68.8907488,24.2159315 L68.8907488,37.5997367 L68.9156101,37.5997367 Z M76.2497029,17.3364055 C76.8960975,17.3364055 77.5176307,17.1863068 78.1143027,16.9111257 C78.7109746,16.6359447 79.2330626,16.2606978 79.6557052,15.7853851 C80.1032092,15.3100724 80.4512678,14.7847268 80.6998811,14.1593153 C80.9484945,13.5339039 81.0976624,12.9084924 81.0976624,12.2580645 C81.0976624,11.5826201 80.9733558,10.9321922 80.6998811,10.3317972 C80.4512678,9.70638578 80.1032092,9.18104016 79.6557052,8.70572745 C79.2082013,8.23041475 78.7109746,7.85516787 78.1143027,7.57998683 C77.5176307,7.30480579 76.8960975,7.15470704 76.2497029,7.15470704 L68.9156101,7.15470704 L68.9156101,17.3113891 L76.2497029,17.3113891 L76.2497029,17.3364055 Z" id="Shape"></path>
            </g>
            <g id="Group" transform="translate(202, 47)">
                <polygon id="Path" points="0 6.95457538 0 0.375246873 28.5386029 0.375246873 28.5386029 6.95457538 17.6691176 6.95457538 17.6691176 37.674786 10.8943015 37.674786 10.8943015 6.95457538"></polygon>
                <polygon id="Path" points="57.9457721 37.674786 34.2215074 37.674786 34.2215074 0.400263331 57.9457721 0.400263331 57.9457721 6.92955892 40.9715074 6.92955892 40.9715074 15.6102699 54.7444853 15.6102699 54.7444853 22.1395655 40.9715074 22.1395655 40.9715074 31.1454905 57.9457721 31.1454905"></polygon>
                <path d="M69.1875,19.0125082 C69.1875,20.6886109 69.5101103,22.2646478 70.1553309,23.7656353 C70.8005515,25.2416063 71.6691176,26.5424621 72.7858456,27.6431863 C73.9025735,28.7439105 75.1930147,29.6194865 76.6571691,30.244898 C78.1213235,30.8953259 79.6847426,31.1955234 81.3722426,31.1955234 C82.6626838,31.1955234 83.8786765,30.9953917 85.0202206,30.6201448 C86.1617647,30.2198815 87.2288603,29.6945359 88.1966912,29.0190915 C88.5689338,28.7689269 88.9908088,28.5938117 89.4126838,28.443713 C89.859375,28.2936142 90.3060662,28.2435813 90.8023897,28.2435813 C91.5716912,28.2435813 92.2417279,28.3686636 92.7876838,28.6188282 C93.3336397,28.8689928 93.8299632,29.2192232 94.3014706,29.6695194 L95.8648897,31.2455563 C94.8970588,32.2962475 93.8547794,33.2218565 92.7380515,34.0473996 C91.6213235,34.8729427 90.4549632,35.59842 89.2141544,36.1737986 C87.9733456,36.7741935 86.7077206,37.2244898 85.3924632,37.5246873 C84.0772059,37.8248848 82.7371324,38 81.3474265,38 C78.7417279,38 76.2849265,37.4996708 73.9770221,36.4990125 C71.6691176,35.4983542 69.6838235,34.1474654 67.9466912,32.4213298 C66.234375,30.6951942 64.8694853,28.6938776 63.8768382,26.3923634 C62.8841912,24.0908492 62.3878676,21.6142199 62.3878676,18.9874918 C62.3878676,17.2363397 62.6112132,15.560237 63.0579044,13.9341672 C63.5045956,12.3080974 64.1498162,10.8071099 64.96875,9.40618828 C65.7876838,8.00526662 66.7803309,6.72942725 67.9466912,5.55365372 C69.0882353,4.40289664 70.3786765,3.40223831 71.7683824,2.57669519 C73.1829044,1.75115207 74.671875,1.12574062 76.2849265,0.675444371 C77.8979779,0.225148124 79.5854779,0 81.3226103,0 C82.6875,0 84.0523897,0.150098749 85.3676471,0.475312706 C86.6829044,0.775510204 87.9485294,1.25082291 89.1893382,1.82620145 C90.4301471,2.42659645 91.5965074,3.12705727 92.7132353,3.95260039 C93.8299632,4.77814352 94.8722426,5.72876893 95.8400735,6.75444371 L94.2766544,8.33048058 C93.8299632,8.78077683 93.3088235,9.13100724 92.7380515,9.40618828 C92.1672794,9.68136932 91.5220588,9.80645161 90.8023897,9.80645161 C89.859375,9.80645161 88.9908088,9.53127057 88.1966912,8.98090849 C87.2040441,8.30546412 86.1369485,7.7801185 84.9954044,7.40487163 C83.8538603,7.02962475 82.6378676,6.82949309 81.3722426,6.82949309 C79.7095588,6.82949309 78.1213235,7.15470704 76.6571691,7.7801185 C75.1930147,8.43054641 73.9025735,9.28110599 72.7858456,10.3818302 C71.6691176,11.4825543 70.8005515,12.7834101 70.1553309,14.2343647 C69.5101103,15.7603687 69.1875,17.3364055 69.1875,19.0125082 Z" id="Path"></path>
                <polygon id="Path" points="135 37.674786 128.225184 37.674786 128.225184 22.2146149 110.059743 22.2146149 110.059743 37.674786 103.309743 37.674786 103.309743 0.400263331 110.059743 0.400263331 110.059743 15.6853193 128.225184 15.6853193 128.225184 0.400263331 135 0.400263331"></polygon>
            </g>
            <path d="M345,78 C346.666667,78 348,79.3571429 348,81 C348,82.6666667 346.642857,84 345,84 C343.333333,84 342,82.6666667 342,81 C342,79.3571429 343.333333,78 345,78 Z M345,83.7619048 C346.5,83.7619048 347.738095,82.547619 347.738095,81.0238095 C347.738095,79.5238095 346.5,78.2857143 345,78.2857143 C343.47619,78.2857143 342.261905,79.5238095 342.261905,81.0238095 C342.285714,82.5238095 343.5,83.7619048 345,83.7619048 Z M345.452381,81.3095238 L346.261905,82.452381 C346.285714,82.5238095 346.261905,82.547619 346.190476,82.547619 L345.904762,82.547619 C345.857143,82.547619 345.809524,82.5238095 345.761905,82.4761905 L344.97619,81.3571429 L344.404762,81.3571429 L344.404762,82.4761905 C344.404762,82.5238095 344.380952,82.547619 344.333333,82.547619 L344.047619,82.547619 C343.97619,82.547619 343.97619,82.5238095 343.97619,82.4761905 L343.97619,79.5952381 C343.97619,79.547619 344,79.5238095 344.047619,79.5238095 L345.095238,79.5238095 C345.595238,79.5238095 346.142857,79.7142857 346.142857,80.4285714 C346.119048,80.9285714 345.785714,81.2142857 345.452381,81.3095238 Z M345.071429,80.952381 C345.47619,80.952381 345.690476,80.7619048 345.690476,80.4047619 C345.690476,80.0238095 345.452381,79.8809524 345.047619,79.8809524 L344.404762,79.8809524 L344.404762,80.952381 L345.071429,80.952381 L345.071429,80.952381 Z" id="Shape"></path>
        </g>
    </g>
</svg>