<?xml version="1.0" encoding="UTF-8"?>
<svg id="vistaprint" viewBox="0 0 600 100" version="1.1" xmlns="http://www.w3.org/2000/svg" xmlns:xlink="http://www.w3.org/1999/xlink">
    <g stroke="none" stroke-width="1" fill="none" fill-rule="evenodd">
        <g fill="currentColor" fill-rule="nonzero">
            <path d="M56.8,99.5 L31.8,55.8 L81.8,55.8 L56.8,99.5 Z M56.8,12.1 L81.8,55.8 L31.8,55.8 L56.8,12.1 Z M113.6,0.1 L81.8,55.8 L56.8,12.1 L63.6,0.1 L113.6,0.1 Z M50,0 L50,0.1 L56.8,12 L31.8,55.7 L-1.13686838e-13,0 L50,0 Z" id="Combined-Shape"></path>
            <path d="M591.4,61.5 C589.7,61.5 588.1,62 586.6,62.9 C585.2,63.8 584.1,65.2 583.4,66.7 C582.8,68.3 582.6,70 582.9,71.6 C583.2,73.3 584,74.8 585.2,76 C586.4,77.2 587.9,78 589.6,78.3 C591.3,78.6 593,78.5 594.5,77.8 C596.1,77.2 597.4,76.1 598.3,74.6 C599.2,73.2 599.7,71.5 599.7,69.8 C599.7,67.5 598.8,65.3 597.2,63.7 C595.9,62.4 593.7,61.5 591.4,61.5 Z M591.4,76.9 C590,76.9 588.7,76.5 587.6,75.7 C586.5,74.9 585.6,73.9 585.1,72.6 C584.6,71.3 584.4,70 584.7,68.6 C585,67.3 585.6,66 586.6,65.1 C587.6,64.1 588.8,63.5 590.1,63.2 C591.4,62.9 592.8,63.1 594.1,63.6 C595.4,64.1 596.4,65 597.2,66.1 C598,67.2 598.4,68.6 598.4,69.9 C598.4,71.7 597.7,73.5 596.4,74.7 C595,76.2 593.3,76.9 591.4,76.9 Z M595,68.4 C595,66.8 593.9,65.9 591.9,65.9 L588.3,65.9 L588.3,74.2 L589.7,74.2 L589.7,70.9 L590.8,70.9 L593.4,74.2 L595.1,74.2 L592.3,70.9 C594.1,70.8 595,69.8 595,68.4 Z M589.7,69.8 L589.7,67.3 L591.9,67.3 C593,67.3 593.6,67.8 593.6,68.5 C593.6,69.2 593,69.7 591.9,69.7 L589.7,69.7 L589.7,69.8 Z M157.9,62.5 L144.6,22.7 L128.1,22.7 L148.5,78.4 L165.9,78.4 L186.1,22.7 L171.2,22.7 L157.9,62.5 Z M237.9,43.7 C229.8,42.5 227.1,41.1 227.1,37.6 C227.1,34.1 230,31.9 235,31.9 C237.7,31.9 239.6,32.4 241,33.5 C242.4,34.6 243.3,36.3 243.7,38.6 L257.9,38.6 C256.5,25.8 247.2,21.3 234.9,21.3 C223.5,21.3 212.8,27.1 212.8,38.7 C212.8,49.6 218.6,53.8 233.4,56.1 C241.4,57.3 244.7,58.9 244.7,62.7 C244.7,66.5 241.9,68.8 236,68.8 C232.7,68.8 230.4,68.1 228.8,66.7 C227.3,65.4 226.5,63.4 226.2,60.9 L211.8,60.9 C212.3,72.9 221.1,79.5 236.1,79.5 C250.8,79.5 259.5,73.2 259.5,61.2 C259.5,49.1 251.9,45.8 237.9,43.7 Z M283.4,60.6 L283.4,33.6 L295.1,33.6 L295.1,22.7 L283.4,22.7 L283.4,10.2 L268.1,10.2 L268.1,22.7 L261,22.7 L261,33.6 L268.1,33.6 L268.1,62 C268.1,73.6 274.4,79.5 286,79.5 C289.2,79.5 292.4,79.1 295.4,78 L295.4,66.1 C293.5,66.9 291.6,67.2 289.6,67.2 C285.6,67.2 283.4,65 283.4,60.6 Z M342.6,30.9 C340.2,26.5 334.1,21.4 324,21.4 C308.5,21.4 296.5,33 296.5,50.4 C296.5,66 306.3,79.5 324,79.5 C331.7,79.5 339.1,76.5 342.6,70 L342.6,78.3 L356.7,78.3 L356.7,22.6 L342.6,22.6 L342.6,30.9 Z M343,51.4 C342.8,54.2 341.9,56.9 340.3,59.3 C337.9,63.1 333.7,66.2 326.9,66.2 C315.3,66.2 310.9,56.4 310.9,50.7 L310.9,50.6 C310.9,43.6 315.8,34.7 326.8,34.7 C334.9,34.7 339.3,39 341.4,43.3 C342.6,45.8 343.2,48.6 343,51.4 L343,51.4 Z M206.7,22.6 L191.5,22.6 L191.5,78.3 L206.8,78.3 L206.8,22.6 L206.7,22.6 Z M198.2,0.1 C196.6,0.3 195.1,0.9 193.8,1.9 C192.5,2.9 191.6,4.2 191,5.8 C190.5,7.3 190.4,9 190.7,10.6 C191.1,12.2 191.9,13.6 193,14.8 C194.1,15.9 195.6,16.7 197.2,17.1 C198.8,17.5 200.4,17.4 202,16.8 C203.5,16.3 204.9,15.3 205.9,14 C206.9,12.7 207.5,11.2 207.7,9.6 C207.8,8.3 207.7,7.1 207.2,5.9 C206.8,4.7 206.1,3.6 205.2,2.7 C204.3,1.8 203.2,1.1 202,0.7 C200.7,0.2 199.4,2.60264033e-13 198.2,0.1 Z M436.2,22.1 L445.1,22.1 L445.1,32.1 C448.6,25.8 453.4,21.4 463.4,21.1 L463.4,29.5 C452.2,30 445.1,33.6 445.1,47.3 L445.1,77.9 L436.2,77.9 L436.2,22.1 Z M469.8,8.7 C469.8,7.5 470.1,6.4 470.8,5.4 C471.4,4.4 472.4,3.7 473.4,3.2 C474.5,2.8 475.7,2.6 476.8,2.9 C477.9,3.1 479,3.7 479.8,4.5 C480.6,5.3 481.2,6.4 481.4,7.5 C481.6,8.6 481.5,9.8 481.1,10.9 C480.7,12 479.9,12.9 478.9,13.5 C477.9,14.1 476.8,14.5 475.6,14.5 C474,14.5 472.6,13.9 471.5,12.8 C470.5,11.7 469.9,10.2 469.8,8.7 Z M471.5,22.1 L480.4,22.1 L480.4,77.9 L471.5,77.9 L471.5,22.1 Z M493.3,22.1 L502.2,22.1 L502.2,31 C504.8,25.8 510.9,21.2 520.1,21.2 C531.6,21.2 539.7,27.5 539.7,43.7 L539.7,77.9 L530.9,77.9 L530.9,43 C530.9,33.2 526.7,28.8 517.8,28.8 C509.6,28.8 502.2,34 502.2,44.1 L502.2,77.9 L493.3,77.9 L493.3,22.1 Z M552.1,63.9 L552.1,29.6 L544.1,29.6 L544.1,22.1 L552.1,22.1 L552.1,9.4 L561,9.4 L561,22.1 L574,22.1 L574,29.6 L561,29.6 L561,63.1 C561,68.5 563.4,71.3 567.9,71.3 C570.2,71.3 572.5,70.9 574.7,70.1 L574.7,77.6 C572.3,78.4 569.7,78.8 567.1,78.8 C557,78.6 552.1,72.7 552.1,63.9 Z M380.7,22.1 L380.7,30.7 C385.8,24.7 392.3,21.1 400.4,21.1 C417.9,21.1 429.2,33.2 429.2,50.1 C429.2,66.8 417.5,78.7 401.8,78.7 C391.8,78.7 384.1,74.6 380.6,68.3 L380.6,99.5 L371.8,99.5 L371.8,22.1 L380.7,22.1 L380.7,22.1 Z M400.4,71.2 C412.4,71.2 420.1,62.2 420.1,50.6 C420.1,37.7 412.4,28.5 400.4,28.5 C388.4,28.5 380.5,37.9 380.5,50.6 C380.6,62.3 388.4,71.2 400.4,71.2 Z" id="Shape"></path>
        </g>
    </g>
</svg>