<?xml version="1.0" encoding="UTF-8"?>
<svg id="walmart" viewBox="0 0 648 154" version="1.1" xmlns="http://www.w3.org/2000/svg" xmlns:xlink="http://www.w3.org/1999/xlink">
    <g stroke="none" stroke-width="1" fill="none" fill-rule="evenodd">
        <g transform="translate(0, 0)" fill="currentColor" fill-rule="nonzero">
            <path d="M569.482285,51.8425094 C573.0857,51.8425094 576.051698,49.9663454 576.452237,47.5424277 L580.009712,7.25162555 C580.009712,3.26926973 575.351114,0 569.49377,0 C563.642169,0 558.987878,3.26926973 558.987878,7.25234439 L562.543199,47.5424277 C562.934407,49.9656265 565.900405,51.8425094 569.494488,51.8425094 L569.482285,51.8425094 M547.737614,64.4271851 C549.545064,61.3059958 549.40868,57.7980722 547.503608,56.239634 L514.434021,33.0089855 C510.995703,31.0149322 505.840379,33.4151282 502.914579,38.4965855 C499.978729,43.5715733 500.499142,49.2396014 503.928129,51.2343735 L540.545859,68.3081849 C542.83496,69.15785 545.956006,67.5224963 547.749099,64.4034635 L547.737614,64.4271851 M591.246337,64.40562 C593.050915,67.5246528 596.156169,69.1607254 598.447424,68.3103414 L635.065154,51.23653 C638.515675,49.2424767 639.00594,43.5737298 636.097367,38.498742 C633.15721,33.4223166 627.992555,31.0170887 624.563568,33.011142 L591.491828,56.2417906 C589.601112,57.7980722 589.460421,61.3088711 591.257822,64.4293416 L591.246337,64.40562 M569.482285,102.171867 C573.0857,102.171867 576.051698,104.032217 576.452237,106.458291 L580.009712,146.743343 C580.009712,150.737919 575.351114,154 569.49377,154 C563.642169,154 558.987878,150.737919 558.987878,146.743343 L562.543199,106.458291 C562.934407,104.032217 565.900405,102.171867 569.494488,102.171867 L569.482285,102.171867 M591.246337,89.5843163 C593.050915,86.4566574 596.156169,84.8349616 598.447424,85.6946904 L635.065154,102.757 C638.515675,104.75321 639.00594,110.426989 636.097367,115.50629 C633.15721,120.566182 627.992555,122.977879 624.563568,120.986702 L591.491828,97.777618 C589.601112,96.2091162 589.460421,92.6961608 591.257822,89.5778468 L591.243466,89.5778468 M547.737614,89.5800033 C549.545064,92.6961608 549.40868,96.2091162 547.503608,97.7804934 L514.434021,120.988858 C510.995703,122.980036 505.840379,120.568339 502.914579,115.508446 C499.978729,110.429146 500.499142,104.755367 503.928129,102.759157 L540.545859,85.6968469 C542.83496,84.8371181 545.956006,86.4588139 547.749099,89.5871916 L547.737614,89.5871916" id="Shape"></path>
            <path d="M360.213511,97.4707999 C360.213511,98.7087189 360.103532,99.9855028 359.764971,101.106827 C358.360408,105.764137 353.544354,109.702447 347.519255,109.702447 C342.495464,109.702447 338.505328,106.845157 338.505328,100.810302 C338.505328,91.5741312 348.658576,89.0234423 360.216386,89.0874974 L360.213511,97.4700802 L360.213511,97.4707999 Z M378.342,81.3749743 C378.342,66.1449722 371.842484,52.7437796 349.881278,52.7437796 C338.608118,52.7437796 329.66104,55.9141476 324.777418,58.7397697 L328.354236,70.9836521 C332.817353,68.1623483 339.930736,65.8268559 346.662429,65.8268559 C357.80189,65.7959079 359.62624,72.1431215 359.62624,76.2052231 L359.62624,77.1667695 C335.343984,77.1307835 319.99443,85.5493523 319.99443,102.698848 C319.99443,113.177977 327.812251,122.992803 341.402148,122.992803 C349.75261,122.992803 356.746671,119.65546 360.932325,114.304339 L361.345643,114.304339 C361.345643,114.304339 364.115233,125.922065 379.405126,121.477072 C378.607242,116.645589 378.344875,111.488073 378.344875,105.286243 L378.342719,81.3749743 M0,32.0028789 C0,32.0028789 15.8678191,97.1044623 18.4016385,107.669957 C21.3574016,120.002365 26.6845322,124.542361 42.0362429,121.477072 L51.9436563,81.1165947 C54.4559112,71.0865721 56.1372172,63.9354308 57.7559863,53.7427514 L58.0377614,53.7427514 C59.1742063,64.0433889 60.7865061,71.11752 62.8538152,81.1497018 C62.8538152,81.1497018 66.8849241,99.4737816 68.952952,109.095003 C71.0231363,118.713346 76.7851494,124.779149 91.824176,121.477072 L115.432903,32 L96.3771439,32 L88.3134884,70.6871273 C86.1455453,81.9435534 84.1803079,90.7493317 82.6636103,101.044931 L82.3940551,101.044931 C81.0160886,90.8400165 79.2614636,82.3933786 77.0597363,71.4234012 L68.6711769,32 L48.8132213,32 L39.8352344,70.4294674 C37.2942269,82.1105285 34.9113585,91.5388649 33.4018491,101.491877 L33.1272621,101.491877 C31.5774991,92.1196792 29.514503,80.2651655 27.2818667,68.9633971 C27.2818667,68.9633971 21.9518608,41.4751182 20.0771939,32 L0,32.0028789 M151.47855,97.4707999 C151.47855,98.7087189 151.368571,99.9855028 151.024978,101.106827 C149.623291,105.764137 144.804362,109.702447 138.779263,109.702447 C133.754753,109.702447 129.770367,106.845157 129.770367,100.810302 C129.770367,91.5741312 139.92074,89.0234423 151.480706,89.0874974 L151.47855,97.4700802 L151.47855,97.4707999 Z M169.604883,81.3749743 C169.604883,66.1449722 163.105367,52.7437796 141.148474,52.7437796 C129.872439,52.7437796 120.918173,55.9141476 116.037426,58.7397697 L119.609931,70.9836521 C124.072329,68.1623483 131.185712,65.8268559 137.919562,65.8268559 C149.066929,65.7959079 150.891279,72.1431215 150.891279,76.2052231 L150.891279,77.1667695 C126.59896,77.1307835 111.256594,85.5493523 111.256594,102.698848 C111.256594,113.177977 119.070102,122.992803 132.649936,122.992803 C141.011899,122.992803 148.001647,119.65546 152.192332,114.304339 L152.600619,114.304339 C152.600619,114.304339 155.378116,125.922065 170.664415,121.477072 C169.865093,116.645589 169.604883,111.488073 169.604883,105.286243 L169.604883,81.3749743 M199.856889,102.483652 L199.856889,32.0028789 L181.706835,32.0028789 L181.706835,121.479951 L199.856889,121.479951 L199.856889,102.483652 M437.292655,32.0028789 L437.292655,98.008431 C437.292655,107.112893 439.007026,113.484577 442.662196,117.384022 C445.865231,120.793337 451.127668,123 457.438855,123 C462.806958,123 468.08449,121.974399 470.575181,121.049558 L470.340848,106.852355 C468.487745,107.305778 466.360056,107.672836 463.447421,107.672836 C457.262746,107.672836 455.194718,103.705737 455.194718,95.5361917 L455.194718,70.281205 L471,70.281205 L471,53.1590582 L455.194718,53.1590582 L455.194718,32.0028789 L437.292655,32.0028789 M390.444671,54.2616698 L390.444671,121.479951 L409.167619,121.479951 L409.167619,87.0629241 C409.167619,85.202447 409.279754,83.5816368 409.573749,82.099013 C410.958904,74.8859757 416.465019,70.281205 424.37413,70.281205 C426.542073,70.281205 428.093992,70.5172733 429.775298,70.7562204 L429.775298,53.1590582 C428.364266,52.8776475 427.406806,52.7459387 425.651462,52.7459387 C418.66459,52.7459387 410.715226,57.2600247 407.37921,66.9431421 L406.873165,66.9431421 L406.873165,54.2616698 L390.444671,54.2616698 M212.56552,54.2616698 L212.56552,121.479951 L230.806863,121.479951 L230.806863,82.0630269 C230.806863,80.2133457 231.023945,78.2571458 231.66369,76.5614847 C233.175356,72.5929467 236.864309,67.9449928 242.750677,67.9449928 C250.114926,67.9449928 253.553732,74.1756118 253.553732,83.1677977 L253.553732,121.474913 L271.780699,121.474913 L271.780699,81.5779354 C271.780699,79.8131812 272.021502,77.6856878 272.542642,76.1296525 C274.039213,71.6126876 278.012817,67.9399548 283.485866,67.9399548 C290.947875,67.9399548 294.529725,74.0611762 294.529725,84.6453835 L294.529725,121.472753 L312.768911,121.472753 L312.768911,81.8809377 C312.768911,61.0040099 302.180781,52.7394612 290.226904,52.7394612 C284.937871,52.7394612 280.758686,54.0659058 276.979162,56.3848447 C273.805598,58.3424841 270.959095,61.1162862 268.475592,64.7623895 L268.206037,64.7623895 C265.323593,57.5184043 258.541583,52.7430598 249.703765,52.7430598 C238.350098,52.7430598 233.247237,58.5058606 230.152024,63.3927617 L229.880312,63.3927617 L229.880312,54.2595106 L212.56552,54.2595106" id="Shape"></path>
            <path d="M644.117773,118.305433 L644.391149,118.305433 C644.753747,118.305433 644.986438,118.151248 644.986438,117.922173 C644.986438,117.661527 644.768023,117.519824 644.431121,117.519824 C644.315489,117.519824 644.197002,117.544053 644.118487,117.544053 L644.118487,118.312041 L644.118487,118.304699 L644.117773,118.305433 Z M644.07566,120.154185 L643.112777,120.154185 L643.112777,116.927313 C643.331192,116.88326 643.840828,116.804699 644.493219,116.804699 C645.201999,116.804699 645.519629,116.907489 645.75232,117.069016 C645.948608,117.209985 646.091363,117.450808 646.091363,117.776065 C646.091363,118.107195 645.795146,118.387665 645.358315,118.510279 L645.358315,118.551395 C645.71449,118.649046 645.908637,118.914831 646.010707,119.381057 C646.10778,119.846549 646.167737,120.036711 646.228408,120.156388 L645.137759,120.156388 C645.042827,120.036711 644.986438,119.751101 644.922198,119.466226 C644.860814,119.139501 644.710921,118.975771 644.389008,118.975771 L644.073519,118.975771 L644.07566,120.154185 L644.07566,120.154185 Z M644.473947,115.875918 C643.091363,115.875918 642.048537,117.034508 642.048537,118.511747 C642.048537,119.950808 643.094218,121.124816 644.511777,121.124816 C645.935046,121.149046 646.980728,119.951542 646.980728,118.488253 C646.980728,117.031571 645.935046,115.875918 644.49536,115.875918 L644.473947,115.875918 Z M644.536046,115 C646.463241,115 648,116.56094 648,118.487518 C648,120.436858 646.463241,122 644.509636,122 C642.556031,122 641,120.434655 641,118.488253 C641,116.56094 642.558173,115.000734 644.509636,115.000734 L644.531049,115.000734" id="Shape"></path>
        </g>
    </g>
</svg>