<?xml version="1.0" encoding="UTF-8"?>
<svg id="yale" viewBox="0 0 574 91" version="1.1" xmlns="http://www.w3.org/2000/svg" xmlns:xlink="http://www.w3.org/1999/xlink">
    <g stroke="none" stroke-width="1" fill="none" fill-rule="evenodd">
        <g fill="currentColor" fill-rule="nonzero">
            <path d="M61,9.04724409 C56.5444159,8.9488189 52.4529525,11.515748 50.5853659,15.5826772 L34.9242619,41.3700787 L34.9242619,59.7165354 C36.8818999,64.1653543 41.1887035,64.6377953 45.5346598,64.8346457 L45.5346598,67 L15.7002567,67 L15.7002567,65.0314961 C20.0462131,64.8346457 25.2143774,64.0866142 26.6238768,61.0944882 L26.6238768,42.2362205 L10.4537869,15.503937 C8.51572529,11.488189 4.4360077,8.96850394 0,9.04724409 L0,7 L25.9582798,7 L25.9582798,9.04724409 C23.1353659,8.9015748 20.3555199,9.77952756 18.1277279,11.5275591 L32.9666239,36.8425197 L47.6489089,11.7244094 C45.4485237,9.90551181 42.6647625,8.95669291 39.8183569,9.04724409 L39.8183569,7 L61,7 L61,9.04724409 Z" id="Path"></path>
            <path d="M94,61.7809439 C91.4151893,64.5035882 88.0132956,66.3251576 84.2971392,66.985428 C80.7734687,67.12525 77.7526186,64.51524 77.4226427,61.0429946 C74.2564461,64.3521144 70.0178279,66.4533278 65.4413774,66.985428 C63.0490526,67.121366 60.7038672,66.301854 58.928283,64.7094372 C57.1566271,63.1170204 56.103847,60.883753 56.0134965,58.5184314 C55.895648,55.807439 56.5516714,53.1158662 57.8990727,50.7505447 L77.5404912,43.9536437 L77.5404912,37.4286188 C77.6701246,32.8844051 74.2564461,29.0004617 69.6839238,28.495549 C67.0519737,28.495549 64.7735692,31.7580615 64.6164378,36.2634358 L56.7598704,37.6616554 L56.7598704,36.6518302 C59.3918205,28.8839434 69.4875096,25 73.6514904,25 C82.2151489,25 85.0435131,29.5053743 84.9649475,36.6518302 L84.5721191,56.8094963 C84.5721191,60.6934397 86.5755438,61.8586228 88.5004028,61.8586228 C90.5352538,61.7149168 92.4601128,60.8954048 93.9607172,59.5282567 L94,61.7809439 Z M77.2262285,46.2451703 C74.7906926,47.3326745 67.6019334,50.1291137 64.8914177,51.5661728 C64.4514499,53.333367 64.2275377,55.1471686 64.2236095,56.9648541 C64.0900478,58.2387875 64.4789479,59.508837 65.2960309,60.4992426 C66.1131139,61.4896481 67.2955273,62.118847 68.5840044,62.2470171 C71.6912768,62.3285799 74.7160553,61.2604955 77.0690972,59.2563807 L77.2262285,46.2451703 Z" id="Shape"></path>
            <path d="M115.920455,67 L95,67 L95,65.0294118 C99.5738636,64.7141176 100.727273,63.7682353 101.482955,62.1917647 L101.482955,11.2717647 C101.482955,8.04 101.681818,6.73941176 95.0795455,6.06941176 L95.0795455,4.25647059 L109.397727,0 L110.909091,0 L110.909091,1.34 L109.119318,4.57176471 L109.119318,61.9947059 C110.073864,63.8864706 111.227273,64.3594118 116,64.8323529 L115.920455,67 Z" id="Path"></path>
            <path d="M155,58.6777778 C149.225589,63.9277778 144.904602,67 137.166105,67 C127.463524,67 120,59.2222222 120,47.9444444 C120,34.2166667 128.327722,25 139.640853,25 C149.147026,25 153.585859,29.9388889 153.585859,38.8055556 L153.585859,40.4 L127.856341,40.2055556 C127.856341,41.0611111 127.856341,43.0833333 127.856341,45.2611111 C127.856341,55.0611111 134.455668,61.5944444 142.272727,61.5944444 C146.613356,61.645 150.753648,59.7977778 153.585859,56.5388889 L155,58.6777778 Z M146.043771,37.4833333 C146.306958,32.7427778 142.920875,28.5661111 138.18743,27.8 C133.198653,27.8 129.506173,31.6888889 128.484848,37.6777778 L146.043771,37.4833333 Z" id="Shape"></path>
            <path d="M247,8.99295324 C243.58107,8.93824471 240.331511,10.4700833 238.216343,13.1351698 L238.216343,43.1467008 C238.216343,60.4189622 227.542034,68 212.889477,68 C198.236919,68 188.783657,59.5592569 188.783657,45.0224215 L188.783657,12.5880846 C186.534568,10.1770019 183.296825,8.92652146 180,9.18834081 L180,7.15631006 L206.469136,7.15631006 L206.469136,9.18834081 C202.097002,9.18834081 198.315697,10.7123639 197.37037,12.5880846 L197.37037,43.615631 C197.37037,55.5342729 203.711934,62.4900705 215.05585,62.4900705 C226.872428,62.4900705 233.017049,55.2607303 233.017049,41.7399103 L233.017049,29.3914158 C233.017049,24.2331839 232.623163,16.0659833 232.544386,13.1742473 C229.728101,10.489622 225.970429,9.00467649 222.067019,9.03203075 L222.067019,7 L247,7 L247,8.99295324 Z" id="Path"></path>
            <path d="M297,67 L275.742739,67 L275.742739,64.7083725 C280.26722,64.3527752 280.813278,63.4835372 281.476349,61.8635936 L281.476349,39.7770461 C281.605062,37.3392286 280.750871,34.9567262 279.108797,33.1708373 C277.470622,31.3809972 275.184979,30.3458137 272.778423,30.2944497 C269.443568,30.6737535 266.217925,31.7326435 263.300415,33.4158043 L263.300415,61.9821261 C264.353527,63.8786453 264.821577,64.3527752 269.502075,64.826905 L269.502075,67 L250,67 L250,65.0244591 C254.60249,64.7083725 255.226556,63.7601129 256.084647,62.1796802 L256.084647,36.3791157 C256.084647,34.4430856 254.60249,32.4280339 250.195021,31.1241769 L250.195021,29.4647225 L262.364315,25 L263.378423,25 L263.378423,31.7168391 C267.707884,28.3821261 272.739419,26.1063029 278.082988,25.0790216 C286.585892,25.0790216 289.121162,30.2944497 289.121162,37.9990593 L289.121162,62.65381 C291.492614,64.0208843 294.195602,64.6767639 296.921992,64.5503293 L297,67 Z" id="Path"></path>
            <path d="M320,67 L300,67 L300,64.724357 C304.59725,64.37124 305.383104,63.508065 306.32613,61.8994208 L306.32613,36.2788192 C306.32613,34.1208819 305.108055,32.3552968 300.275049,31.2174752 L300.275049,29.4911254 L312.455796,25.0967802 L313.595285,25.0967802 L313.595285,61.8994208 C314.616896,63.7827116 315.206287,64.2535343 319.921415,64.724357 L320,67 Z M309.705305,13.3262129 C307.013752,13.3732951 304.766208,11.2977518 304.59725,8.61798593 C304.829077,6.00491997 307.021611,4 309.646365,4 C312.27112,4 314.463654,6.00491997 314.695481,8.61798593 C314.550098,11.2624401 312.357564,13.3301364 309.705305,13.3262129 Z" id="Shape"></path>
            <path d="M366,28.1496663 C362.791304,28.2981888 359.997391,30.3892278 358.956522,33.4261201 L345.065217,66.257388 L341.504348,67 L328.16087,32.3708294 C326.947826,29.5567207 324.052174,27.8487131 321,28.1496663 L321,26 L341.386957,26 L341.386957,28.1496663 C339.266087,28.1692088 337.188261,28.7515729 335.36087,29.8303146 L345.886957,57.5414681 L355.865217,31.4327931 C354.264783,29.2753098 351.701739,28.0480458 349.017391,28.1496663 L349.017391,26 L366,26 L366,28.1496663 Z" id="Path"></path>
            <path d="M403,58.6777778 C397.225589,63.9277778 392.904602,67 385.166105,67 C375.463524,67 368,59.2222222 368,47.9444444 C368,34.2166667 376.327722,25 387.640853,25 C397.147026,25 401.585859,29.9388889 401.585859,38.8055556 L401.585859,40.4 L375.856341,40.2055556 C375.769921,41.8894444 375.769921,43.5772222 375.856341,45.2611111 C375.856341,55.0611111 382.455668,61.5944444 390.272727,61.5944444 C394.652637,61.68 398.843996,59.8288889 401.703704,56.5388889 L403,58.6777778 Z M394.043771,37.4833333 C394.306958,32.7427778 390.920875,28.5661111 386.18743,27.8 C381.198653,27.8 377.506173,31.6888889 376.484848,37.6777778 L394.043771,37.4833333 Z" id="Shape"></path>
            <path d="M435.520408,34.9172154 L434.571429,34.9172154 C432.361097,33.3604892 429.759311,32.4438382 427.058673,32.2699906 C424.607143,32.2699906 423.579082,33.6923801 421.364796,35.7074318 L421.364796,61.6660395 C422.432398,63.5625588 426.030612,64.0366886 430.103316,64.6293509 L430.103316,67 L408,67 L408,64.7083725 C412.665816,64.3527752 413.140306,63.4835372 413.970663,61.8635936 L413.970663,35.7864534 C413.970663,33.8899341 412.744898,32.2699906 408,31.1241769 L408,29.4647225 L419.862245,25 L420.811224,25 L420.811224,34.0084666 C425.081633,29.4647225 428.719388,25.4741298 432.278061,25.4741298 C434.63074,25.5492004 436.932015,26.1734713 439,27.2916275 L435.520408,34.9172154 Z" id="Path"></path>
            <path d="M456.368932,67.981502 C451.813592,68.1442206 447.281553,67.2314094 443.126214,65.3224433 L442,54.7258957 L444.330097,54.7258957 C447.242718,60.2424504 451.592233,65.1240061 453.572816,65.1240061 C461.339806,65.1240061 463.165049,61.3933863 463.165049,57.8612038 C463.165049,54.3290212 459.902913,51.7890248 454.699029,49.5665279 C446.932039,46.351845 443.048544,43.494349 443.048544,36.9062333 C443.048544,30.3181175 449.378641,25 457.61165,25 C461.506796,25.0079375 465.347573,25.8889987 468.873786,27.5796839 L469.339806,37.6602947 L467.281553,37.6602947 C464.485437,32.14374 460.757282,27.6590588 458.621359,27.6590588 C451.087379,27.6590588 449.961165,31.6278032 449.961165,34.2471745 C449.961165,38.2159189 451.553398,40.2399786 458.621359,43.1768494 C465.68932,46.1137203 470,48.8918414 470,55.0830827 C469.867961,58.6430464 468.357282,62.0006042 465.801942,64.4215383 C463.242718,66.8385037 459.852427,68.1204081 456.368932,67.981502 Z" id="Path"></path>
            <path d="M497,67 L477,67 L477,64.724357 C481.636542,64.37124 482.383104,63.508065 483.32613,61.8994208 L483.32613,36.2788192 C483.32613,34.1208819 482.108055,32.3552968 477.314342,31.2174752 L477.314342,29.4911254 L489.455796,25.0967802 L490.595285,25.0967802 L490.595285,61.8994208 C491.656189,63.7827116 492.206287,64.2535343 496.921415,64.724357 L497,67 Z M486.705305,13.3262129 C484.02947,13.3536775 481.805501,11.2820577 481.636542,8.61798593 C481.868369,6.00491997 484.060904,4 486.685658,4 C489.310413,4 491.502947,6.00491997 491.734774,8.61798593 C491.569745,11.2702871 489.365422,13.3301364 486.705305,13.3262129 Z" id="Shape"></path>
            <path d="M528.922636,62.3506698 C525.530229,64.927502 521.522779,66.535067 517.318052,67 C508.885387,67 506.37106,62.3506698 506.37106,54.785658 C506.37106,45.8022065 506.951289,39.0252167 507.106017,30.1205674 L502,30.1205674 L502,28.1505122 L513.217765,17 L514.416905,17 L514.416905,25.786446 L528.226361,25.786446 L528.226361,30.2387707 L514.494269,30.2387707 C514.30086,39.8132388 514.146132,45.2111899 514.146132,53.6036249 C513.902436,56.0031521 514.74957,58.3829787 516.44384,60.0654058 C518.141977,61.7478329 520.501576,62.5476753 522.84957,62.2324665 C524.980946,62.0039401 527.058166,61.4208038 529,60.498818 L528.922636,62.3506698 Z" id="Path"></path>
            <path d="M574,28.1677762 C570.688158,28.2347802 567.771053,30.3631423 566.697368,33.4886814 L554.855263,62.6945387 C551.421053,71.207987 547.473684,82.401595 545.263158,87.4860155 C544.418421,89.6143776 542.346053,91.0096372 540.052632,90.9938715 C538.856579,91.0569341 537.688158,90.6312617 536.815789,89.8114482 C535.943421,88.995576 535.442105,87.8525668 535.434211,86.6583192 C535.418421,85.4601301 535.911842,84.3131795 536.792105,83.5012487 C537.672368,82.689318 538.860526,82.2912355 540.052632,82.401595 C541.134211,82.5119545 542.196053,82.7642048 543.210526,83.1504631 L549.368421,68.2913427 L535.789474,32.4245003 C534.751316,29.6379226 531.968421,27.8918774 529,28.1677762 L529,26 L549.447368,26 L549.447368,28.1677762 C547.256579,28.1874832 545.109211,28.7708121 543.210526,29.862583 L553.789474,58.2801581 L563.578947,31.4785616 C562.122368,29.2674299 559.592105,28.0022369 556.947368,28.1677762 L556.947368,26 L574,26 L574,28.1677762 Z" id="Path"></path>
        </g>
    </g>
</svg>